<?xml version="1.0" encoding="UTF-8" standalone="no"?>
<!DOCTYPE svg PUBLIC "-//W3C//DTD SVG 1.1//EN"
 "http://www.w3.org/Graphics/SVG/1.1/DTD/svg11.dtd">
<!-- Generated by graphviz version 2.43.0 (0)
 -->
<!-- Title: %3 Pages: 1 -->
<svg width="935pt" height="340pt"
 viewBox="0.00 0.00 935.00 340.00" xmlns="http://www.w3.org/2000/svg" xmlns:xlink="http://www.w3.org/1999/xlink">
<g id="graph0" class="graph" transform="scale(1 1) rotate(0) translate(4 336)">
<title>%3</title>
<polygon fill="#ffffff" stroke="transparent" points="-4,4 -4,-336 931,-336 931,4 -4,4"/>
<!-- X1 -->
<g id="node1" class="node">
<title>X1</title>
<polygon fill="#ffffff" stroke="black" points="136,-296.5 0,-296.5 0,-43.5 136,-43.5 136,-296.5"/>
<polygon fill="none" stroke="black" points="0,-273 0,-296 136,-296 136,-273 0,-273"/>
<text text-anchor="start" x="59.5" y="-280.8" font-family="arial" font-size="14.00">X1</text>
<polygon fill="none" stroke="black" points="0,-250 0,-273 47,-273 47,-250 0,-250"/>
<text text-anchor="start" x="4" y="-257.8" font-family="arial" font-size="14.00">D&#45;Sub</text>
<polygon fill="none" stroke="black" points="47,-250 47,-273 97,-273 97,-250 47,-250"/>
<text text-anchor="start" x="51" y="-257.8" font-family="arial" font-size="14.00">female</text>
<polygon fill="none" stroke="black" points="97,-250 97,-273 136,-273 136,-250 97,-250"/>
<text text-anchor="start" x="101" y="-257.8" font-family="arial" font-size="14.00">9&#45;pin</text>
<polygon fill="none" stroke="black" points="0,-227 0,-250 84,-250 84,-227 0,-227"/>
<text text-anchor="start" x="25.5" y="-234.8" font-family="arial" font-size="14.00">+12V</text>
<polygon fill="none" stroke="black" points="84,-227 84,-250 136,-250 136,-227 84,-227"/>
<text text-anchor="start" x="106" y="-234.8" font-family="arial" font-size="14.00">1</text>
<polygon fill="none" stroke="black" points="0,-204 0,-227 84,-227 84,-204 0,-204"/>
<text text-anchor="start" x="29" y="-211.8" font-family="arial" font-size="14.00">TX+</text>
<polygon fill="none" stroke="black" points="84,-204 84,-227 136,-227 136,-204 84,-204"/>
<text text-anchor="start" x="106" y="-211.8" font-family="arial" font-size="14.00">2</text>
<polygon fill="none" stroke="black" points="0,-181 0,-204 84,-204 84,-181 0,-181"/>
<text text-anchor="start" x="26.5" y="-188.8" font-family="arial" font-size="14.00">GND</text>
<polygon fill="none" stroke="black" points="84,-181 84,-204 136,-204 136,-181 84,-181"/>
<text text-anchor="start" x="106" y="-188.8" font-family="arial" font-size="14.00">3</text>
<polygon fill="none" stroke="black" points="0,-158 0,-181 84,-181 84,-158 0,-158"/>
<text text-anchor="start" x="34.5" y="-165.8" font-family="arial" font-size="14.00">R&#45;</text>
<polygon fill="none" stroke="black" points="84,-158 84,-181 136,-181 136,-158 84,-158"/>
<text text-anchor="start" x="106" y="-165.8" font-family="arial" font-size="14.00">4</text>
<polygon fill="none" stroke="black" points="0,-135 0,-158 84,-158 84,-135 0,-135"/>
<text text-anchor="start" x="32.5" y="-142.8" font-family="arial" font-size="14.00">R+</text>
<polygon fill="none" stroke="black" points="84,-135 84,-158 136,-158 136,-135 84,-135"/>
<text text-anchor="start" x="106" y="-142.8" font-family="arial" font-size="14.00">5</text>
<polygon fill="none" stroke="black" points="0,-112 0,-135 84,-135 84,-112 0,-112"/>
<text text-anchor="start" x="22" y="-119.8" font-family="arial" font-size="14.00">MUTE</text>
<polygon fill="none" stroke="black" points="84,-112 84,-135 136,-135 136,-112 84,-112"/>
<text text-anchor="start" x="106" y="-119.8" font-family="arial" font-size="14.00">6</text>
<polygon fill="none" stroke="black" points="0,-89 0,-112 84,-112 84,-89 0,-89"/>
<text text-anchor="start" x="31" y="-96.8" font-family="arial" font-size="14.00">TX&#45;</text>
<polygon fill="none" stroke="black" points="84,-89 84,-112 136,-112 136,-89 84,-89"/>
<text text-anchor="start" x="106" y="-96.8" font-family="arial" font-size="14.00">7</text>
<polygon fill="none" stroke="black" points="0,-66 0,-89 84,-89 84,-66 0,-66"/>
<text text-anchor="start" x="35.5" y="-73.8" font-family="arial" font-size="14.00">L&#45;</text>
<polygon fill="none" stroke="black" points="84,-66 84,-89 136,-89 136,-66 84,-66"/>
<text text-anchor="start" x="106" y="-73.8" font-family="arial" font-size="14.00">8</text>
<polygon fill="none" stroke="black" points="0,-43 0,-66 84,-66 84,-43 0,-43"/>
<text text-anchor="start" x="34" y="-50.8" font-family="arial" font-size="14.00">L+</text>
<polygon fill="none" stroke="black" points="84,-43 84,-66 136,-66 136,-43 84,-43"/>
<text text-anchor="start" x="106" y="-50.8" font-family="arial" font-size="14.00">9</text>
</g>
<!-- W1 -->
<g id="node3" class="node">
<title>W1</title>
<polygon fill="#ffffff" stroke="black" points="637,-332 280,-332 280,0 637,0 637,-332"/>
<polygon fill="none" stroke="black" points="280.5,-309 280.5,-332 637.5,-332 637.5,-309 280.5,-309"/>
<text text-anchor="start" x="448" y="-316.8" font-family="arial" font-size="14.00">W1</text>
<polygon fill="none" stroke="black" points="280.5,-286 280.5,-309 382.5,-309 382.5,-286 280.5,-286"/>
<text text-anchor="start" x="324" y="-293.8" font-family="arial" font-size="14.00">9x</text>
<polygon fill="none" stroke="black" points="382.5,-286 382.5,-309 520.5,-309 520.5,-286 382.5,-286"/>
<text text-anchor="start" x="425.5" y="-293.8" font-family="arial" font-size="14.00">24 AWG</text>
<polygon fill="none" stroke="black" points="520.5,-286 520.5,-309 637.5,-309 637.5,-286 520.5,-286"/>
<text text-anchor="start" x="563.5" y="-293.8" font-family="arial" font-size="14.00">1.5 ft</text>
<text text-anchor="start" x="338.5" y="-272.8" font-family="arial" font-size="14.00"> </text>
<text text-anchor="start" x="308.5" y="-253.8" font-family="arial" font-size="14.00">X1:1:+12V</text>
<text text-anchor="start" x="427" y="-253.8" font-family="arial" font-size="14.00"> &#160;&#160;&#160;&#160;1:RD &#160;&#160;&#160;</text>
<text text-anchor="start" x="546" y="-253.8" font-family="arial" font-size="14.00">Y1:5:+12V</text>
<polygon fill="#000000" stroke="transparent" points="280.5,-246 280.5,-248 637.5,-248 637.5,-246 280.5,-246"/>
<polygon fill="#ff0000" stroke="transparent" points="280.5,-244 280.5,-246 637.5,-246 637.5,-244 280.5,-244"/>
<polygon fill="#000000" stroke="transparent" points="280.5,-242 280.5,-244 637.5,-244 637.5,-242 280.5,-242"/>
<text text-anchor="start" x="311.5" y="-228.8" font-family="arial" font-size="14.00">X1:2:TX+</text>
<text text-anchor="start" x="425" y="-228.8" font-family="arial" font-size="14.00"> &#160;&#160;&#160;&#160;2:WH &#160;&#160;&#160;</text>
<text text-anchor="start" x="545.5" y="-228.8" font-family="arial" font-size="14.00">Y1:10:TX+</text>
<polygon fill="#000000" stroke="transparent" points="280.5,-221 280.5,-223 637.5,-223 637.5,-221 280.5,-221"/>
<polygon fill="#ffffff" stroke="transparent" points="280.5,-219 280.5,-221 637.5,-221 637.5,-219 280.5,-219"/>
<polygon fill="#000000" stroke="transparent" points="280.5,-217 280.5,-219 637.5,-219 637.5,-217 280.5,-217"/>
<text text-anchor="start" x="309" y="-203.8" font-family="arial" font-size="14.00">X1:3:GND</text>
<text text-anchor="start" x="427.5" y="-203.8" font-family="arial" font-size="14.00"> &#160;&#160;&#160;&#160;3:YE &#160;&#160;&#160;</text>
<text text-anchor="start" x="546.5" y="-203.8" font-family="arial" font-size="14.00">Y1:8:GND</text>
<polygon fill="#000000" stroke="transparent" points="280.5,-196 280.5,-198 637.5,-198 637.5,-196 280.5,-196"/>
<polygon fill="#ffff00" stroke="transparent" points="280.5,-194 280.5,-196 637.5,-196 637.5,-194 280.5,-194"/>
<polygon fill="#000000" stroke="transparent" points="280.5,-192 280.5,-194 637.5,-194 637.5,-192 280.5,-192"/>
<text text-anchor="start" x="317.5" y="-178.8" font-family="arial" font-size="14.00">X1:4:R&#45;</text>
<text text-anchor="start" x="426" y="-178.8" font-family="arial" font-size="14.00"> &#160;&#160;&#160;&#160;4:GN &#160;&#160;&#160;</text>
<text text-anchor="start" x="555" y="-178.8" font-family="arial" font-size="14.00">Y1:6:R&#45;</text>
<polygon fill="#000000" stroke="transparent" points="280.5,-171 280.5,-173 637.5,-173 637.5,-171 280.5,-171"/>
<polygon fill="#00ff00" stroke="transparent" points="280.5,-169 280.5,-171 637.5,-171 637.5,-169 280.5,-169"/>
<polygon fill="#000000" stroke="transparent" points="280.5,-167 280.5,-169 637.5,-169 637.5,-167 280.5,-167"/>
<text text-anchor="start" x="315.5" y="-153.8" font-family="arial" font-size="14.00">X1:5:R+</text>
<text text-anchor="start" x="425.5" y="-153.8" font-family="arial" font-size="14.00"> &#160;&#160;&#160;&#160;5:OG &#160;&#160;&#160;</text>
<text text-anchor="start" x="553" y="-153.8" font-family="arial" font-size="14.00">Y1:1:R+</text>
<polygon fill="#000000" stroke="transparent" points="280.5,-146 280.5,-148 637.5,-148 637.5,-146 280.5,-146"/>
<polygon fill="#ff8000" stroke="transparent" points="280.5,-144 280.5,-146 637.5,-146 637.5,-144 280.5,-144"/>
<polygon fill="#000000" stroke="transparent" points="280.5,-142 280.5,-144 637.5,-144 637.5,-142 280.5,-142"/>
<text text-anchor="start" x="305" y="-128.8" font-family="arial" font-size="14.00">X1:6:MUTE</text>
<text text-anchor="start" x="427.5" y="-128.8" font-family="arial" font-size="14.00"> &#160;&#160;&#160;&#160;6:BU &#160;&#160;&#160;</text>
<text text-anchor="start" x="542.5" y="-128.8" font-family="arial" font-size="14.00">Y1:4:MUTE</text>
<polygon fill="#000000" stroke="transparent" points="280.5,-121 280.5,-123 637.5,-123 637.5,-121 280.5,-121"/>
<polygon fill="#0066ff" stroke="transparent" points="280.5,-119 280.5,-121 637.5,-121 637.5,-119 280.5,-119"/>
<polygon fill="#000000" stroke="transparent" points="280.5,-117 280.5,-119 637.5,-119 637.5,-117 280.5,-117"/>
<text text-anchor="start" x="313.5" y="-103.8" font-family="arial" font-size="14.00">X1:7:TX&#45;</text>
<text text-anchor="start" x="428" y="-103.8" font-family="arial" font-size="14.00"> &#160;&#160;&#160;&#160;7:VT &#160;&#160;&#160;</text>
<text text-anchor="start" x="551" y="-103.8" font-family="arial" font-size="14.00">Y1:9:TX&#45;</text>
<polygon fill="#000000" stroke="transparent" points="280.5,-96 280.5,-98 637.5,-98 637.5,-96 280.5,-96"/>
<polygon fill="#8000ff" stroke="transparent" points="280.5,-94 280.5,-96 637.5,-96 637.5,-94 280.5,-94"/>
<polygon fill="#000000" stroke="transparent" points="280.5,-92 280.5,-94 637.5,-94 637.5,-92 280.5,-92"/>
<text text-anchor="start" x="318.5" y="-78.8" font-family="arial" font-size="14.00">X1:8:L&#45;</text>
<text text-anchor="start" x="427.5" y="-78.8" font-family="arial" font-size="14.00"> &#160;&#160;&#160;&#160;8:BN &#160;&#160;&#160;</text>
<text text-anchor="start" x="556" y="-78.8" font-family="arial" font-size="14.00">Y1:7:L&#45;</text>
<polygon fill="#000000" stroke="transparent" points="280.5,-71 280.5,-73 637.5,-73 637.5,-71 280.5,-71"/>
<polygon fill="#895956" stroke="transparent" points="280.5,-69 280.5,-71 637.5,-71 637.5,-69 280.5,-69"/>
<polygon fill="#000000" stroke="transparent" points="280.5,-67 280.5,-69 637.5,-69 637.5,-67 280.5,-67"/>
<text text-anchor="start" x="316.5" y="-53.8" font-family="arial" font-size="14.00">X1:9:L+</text>
<text text-anchor="start" x="427.5" y="-53.8" font-family="arial" font-size="14.00"> &#160;&#160;&#160;&#160;9:BK &#160;&#160;&#160;</text>
<text text-anchor="start" x="554" y="-53.8" font-family="arial" font-size="14.00">Y1:2:L+</text>
<polygon fill="#000000" stroke="transparent" points="280.5,-46 280.5,-48 637.5,-48 637.5,-46 280.5,-46"/>
<polygon fill="#000000" stroke="transparent" points="280.5,-44 280.5,-46 637.5,-46 637.5,-44 280.5,-44"/>
<polygon fill="#000000" stroke="transparent" points="280.5,-42 280.5,-44 637.5,-44 637.5,-42 280.5,-42"/>
<text text-anchor="start" x="338.5" y="-28.8" font-family="arial" font-size="14.00"> </text>
<polygon fill="none" stroke="black" points="280.5,0 280.5,-23 637.5,-23 637.5,0 280.5,0"/>
<text text-anchor="start" x="284.5" y="-7.8" font-family="arial" font-size="14.00">(colors of DSub cable; colors of CN701 harness may vary)</text>
</g>
<!-- X1&#45;&#45;W1 -->
<g id="edge1" class="edge">
<title>X1:e&#45;&#45;W1:w</title>
<path fill="none" stroke="#000000" stroke-width="2" d="M136,-237C200.76,-237.13 216.65,-243.13 280,-243"/>
<path fill="none" stroke="#ff0000" stroke-width="2" d="M136,-239C200.06,-239 215.94,-245 280,-245"/>
<path fill="none" stroke="#000000" stroke-width="2" d="M136,-241C199.35,-240.87 215.24,-246.87 280,-247"/>
</g>
<!-- X1&#45;&#45;W1 -->
<g id="edge3" class="edge">
<title>X1:e&#45;&#45;W1:w</title>
<path fill="none" stroke="#000000" stroke-width="2" d="M136,-214C200.51,-214.06 216.46,-218.06 280,-218"/>
<path fill="none" stroke="#ffffff" stroke-width="2" d="M136,-216C200.02,-216 215.98,-220 280,-220"/>
<path fill="none" stroke="#000000" stroke-width="2" d="M136,-218C199.54,-217.94 215.49,-221.94 280,-222"/>
</g>
<!-- X1&#45;&#45;W1 -->
<g id="edge5" class="edge">
<title>X1:e&#45;&#45;W1:w</title>
<path fill="none" stroke="#000000" stroke-width="2" d="M136,-191C200.25,-191.02 216.24,-193.02 280,-193"/>
<path fill="none" stroke="#ffff00" stroke-width="2" d="M136,-193C200.01,-193 215.99,-195 280,-195"/>
<path fill="none" stroke="#000000" stroke-width="2" d="M136,-195C199.76,-194.98 215.75,-196.98 280,-197"/>
</g>
<!-- X1&#45;&#45;W1 -->
<g id="edge7" class="edge">
<title>X1:e&#45;&#45;W1:w</title>
<path fill="none" stroke="#000000" stroke-width="2" d="M136,-167C200.13,-167 216.12,-168 280,-168"/>
<path fill="none" stroke="#00ff00" stroke-width="2" d="M136,-169C200,-169 216,-170 280,-170"/>
<path fill="none" stroke="#000000" stroke-width="2" d="M136,-171C199.88,-171 215.87,-172 280,-172"/>
</g>
<!-- X1&#45;&#45;W1 -->
<g id="edge9" class="edge">
<title>X1:e&#45;&#45;W1:w</title>
<path fill="none" stroke="#000000" stroke-width="2" d="M136,-144C199.88,-144 215.87,-143 280,-143"/>
<path fill="none" stroke="#ff8000" stroke-width="2" d="M136,-146C200,-146 216,-145 280,-145"/>
<path fill="none" stroke="#000000" stroke-width="2" d="M136,-148C200.13,-148 216.12,-147 280,-147"/>
</g>
<!-- X1&#45;&#45;W1 -->
<g id="edge11" class="edge">
<title>X1:e&#45;&#45;W1:w</title>
<path fill="none" stroke="#000000" stroke-width="2" d="M136,-121C199.64,-121.03 215.62,-118.03 280,-118"/>
<path fill="none" stroke="#0066ff" stroke-width="2" d="M136,-123C200.01,-123 215.99,-120 280,-120"/>
<path fill="none" stroke="#000000" stroke-width="2" d="M136,-125C200.38,-124.97 216.36,-121.97 280,-122"/>
</g>
<!-- X1&#45;&#45;W1 -->
<g id="edge13" class="edge">
<title>X1:e&#45;&#45;W1:w</title>
<path fill="none" stroke="#000000" stroke-width="2" d="M136,-98C199.44,-98.09 215.36,-93.09 280,-93"/>
<path fill="none" stroke="#8000ff" stroke-width="2" d="M136,-100C200.04,-100 215.96,-95 280,-95"/>
<path fill="none" stroke="#000000" stroke-width="2" d="M136,-102C200.64,-101.91 216.56,-96.91 280,-97"/>
</g>
<!-- X1&#45;&#45;W1 -->
<g id="edge15" class="edge">
<title>X1:e&#45;&#45;W1:w</title>
<path fill="none" stroke="#000000" stroke-width="2" d="M136,-75C199.27,-75.17 215.12,-68.17 280,-68"/>
<path fill="none" stroke="#895956" stroke-width="2" d="M136,-77C200.08,-77 215.92,-70 280,-70"/>
<path fill="none" stroke="#000000" stroke-width="2" d="M136,-79C200.88,-78.83 216.73,-71.83 280,-72"/>
</g>
<!-- X1&#45;&#45;W1 -->
<g id="edge17" class="edge">
<title>X1:e&#45;&#45;W1:w</title>
<path fill="none" stroke="#000000" stroke-width="2" d="M136,-52C199.13,-52.26 214.88,-43.26 280,-43"/>
<path fill="none" stroke="#000000" stroke-width="2" d="M136,-54C200.12,-54 215.88,-45 280,-45"/>
<path fill="none" stroke="#000000" stroke-width="2" d="M136,-56C201.12,-55.74 216.87,-46.74 280,-47"/>
</g>
<!-- X1&#45;&#45;W1 -->
<g id="edge19" class="edge">
<title>X1:e&#45;&#45;W1:w</title>
<path fill="none" stroke="#000000" stroke-width="2" d="M136,-191C200.25,-191.02 216.24,-193.02 280,-193"/>
<path fill="none" stroke="#ffff00" stroke-width="2" d="M136,-193C200.01,-193 215.99,-195 280,-195"/>
<path fill="none" stroke="#000000" stroke-width="2" d="M136,-195C199.76,-194.98 215.75,-196.98 280,-197"/>
</g>
<!-- Y1 -->
<g id="node2" class="node">
<title>Y1</title>
<polygon fill="#ffffff" stroke="black" points="927,-317.5 781,-317.5 781,-18.5 927,-18.5 927,-317.5"/>
<polygon fill="none" stroke="black" points="781,-294 781,-317 927,-317 927,-294 781,-294"/>
<text text-anchor="start" x="845.5" y="-301.8" font-family="arial" font-size="14.00">Y1</text>
<polygon fill="none" stroke="black" points="781,-271 781,-294 832,-294 832,-271 781,-271"/>
<text text-anchor="start" x="785" y="-278.8" font-family="arial" font-size="14.00">CN701</text>
<polygon fill="none" stroke="black" points="832,-271 832,-294 882,-294 882,-271 832,-271"/>
<text text-anchor="start" x="836" y="-278.8" font-family="arial" font-size="14.00">female</text>
<polygon fill="none" stroke="black" points="882,-271 882,-294 927,-294 927,-271 882,-271"/>
<text text-anchor="start" x="886" y="-278.8" font-family="arial" font-size="14.00">11&#45;pin</text>
<polygon fill="none" stroke="black" points="781,-248 781,-271 842,-271 842,-248 781,-248"/>
<text text-anchor="start" x="807.5" y="-255.8" font-family="arial" font-size="14.00">1</text>
<polygon fill="none" stroke="black" points="842,-248 842,-271 927,-271 927,-248 842,-248"/>
<text text-anchor="start" x="875" y="-255.8" font-family="arial" font-size="14.00">R+</text>
<polygon fill="none" stroke="black" points="781,-225 781,-248 842,-248 842,-225 781,-225"/>
<text text-anchor="start" x="807.5" y="-232.8" font-family="arial" font-size="14.00">2</text>
<polygon fill="none" stroke="black" points="842,-225 842,-248 927,-248 927,-225 842,-225"/>
<text text-anchor="start" x="876.5" y="-232.8" font-family="arial" font-size="14.00">L+</text>
<polygon fill="none" stroke="black" points="781,-202 781,-225 842,-225 842,-202 781,-202"/>
<text text-anchor="start" x="807.5" y="-209.8" font-family="arial" font-size="14.00">3</text>
<polygon fill="none" stroke="black" points="842,-202 842,-225 927,-225 927,-202 842,-202"/>
<text text-anchor="start" x="864.5" y="-209.8" font-family="arial" font-size="14.00">SGND</text>
<polygon fill="none" stroke="black" points="781,-179 781,-202 842,-202 842,-179 781,-179"/>
<text text-anchor="start" x="807.5" y="-186.8" font-family="arial" font-size="14.00">4</text>
<polygon fill="none" stroke="black" points="842,-179 842,-202 927,-202 927,-179 842,-179"/>
<text text-anchor="start" x="864.5" y="-186.8" font-family="arial" font-size="14.00">MUTE</text>
<polygon fill="none" stroke="black" points="781,-156 781,-179 842,-179 842,-156 781,-156"/>
<text text-anchor="start" x="807.5" y="-163.8" font-family="arial" font-size="14.00">5</text>
<polygon fill="none" stroke="black" points="842,-156 842,-179 927,-179 927,-156 842,-156"/>
<text text-anchor="start" x="868" y="-163.8" font-family="arial" font-size="14.00">+12V</text>
<polygon fill="none" stroke="black" points="781,-133 781,-156 842,-156 842,-133 781,-133"/>
<text text-anchor="start" x="807.5" y="-140.8" font-family="arial" font-size="14.00">6</text>
<polygon fill="none" stroke="black" points="842,-133 842,-156 927,-156 927,-133 842,-133"/>
<text text-anchor="start" x="877" y="-140.8" font-family="arial" font-size="14.00">R&#45;</text>
<polygon fill="none" stroke="black" points="781,-110 781,-133 842,-133 842,-110 781,-110"/>
<text text-anchor="start" x="807.5" y="-117.8" font-family="arial" font-size="14.00">7</text>
<polygon fill="none" stroke="black" points="842,-110 842,-133 927,-133 927,-110 842,-110"/>
<text text-anchor="start" x="878" y="-117.8" font-family="arial" font-size="14.00">L&#45;</text>
<polygon fill="none" stroke="black" points="781,-87 781,-110 842,-110 842,-87 781,-87"/>
<text text-anchor="start" x="807.5" y="-94.8" font-family="arial" font-size="14.00">8</text>
<polygon fill="none" stroke="black" points="842,-87 842,-110 927,-110 927,-87 842,-87"/>
<text text-anchor="start" x="869" y="-94.8" font-family="arial" font-size="14.00">GND</text>
<polygon fill="none" stroke="black" points="781,-64 781,-87 842,-87 842,-64 781,-64"/>
<text text-anchor="start" x="807.5" y="-71.8" font-family="arial" font-size="14.00">9</text>
<polygon fill="none" stroke="black" points="842,-64 842,-87 927,-87 927,-64 842,-64"/>
<text text-anchor="start" x="873.5" y="-71.8" font-family="arial" font-size="14.00">TX&#45;</text>
<polygon fill="none" stroke="black" points="781,-41 781,-64 842,-64 842,-41 781,-41"/>
<text text-anchor="start" x="803.5" y="-48.8" font-family="arial" font-size="14.00">10</text>
<polygon fill="none" stroke="black" points="842,-41 842,-64 927,-64 927,-41 842,-41"/>
<text text-anchor="start" x="871.5" y="-48.8" font-family="arial" font-size="14.00">TX+</text>
<polygon fill="none" stroke="black" points="781,-18 781,-41 842,-41 842,-18 781,-18"/>
<text text-anchor="start" x="803.5" y="-25.8" font-family="arial" font-size="14.00">12</text>
<polygon fill="none" stroke="black" points="842,-18 842,-41 927,-41 927,-18 842,-18"/>
<text text-anchor="start" x="870" y="-25.8" font-family="arial" font-size="14.00">ACC</text>
</g>
<!-- W1&#45;&#45;Y1 -->
<g id="edge2" class="edge">
<title>W1:e&#45;&#45;Y1:w</title>
<path fill="none" stroke="#000000" stroke-width="2" d="M637,-243C707.79,-245.04 706.21,-167.04 781,-165"/>
<path fill="none" stroke="#ff0000" stroke-width="2" d="M637,-245C709.79,-245 708.21,-167 781,-167"/>
<path fill="none" stroke="#000000" stroke-width="2" d="M637,-247C711.79,-244.96 710.21,-166.96 781,-169"/>
</g>
<!-- W1&#45;&#45;Y1 -->
<g id="edge4" class="edge">
<title>W1:e&#45;&#45;Y1:w</title>
<path fill="none" stroke="#000000" stroke-width="2" d="M637,-218C733.43,-220.6 680.75,-52.6 781,-50"/>
<path fill="none" stroke="#ffffff" stroke-width="2" d="M637,-220C735.34,-220 682.66,-52 781,-52"/>
<path fill="none" stroke="#000000" stroke-width="2" d="M637,-222C737.25,-219.4 684.57,-51.4 781,-54"/>
</g>
<!-- W1&#45;&#45;Y1 -->
<g id="edge6" class="edge">
<title>W1:e&#45;&#45;Y1:w</title>
<path fill="none" stroke="#000000" stroke-width="2" d="M637,-193C712.18,-195.21 701.85,-98.21 781,-96"/>
<path fill="none" stroke="#ffff00" stroke-width="2" d="M637,-195C714.17,-195 703.83,-98 781,-98"/>
<path fill="none" stroke="#000000" stroke-width="2" d="M637,-197C716.15,-194.79 705.82,-97.79 781,-100"/>
</g>
<!-- W1&#45;&#45;Y1 -->
<g id="edge8" class="edge">
<title>W1:e&#45;&#45;Y1:w</title>
<path fill="none" stroke="#000000" stroke-width="2" d="M637,-168C700.27,-169.06 714.2,-143.06 781,-142"/>
<path fill="none" stroke="#00ff00" stroke-width="2" d="M637,-170C702.03,-170 715.97,-144 781,-144"/>
<path fill="none" stroke="#000000" stroke-width="2" d="M637,-172C703.8,-170.94 717.73,-144.94 781,-146"/>
</g>
<!-- W1&#45;&#45;Y1 -->
<g id="edge10" class="edge">
<title>W1:e&#45;&#45;Y1:w</title>
<path fill="none" stroke="#000000" stroke-width="2" d="M637,-143C720.88,-145.34 701.07,-260.34 781,-258"/>
<path fill="none" stroke="#ff8000" stroke-width="2" d="M637,-145C718.9,-145 699.1,-260 781,-260"/>
<path fill="none" stroke="#000000" stroke-width="2" d="M637,-147C716.93,-144.66 697.12,-259.66 781,-262"/>
</g>
<!-- W1&#45;&#45;Y1 -->
<g id="edge12" class="edge">
<title>W1:e&#45;&#45;Y1:w</title>
<path fill="none" stroke="#000000" stroke-width="2" d="M637,-118C710.36,-119.96 711.64,-190.96 781,-189"/>
<path fill="none" stroke="#0066ff" stroke-width="2" d="M637,-120C708.36,-120 709.64,-191 781,-191"/>
<path fill="none" stroke="#000000" stroke-width="2" d="M637,-122C706.36,-120.04 707.64,-191.04 781,-193"/>
</g>
<!-- W1&#45;&#45;Y1 -->
<g id="edge14" class="edge">
<title>W1:e&#45;&#45;Y1:w</title>
<path fill="none" stroke="#000000" stroke-width="2" d="M637,-93C700.01,-93.81 714.78,-73.81 781,-73"/>
<path fill="none" stroke="#8000ff" stroke-width="2" d="M637,-95C701.61,-95 716.39,-75 781,-75"/>
<path fill="none" stroke="#000000" stroke-width="2" d="M637,-97C703.22,-96.19 717.99,-76.19 781,-77"/>
</g>
<!-- W1&#45;&#45;Y1 -->
<g id="edge16" class="edge">
<title>W1:e&#45;&#45;Y1:w</title>
<path fill="none" stroke="#000000" stroke-width="2" d="M637,-68C706.87,-69.68 715.08,-120.68 781,-119"/>
<path fill="none" stroke="#895956" stroke-width="2" d="M637,-70C704.9,-70 713.1,-121 781,-121"/>
<path fill="none" stroke="#000000" stroke-width="2" d="M637,-72C702.92,-70.32 711.13,-121.32 781,-123"/>
</g>
<!-- W1&#45;&#45;Y1 -->
<g id="edge18" class="edge">
<title>W1:e&#45;&#45;Y1:w</title>
<path fill="none" stroke="#000000" stroke-width="2" d="M637,-43C745.55,-45.68 676.21,-237.68 781,-235"/>
<path fill="none" stroke="#000000" stroke-width="2" d="M637,-45C743.67,-45 674.33,-237 781,-237"/>
<path fill="none" stroke="#000000" stroke-width="2" d="M637,-47C741.79,-44.32 672.45,-236.32 781,-239"/>
</g>
<!-- W1&#45;&#45;Y1 -->
<g id="edge20" class="edge">
<title>W1:e&#45;&#45;Y1:w</title>
<path fill="none" stroke="#000000" stroke-width="2" d="M637,-193C703.13,-193.77 718.02,-212.77 781,-212"/>
<path fill="none" stroke="#ffff00" stroke-width="2" d="M637,-195C701.55,-195 716.45,-214 781,-214"/>
<path fill="none" stroke="#000000" stroke-width="2" d="M637,-197C699.98,-196.23 714.87,-215.23 781,-216"/>
</g>
</g>
</svg>
