%TF.GenerationSoftware,KiCad,Pcbnew,7.0.7-7.0.7~ubuntu22.04.1*%
%TF.CreationDate,2023-09-02T15:09:26-04:00*%
%TF.ProjectId,avclan-mockingboard-rounded,6176636c-616e-42d6-9d6f-636b696e6762,rev?*%
%TF.SameCoordinates,Original*%
%TF.FileFunction,Copper,L1,Top*%
%TF.FilePolarity,Positive*%
%FSLAX46Y46*%
G04 Gerber Fmt 4.6, Leading zero omitted, Abs format (unit mm)*
G04 Created by KiCad (PCBNEW 7.0.7-7.0.7~ubuntu22.04.1) date 2023-09-02 15:09:26*
%MOMM*%
%LPD*%
G01*
G04 APERTURE LIST*
G04 Aperture macros list*
%AMRoundRect*
0 Rectangle with rounded corners*
0 $1 Rounding radius*
0 $2 $3 $4 $5 $6 $7 $8 $9 X,Y pos of 4 corners*
0 Add a 4 corners polygon primitive as box body*
4,1,4,$2,$3,$4,$5,$6,$7,$8,$9,$2,$3,0*
0 Add four circle primitives for the rounded corners*
1,1,$1+$1,$2,$3*
1,1,$1+$1,$4,$5*
1,1,$1+$1,$6,$7*
1,1,$1+$1,$8,$9*
0 Add four rect primitives between the rounded corners*
20,1,$1+$1,$2,$3,$4,$5,0*
20,1,$1+$1,$4,$5,$6,$7,0*
20,1,$1+$1,$6,$7,$8,$9,0*
20,1,$1+$1,$8,$9,$2,$3,0*%
G04 Aperture macros list end*
%TA.AperFunction,SMDPad,CuDef*%
%ADD10RoundRect,0.200000X0.275000X-0.200000X0.275000X0.200000X-0.275000X0.200000X-0.275000X-0.200000X0*%
%TD*%
%TA.AperFunction,SMDPad,CuDef*%
%ADD11RoundRect,0.200000X0.200000X0.275000X-0.200000X0.275000X-0.200000X-0.275000X0.200000X-0.275000X0*%
%TD*%
%TA.AperFunction,SMDPad,CuDef*%
%ADD12RoundRect,0.250000X-0.325000X-0.650000X0.325000X-0.650000X0.325000X0.650000X-0.325000X0.650000X0*%
%TD*%
%TA.AperFunction,SMDPad,CuDef*%
%ADD13RoundRect,0.218750X-0.218750X-0.256250X0.218750X-0.256250X0.218750X0.256250X-0.218750X0.256250X0*%
%TD*%
%TA.AperFunction,SMDPad,CuDef*%
%ADD14RoundRect,0.225000X-0.225000X-0.250000X0.225000X-0.250000X0.225000X0.250000X-0.225000X0.250000X0*%
%TD*%
%TA.AperFunction,SMDPad,CuDef*%
%ADD15RoundRect,0.250000X0.450000X-0.262500X0.450000X0.262500X-0.450000X0.262500X-0.450000X-0.262500X0*%
%TD*%
%TA.AperFunction,SMDPad,CuDef*%
%ADD16RoundRect,0.250000X-1.000000X-0.900000X1.000000X-0.900000X1.000000X0.900000X-1.000000X0.900000X0*%
%TD*%
%TA.AperFunction,SMDPad,CuDef*%
%ADD17RoundRect,0.250000X-1.000000X-0.650000X1.000000X-0.650000X1.000000X0.650000X-1.000000X0.650000X0*%
%TD*%
%TA.AperFunction,ComponentPad*%
%ADD18C,2.000000*%
%TD*%
%TA.AperFunction,SMDPad,CuDef*%
%ADD19RoundRect,0.150000X-0.512500X-0.150000X0.512500X-0.150000X0.512500X0.150000X-0.512500X0.150000X0*%
%TD*%
%TA.AperFunction,SMDPad,CuDef*%
%ADD20RoundRect,0.140000X-0.170000X0.140000X-0.170000X-0.140000X0.170000X-0.140000X0.170000X0.140000X0*%
%TD*%
%TA.AperFunction,SMDPad,CuDef*%
%ADD21RoundRect,0.200000X-0.200000X-0.275000X0.200000X-0.275000X0.200000X0.275000X-0.200000X0.275000X0*%
%TD*%
%TA.AperFunction,SMDPad,CuDef*%
%ADD22RoundRect,0.250000X-0.850000X-0.350000X0.850000X-0.350000X0.850000X0.350000X-0.850000X0.350000X0*%
%TD*%
%TA.AperFunction,SMDPad,CuDef*%
%ADD23RoundRect,0.250000X-1.275000X-1.125000X1.275000X-1.125000X1.275000X1.125000X-1.275000X1.125000X0*%
%TD*%
%TA.AperFunction,SMDPad,CuDef*%
%ADD24RoundRect,0.249997X-2.950003X-2.650003X2.950003X-2.650003X2.950003X2.650003X-2.950003X2.650003X0*%
%TD*%
%TA.AperFunction,SMDPad,CuDef*%
%ADD25RoundRect,0.250000X0.325000X0.650000X-0.325000X0.650000X-0.325000X-0.650000X0.325000X-0.650000X0*%
%TD*%
%TA.AperFunction,SMDPad,CuDef*%
%ADD26RoundRect,0.250000X0.400000X0.600000X-0.400000X0.600000X-0.400000X-0.600000X0.400000X-0.600000X0*%
%TD*%
%TA.AperFunction,SMDPad,CuDef*%
%ADD27RoundRect,0.250000X-0.262500X-0.450000X0.262500X-0.450000X0.262500X0.450000X-0.262500X0.450000X0*%
%TD*%
%TA.AperFunction,SMDPad,CuDef*%
%ADD28RoundRect,0.140000X-0.140000X-0.170000X0.140000X-0.170000X0.140000X0.170000X-0.140000X0.170000X0*%
%TD*%
%TA.AperFunction,ComponentPad*%
%ADD29R,1.700000X1.700000*%
%TD*%
%TA.AperFunction,ComponentPad*%
%ADD30O,1.700000X1.700000*%
%TD*%
%TA.AperFunction,SMDPad,CuDef*%
%ADD31RoundRect,0.150000X0.875000X0.150000X-0.875000X0.150000X-0.875000X-0.150000X0.875000X-0.150000X0*%
%TD*%
%TA.AperFunction,ComponentPad*%
%ADD32R,1.650000X1.650000*%
%TD*%
%TA.AperFunction,ComponentPad*%
%ADD33C,1.650000*%
%TD*%
%TA.AperFunction,ComponentPad*%
%ADD34C,4.000000*%
%TD*%
%TA.AperFunction,ComponentPad*%
%ADD35R,1.600000X1.600000*%
%TD*%
%TA.AperFunction,ComponentPad*%
%ADD36C,1.600000*%
%TD*%
%TA.AperFunction,SMDPad,CuDef*%
%ADD37RoundRect,0.250000X0.650000X-0.325000X0.650000X0.325000X-0.650000X0.325000X-0.650000X-0.325000X0*%
%TD*%
%TA.AperFunction,SMDPad,CuDef*%
%ADD38RoundRect,0.250000X-0.650000X0.325000X-0.650000X-0.325000X0.650000X-0.325000X0.650000X0.325000X0*%
%TD*%
%TA.AperFunction,SMDPad,CuDef*%
%ADD39RoundRect,0.250000X-0.650000X1.000000X-0.650000X-1.000000X0.650000X-1.000000X0.650000X1.000000X0*%
%TD*%
%TA.AperFunction,ViaPad*%
%ADD40C,0.800000*%
%TD*%
%TA.AperFunction,Conductor*%
%ADD41C,0.500000*%
%TD*%
%TA.AperFunction,Conductor*%
%ADD42C,1.000000*%
%TD*%
%TA.AperFunction,Conductor*%
%ADD43C,0.300000*%
%TD*%
%TA.AperFunction,Conductor*%
%ADD44C,0.750000*%
%TD*%
G04 APERTURE END LIST*
D10*
%TO.P,R9,1*%
%TO.N,IGN_SENSE*%
X26550000Y-15425000D03*
%TO.P,R9,2*%
%TO.N,Net-(J2-IGN{slash}ACC)*%
X26550000Y-13775000D03*
%TD*%
D11*
%TO.P,R6,1*%
%TO.N,Net-(J1-S)*%
X14850000Y-11950331D03*
%TO.P,R6,2*%
%TO.N,GND*%
X13200000Y-11950331D03*
%TD*%
D12*
%TO.P,C3,1*%
%TO.N,/12V_CLEAN*%
X41450000Y-28100000D03*
%TO.P,C3,2*%
%TO.N,GND*%
X44400000Y-28100000D03*
%TD*%
D13*
%TO.P,D9,1,K*%
%TO.N,Net-(D9-K)*%
X16384118Y-18700000D03*
%TO.P,D9,2,A*%
%TO.N,/AC2 OUT*%
X17959118Y-18700000D03*
%TD*%
D14*
%TO.P,C5,1*%
%TO.N,/12V_CLEAN*%
X35900000Y-28700000D03*
%TO.P,C5,2*%
%TO.N,GND*%
X37450000Y-28700000D03*
%TD*%
D15*
%TO.P,R2,1*%
%TO.N,AVCLAN_TX-*%
X32512500Y-17400000D03*
%TO.P,R2,2*%
%TO.N,AVCLAN_BUS_TX-*%
X32512500Y-15575000D03*
%TD*%
D16*
%TO.P,D4,1,A1*%
%TO.N,/12V_CLEAN*%
X39400000Y-22300000D03*
%TO.P,D4,2,A2*%
%TO.N,GND*%
X43700000Y-22300000D03*
%TD*%
D17*
%TO.P,D2,1,K*%
%TO.N,/12V_CLEAN*%
X39700000Y-18200000D03*
%TO.P,D2,2,A*%
%TO.N,+12V*%
X43700000Y-18200000D03*
%TD*%
D18*
%TO.P,RV1,1*%
%TO.N,+12V*%
X49175000Y-22400000D03*
%TO.P,RV1,2*%
%TO.N,GND*%
X47025000Y-32400000D03*
%TD*%
D19*
%TO.P,D6,1,K*%
%TO.N,WOB*%
X25662500Y-29050000D03*
%TO.P,D6,2,K*%
%TO.N,WOA*%
X25662500Y-30950000D03*
%TO.P,D6,3,A*%
%TO.N,AVCLAN_TX+*%
X27937500Y-30000000D03*
%TD*%
D20*
%TO.P,C10,1*%
%TO.N,+5V*%
X18662500Y-15050000D03*
%TO.P,C10,2*%
%TO.N,GND*%
X18662500Y-16010000D03*
%TD*%
D21*
%TO.P,R7,1*%
%TO.N,GND*%
X23500000Y-15325000D03*
%TO.P,R7,2*%
%TO.N,IGN_SENSE*%
X25150000Y-15325000D03*
%TD*%
D22*
%TO.P,U1,1,Vin*%
%TO.N,/12V_CLEAN*%
X35500000Y-30745000D03*
%TO.P,U1,2,GND*%
%TO.N,GND*%
X35500000Y-33025000D03*
D23*
X40125000Y-31500000D03*
X40125000Y-34550000D03*
D24*
X41800000Y-33025000D03*
D23*
X43475000Y-31500000D03*
X43475000Y-34550000D03*
D22*
%TO.P,U1,3,Vout*%
%TO.N,+5V*%
X35500000Y-35305000D03*
%TD*%
D25*
%TO.P,C1,1*%
%TO.N,+12V*%
X42875000Y-14100000D03*
%TO.P,C1,2*%
%TO.N,GND*%
X39925000Y-14100000D03*
%TD*%
%TO.P,C11,1*%
%TO.N,AUDIO_R*%
X10100000Y-13800000D03*
%TO.P,C11,2*%
%TO.N,Net-(C11-Pad2)*%
X7150000Y-13800000D03*
%TD*%
D26*
%TO.P,D10,1,K*%
%TO.N,IGN_SENSE*%
X26550000Y-17250000D03*
%TO.P,D10,2,A*%
%TO.N,GND*%
X23050000Y-17250000D03*
%TD*%
D21*
%TO.P,R12,1*%
%TO.N,Net-(C11-Pad2)*%
X7175000Y-11900000D03*
%TO.P,R12,2*%
%TO.N,/AUDIO-R*%
X8825000Y-11900000D03*
%TD*%
D11*
%TO.P,R11,1*%
%TO.N,UPDI*%
X6450000Y-28600000D03*
%TO.P,R11,2*%
%TO.N,Net-(J3-Pin_3)*%
X4800000Y-28600000D03*
%TD*%
D27*
%TO.P,R3,1*%
%TO.N,AVCLAN_BUS_TX-*%
X32587500Y-13775000D03*
%TO.P,R3,2*%
%TO.N,AVCLAN_BUS_TX+*%
X34412500Y-13775000D03*
%TD*%
D28*
%TO.P,C9,1*%
%TO.N,+5V*%
X22968236Y-33385000D03*
%TO.P,C9,2*%
%TO.N,GND*%
X23928236Y-33385000D03*
%TD*%
D29*
%TO.P,J4,1,Pin_1*%
%TO.N,GND*%
X17500000Y-36200000D03*
D30*
%TO.P,J4,2,Pin_2*%
%TO.N,CTS*%
X14960000Y-36200000D03*
%TO.P,J4,3,Pin_3*%
%TO.N,SERIAL_PWR*%
X12420000Y-36200000D03*
%TO.P,J4,4,Pin_4*%
%TO.N,TxD*%
X9880000Y-36200000D03*
%TO.P,J4,5,Pin_5*%
%TO.N,RxD*%
X7340000Y-36200000D03*
%TO.P,J4,6,Pin_6*%
%TO.N,RTS*%
X4800000Y-36200000D03*
%TD*%
D19*
%TO.P,D8,1,A*%
%TO.N,UPDI_PWR*%
X28600000Y-34700000D03*
%TO.P,D8,2,K*%
%TO.N,SERIAL_PWR*%
X28600000Y-36600000D03*
%TO.P,D8,3,K*%
%TO.N,+5V*%
X30875000Y-35650000D03*
%TD*%
D31*
%TO.P,U2,1,VCC*%
%TO.N,+5V*%
X23278236Y-31950000D03*
%TO.P,U2,2,PA4*%
%TO.N,WOA*%
X23278236Y-30680000D03*
%TO.P,U2,3,PA5*%
%TO.N,WOB*%
X23278236Y-29410000D03*
%TO.P,U2,4,PA6*%
%TO.N,AVCLAN_TX+*%
X23278236Y-28140000D03*
%TO.P,U2,5,PA7*%
%TO.N,AVCLAN_TX-*%
X23278236Y-26870000D03*
%TO.P,U2,6,PB5*%
%TO.N,WOD*%
X23278236Y-25600000D03*
%TO.P,U2,7,PB4*%
%TO.N,WOC*%
X23278236Y-24330000D03*
%TO.P,U2,8,PB3*%
%TO.N,IGN_SENSE*%
X23278236Y-23060000D03*
%TO.P,U2,9,PB2*%
%TO.N,/AC2 OUT*%
X23278236Y-21790000D03*
%TO.P,U2,10,PB1*%
%TO.N,MIC_CONTROL*%
X23278236Y-20520000D03*
%TO.P,U2,11,PB0*%
%TO.N,unconnected-(U2-PB0-Pad11)*%
X13978236Y-20520000D03*
%TO.P,U2,12,PC0*%
%TO.N,WOC*%
X13978236Y-21790000D03*
%TO.P,U2,13,PC1*%
%TO.N,WOD*%
X13978236Y-23060000D03*
%TO.P,U2,14,PC2*%
%TO.N,unconnected-(U2-PC2-Pad14)*%
X13978236Y-24330000D03*
%TO.P,U2,15,PC3*%
%TO.N,CTS*%
X13978236Y-25600000D03*
%TO.P,U2,16,~{RESET}/PA0*%
%TO.N,UPDI*%
X13978236Y-26870000D03*
%TO.P,U2,17,PA1*%
%TO.N,TxD*%
X13978236Y-28140000D03*
%TO.P,U2,18,PA2*%
%TO.N,RxD*%
X13978236Y-29410000D03*
%TO.P,U2,19,PA3*%
%TO.N,RTS*%
X13978236Y-30680000D03*
%TO.P,U2,20,GND*%
%TO.N,GND*%
X13978236Y-31950000D03*
%TD*%
D11*
%TO.P,R13,1*%
%TO.N,/AUDIO-L*%
X4050000Y-4600000D03*
%TO.P,R13,2*%
%TO.N,Net-(C12-Pad2)*%
X2400000Y-4600000D03*
%TD*%
D17*
%TO.P,D1,1,K*%
%TO.N,+12V*%
X45400000Y-14600000D03*
%TO.P,D1,2,A*%
%TO.N,Net-(D1-A)*%
X49400000Y-14600000D03*
%TD*%
D32*
%TO.P,J1,1,S*%
%TO.N,Net-(J1-S)*%
X14300000Y-2750000D03*
D33*
%TO.P,J1,2,T*%
%TO.N,AUDIO_L*%
X5900000Y-7750000D03*
%TO.P,J1,3,R1*%
%TO.N,AUDIO_R*%
X11100000Y-10850000D03*
%TO.P,J1,4,R2*%
%TO.N,GND*%
X5000000Y-2750000D03*
%TD*%
D12*
%TO.P,C2,1*%
%TO.N,/12V_CLEAN*%
X41450000Y-25800000D03*
%TO.P,C2,2*%
%TO.N,GND*%
X44400000Y-25800000D03*
%TD*%
D19*
%TO.P,D7,1,K*%
%TO.N,WOC*%
X25600000Y-24100000D03*
%TO.P,D7,2,K*%
%TO.N,WOD*%
X25600000Y-26000000D03*
%TO.P,D7,3,A*%
%TO.N,AVCLAN_TX-*%
X27875000Y-25050000D03*
%TD*%
D34*
%TO.P,J2,0*%
%TO.N,N/C*%
X44055000Y-9020000D03*
X19055000Y-9020000D03*
D35*
%TO.P,J2,1,BAT*%
%TO.N,+12V*%
X37095000Y-10440000D03*
D36*
%TO.P,J2,2,BUS+*%
%TO.N,AVCLAN_BUS_TX+*%
X34325000Y-10440000D03*
%TO.P,J2,3,L+*%
%TO.N,GND*%
X31555000Y-10440000D03*
%TO.P,J2,4,R+*%
X28785000Y-10440000D03*
%TO.P,J2,5,GND*%
%TO.N,/AUDIO-R*%
X26015000Y-10440000D03*
%TO.P,J2,6,IGN/ACC*%
%TO.N,Net-(J2-IGN{slash}ACC)*%
X35710000Y-7600000D03*
%TO.P,J2,7,BUS-*%
%TO.N,AVCLAN_BUS_TX-*%
X32940000Y-7600000D03*
%TO.P,J2,8,L-*%
%TO.N,GND*%
X30170000Y-7600000D03*
%TO.P,J2,9,R-*%
%TO.N,/AUDIO-L*%
X27400000Y-7600000D03*
%TD*%
D37*
%TO.P,C7,1*%
%TO.N,+5V*%
X33000000Y-32200000D03*
%TO.P,C7,2*%
%TO.N,GND*%
X33000000Y-29250000D03*
%TD*%
D14*
%TO.P,C6,1*%
%TO.N,+5V*%
X35350000Y-37300000D03*
%TO.P,C6,2*%
%TO.N,GND*%
X36900000Y-37300000D03*
%TD*%
D10*
%TO.P,R4,1*%
%TO.N,AVCLAN_TX+*%
X36212500Y-17300000D03*
%TO.P,R4,2*%
%TO.N,GND*%
X36212500Y-15650000D03*
%TD*%
D19*
%TO.P,U3,1*%
%TO.N,Net-(J1-S)*%
X14925000Y-15100000D03*
%TO.P,U3,2*%
%TO.N,GND*%
X14925000Y-16050000D03*
%TO.P,U3,3,GND*%
X14925000Y-17000000D03*
%TO.P,U3,4*%
%TO.N,MIC_CONTROL*%
X17200000Y-17000000D03*
%TO.P,U3,5,VCC*%
%TO.N,+5V*%
X17200000Y-15100000D03*
%TD*%
D29*
%TO.P,J3,1,Pin_1*%
%TO.N,UPDI_PWR*%
X9850000Y-31200000D03*
D30*
%TO.P,J3,2,Pin_2*%
%TO.N,GND*%
X7310000Y-31200000D03*
%TO.P,J3,3,Pin_3*%
%TO.N,Net-(J3-Pin_3)*%
X4770000Y-31200000D03*
%TD*%
D11*
%TO.P,R10,1*%
%TO.N,Net-(D9-K)*%
X14984118Y-18700000D03*
%TO.P,R10,2*%
%TO.N,GND*%
X13334118Y-18700000D03*
%TD*%
%TO.P,R5,1*%
%TO.N,Net-(J1-S)*%
X14850000Y-13440331D03*
%TO.P,R5,2*%
%TO.N,GND*%
X13200000Y-13440331D03*
%TD*%
D38*
%TO.P,C8,1*%
%TO.N,+5V*%
X33000000Y-33900000D03*
%TO.P,C8,2*%
%TO.N,GND*%
X33000000Y-36850000D03*
%TD*%
D39*
%TO.P,D3,1,K*%
%TO.N,GND*%
X49395000Y-6609669D03*
%TO.P,D3,2,A*%
%TO.N,Net-(D1-A)*%
X49395000Y-10609669D03*
%TD*%
D37*
%TO.P,C12,1*%
%TO.N,AUDIO_L*%
X3200000Y-9150000D03*
%TO.P,C12,2*%
%TO.N,Net-(C12-Pad2)*%
X3200000Y-6200000D03*
%TD*%
D15*
%TO.P,R1,1*%
%TO.N,AVCLAN_TX+*%
X34412500Y-17400000D03*
%TO.P,R1,2*%
%TO.N,AVCLAN_BUS_TX+*%
X34412500Y-15575000D03*
%TD*%
D37*
%TO.P,C4,1*%
%TO.N,/12V_CLEAN*%
X39400000Y-28400000D03*
%TO.P,C4,2*%
%TO.N,GND*%
X39400000Y-25450000D03*
%TD*%
D21*
%TO.P,R8,1*%
%TO.N,GND*%
X23500000Y-13825000D03*
%TO.P,R8,2*%
%TO.N,IGN_SENSE*%
X25150000Y-13825000D03*
%TD*%
D40*
%TO.N,GND*%
X24500000Y-7300000D03*
X10250000Y-6100000D03*
X13950000Y-9850000D03*
X51500000Y-19500000D03*
X37750000Y-25500000D03*
X6000000Y-1000000D03*
X25000000Y-33100000D03*
X15500000Y-6050000D03*
X45500000Y-37500000D03*
X51500000Y-1500000D03*
X51500000Y-28500000D03*
X12300000Y-32000000D03*
X19537500Y-16150000D03*
X13200000Y-32900000D03*
X12400000Y-12700000D03*
X51500000Y-10500000D03*
X45750000Y-28250000D03*
X26000000Y-12500000D03*
X47000000Y-12250000D03*
X47800000Y-6600000D03*
X41800000Y-36500000D03*
X38250000Y-37500000D03*
X41775000Y-29800000D03*
X6200000Y-10300000D03*
X45475000Y-33100000D03*
X1500000Y-9000000D03*
X44500000Y-1000000D03*
X37500000Y-8500000D03*
X45750000Y-25750000D03*
X37000000Y-1000000D03*
X43500000Y-36500000D03*
X30800000Y-37500000D03*
X37675000Y-33050000D03*
X30000000Y-1000000D03*
X45475000Y-34550000D03*
X45475000Y-31450000D03*
X49400000Y-4800000D03*
X1500000Y-16500000D03*
X33000000Y-28000000D03*
X13000000Y-1000000D03*
X20000000Y-1000000D03*
X51000000Y-6600000D03*
X40100000Y-36500000D03*
X37250000Y-20500000D03*
X13500000Y-16300000D03*
X37975000Y-34550000D03*
X30600000Y-31400000D03*
X51500000Y-37500000D03*
X1500000Y-1500000D03*
X18000000Y-12500000D03*
X31000000Y-27200000D03*
X38700000Y-15300000D03*
X40075000Y-29800000D03*
X37975000Y-31450000D03*
X43475000Y-29550000D03*
%TO.N,+5V*%
X26800000Y-31950000D03*
X19500000Y-15050000D03*
%TO.N,UPDI_PWR*%
X27300000Y-34750000D03*
%TO.N,Net-(J1-S)*%
X14300000Y-8800000D03*
%TD*%
D41*
%TO.N,Net-(J1-S)*%
X14874999Y-13465332D02*
G75*
G03*
X14825001Y-13465332I-24999J-24997D01*
G01*
X14850018Y-9738055D02*
G75*
G03*
X14575250Y-9074750I-938118J-45D01*
G01*
X14300699Y-8800150D02*
G75*
G03*
X14300250Y-8800000I-399J-450D01*
G01*
X14925035Y-13568364D02*
G75*
G03*
X14887500Y-13477831I-128035J-36D01*
G01*
%TO.N,Net-(C12-Pad2)*%
X3200012Y-6000000D02*
G75*
G03*
X3058578Y-5658578I-482812J0D01*
G01*
X2399988Y-4800000D02*
G75*
G03*
X2541421Y-5141421I482812J0D01*
G01*
%TO.N,Net-(C11-Pad2)*%
X7162507Y-11912507D02*
G75*
G03*
X7150000Y-11942677I30193J-30193D01*
G01*
%TO.N,/AUDIO-R*%
X14724695Y-7849997D02*
G75*
G03*
X16474999Y-7124999I5J2475297D01*
G01*
X9222746Y-10377251D02*
G75*
G03*
X8825000Y-11337500I960254J-960249D01*
G01*
X18225304Y-6400003D02*
G75*
G03*
X16475001Y-7125001I-4J-2475297D01*
G01*
X22343501Y-7743503D02*
G75*
G03*
X19100000Y-6400000I-3243501J-3243497D01*
G01*
X24695291Y-10095279D02*
G75*
G03*
X25527500Y-10440000I832209J832179D01*
G01*
X13750000Y-7849992D02*
G75*
G03*
X10335786Y-9264213I0J-4828408D01*
G01*
%TO.N,/AUDIO-L*%
X25900006Y-6099994D02*
G75*
G03*
X22278679Y-4600000I-3621306J-3621306D01*
G01*
%TO.N,AUDIO_L*%
X5250000Y-7749988D02*
G75*
G03*
X4140380Y-8209619I0J-1569212D01*
G01*
D42*
X5868180Y-7749991D02*
G75*
G03*
X5922499Y-7727499I20J76791D01*
G01*
X5922506Y-7727506D02*
G75*
G03*
X5945000Y-7673180I-54306J54306D01*
G01*
D41*
%TO.N,AUDIO_R*%
X11011616Y-11188393D02*
G75*
G03*
X11100000Y-10975000I-213416J213393D01*
G01*
X10599998Y-11599998D02*
G75*
G03*
X10100000Y-12807106I1207102J-1207102D01*
G01*
D42*
%TO.N,Net-(D1-A)*%
X49395015Y-14591464D02*
G75*
G03*
X49397500Y-14597500I8485J-36D01*
G01*
D43*
%TO.N,RxD*%
X11027350Y-33900020D02*
G75*
G03*
X8419999Y-34979999I-50J-3687280D01*
G01*
X14799985Y-33199985D02*
G75*
G03*
X15500000Y-31510050I-1689985J1689985D01*
G01*
X15500012Y-30843969D02*
G75*
G03*
X15080000Y-29830000I-1434012J-31D01*
G01*
X7389496Y-36010501D02*
G75*
G03*
X7340000Y-36130000I119504J-119499D01*
G01*
X13110050Y-33900020D02*
G75*
G03*
X14799999Y-33199999I-50J2390020D01*
G01*
X14901038Y-29651040D02*
G75*
G03*
X14319118Y-29410000I-581938J-581960D01*
G01*
%TO.N,TxD*%
X15499998Y-33899998D02*
G75*
G03*
X16400000Y-31727207I-2172798J2172798D01*
G01*
X15347702Y-28497722D02*
G75*
G03*
X14484118Y-28140000I-863602J-863578D01*
G01*
X13327207Y-34800003D02*
G75*
G03*
X15500000Y-33900000I-7J3072803D01*
G01*
X16399991Y-30547020D02*
G75*
G03*
X15695000Y-28845000I-2406991J20D01*
G01*
X12589949Y-34800020D02*
G75*
G03*
X10900000Y-35500000I-49J-2389880D01*
G01*
X10040000Y-36199991D02*
G75*
G03*
X10313136Y-36086861I0J386291D01*
G01*
%TO.N,RTS*%
X10769669Y-33000000D02*
G75*
G03*
X11300000Y-32469669I31J530300D01*
G01*
X13268787Y-30680002D02*
G75*
G03*
X12057682Y-31181655I13J-1712798D01*
G01*
X9650000Y-33000014D02*
G75*
G03*
X6833274Y-34166727I0J-3983486D01*
G01*
X11675022Y-31564360D02*
G75*
G03*
X11300000Y-32469669I905278J-905340D01*
G01*
%TO.N,CTS*%
X16130009Y-34930009D02*
G75*
G03*
X17300000Y-32105370I-2824609J2824609D01*
G01*
X17300013Y-29867766D02*
G75*
G03*
X16050000Y-26850000I-4267813J-34D01*
G01*
X15090537Y-25890537D02*
G75*
G03*
X14389118Y-25600000I-701437J-701463D01*
G01*
X14995358Y-36064647D02*
G75*
G03*
X14960000Y-36150000I85342J-85353D01*
G01*
D41*
%TO.N,/AC2 OUT*%
X21534538Y-21334540D02*
G75*
G03*
X22634118Y-21790000I1099562J1099540D01*
G01*
X18920888Y-18720914D02*
G75*
G03*
X18870441Y-18700000I-50488J-50486D01*
G01*
X18870441Y-18700000D02*
X18811323Y-18700000D01*
D44*
%TO.N,UPDI_PWR*%
X28514644Y-34750018D02*
G75*
G03*
X28575000Y-34725000I-44J85418D01*
G01*
%TO.N,SERIAL_PWR*%
X13220009Y-36999991D02*
G75*
G03*
X15151370Y-37800000I1931391J1931391D01*
G01*
X25336827Y-37800009D02*
G75*
G03*
X26724998Y-37224998I-27J1963209D01*
G01*
X27925000Y-36650005D02*
G75*
G03*
X26858059Y-37091942I0J-1508895D01*
G01*
X28514644Y-36650018D02*
G75*
G03*
X28575000Y-36625000I-44J85418D01*
G01*
D41*
%TO.N,WOC*%
X21724016Y-23924058D02*
G75*
G03*
X22704118Y-24330000I980084J980158D01*
G01*
X25207365Y-24329985D02*
G75*
G03*
X25485000Y-24215000I35J392585D01*
G01*
X20859986Y-23060014D02*
G75*
G03*
X17793948Y-21790000I-3066086J-3066086D01*
G01*
%TO.N,WOD*%
X15442451Y-23442471D02*
G75*
G03*
X14519118Y-23060000I-923351J-923329D01*
G01*
X16330014Y-24329986D02*
G75*
G03*
X19396051Y-25600000I3066086J3066086D01*
G01*
X25400013Y-25799987D02*
G75*
G03*
X24917157Y-25600000I-482813J-482813D01*
G01*
%TO.N,WOB*%
X25047941Y-29410017D02*
G75*
G03*
X25482500Y-29230000I-41J614617D01*
G01*
%TO.N,WOA*%
X25527506Y-30814994D02*
G75*
G03*
X25201581Y-30680000I-325906J-325906D01*
G01*
%TO.N,MIC_CONTROL*%
X21802089Y-18402073D02*
G75*
G03*
X18900000Y-17200000I-2902089J-2902127D01*
G01*
X23278235Y-20199118D02*
G75*
G03*
X23051338Y-19651338I-774635J18D01*
G01*
%TO.N,UPDI*%
X9403294Y-26869998D02*
G75*
G03*
X7315000Y-27735000I6J-2953302D01*
G01*
D42*
%TO.N,+5V*%
X27375008Y-32524992D02*
G75*
G03*
X28763172Y-33100000I1388192J1388192D01*
G01*
D41*
X23123243Y-32105007D02*
G75*
G03*
X22968236Y-32479203I374157J-374193D01*
G01*
D42*
X35496466Y-35304914D02*
G75*
G03*
X35497500Y-35302500I34J1414D01*
G01*
D44*
X35497561Y-35307561D02*
G75*
G03*
X35496464Y-35305000I-1061J1061D01*
G01*
D42*
X35497500Y-35307500D02*
G75*
G03*
X35497500Y-35302500I-2500J2500D01*
G01*
D41*
X23497439Y-31950027D02*
G75*
G03*
X23123236Y-32105000I-39J-529173D01*
G01*
X17285355Y-15049982D02*
G75*
G03*
X17225000Y-15075000I45J-85418D01*
G01*
D44*
X35425010Y-35380010D02*
G75*
G03*
X35350000Y-35561066I181090J-181090D01*
G01*
X31062500Y-35649989D02*
G75*
G03*
X31382582Y-35517417I0J452689D01*
G01*
D42*
X34017855Y-34917863D02*
G75*
G03*
X34952500Y-35305000I934645J934663D01*
G01*
X25950000Y-31950000D02*
X24250000Y-31950000D01*
D41*
%TO.N,Net-(J2-IGN{slash}ACC)*%
X29362501Y-12937501D02*
G75*
G03*
X30200000Y-10915596I-2021901J2021901D01*
G01*
X30899986Y-8999986D02*
G75*
G03*
X30200000Y-10689949I1689914J-1689914D01*
G01*
X31153162Y-8746863D02*
G75*
G03*
X31600000Y-7668058I-1078762J1078763D01*
G01*
X31968050Y-6668050D02*
G75*
G03*
X31600000Y-7556630I888550J-888550D01*
G01*
X32856630Y-6300012D02*
G75*
G03*
X31968058Y-6668058I-30J-1256588D01*
G01*
X27537500Y-13775009D02*
G75*
G03*
X29223266Y-13076731I0J2384009D01*
G01*
X35060011Y-6949989D02*
G75*
G03*
X33490761Y-6300000I-1569211J-1569211D01*
G01*
D42*
%TO.N,/12V_CLEAN*%
X35699987Y-28899987D02*
G75*
G03*
X35500000Y-29382842I482813J-482813D01*
G01*
X38949999Y-27450001D02*
G75*
G03*
X37863603Y-27000000I-1086399J-1086399D01*
G01*
X39550000Y-22150000D02*
G75*
G03*
X39550000Y-22450000I150000J-150000D01*
G01*
X41450001Y-25075000D02*
G75*
G03*
X40937347Y-23837347I-1750301J0D01*
G01*
X39400000Y-28150000D02*
G75*
G03*
X39650000Y-28400000I250000J0D01*
G01*
X40937867Y-28399986D02*
G75*
G03*
X41299999Y-28249999I33J512086D01*
G01*
X39550009Y-22150009D02*
G75*
G03*
X39700000Y-21787867I-362109J362109D01*
G01*
X36147482Y-27752507D02*
G75*
G03*
X35900000Y-28350000I597518J-597493D01*
G01*
X35700033Y-28900033D02*
G75*
G03*
X35900000Y-28417157I-482933J482833D01*
G01*
X41300009Y-28250009D02*
G75*
G03*
X41450000Y-27887867I-362109J362109D01*
G01*
X39399986Y-28150000D02*
G75*
G03*
X39223223Y-27723223I-603586J0D01*
G01*
X37607106Y-27000003D02*
G75*
G03*
X36400000Y-27500000I-6J-1707097D01*
G01*
D41*
%TO.N,IGN_SENSE*%
X25199997Y-15375003D02*
G75*
G03*
X25320710Y-15425000I120703J120703D01*
G01*
X23959118Y-23060010D02*
G75*
G03*
X25121456Y-22578543I-18J1643810D01*
G01*
X25150005Y-15254289D02*
G75*
G03*
X25200000Y-15375000I170695J-11D01*
G01*
X25594992Y-22104992D02*
G75*
G03*
X26550000Y-19799426I-2305592J2305592D01*
G01*
%TO.N,AVCLAN_BUS_TX-*%
X32763737Y-13598737D02*
G75*
G03*
X32940000Y-13173244I-425537J425537D01*
G01*
X32549990Y-13812490D02*
G75*
G03*
X32512500Y-13903033I90510J-90510D01*
G01*
X32625000Y-13737500D02*
X32550000Y-13812500D01*
%TO.N,AVCLAN_TX-*%
X25888776Y-26869984D02*
G75*
G03*
X26490102Y-26620923I24J850384D01*
G01*
X27809232Y-25301801D02*
G75*
G03*
X27875000Y-25143014I-158832J158801D01*
G01*
X27940754Y-24984213D02*
G75*
G03*
X27875000Y-25143014I158846J-158787D01*
G01*
X31447394Y-21477553D02*
G75*
G03*
X32512500Y-18906250I-2571294J2571353D01*
G01*
%TO.N,AVCLAN_BUS_TX+*%
X34412511Y-10589371D02*
G75*
G03*
X34368750Y-10483750I-149411J-29D01*
G01*
%TO.N,AVCLAN_TX+*%
X36041789Y-17399995D02*
G75*
G03*
X36162500Y-17350000I11J170695D01*
G01*
X32931979Y-23067988D02*
G75*
G03*
X34412500Y-19493750I-3574279J3574288D01*
G01*
X27937500Y-29070000D02*
G75*
G03*
X27007500Y-28140000I-930000J0D01*
G01*
X28622478Y-27377459D02*
G75*
G03*
X27937500Y-29031250I1653822J-1653741D01*
G01*
%TO.N,GND*%
X43492677Y-34549947D02*
G75*
G03*
X43487501Y-34562499I23J-7353D01*
G01*
D44*
X12385355Y-31949982D02*
G75*
G03*
X12325000Y-31975000I45J-85418D01*
G01*
X38691166Y-15333843D02*
G75*
G03*
X38700000Y-15312500I-21366J21343D01*
G01*
D41*
X13459129Y-17125011D02*
G75*
G03*
X13334118Y-17426776I301771J-301789D01*
G01*
D42*
X37717677Y-33024991D02*
G75*
G03*
X37687500Y-33037500I23J-42709D01*
G01*
D41*
X43500009Y-34592677D02*
G75*
G03*
X43487500Y-34562500I-42709J-23D01*
G01*
D42*
X44400010Y-26294974D02*
G75*
G03*
X44050000Y-25450000I-1195010J-26D01*
G01*
X37724987Y-25475013D02*
G75*
G03*
X37664644Y-25450000I-60387J-60387D01*
G01*
D44*
X38145190Y-15649995D02*
G75*
G03*
X38537499Y-15487499I10J554795D01*
G01*
D41*
X41774991Y-32982322D02*
G75*
G03*
X41787500Y-33012500I42709J22D01*
G01*
X41837490Y-33062510D02*
G75*
G03*
X41928033Y-33100000I90510J90510D01*
G01*
D42*
X43699990Y-24605025D02*
G75*
G03*
X44050000Y-25450000I1195010J25D01*
G01*
D41*
X37450013Y-30553768D02*
G75*
G03*
X37712500Y-31187500I896187J-32D01*
G01*
D42*
X13978300Y-32035882D02*
G75*
G03*
X13892354Y-31950000I-85900J-18D01*
G01*
X37474924Y-25474924D02*
G75*
G03*
X37464644Y-25450000I-10324J10324D01*
G01*
X37535355Y-25449982D02*
G75*
G03*
X37475000Y-25475000I45J-85418D01*
G01*
X37662493Y-33037507D02*
G75*
G03*
X37632322Y-33025000I-30193J-30193D01*
G01*
D44*
X38712500Y-15299992D02*
G75*
G03*
X38733837Y-15291160I0J30192D01*
G01*
D41*
X18732501Y-16079999D02*
G75*
G03*
X18901494Y-16150000I168999J168999D01*
G01*
D42*
X36575000Y-25449986D02*
G75*
G03*
X34995926Y-26104073I0J-2233114D01*
G01*
X33050000Y-28000002D02*
G75*
G03*
X33135355Y-27964644I0J120702D01*
G01*
D41*
X13760894Y-17000004D02*
G75*
G03*
X13459119Y-17125001I6J-426796D01*
G01*
X40112462Y-34562462D02*
G75*
G03*
X40107322Y-34550000I-5162J5162D01*
G01*
D42*
X13917517Y-32182500D02*
G75*
G03*
X13978236Y-32035882I-146617J146600D01*
G01*
X29299429Y-8470588D02*
G75*
G03*
X28785000Y-9712500I1241871J-1241912D01*
G01*
X33000000Y-28100000D02*
G75*
G02*
X33000000Y-28100000I0J0D01*
G01*
X33000000Y-28100000D02*
G75*
G02*
X33000000Y-28100000I0J0D01*
G01*
D41*
X40039644Y-31450000D02*
G75*
G03*
X40075000Y-31414644I-44J35400D01*
G01*
X40099987Y-31475013D02*
G75*
G03*
X40039644Y-31450000I-60387J-60387D01*
G01*
X40074982Y-31414644D02*
G75*
G03*
X40100000Y-31475000I85418J44D01*
G01*
X43560355Y-31449982D02*
G75*
G03*
X43500000Y-31475000I45J-85418D01*
G01*
D42*
X37835355Y-25449982D02*
G75*
G03*
X37775000Y-25475000I45J-85418D01*
G01*
X41782322Y-33025053D02*
G75*
G03*
X41787499Y-33012501I-22J7353D01*
G01*
D41*
X41800000Y-33042677D02*
G75*
G03*
X41782322Y-33025000I-17700J-23D01*
G01*
D42*
X41812462Y-33037538D02*
G75*
G03*
X41800000Y-33042677I-5162J-5162D01*
G01*
D41*
X41812500Y-33037500D02*
G75*
G02*
X41812500Y-33037500I0J0D01*
G01*
X24414761Y-33099966D02*
G75*
G03*
X24070737Y-33242501I39J-486534D01*
G01*
D44*
X23275001Y-15550001D02*
G75*
G03*
X23050000Y-16093198I543199J-543199D01*
G01*
D41*
X43474893Y-31464644D02*
G75*
G03*
X43499999Y-31474999I14707J44D01*
G01*
X40112507Y-34562507D02*
G75*
G03*
X40100000Y-34592677I30193J-30193D01*
G01*
D42*
X37464644Y-25450000D02*
X37535355Y-25450000D01*
X33000000Y-28100000D02*
X33000000Y-28100000D01*
D41*
X41787500Y-33012500D02*
X41812500Y-33037500D01*
D42*
%TO.N,+12V*%
X39964540Y-11189526D02*
G75*
G03*
X38155000Y-10440000I-1809540J-1809574D01*
G01*
X43125014Y-14349986D02*
G75*
G03*
X43728553Y-14600000I603586J603586D01*
G01*
X46000014Y-15624264D02*
G75*
G03*
X45699999Y-14900001I-1024314J-36D01*
G01*
X46000000Y-15624264D02*
G75*
G02*
X46000000Y-15624264I0J0D01*
G01*
X46000014Y-15624264D02*
G75*
G03*
X45699999Y-14900001I-1024314J-36D01*
G01*
X44850000Y-18200000D02*
G75*
G03*
X46000000Y-17050000I0J1150000D01*
G01*
X45699989Y-14900011D02*
G75*
G03*
X44975735Y-14600000I-724289J-724289D01*
G01*
X49039646Y-22364642D02*
G75*
G03*
X49125000Y-22400000I85354J85342D01*
G01*
X45999996Y-17262500D02*
G75*
G03*
X47458407Y-20783407I4979304J0D01*
G01*
X42625000Y-13850000D02*
X43125000Y-14350000D01*
X38155000Y-10440000D02*
X37095000Y-10440000D01*
X49125000Y-22400000D02*
X49175000Y-22400000D01*
X43728553Y-14600000D02*
X44975735Y-14600000D01*
X49039644Y-22364644D02*
X47458407Y-20783407D01*
X46000000Y-15624264D02*
X46000000Y-17050000D01*
X46000000Y-15624264D02*
X46000000Y-17262500D01*
X44850000Y-18200000D02*
X43700000Y-18200000D01*
X39964533Y-11189533D02*
X42625000Y-13850000D01*
%TO.N,GND*%
X14925000Y-17000000D02*
X14925000Y-16300000D01*
D41*
X40100000Y-31475000D02*
X40125000Y-31500000D01*
D42*
X13200000Y-32900000D02*
X13917508Y-32182491D01*
X33050000Y-28000000D02*
X33000000Y-28000000D01*
D41*
X41837500Y-33062500D02*
X41812500Y-33037500D01*
X41775000Y-32982322D02*
X41775000Y-29800000D01*
X43492677Y-34550000D02*
X45475000Y-34550000D01*
D44*
X12325000Y-31975000D02*
X12300000Y-32000000D01*
X38700000Y-15312500D02*
X38700000Y-15300000D01*
D42*
X37664644Y-25450000D02*
X37535355Y-25450000D01*
X33000000Y-28100000D02*
X33000000Y-29250000D01*
X37464644Y-25450000D02*
X36575000Y-25450000D01*
X12400000Y-12700000D02*
X13200000Y-11710000D01*
X37835355Y-25450000D02*
X39400000Y-25450000D01*
X37775000Y-25475000D02*
X37750000Y-25500000D01*
D41*
X37975000Y-34550000D02*
X40107322Y-34550000D01*
X40075000Y-31414644D02*
X40075000Y-29800000D01*
D42*
X37687500Y-33037500D02*
X37675000Y-33050000D01*
D44*
X23500000Y-15325000D02*
X23500000Y-13825000D01*
D42*
X43700000Y-24605025D02*
X43700000Y-22300000D01*
D44*
X23275000Y-15550000D02*
X23500000Y-15325000D01*
D41*
X18732500Y-16080000D02*
X18662500Y-16010000D01*
X43500000Y-34592677D02*
X43500000Y-36500000D01*
D44*
X38712500Y-15300000D02*
X38700000Y-15300000D01*
D42*
X37475000Y-25475000D02*
X37450000Y-25500000D01*
X37725000Y-25475000D02*
X37750000Y-25500000D01*
D41*
X13334118Y-17426776D02*
X13334118Y-18700000D01*
D44*
X23050000Y-16093198D02*
X23050000Y-17250000D01*
D42*
X29299420Y-8470579D02*
X30170000Y-7600000D01*
D44*
X12300000Y-32000000D02*
X13200000Y-32900000D01*
X38691161Y-15333838D02*
X38537500Y-15487500D01*
D41*
X18901494Y-16150000D02*
X19537500Y-16150000D01*
D44*
X38145190Y-15650000D02*
X36212500Y-15650000D01*
D41*
X13200000Y-13440331D02*
X13200000Y-11950331D01*
D44*
X12385355Y-31950000D02*
X13892354Y-31950000D01*
D41*
X37450000Y-30553768D02*
X37450000Y-28700000D01*
D44*
X38733838Y-15291161D02*
X39925000Y-14100000D01*
D42*
X37717677Y-33025000D02*
X41782322Y-33025000D01*
D41*
X24070736Y-33242500D02*
X23928236Y-33385000D01*
X43475000Y-29550000D02*
X43475000Y-31464644D01*
X37975000Y-31450000D02*
X40039644Y-31450000D01*
X40100000Y-36500000D02*
X40100000Y-34592677D01*
D42*
X44400000Y-26294974D02*
X44400000Y-28100000D01*
D41*
X25000000Y-33100000D02*
X24414761Y-33100000D01*
X41928033Y-33100000D02*
X45475000Y-33100000D01*
D42*
X12400000Y-12700000D02*
X13200000Y-13200000D01*
D41*
X14925000Y-17000000D02*
X13760894Y-17000000D01*
D42*
X34995926Y-26104073D02*
X33135355Y-27964644D01*
D41*
X43560355Y-31450000D02*
X45475000Y-31450000D01*
X37975000Y-31450000D02*
X37712500Y-31187500D01*
D42*
X28785000Y-9712500D02*
X28785000Y-10440000D01*
X37662500Y-33037500D02*
X37675000Y-33050000D01*
X33000000Y-28100000D02*
X33000000Y-28000000D01*
X41812500Y-33037500D02*
X42900000Y-34125000D01*
D41*
X41800000Y-33042677D02*
X41800000Y-36500000D01*
D42*
X37632322Y-33025000D02*
X35500000Y-33025000D01*
D41*
%TO.N,AVCLAN_TX+*%
X32931995Y-23068004D02*
X28622509Y-27377490D01*
X27937500Y-30000000D02*
X27937500Y-29031250D01*
X34412500Y-19493750D02*
X34412500Y-17400000D01*
X27007500Y-28140000D02*
X23278236Y-28140000D01*
X27937500Y-29070000D02*
X27937500Y-30000000D01*
X36041789Y-17400000D02*
X34412500Y-17400000D01*
X36162500Y-17350000D02*
X36212500Y-17300000D01*
%TO.N,AVCLAN_BUS_TX+*%
X34412500Y-13775000D02*
X34412500Y-15575000D01*
X34368750Y-10483750D02*
X34325000Y-10440000D01*
X34412500Y-10589371D02*
X34412500Y-13775000D01*
%TO.N,AVCLAN_TX-*%
X25888776Y-26870000D02*
X23278236Y-26870000D01*
X32512500Y-18906250D02*
X32512500Y-17400000D01*
X26490102Y-26620923D02*
X27809229Y-25301798D01*
X27940770Y-24984229D02*
X31447420Y-21477579D01*
%TO.N,AVCLAN_BUS_TX-*%
X32940000Y-13173244D02*
X32940000Y-7600000D01*
X32625000Y-13737500D02*
X32763750Y-13598750D01*
X32512500Y-13903033D02*
X32512500Y-15575000D01*
%TO.N,IGN_SENSE*%
X26550000Y-15425000D02*
X25320710Y-15425000D01*
X25121456Y-22578543D02*
X25595000Y-22105000D01*
X26550000Y-17250000D02*
X26550000Y-19799426D01*
X25150000Y-15254289D02*
X25150000Y-13825000D01*
X26550000Y-15425000D02*
X26550000Y-17250000D01*
X23959118Y-23060000D02*
X23278236Y-23060000D01*
D42*
%TO.N,/12V_CLEAN*%
X35500000Y-29382842D02*
X35500000Y-30745000D01*
X41450000Y-25075000D02*
X41450000Y-25800000D01*
X39650000Y-28400000D02*
X40937867Y-28400000D01*
X41450000Y-25800000D02*
X41450000Y-27887867D01*
X39550000Y-22450000D02*
X40937347Y-23837347D01*
X35900000Y-28350000D02*
X35900000Y-28417157D01*
X36147487Y-27752512D02*
X36400000Y-27500000D01*
X38950000Y-27450000D02*
X39223223Y-27723223D01*
X39700000Y-21787867D02*
X39700000Y-18200000D01*
X37863603Y-27000000D02*
X37607106Y-27000000D01*
D41*
%TO.N,Net-(J2-IGN{slash}ACC)*%
X27537500Y-13775000D02*
X26550000Y-13775000D01*
X29362499Y-12937499D02*
X29223267Y-13076732D01*
X31600000Y-7668058D02*
X31600000Y-7556630D01*
X30200000Y-10915596D02*
X30200000Y-10689949D01*
X30899999Y-8999999D02*
X31153149Y-8746850D01*
X35060000Y-6950000D02*
X35710000Y-7600000D01*
X32856630Y-6300000D02*
X33490761Y-6300000D01*
D42*
%TO.N,Net-(D9-K)*%
X14984118Y-18700000D02*
X16384118Y-18700000D01*
D41*
%TO.N,+5V*%
X23497439Y-31950000D02*
X24250000Y-31950000D01*
D44*
X35497500Y-35307500D02*
X35425000Y-35380000D01*
D41*
X17285355Y-15050000D02*
X19500000Y-15050000D01*
D44*
X35350000Y-35561066D02*
X35350000Y-37300000D01*
D42*
X26800000Y-31950000D02*
X25950000Y-31950000D01*
X35496464Y-35305000D02*
X34952500Y-35305000D01*
D44*
X31062500Y-35650000D02*
X30875000Y-35650000D01*
X33000000Y-33900000D02*
X31382582Y-35517417D01*
D42*
X35497500Y-35302500D02*
X35495000Y-35300000D01*
X28763172Y-33100000D02*
X33000000Y-33100000D01*
X32500000Y-33100000D02*
X32500000Y-33100000D01*
X27375000Y-32525000D02*
X26800000Y-31950000D01*
D41*
X17225000Y-15075000D02*
X17200000Y-15100000D01*
D42*
X33000000Y-33900000D02*
X33000000Y-32200000D01*
X33000000Y-33900000D02*
X34017859Y-34917859D01*
D41*
X22968236Y-32479203D02*
X22968236Y-33385000D01*
%TO.N,UPDI*%
X9403294Y-26870000D02*
X13978236Y-26870000D01*
X7315000Y-27735000D02*
X6450000Y-28600000D01*
%TO.N,Net-(J3-Pin_3)*%
X4800000Y-28600000D02*
X4800000Y-31170000D01*
X4800000Y-30400000D02*
X4770000Y-30430000D01*
%TO.N,MIC_CONTROL*%
X23278236Y-20199118D02*
X23278236Y-20520000D01*
X18900000Y-17200000D02*
X17200000Y-17200000D01*
X21802081Y-18402081D02*
X23051338Y-19651338D01*
%TO.N,WOA*%
X25527500Y-30815000D02*
X25662500Y-30950000D01*
X25201581Y-30680000D02*
X23278236Y-30680000D01*
%TO.N,WOB*%
X25482500Y-29230000D02*
X25662500Y-29050000D01*
X25047941Y-29410000D02*
X23278236Y-29410000D01*
%TO.N,WOD*%
X23278236Y-25600000D02*
X24917157Y-25600000D01*
X25400000Y-25800000D02*
X25600000Y-26000000D01*
X14519118Y-23060000D02*
X13978236Y-23060000D01*
X19396051Y-25600000D02*
X23278236Y-25600000D01*
X15442461Y-23442461D02*
X16330000Y-24330000D01*
%TO.N,WOC*%
X17793948Y-21790000D02*
X13978236Y-21790000D01*
X22704118Y-24330000D02*
X23278236Y-24330000D01*
X21724037Y-23924037D02*
X20860000Y-23060000D01*
X25485000Y-24215000D02*
X25600000Y-24100000D01*
X23278236Y-24330000D02*
X25207365Y-24330000D01*
D44*
%TO.N,SERIAL_PWR*%
X15151370Y-37800000D02*
X25336827Y-37800000D01*
X28575000Y-36625000D02*
X28600000Y-36600000D01*
X26724999Y-37224999D02*
X26858058Y-37091941D01*
X27925000Y-36650000D02*
X28514644Y-36650000D01*
X13220000Y-37000000D02*
X12420000Y-36200000D01*
%TO.N,UPDI_PWR*%
X28575000Y-34725000D02*
X28600000Y-34700000D01*
X27300000Y-34750000D02*
X28514644Y-34750000D01*
D41*
%TO.N,/AC2 OUT*%
X22634118Y-21790000D02*
X23278236Y-21790000D01*
X18811323Y-18700000D02*
X17959118Y-18700000D01*
X21534539Y-21334539D02*
X18920901Y-18720901D01*
D43*
%TO.N,CTS*%
X17300000Y-32105370D02*
X17300000Y-29867766D01*
X16129999Y-34929999D02*
X14995355Y-36064644D01*
X16050000Y-26850000D02*
X15090537Y-25890537D01*
X14960000Y-36150000D02*
X14960000Y-36200000D01*
X14389118Y-25600000D02*
X13978236Y-25600000D01*
%TO.N,RTS*%
X10769669Y-33000000D02*
X9650000Y-33000000D01*
X13268787Y-30680000D02*
X13978236Y-30680000D01*
X12057682Y-31181655D02*
X11675000Y-31564338D01*
X6833273Y-34166726D02*
X4800000Y-36200000D01*
%TO.N,TxD*%
X10899999Y-35499999D02*
X10313137Y-36086862D01*
X13327207Y-34800000D02*
X12589949Y-34800000D01*
X14484118Y-28140000D02*
X13978236Y-28140000D01*
X15347712Y-28497712D02*
X15695000Y-28845000D01*
X16400000Y-31727207D02*
X16400000Y-30547020D01*
X10040000Y-36200000D02*
X9880000Y-36200000D01*
%TO.N,RxD*%
X8419999Y-34979999D02*
X7389497Y-36010502D01*
X7340000Y-36130000D02*
X7340000Y-36200000D01*
X14319118Y-29410000D02*
X13978236Y-29410000D01*
X11027350Y-33900000D02*
X13110050Y-33900000D01*
X15080000Y-29830000D02*
X14901039Y-29651039D01*
X15500000Y-31510050D02*
X15500000Y-30843969D01*
D42*
%TO.N,Net-(D1-A)*%
X49395000Y-14591464D02*
X49395000Y-10609669D01*
X49397500Y-14597500D02*
X49400000Y-14600000D01*
D41*
%TO.N,AUDIO_R*%
X11011611Y-11188388D02*
X10600000Y-11600000D01*
X10100000Y-12807106D02*
X10100000Y-13800000D01*
X11100000Y-10975000D02*
X11100000Y-10850000D01*
%TO.N,AUDIO_L*%
X5250000Y-7750000D02*
X5868180Y-7750000D01*
D42*
X5945000Y-7673180D02*
X5945000Y-7509669D01*
D41*
X4140380Y-8209619D02*
X3200000Y-9150000D01*
%TO.N,/AUDIO-L*%
X25900000Y-6100000D02*
X27400000Y-7600000D01*
X22278679Y-4600000D02*
X4050000Y-4600000D01*
%TO.N,/AUDIO-R*%
X14724695Y-7850000D02*
X13750000Y-7850000D01*
X8825000Y-11337500D02*
X8825000Y-11900000D01*
X9222747Y-10377252D02*
X10335786Y-9264213D01*
X18225304Y-6400000D02*
X19100000Y-6400000D01*
X25527500Y-10440000D02*
X26015000Y-10440000D01*
X22343502Y-7743502D02*
X24695285Y-10095285D01*
%TO.N,Net-(C11-Pad2)*%
X7150000Y-11942677D02*
X7150000Y-13800000D01*
X7162500Y-11912500D02*
X7175000Y-11900000D01*
%TO.N,Net-(C12-Pad2)*%
X2400000Y-4800000D02*
X2400000Y-4600000D01*
X3200000Y-6000000D02*
X3200000Y-6200000D01*
X3058578Y-5658578D02*
X2541421Y-5141421D01*
%TO.N,Net-(J1-S)*%
X14825000Y-13465331D02*
X14800000Y-13490331D01*
X14575250Y-9074750D02*
X14300676Y-8800176D01*
X14300250Y-8800000D02*
X14300000Y-8800000D01*
X14875000Y-13465331D02*
X14887500Y-13477831D01*
X14850000Y-9738055D02*
X14850000Y-11710000D01*
X14925000Y-13568364D02*
X14925000Y-15300000D01*
D42*
X14850000Y-11710000D02*
X14850000Y-13200000D01*
%TD*%
%TA.AperFunction,Conductor*%
%TO.N,GND*%
G36*
X6641621Y-320502D02*
G01*
X6688114Y-374158D01*
X6699500Y-426500D01*
X6699500Y-1440507D01*
X6696514Y-1461911D01*
X6695598Y-1471792D01*
X6697841Y-1495997D01*
X6699231Y-1510994D01*
X6699500Y-1516799D01*
X6699500Y-1527846D01*
X6701529Y-1538706D01*
X6702332Y-1544463D01*
X6705964Y-1583661D01*
X6708666Y-1593157D01*
X6711363Y-1601204D01*
X6714940Y-1610435D01*
X6735660Y-1643900D01*
X6738493Y-1648985D01*
X6756041Y-1684226D01*
X6756042Y-1684228D01*
X6756043Y-1684229D01*
X6762034Y-1692161D01*
X6767397Y-1698621D01*
X6774081Y-1705952D01*
X6805503Y-1729680D01*
X6809967Y-1733388D01*
X6839067Y-1759916D01*
X6839068Y-1759916D01*
X6847517Y-1765147D01*
X6854832Y-1769222D01*
X6863734Y-1773654D01*
X6863736Y-1773656D01*
X6880947Y-1778552D01*
X6901600Y-1784429D01*
X6907110Y-1786275D01*
X6943827Y-1800500D01*
X6943830Y-1800501D01*
X6953572Y-1802322D01*
X6961911Y-1803485D01*
X6971791Y-1804401D01*
X6971792Y-1804400D01*
X6971793Y-1804401D01*
X6981678Y-1803485D01*
X7010995Y-1800769D01*
X7016811Y-1800500D01*
X9061638Y-1800500D01*
X9129759Y-1820502D01*
X9176252Y-1874158D01*
X9186356Y-1944432D01*
X9156862Y-2009012D01*
X9128673Y-2033188D01*
X8995225Y-2117037D01*
X8867037Y-2245225D01*
X8770583Y-2398733D01*
X8737043Y-2494585D01*
X8710707Y-2569849D01*
X8690409Y-2750000D01*
X8710707Y-2930151D01*
X8710708Y-2930153D01*
X8756002Y-3059597D01*
X8770584Y-3101268D01*
X8818809Y-3178019D01*
X8867037Y-3254774D01*
X8995225Y-3382962D01*
X8995227Y-3382963D01*
X8995228Y-3382964D01*
X9148732Y-3479416D01*
X9319849Y-3539293D01*
X9454816Y-3554500D01*
X9545184Y-3554500D01*
X9680151Y-3539293D01*
X9851268Y-3479416D01*
X10004772Y-3382964D01*
X10132964Y-3254772D01*
X10229416Y-3101268D01*
X10289293Y-2930151D01*
X10309591Y-2750000D01*
X10289293Y-2569849D01*
X10229416Y-2398732D01*
X10132964Y-2245228D01*
X10132963Y-2245227D01*
X10132962Y-2245225D01*
X10004774Y-2117037D01*
X9871327Y-2033188D01*
X9824289Y-1980009D01*
X9813468Y-1909842D01*
X9842300Y-1844964D01*
X9901632Y-1805972D01*
X9938362Y-1800500D01*
X11940507Y-1800500D01*
X11961911Y-1803485D01*
X11971791Y-1804401D01*
X11971792Y-1804400D01*
X11971793Y-1804401D01*
X11981678Y-1803485D01*
X12010995Y-1800769D01*
X12016811Y-1800500D01*
X12027842Y-1800500D01*
X12027844Y-1800500D01*
X12038688Y-1798472D01*
X12044445Y-1797668D01*
X12083660Y-1794035D01*
X12083663Y-1794033D01*
X12093231Y-1791311D01*
X12101142Y-1788659D01*
X12110424Y-1785062D01*
X12110433Y-1785061D01*
X12143913Y-1764330D01*
X12148974Y-1761511D01*
X12184228Y-1743958D01*
X12184230Y-1743954D01*
X12192193Y-1737942D01*
X12198585Y-1732633D01*
X12205947Y-1725922D01*
X12205946Y-1725922D01*
X12205952Y-1725919D01*
X12229687Y-1694486D01*
X12233381Y-1690038D01*
X12259916Y-1660933D01*
X12259917Y-1660930D01*
X12265161Y-1652461D01*
X12269205Y-1645201D01*
X12273653Y-1636267D01*
X12273656Y-1636264D01*
X12284428Y-1598399D01*
X12286277Y-1592884D01*
X12300499Y-1556176D01*
X12302325Y-1546403D01*
X12303485Y-1538091D01*
X12304401Y-1528207D01*
X12300769Y-1489003D01*
X12300500Y-1483188D01*
X12300500Y-426500D01*
X12320502Y-358379D01*
X12374158Y-311886D01*
X12426500Y-300500D01*
X36000000Y-300500D01*
X36000000Y-6300000D01*
X35309752Y-6386280D01*
X35162389Y-6265343D01*
X35162379Y-6265336D01*
X35162372Y-6265330D01*
X35072623Y-6205362D01*
X34933413Y-6112345D01*
X34933390Y-6112331D01*
X34690538Y-5982526D01*
X34690530Y-5982522D01*
X34436120Y-5877145D01*
X34436115Y-5877143D01*
X34436114Y-5877143D01*
X34236195Y-5816500D01*
X34172586Y-5797205D01*
X34172588Y-5797205D01*
X33902517Y-5743489D01*
X33902503Y-5743487D01*
X33902498Y-5743486D01*
X33902491Y-5743485D01*
X33902489Y-5743485D01*
X33628450Y-5716498D01*
X33628442Y-5716498D01*
X33490751Y-5716500D01*
X32816405Y-5716500D01*
X32816057Y-5716510D01*
X32736023Y-5716510D01*
X32496887Y-5747988D01*
X32496866Y-5747992D01*
X32263879Y-5810416D01*
X32041029Y-5902721D01*
X32041020Y-5902725D01*
X31832115Y-6023335D01*
X31640752Y-6170171D01*
X31640741Y-6170181D01*
X31592374Y-6218548D01*
X31592336Y-6218568D01*
X31470178Y-6340726D01*
X31470163Y-6340743D01*
X31323328Y-6532105D01*
X31323326Y-6532108D01*
X31323324Y-6532111D01*
X31231261Y-6691572D01*
X31202716Y-6741015D01*
X31202711Y-6741024D01*
X31110408Y-6963870D01*
X31101109Y-6998573D01*
X31068498Y-7055054D01*
X30780704Y-7342848D01*
X30718392Y-7376874D01*
X30647577Y-7371809D01*
X30590741Y-7329262D01*
X30585611Y-7321873D01*
X30551762Y-7269203D01*
X30548643Y-7266500D01*
X30443100Y-7175048D01*
X30443098Y-7175047D01*
X30437314Y-7170035D01*
X30398930Y-7110309D01*
X30398930Y-7039313D01*
X30430730Y-6985715D01*
X30895471Y-6520972D01*
X30895471Y-6520971D01*
X30822486Y-6469867D01*
X30616328Y-6373734D01*
X30616323Y-6373732D01*
X30396602Y-6314859D01*
X30169999Y-6295034D01*
X29943397Y-6314859D01*
X29723676Y-6373732D01*
X29723672Y-6373734D01*
X29517515Y-6469867D01*
X29444526Y-6520973D01*
X29909268Y-6985715D01*
X29943294Y-7048027D01*
X29938229Y-7118842D01*
X29902685Y-7170035D01*
X29788238Y-7269202D01*
X29754388Y-7321875D01*
X29700732Y-7368368D01*
X29630458Y-7378471D01*
X29565877Y-7348978D01*
X29559294Y-7342849D01*
X29090972Y-6874526D01*
X29039867Y-6947515D01*
X28943734Y-7153672D01*
X28943732Y-7153676D01*
X28884859Y-7373397D01*
X28865034Y-7600000D01*
X28884859Y-7826602D01*
X28943732Y-8046323D01*
X28943734Y-8046328D01*
X29039867Y-8252486D01*
X29090972Y-8325471D01*
X29559293Y-7857150D01*
X29621606Y-7823125D01*
X29692421Y-7828189D01*
X29749257Y-7870736D01*
X29754387Y-7878124D01*
X29787823Y-7930151D01*
X29788239Y-7930798D01*
X29896900Y-8024952D01*
X29896901Y-8024952D01*
X29902684Y-8029963D01*
X29941068Y-8089689D01*
X29941068Y-8160685D01*
X29909268Y-8214283D01*
X29444527Y-8679026D01*
X29444527Y-8679027D01*
X29517513Y-8730132D01*
X29723671Y-8826265D01*
X29723676Y-8826267D01*
X29943396Y-8885140D01*
X29992429Y-8889430D01*
X30058547Y-8915293D01*
X30100187Y-8972796D01*
X30104128Y-9043683D01*
X30086214Y-9084952D01*
X30057009Y-9128660D01*
X29607075Y-9428616D01*
X29437483Y-9309866D01*
X29231328Y-9213734D01*
X29231323Y-9213732D01*
X29011602Y-9154859D01*
X28785000Y-9135034D01*
X28558397Y-9154859D01*
X28338676Y-9213732D01*
X28338672Y-9213734D01*
X28132515Y-9309867D01*
X28059526Y-9360973D01*
X28524268Y-9825715D01*
X28558294Y-9888027D01*
X28553229Y-9958842D01*
X28517685Y-10010035D01*
X28403238Y-10109202D01*
X28369388Y-10161875D01*
X28315732Y-10208368D01*
X28245458Y-10218471D01*
X28180877Y-10188978D01*
X28174294Y-10182849D01*
X27705972Y-9714526D01*
X27654867Y-9787515D01*
X27558734Y-9993672D01*
X27558732Y-9993676D01*
X27499859Y-10213397D01*
X27480034Y-10440000D01*
X27499859Y-10666602D01*
X27558732Y-10886323D01*
X27558734Y-10886328D01*
X27654867Y-11092486D01*
X27705972Y-11165471D01*
X28174293Y-10697150D01*
X28236606Y-10663125D01*
X28307421Y-10668189D01*
X28364257Y-10710736D01*
X28369387Y-10718124D01*
X28396805Y-10760787D01*
X28403239Y-10770798D01*
X28511900Y-10864952D01*
X28511901Y-10864952D01*
X28517684Y-10869963D01*
X28556068Y-10929689D01*
X28556068Y-11000685D01*
X28524268Y-11054283D01*
X28059527Y-11519026D01*
X28059527Y-11519027D01*
X28132513Y-11570132D01*
X28338671Y-11666265D01*
X28338676Y-11666267D01*
X28558397Y-11725140D01*
X28785000Y-11744965D01*
X29011602Y-11725140D01*
X29231323Y-11666267D01*
X29231332Y-11666264D01*
X29257283Y-11654162D01*
X29327474Y-11643499D01*
X29392287Y-11672476D01*
X29431146Y-11731895D01*
X29431711Y-11802889D01*
X29426945Y-11816573D01*
X29392470Y-11899803D01*
X29389402Y-11906174D01*
X29269371Y-12123353D01*
X29265610Y-12129339D01*
X29122018Y-12331715D01*
X29117609Y-12337243D01*
X28951120Y-12523542D01*
X28948692Y-12526110D01*
X28863931Y-12610872D01*
X28863924Y-12610879D01*
X28812128Y-12662676D01*
X28809119Y-12665495D01*
X28636705Y-12816700D01*
X28630160Y-12821722D01*
X28441194Y-12947987D01*
X28434049Y-12952112D01*
X28252794Y-13041500D01*
X28230245Y-13052620D01*
X28222623Y-13055777D01*
X28007427Y-13128827D01*
X27999458Y-13130962D01*
X27776568Y-13175299D01*
X27768389Y-13176375D01*
X27596635Y-13187633D01*
X27539694Y-13191365D01*
X27535577Y-13191500D01*
X27244583Y-13191500D01*
X27176462Y-13171498D01*
X27168449Y-13165897D01*
X27088932Y-13105597D01*
X27088930Y-13105596D01*
X26952503Y-13051796D01*
X26952498Y-13051795D01*
X26866769Y-13041500D01*
X26866768Y-13041500D01*
X26233232Y-13041500D01*
X26233230Y-13041500D01*
X26147501Y-13051795D01*
X26147496Y-13051796D01*
X26011069Y-13105596D01*
X26011066Y-13105598D01*
X25902887Y-13187633D01*
X25836522Y-13212856D01*
X25767056Y-13198195D01*
X25738466Y-13173722D01*
X25736883Y-13175306D01*
X25730794Y-13169217D01*
X25730788Y-13169213D01*
X25730788Y-13169212D01*
X25613932Y-13080597D01*
X25613929Y-13080596D01*
X25613930Y-13080596D01*
X25477503Y-13026796D01*
X25477498Y-13026795D01*
X25391769Y-13016500D01*
X25391768Y-13016500D01*
X24908232Y-13016500D01*
X24908230Y-13016500D01*
X24822501Y-13026795D01*
X24822496Y-13026796D01*
X24686069Y-13080596D01*
X24569209Y-13169214D01*
X24524789Y-13227791D01*
X24467690Y-13269984D01*
X24396844Y-13274609D01*
X24334744Y-13240197D01*
X24316563Y-13216841D01*
X24255072Y-13115123D01*
X24255070Y-13115120D01*
X24134879Y-12994929D01*
X24134874Y-12994925D01*
X23989399Y-12906982D01*
X23827101Y-12856408D01*
X23756573Y-12850000D01*
X23750000Y-12850000D01*
X23750000Y-14500000D01*
X23250000Y-14500000D01*
X23250000Y-14075000D01*
X22600001Y-14075000D01*
X22600001Y-14156571D01*
X22606408Y-14227101D01*
X22640503Y-14336515D01*
X22641673Y-14407502D01*
X22604278Y-14467852D01*
X22540192Y-14498405D01*
X22520208Y-14500000D01*
X20038297Y-14500000D01*
X19970176Y-14479998D01*
X19960656Y-14473170D01*
X19820269Y-14384959D01*
X19820267Y-14384958D01*
X19798450Y-14377324D01*
X19664252Y-14330366D01*
X19500000Y-14311859D01*
X19335748Y-14330366D01*
X19335745Y-14330366D01*
X19335745Y-14330367D01*
X19179734Y-14384957D01*
X19083464Y-14445447D01*
X19015143Y-14464752D01*
X18972397Y-14456815D01*
X18934182Y-14442562D01*
X18877792Y-14436500D01*
X18447219Y-14436500D01*
X18447195Y-14436502D01*
X18390817Y-14442562D01*
X18390816Y-14442562D01*
X18347935Y-14458556D01*
X18303904Y-14466500D01*
X17359992Y-14466500D01*
X17359330Y-14466460D01*
X17339089Y-14466471D01*
X17337278Y-14466471D01*
X17337234Y-14466459D01*
X17285048Y-14466482D01*
X17244534Y-14466500D01*
X16641261Y-14466500D01*
X16641237Y-14466502D01*
X16583671Y-14472690D01*
X16453399Y-14521277D01*
X16342097Y-14604597D01*
X16258777Y-14715899D01*
X16210189Y-14846171D01*
X16204000Y-14903740D01*
X16204000Y-15296238D01*
X16204002Y-15296262D01*
X16210190Y-15353828D01*
X16210190Y-15353830D01*
X16210191Y-15353832D01*
X16213161Y-15361795D01*
X16258777Y-15484100D01*
X16342097Y-15595402D01*
X16453399Y-15678722D01*
X16583671Y-15727310D01*
X16614941Y-15730671D01*
X16641253Y-15733500D01*
X17384668Y-15733499D01*
X17452788Y-15753501D01*
X17499281Y-15807157D01*
X17500000Y-15811225D01*
X17500000Y-15999999D01*
X17500000Y-16000000D01*
X17482310Y-16224771D01*
X17479216Y-16244301D01*
X17473066Y-16269916D01*
X17437713Y-16331485D01*
X17374686Y-16364166D01*
X17350548Y-16366500D01*
X16641261Y-16366500D01*
X16641237Y-16366502D01*
X16583671Y-16372690D01*
X16453399Y-16421277D01*
X16342097Y-16504597D01*
X16256738Y-16618624D01*
X16199902Y-16661171D01*
X16129086Y-16666235D01*
X16066774Y-16632210D01*
X16040231Y-16593150D01*
X16038783Y-16589805D01*
X16038395Y-16589148D01*
X16038246Y-16588564D01*
X16035632Y-16582521D01*
X16036606Y-16582099D01*
X16020929Y-16520333D01*
X16036356Y-16467792D01*
X16035632Y-16467479D01*
X16038174Y-16461602D01*
X16038395Y-16460852D01*
X16038781Y-16460199D01*
X16084600Y-16302489D01*
X16084796Y-16300000D01*
X15175000Y-16300000D01*
X15175000Y-17124000D01*
X15154998Y-17192121D01*
X15101342Y-17238614D01*
X15049000Y-17250000D01*
X13765204Y-17250000D01*
X13765399Y-17252489D01*
X13790489Y-17338847D01*
X13790286Y-17409844D01*
X13751732Y-17469460D01*
X13687067Y-17498768D01*
X13669492Y-17500000D01*
X2002252Y-17500000D01*
X1997756Y-17499839D01*
X1724354Y-17480285D01*
X1706560Y-17477726D01*
X1445345Y-17420902D01*
X1428095Y-17415838D01*
X1177613Y-17322413D01*
X1161261Y-17314945D01*
X926625Y-17186824D01*
X911501Y-17177104D01*
X697490Y-17016897D01*
X683904Y-17005124D01*
X494875Y-16816095D01*
X483102Y-16802509D01*
X443794Y-16750000D01*
X13765203Y-16750000D01*
X14675000Y-16750000D01*
X14675000Y-16300000D01*
X13765204Y-16300000D01*
X13765399Y-16302489D01*
X13811218Y-16460198D01*
X13811615Y-16460869D01*
X13811765Y-16461463D01*
X13814367Y-16467475D01*
X13813396Y-16467894D01*
X13829069Y-16529687D01*
X13813646Y-16582213D01*
X13814367Y-16582525D01*
X13811839Y-16588365D01*
X13811615Y-16589131D01*
X13811218Y-16589801D01*
X13765399Y-16747510D01*
X13765203Y-16750000D01*
X443794Y-16750000D01*
X441930Y-16747510D01*
X325630Y-16592152D01*
X300820Y-16525634D01*
X300500Y-16516673D01*
X300500Y-14488246D01*
X6241500Y-14488246D01*
X6256518Y-14602322D01*
X6315313Y-14744266D01*
X6315318Y-14744274D01*
X6408842Y-14866157D01*
X6530725Y-14959681D01*
X6530732Y-14959686D01*
X6672676Y-15018481D01*
X6786756Y-15033500D01*
X6786763Y-15033500D01*
X7513237Y-15033500D01*
X7513244Y-15033500D01*
X7627324Y-15018481D01*
X7769268Y-14959686D01*
X7891157Y-14866157D01*
X7984686Y-14744268D01*
X8043481Y-14602324D01*
X8058500Y-14488244D01*
X8058500Y-13111756D01*
X8043481Y-12997676D01*
X7984686Y-12855732D01*
X7984681Y-12855725D01*
X7891159Y-12733845D01*
X7891157Y-12733844D01*
X7891157Y-12733843D01*
X7819619Y-12678950D01*
X7777754Y-12621614D01*
X7773532Y-12550743D01*
X7795928Y-12502855D01*
X7844403Y-12438932D01*
X7882785Y-12341600D01*
X7926383Y-12285567D01*
X7993353Y-12261999D01*
X8062434Y-12278380D01*
X8111693Y-12329509D01*
X8117214Y-12341599D01*
X8155597Y-12438932D01*
X8244212Y-12555788D01*
X8361068Y-12644403D01*
X8497499Y-12698204D01*
X8583232Y-12708500D01*
X8583233Y-12708500D01*
X9066766Y-12708500D01*
X9066768Y-12708500D01*
X9126025Y-12701383D01*
X9196041Y-12713119D01*
X9248601Y-12760848D01*
X9267013Y-12829415D01*
X9257456Y-12874701D01*
X9206519Y-12997675D01*
X9191500Y-13111753D01*
X9191500Y-14488246D01*
X9206518Y-14602322D01*
X9265313Y-14744266D01*
X9265318Y-14744274D01*
X9358842Y-14866157D01*
X9480725Y-14959681D01*
X9480732Y-14959686D01*
X9622676Y-15018481D01*
X9736756Y-15033500D01*
X9736763Y-15033500D01*
X10463237Y-15033500D01*
X10463244Y-15033500D01*
X10577324Y-15018481D01*
X10719268Y-14959686D01*
X10841157Y-14866157D01*
X10934686Y-14744268D01*
X10993481Y-14602324D01*
X11008500Y-14488244D01*
X11008500Y-13690331D01*
X12300001Y-13690331D01*
X12300001Y-13771902D01*
X12306408Y-13842432D01*
X12356982Y-14004729D01*
X12356982Y-14004730D01*
X12444925Y-14150205D01*
X12444929Y-14150210D01*
X12565120Y-14270401D01*
X12565125Y-14270405D01*
X12710600Y-14358348D01*
X12872898Y-14408922D01*
X12943411Y-14415330D01*
X12943424Y-14415330D01*
X12949999Y-14415329D01*
X12950000Y-14415329D01*
X12950000Y-13690331D01*
X12300001Y-13690331D01*
X11008500Y-13690331D01*
X11008500Y-13190331D01*
X12300000Y-13190331D01*
X12950000Y-13190331D01*
X12950000Y-12200331D01*
X12300001Y-12200331D01*
X12300001Y-12281902D01*
X12306408Y-12352432D01*
X12356982Y-12514729D01*
X12426754Y-12630147D01*
X12444877Y-12698791D01*
X12426754Y-12760515D01*
X12356982Y-12875932D01*
X12306408Y-13038227D01*
X12306408Y-13038231D01*
X12300000Y-13108758D01*
X12300000Y-13190331D01*
X11008500Y-13190331D01*
X11008500Y-13111756D01*
X10993481Y-12997676D01*
X10934686Y-12855732D01*
X10934681Y-12855725D01*
X10841157Y-12733842D01*
X10763840Y-12674515D01*
X10721973Y-12617177D01*
X10717751Y-12546307D01*
X10718026Y-12545138D01*
X10736178Y-12469531D01*
X10742287Y-12450728D01*
X10802171Y-12306154D01*
X10811141Y-12288549D01*
X10892914Y-12155107D01*
X10904520Y-12139133D01*
X10978369Y-12052667D01*
X11037818Y-12013860D01*
X11074178Y-12008500D01*
X11207349Y-12008500D01*
X11207351Y-12008500D01*
X11418397Y-11969049D01*
X11618600Y-11891489D01*
X11801143Y-11778464D01*
X11959810Y-11633820D01*
X12079006Y-11475977D01*
X12136017Y-11433672D01*
X12206853Y-11428904D01*
X12269022Y-11463190D01*
X12302786Y-11525644D01*
X12305037Y-11563311D01*
X12300000Y-11618757D01*
X12300000Y-11700331D01*
X12950000Y-11700331D01*
X12950000Y-10975331D01*
X12949999Y-10975330D01*
X12943433Y-10975331D01*
X12943422Y-10975332D01*
X12872898Y-10981739D01*
X12710601Y-11032313D01*
X12710600Y-11032313D01*
X12565125Y-11120256D01*
X12565120Y-11120260D01*
X12439535Y-11245846D01*
X12438250Y-11244561D01*
X12388355Y-11280230D01*
X12317445Y-11283737D01*
X12255896Y-11248352D01*
X12223248Y-11185307D01*
X12225737Y-11126753D01*
X12225964Y-11125956D01*
X12243653Y-11063786D01*
X12263463Y-10850000D01*
X12243653Y-10636214D01*
X12217382Y-10543883D01*
X12184899Y-10429716D01*
X12184898Y-10429715D01*
X12184897Y-10429709D01*
X12089196Y-10237516D01*
X11959810Y-10066180D01*
X11959808Y-10066178D01*
X11801145Y-9921537D01*
X11670637Y-9840731D01*
X11618600Y-9808511D01*
X11618598Y-9808510D01*
X11618591Y-9808507D01*
X11418401Y-9730952D01*
X11418402Y-9730952D01*
X11418397Y-9730951D01*
X11207351Y-9691500D01*
X11056358Y-9691500D01*
X10988237Y-9671498D01*
X10941744Y-9617842D01*
X10931640Y-9547568D01*
X10961134Y-9482988D01*
X10971224Y-9472612D01*
X11019388Y-9428477D01*
X11023584Y-9424955D01*
X11313044Y-9202843D01*
X11317508Y-9199717D01*
X11625230Y-9003675D01*
X11629949Y-9000950D01*
X11953592Y-8832472D01*
X11958541Y-8830164D01*
X12295616Y-8690542D01*
X12300778Y-8688665D01*
X12648732Y-8578954D01*
X12653995Y-8577544D01*
X13010208Y-8498573D01*
X13015581Y-8497625D01*
X13377307Y-8450003D01*
X13382778Y-8449525D01*
X13463732Y-8445990D01*
X13532659Y-8463001D01*
X13581448Y-8514578D01*
X13594608Y-8584344D01*
X13588157Y-8613480D01*
X13583608Y-8626481D01*
X13580366Y-8635747D01*
X13575436Y-8679499D01*
X13561859Y-8800000D01*
X13580366Y-8964252D01*
X13580367Y-8964254D01*
X13634958Y-9120267D01*
X13634959Y-9120269D01*
X13722897Y-9260223D01*
X13839776Y-9377102D01*
X13949047Y-9445761D01*
X13979733Y-9465042D01*
X14135748Y-9519634D01*
X14135750Y-9519634D01*
X14142646Y-9521208D01*
X14142088Y-9523651D01*
X14196797Y-9546641D01*
X14233643Y-9596123D01*
X14242640Y-9617842D01*
X14248084Y-9630983D01*
X14256597Y-9662751D01*
X14258449Y-9676809D01*
X14265046Y-9726908D01*
X14265960Y-9733842D01*
X14266500Y-9742077D01*
X14266500Y-11057835D01*
X14246498Y-11125956D01*
X14240808Y-11134086D01*
X14157860Y-11243204D01*
X14100712Y-11285330D01*
X14029861Y-11289873D01*
X13967802Y-11255389D01*
X13958363Y-11244655D01*
X13955068Y-11240449D01*
X13834879Y-11120260D01*
X13834874Y-11120256D01*
X13689399Y-11032313D01*
X13527101Y-10981739D01*
X13456573Y-10975331D01*
X13450000Y-10975331D01*
X13450000Y-14415330D01*
X13456572Y-14415330D01*
X13527101Y-14408922D01*
X13689398Y-14358348D01*
X13689399Y-14358348D01*
X13834874Y-14270405D01*
X13834879Y-14270401D01*
X13955070Y-14150210D01*
X13955072Y-14150207D01*
X14016563Y-14048489D01*
X14068922Y-14000540D01*
X14138892Y-13988510D01*
X14204258Y-14016218D01*
X14224789Y-14037539D01*
X14269211Y-14096118D01*
X14291633Y-14113121D01*
X14333826Y-14170219D01*
X14341500Y-14213519D01*
X14341500Y-14372961D01*
X14321498Y-14441082D01*
X14267842Y-14487575D01*
X14259532Y-14491017D01*
X14178399Y-14521277D01*
X14067097Y-14604597D01*
X13983777Y-14715899D01*
X13935189Y-14846171D01*
X13929000Y-14903740D01*
X13929000Y-15296238D01*
X13929002Y-15296262D01*
X13935190Y-15353827D01*
X13935191Y-15353834D01*
X13935209Y-15353881D01*
X13935211Y-15353919D01*
X13937004Y-15361505D01*
X13935775Y-15361795D01*
X13940275Y-15424696D01*
X13906252Y-15487008D01*
X13894818Y-15498441D01*
X13894818Y-15498442D01*
X13811219Y-15639799D01*
X13765399Y-15797510D01*
X13765203Y-15800000D01*
X14582286Y-15800000D01*
X14630504Y-15809591D01*
X14630730Y-15809684D01*
X14630732Y-15809686D01*
X14772676Y-15868481D01*
X14925000Y-15888535D01*
X15077324Y-15868481D01*
X15219267Y-15809686D01*
X15219268Y-15809684D01*
X15219495Y-15809591D01*
X15267713Y-15800000D01*
X16084796Y-15800000D01*
X16084600Y-15797510D01*
X16038780Y-15639797D01*
X15955185Y-15498447D01*
X15955180Y-15498440D01*
X15943750Y-15487010D01*
X15909724Y-15424698D01*
X15914223Y-15361785D01*
X15912998Y-15361496D01*
X15914785Y-15353934D01*
X15914788Y-15353886D01*
X15914809Y-15353832D01*
X15914810Y-15353825D01*
X15920999Y-15296259D01*
X15920999Y-15296256D01*
X15921000Y-15296247D01*
X15920999Y-14903754D01*
X15914809Y-14846168D01*
X15878368Y-14748466D01*
X15866222Y-14715899D01*
X15782902Y-14604597D01*
X15671600Y-14521277D01*
X15590468Y-14491017D01*
X15533632Y-14448470D01*
X15508821Y-14381950D01*
X15508500Y-14372961D01*
X15508500Y-14030857D01*
X15517285Y-13984633D01*
X15573203Y-13842834D01*
X15573204Y-13842832D01*
X15583500Y-13757099D01*
X15583500Y-13627347D01*
X15595022Y-13575000D01*
X22600000Y-13575000D01*
X23250000Y-13575000D01*
X23250000Y-12850000D01*
X23249999Y-12849999D01*
X23243433Y-12850000D01*
X23243422Y-12850001D01*
X23172898Y-12856408D01*
X23010601Y-12906982D01*
X23010600Y-12906982D01*
X22865125Y-12994925D01*
X22865120Y-12994929D01*
X22744929Y-13115120D01*
X22744925Y-13115125D01*
X22656982Y-13260600D01*
X22656982Y-13260601D01*
X22606408Y-13422896D01*
X22606408Y-13422900D01*
X22600000Y-13493427D01*
X22600000Y-13575000D01*
X15595022Y-13575000D01*
X15595145Y-13574443D01*
X15644527Y-13467707D01*
X15683500Y-13290649D01*
X15683500Y-11664808D01*
X15668813Y-11529766D01*
X15665194Y-11519026D01*
X15610926Y-11357961D01*
X15610783Y-11357723D01*
X15517456Y-11202613D01*
X15496505Y-11180495D01*
X15468023Y-11150426D01*
X15435699Y-11087215D01*
X15433500Y-11063777D01*
X15433500Y-9812712D01*
X15433503Y-9812652D01*
X15433502Y-9808881D01*
X15433504Y-9808877D01*
X15433502Y-9790237D01*
X15433519Y-9790179D01*
X15433517Y-9738027D01*
X15433518Y-9738027D01*
X15433514Y-9638301D01*
X15433323Y-9636853D01*
X15407474Y-9440571D01*
X15407472Y-9440559D01*
X15407472Y-9440556D01*
X15355844Y-9247902D01*
X15279513Y-9063634D01*
X15279510Y-9063628D01*
X15279507Y-9063622D01*
X15179784Y-8890905D01*
X15058365Y-8732671D01*
X15058353Y-8732658D01*
X15058199Y-8732504D01*
X15058167Y-8732446D01*
X15055644Y-8729569D01*
X15056287Y-8729004D01*
X15024173Y-8670192D01*
X15022086Y-8657512D01*
X15019634Y-8635752D01*
X15019634Y-8635748D01*
X14999341Y-8577756D01*
X14995722Y-8506854D01*
X15031011Y-8445249D01*
X15094004Y-8412502D01*
X15105922Y-8410750D01*
X15174055Y-8404040D01*
X15468819Y-8345408D01*
X15756417Y-8258167D01*
X16034079Y-8143156D01*
X16299131Y-8001483D01*
X16549020Y-7834513D01*
X16640029Y-7759824D01*
X16781325Y-7643866D01*
X16781330Y-7643860D01*
X16781340Y-7643853D01*
X16830314Y-7594877D01*
X16830320Y-7594873D01*
X16837496Y-7587696D01*
X16837499Y-7587695D01*
X16886141Y-7539052D01*
X16889120Y-7536263D01*
X16889176Y-7536214D01*
X17018087Y-7423160D01*
X17082489Y-7393285D01*
X17152821Y-7402970D01*
X17206753Y-7449142D01*
X17227161Y-7517142D01*
X17207565Y-7585381D01*
X17201138Y-7594581D01*
X17199741Y-7596402D01*
X17029797Y-7850741D01*
X16894501Y-8125091D01*
X16894498Y-8125099D01*
X16796178Y-8414741D01*
X16796176Y-8414748D01*
X16796176Y-8414750D01*
X16786578Y-8463001D01*
X16736500Y-8714754D01*
X16736498Y-8714768D01*
X16716493Y-9019996D01*
X16716493Y-9020003D01*
X16736498Y-9325231D01*
X16736500Y-9325245D01*
X16767878Y-9482988D01*
X16794702Y-9617842D01*
X16796176Y-9625248D01*
X16796178Y-9625258D01*
X16894498Y-9914900D01*
X16894504Y-9914914D01*
X17029792Y-10189251D01*
X17199731Y-10443584D01*
X17199734Y-10443588D01*
X17199736Y-10443591D01*
X17199738Y-10443593D01*
X17255787Y-10507505D01*
X17401425Y-10673574D01*
X17521199Y-10778612D01*
X17631407Y-10875262D01*
X17631409Y-10875263D01*
X17631411Y-10875265D01*
X17631415Y-10875268D01*
X17728294Y-10940000D01*
X17885746Y-11045206D01*
X18160092Y-11180499D01*
X18449750Y-11278824D01*
X18749764Y-11338501D01*
X18901238Y-11348429D01*
X19054997Y-11358507D01*
X19055000Y-11358507D01*
X19055003Y-11358507D01*
X19169463Y-11351004D01*
X19360236Y-11338501D01*
X19660250Y-11278824D01*
X19949908Y-11180499D01*
X20224254Y-11045206D01*
X20478593Y-10875262D01*
X20708574Y-10673574D01*
X20910262Y-10443593D01*
X21080206Y-10189254D01*
X21215499Y-9914908D01*
X21313824Y-9625250D01*
X21373501Y-9325236D01*
X21393507Y-9020000D01*
X21392257Y-9000933D01*
X21380698Y-8824570D01*
X21373501Y-8714764D01*
X21313824Y-8414750D01*
X21310188Y-8404040D01*
X21260672Y-8258168D01*
X21215499Y-8125092D01*
X21080206Y-7850747D01*
X21012189Y-7748952D01*
X20990974Y-7681199D01*
X21009757Y-7612732D01*
X21062574Y-7565289D01*
X21132657Y-7553932D01*
X21184653Y-7572683D01*
X21227539Y-7600004D01*
X21393996Y-7706048D01*
X21398489Y-7709194D01*
X21474754Y-7767714D01*
X21671217Y-7918466D01*
X21675429Y-7922001D01*
X21930929Y-8156123D01*
X21974073Y-8199267D01*
X21988185Y-8213379D01*
X21988192Y-8213385D01*
X24311080Y-10536275D01*
X24311279Y-10536461D01*
X24364275Y-10589459D01*
X24364278Y-10589461D01*
X24547358Y-10729948D01*
X24747197Y-10845328D01*
X24747218Y-10845339D01*
X24959874Y-10933426D01*
X25015155Y-10977974D01*
X25024445Y-10993671D01*
X25047146Y-11039262D01*
X25047150Y-11039267D01*
X25173741Y-11206901D01*
X25173744Y-11206903D01*
X25173745Y-11206905D01*
X25264756Y-11289873D01*
X25328988Y-11348429D01*
X25328990Y-11348430D01*
X25507584Y-11459011D01*
X25507585Y-11459011D01*
X25507591Y-11459015D01*
X25703474Y-11534900D01*
X25909966Y-11573500D01*
X25909969Y-11573500D01*
X26120031Y-11573500D01*
X26120034Y-11573500D01*
X26326526Y-11534900D01*
X26522409Y-11459015D01*
X26701013Y-11348428D01*
X26856255Y-11206905D01*
X26982850Y-11039267D01*
X27076485Y-10851222D01*
X27133973Y-10649172D01*
X27144560Y-10534924D01*
X27153356Y-10440004D01*
X27153356Y-10439995D01*
X27134593Y-10237516D01*
X27133973Y-10230828D01*
X27076485Y-10028778D01*
X26982850Y-9840733D01*
X26905290Y-9738027D01*
X26856258Y-9673098D01*
X26831807Y-9650808D01*
X26733059Y-9560786D01*
X26701011Y-9531570D01*
X26701009Y-9531569D01*
X26522415Y-9420988D01*
X26522411Y-9420986D01*
X26522409Y-9420985D01*
X26326526Y-9345100D01*
X26120034Y-9306500D01*
X25909966Y-9306500D01*
X25703474Y-9345100D01*
X25507591Y-9420985D01*
X25507590Y-9420985D01*
X25507589Y-9420986D01*
X25507584Y-9420988D01*
X25328990Y-9531569D01*
X25328988Y-9531570D01*
X25223182Y-9628027D01*
X25159365Y-9659138D01*
X25088859Y-9650808D01*
X25049201Y-9624007D01*
X22813386Y-7388193D01*
X22813374Y-7388179D01*
X22738377Y-7313182D01*
X22738372Y-7313179D01*
X22729056Y-7303863D01*
X22729055Y-7303862D01*
X22727669Y-7302476D01*
X22727637Y-7302446D01*
X22646700Y-7221509D01*
X22612451Y-7187259D01*
X22612451Y-7187260D01*
X22612449Y-7187258D01*
X22303497Y-6923388D01*
X21974794Y-6684571D01*
X21974784Y-6684565D01*
X21974785Y-6684565D01*
X21787621Y-6569871D01*
X21628367Y-6472280D01*
X21266352Y-6287824D01*
X21099105Y-6218548D01*
X20890986Y-6132342D01*
X20504570Y-6006787D01*
X20504571Y-6006787D01*
X20500551Y-6005822D01*
X20109494Y-5911938D01*
X20109486Y-5911936D01*
X19708204Y-5848379D01*
X19708200Y-5848378D01*
X19708196Y-5848378D01*
X19460839Y-5828910D01*
X19303153Y-5816500D01*
X19303150Y-5816500D01*
X19138244Y-5816500D01*
X18187060Y-5816500D01*
X18185071Y-5816500D01*
X18184979Y-5816503D01*
X18075029Y-5816503D01*
X17775958Y-5845958D01*
X17775945Y-5845959D01*
X17775944Y-5845960D01*
X17775941Y-5845960D01*
X17775938Y-5845961D01*
X17481193Y-5904588D01*
X17193581Y-5991834D01*
X17193577Y-5991835D01*
X16915919Y-6106845D01*
X16650866Y-6248518D01*
X16400978Y-6415488D01*
X16168670Y-6606138D01*
X16168652Y-6606154D01*
X16112503Y-6662302D01*
X16112504Y-6662302D01*
X16112501Y-6662305D01*
X16083237Y-6691569D01*
X16063887Y-6710919D01*
X16060878Y-6713737D01*
X15879463Y-6872837D01*
X15872917Y-6877860D01*
X15674033Y-7010748D01*
X15666889Y-7014873D01*
X15452364Y-7120665D01*
X15444742Y-7123822D01*
X15218247Y-7200706D01*
X15210279Y-7202841D01*
X14975678Y-7249507D01*
X14967504Y-7250583D01*
X14901998Y-7254876D01*
X14726707Y-7266364D01*
X14722586Y-7266499D01*
X14650047Y-7266499D01*
X14650031Y-7266500D01*
X13802199Y-7266500D01*
X13802172Y-7266492D01*
X13750000Y-7266492D01*
X13537364Y-7266492D01*
X13537361Y-7266492D01*
X13372315Y-7279481D01*
X13113404Y-7299858D01*
X13113399Y-7299858D01*
X13113396Y-7299859D01*
X12693377Y-7366384D01*
X12279845Y-7465665D01*
X12164461Y-7503155D01*
X11875392Y-7597080D01*
X11875383Y-7597083D01*
X11875382Y-7597084D01*
X11868333Y-7600004D01*
X11482493Y-7759825D01*
X11103574Y-7952895D01*
X10740972Y-8175100D01*
X10396921Y-8425069D01*
X10086844Y-8689901D01*
X10073541Y-8701263D01*
X9946923Y-8827879D01*
X9946883Y-8827921D01*
X8860249Y-9914556D01*
X8860247Y-9914558D01*
X8810149Y-9964656D01*
X8781133Y-9993672D01*
X8720170Y-10054634D01*
X8720168Y-10054636D01*
X8565233Y-10256552D01*
X8437990Y-10476944D01*
X8437985Y-10476955D01*
X8437984Y-10476957D01*
X8346216Y-10698506D01*
X8340590Y-10712088D01*
X8274717Y-10957927D01*
X8241499Y-11210254D01*
X8241279Y-11213610D01*
X8216854Y-11280272D01*
X8215948Y-11281482D01*
X8155598Y-11361065D01*
X8155596Y-11361069D01*
X8117215Y-11458399D01*
X8073617Y-11514432D01*
X8006646Y-11538000D01*
X7937565Y-11521619D01*
X7888307Y-11470490D01*
X7882785Y-11458399D01*
X7844403Y-11361069D01*
X7844403Y-11361068D01*
X7755788Y-11244212D01*
X7638932Y-11155597D01*
X7638929Y-11155596D01*
X7638930Y-11155596D01*
X7502503Y-11101796D01*
X7502498Y-11101795D01*
X7416769Y-11091500D01*
X7416768Y-11091500D01*
X6933232Y-11091500D01*
X6933230Y-11091500D01*
X6847501Y-11101795D01*
X6847496Y-11101796D01*
X6711069Y-11155596D01*
X6594212Y-11244212D01*
X6505596Y-11361069D01*
X6451796Y-11497496D01*
X6451795Y-11497501D01*
X6441500Y-11583230D01*
X6441500Y-12216769D01*
X6451795Y-12302498D01*
X6451796Y-12302503D01*
X6471486Y-12352432D01*
X6505597Y-12438932D01*
X6535679Y-12478601D01*
X6560903Y-12544965D01*
X6546243Y-12614432D01*
X6511987Y-12654697D01*
X6408841Y-12733844D01*
X6315318Y-12855725D01*
X6315313Y-12855733D01*
X6256518Y-12997677D01*
X6241500Y-13111753D01*
X6241500Y-14488246D01*
X300500Y-14488246D01*
X300500Y-9513246D01*
X1966500Y-9513246D01*
X1981518Y-9627322D01*
X2040313Y-9769266D01*
X2040318Y-9769274D01*
X2133842Y-9891157D01*
X2255725Y-9984681D01*
X2255732Y-9984686D01*
X2397676Y-10043481D01*
X2511756Y-10058500D01*
X2511763Y-10058500D01*
X3888237Y-10058500D01*
X3888244Y-10058500D01*
X4002324Y-10043481D01*
X4144268Y-9984686D01*
X4266157Y-9891157D01*
X4359686Y-9769268D01*
X4418481Y-9627324D01*
X4433500Y-9513244D01*
X4433500Y-8793881D01*
X4453502Y-8725760D01*
X4470400Y-8704791D01*
X4495699Y-8679492D01*
X4495714Y-8679480D01*
X4502884Y-8672309D01*
X4502887Y-8672308D01*
X4551232Y-8623960D01*
X4554866Y-8620602D01*
X4632258Y-8554500D01*
X4663065Y-8528186D01*
X4679051Y-8516572D01*
X4794045Y-8446102D01*
X4811635Y-8437139D01*
X4840084Y-8425354D01*
X4910673Y-8417767D01*
X4974159Y-8449548D01*
X4988848Y-8465832D01*
X5019826Y-8506854D01*
X5040191Y-8533821D01*
X5198854Y-8678462D01*
X5198856Y-8678463D01*
X5198857Y-8678464D01*
X5381400Y-8791489D01*
X5403369Y-8800000D01*
X5581598Y-8869047D01*
X5581603Y-8869049D01*
X5792649Y-8908500D01*
X5792651Y-8908500D01*
X6007349Y-8908500D01*
X6007351Y-8908500D01*
X6218397Y-8869049D01*
X6418600Y-8791489D01*
X6601143Y-8678464D01*
X6759810Y-8533820D01*
X6889196Y-8362484D01*
X6984897Y-8170291D01*
X7043653Y-7963786D01*
X7063463Y-7750000D01*
X8690409Y-7750000D01*
X8710707Y-7930151D01*
X8718666Y-7952895D01*
X8764779Y-8084680D01*
X8770584Y-8101268D01*
X8816975Y-8175100D01*
X8867037Y-8254774D01*
X8995225Y-8382962D01*
X8995227Y-8382963D01*
X8995228Y-8382964D01*
X9148732Y-8479416D01*
X9319849Y-8539293D01*
X9454816Y-8554500D01*
X9545184Y-8554500D01*
X9680151Y-8539293D01*
X9851268Y-8479416D01*
X10004772Y-8382964D01*
X10132964Y-8254772D01*
X10229416Y-8101268D01*
X10289293Y-7930151D01*
X10309591Y-7750000D01*
X10289293Y-7569849D01*
X10229416Y-7398732D01*
X10132964Y-7245228D01*
X10132963Y-7245227D01*
X10132962Y-7245225D01*
X10004774Y-7117037D01*
X9873703Y-7034681D01*
X9851268Y-7020584D01*
X9851267Y-7020583D01*
X9851266Y-7020583D01*
X9751619Y-6985715D01*
X9680151Y-6960707D01*
X9545184Y-6945500D01*
X9454816Y-6945500D01*
X9319849Y-6960707D01*
X9319846Y-6960707D01*
X9319846Y-6960708D01*
X9148733Y-7020583D01*
X8995225Y-7117037D01*
X8867037Y-7245225D01*
X8770583Y-7398733D01*
X8721992Y-7537598D01*
X8710707Y-7569849D01*
X8690409Y-7750000D01*
X7063463Y-7750000D01*
X7043653Y-7536214D01*
X7041347Y-7528111D01*
X6984899Y-7329716D01*
X6984898Y-7329715D01*
X6984897Y-7329709D01*
X6889196Y-7137516D01*
X6759810Y-6966180D01*
X6757276Y-6963870D01*
X6601145Y-6821537D01*
X6427040Y-6713737D01*
X6418600Y-6708511D01*
X6418598Y-6708510D01*
X6418591Y-6708507D01*
X6218401Y-6630952D01*
X6218402Y-6630952D01*
X6218397Y-6630951D01*
X6007351Y-6591500D01*
X5792649Y-6591500D01*
X5633390Y-6621270D01*
X5581597Y-6630952D01*
X5381408Y-6708507D01*
X5381401Y-6708510D01*
X5198854Y-6821537D01*
X5040191Y-6966178D01*
X4910805Y-7137513D01*
X4910803Y-7137516D01*
X4908726Y-7141689D01*
X4860455Y-7193751D01*
X4823977Y-7208363D01*
X4779406Y-7218536D01*
X4653094Y-7247367D01*
X4424873Y-7327228D01*
X4207036Y-7432135D01*
X4207023Y-7432142D01*
X4002303Y-7560780D01*
X3813257Y-7711544D01*
X3727775Y-7797029D01*
X3727776Y-7797029D01*
X3700506Y-7824300D01*
X3320209Y-8204596D01*
X3257899Y-8238620D01*
X3231116Y-8241500D01*
X2511753Y-8241500D01*
X2397677Y-8256518D01*
X2255733Y-8315313D01*
X2255725Y-8315318D01*
X2133842Y-8408842D01*
X2040318Y-8530725D01*
X2040313Y-8530733D01*
X1981518Y-8672677D01*
X1966500Y-8786753D01*
X1966500Y-9513246D01*
X300500Y-9513246D01*
X300500Y-4916769D01*
X1666500Y-4916769D01*
X1676795Y-5002498D01*
X1676796Y-5002503D01*
X1730596Y-5138930D01*
X1730597Y-5138932D01*
X1819212Y-5255788D01*
X1936068Y-5344403D01*
X1936070Y-5344404D01*
X1936072Y-5344405D01*
X1943584Y-5348629D01*
X1942930Y-5349791D01*
X1991591Y-5387479D01*
X2032813Y-5444211D01*
X2056674Y-5511077D01*
X2042361Y-5572640D01*
X2043474Y-5573101D01*
X2040694Y-5579812D01*
X2040597Y-5580230D01*
X2040321Y-5580711D01*
X1981519Y-5722675D01*
X1966500Y-5836753D01*
X1966500Y-6563246D01*
X1981518Y-6677322D01*
X2040313Y-6819266D01*
X2040318Y-6819274D01*
X2133842Y-6941157D01*
X2247012Y-7027995D01*
X2255732Y-7034686D01*
X2397676Y-7093481D01*
X2511756Y-7108500D01*
X2511763Y-7108500D01*
X3888237Y-7108500D01*
X3888244Y-7108500D01*
X4002324Y-7093481D01*
X4144268Y-7034686D01*
X4266157Y-6941157D01*
X4359686Y-6819268D01*
X4418481Y-6677324D01*
X4433500Y-6563244D01*
X4433500Y-5836756D01*
X4418481Y-5722676D01*
X4359686Y-5580732D01*
X4358051Y-5578602D01*
X4357232Y-5576484D01*
X4355555Y-5573578D01*
X4356008Y-5573316D01*
X4332450Y-5512383D01*
X4346713Y-5442834D01*
X4396314Y-5392037D01*
X4411786Y-5384683D01*
X4513932Y-5344403D01*
X4630788Y-5255788D01*
X4647791Y-5233365D01*
X4704891Y-5191173D01*
X4748189Y-5183500D01*
X22207828Y-5183500D01*
X22207832Y-5183501D01*
X22278681Y-5183500D01*
X22671429Y-5200646D01*
X22676903Y-5201124D01*
X23063946Y-5252078D01*
X23069348Y-5253031D01*
X23450488Y-5337527D01*
X23455762Y-5338940D01*
X23828100Y-5456336D01*
X23833243Y-5458208D01*
X24129042Y-5580732D01*
X24193913Y-5607602D01*
X24198890Y-5609923D01*
X24545179Y-5790189D01*
X24549886Y-5792906D01*
X24879155Y-6002673D01*
X24883644Y-6005816D01*
X25193360Y-6243469D01*
X25197567Y-6247000D01*
X25299870Y-6340743D01*
X25487265Y-6512459D01*
X25544676Y-6569871D01*
X25544690Y-6569883D01*
X26247409Y-7272602D01*
X26281435Y-7334914D01*
X26279980Y-7384712D01*
X26282097Y-7385108D01*
X26281025Y-7390838D01*
X26261644Y-7599995D01*
X26261644Y-7600004D01*
X26281026Y-7809170D01*
X26321919Y-7952896D01*
X26338515Y-8011222D01*
X26432150Y-8199267D01*
X26443490Y-8214283D01*
X26558741Y-8366901D01*
X26558744Y-8366903D01*
X26558745Y-8366905D01*
X26664156Y-8463001D01*
X26713988Y-8508429D01*
X26713990Y-8508430D01*
X26892584Y-8619011D01*
X26892585Y-8619011D01*
X26892591Y-8619015D01*
X27088474Y-8694900D01*
X27294966Y-8733500D01*
X27294969Y-8733500D01*
X27505031Y-8733500D01*
X27505034Y-8733500D01*
X27711526Y-8694900D01*
X27907409Y-8619015D01*
X28086013Y-8508428D01*
X28241255Y-8366905D01*
X28367850Y-8199267D01*
X28461485Y-8011222D01*
X28518973Y-7809172D01*
X28528392Y-7707526D01*
X28538356Y-7600004D01*
X28538356Y-7599995D01*
X28520098Y-7402970D01*
X28518973Y-7390828D01*
X28461485Y-7188778D01*
X28367850Y-7000733D01*
X28312085Y-6926889D01*
X28241258Y-6833098D01*
X28228576Y-6821537D01*
X28108862Y-6712402D01*
X28086011Y-6691570D01*
X28086009Y-6691569D01*
X27907415Y-6580988D01*
X27907411Y-6580986D01*
X27907409Y-6580985D01*
X27711526Y-6505100D01*
X27505034Y-6466500D01*
X27294966Y-6466500D01*
X27294965Y-6466500D01*
X27188987Y-6486309D01*
X27118351Y-6479163D01*
X27076742Y-6451549D01*
X26369883Y-5744690D01*
X26369871Y-5744676D01*
X26349508Y-5724313D01*
X26349493Y-5724286D01*
X26154112Y-5528906D01*
X26072079Y-5458843D01*
X25813230Y-5237765D01*
X25762140Y-5200646D01*
X25450563Y-4974272D01*
X25450562Y-4974272D01*
X25450558Y-4974269D01*
X25068330Y-4740040D01*
X24668903Y-4536523D01*
X24547597Y-4486276D01*
X24254739Y-4364971D01*
X23828398Y-4226446D01*
X23778356Y-4214432D01*
X23392493Y-4121795D01*
X23009070Y-4061068D01*
X22949719Y-4051668D01*
X22949720Y-4051668D01*
X22502824Y-4016499D01*
X22502820Y-4016499D01*
X22278677Y-4016500D01*
X15459332Y-4016500D01*
X15391211Y-3996498D01*
X15344718Y-3942842D01*
X15334614Y-3872568D01*
X15364108Y-3807988D01*
X15370237Y-3801405D01*
X15402400Y-3769241D01*
X15402402Y-3769239D01*
X15452106Y-3662648D01*
X15458500Y-3614080D01*
X15458500Y-1885920D01*
X15452106Y-1837352D01*
X15402402Y-1730761D01*
X15402400Y-1730759D01*
X15402400Y-1730758D01*
X15319241Y-1647599D01*
X15314098Y-1645201D01*
X15212648Y-1597894D01*
X15212645Y-1597893D01*
X15164084Y-1591500D01*
X15164080Y-1591500D01*
X13435920Y-1591500D01*
X13435915Y-1591500D01*
X13387354Y-1597893D01*
X13387351Y-1597894D01*
X13280759Y-1647599D01*
X13280758Y-1647599D01*
X13197599Y-1730758D01*
X13197599Y-1730759D01*
X13147894Y-1837351D01*
X13147893Y-1837354D01*
X13141500Y-1885915D01*
X13141500Y-3614084D01*
X13147893Y-3662645D01*
X13147894Y-3662648D01*
X13197598Y-3769239D01*
X13197599Y-3769239D01*
X13197599Y-3769240D01*
X13197599Y-3769241D01*
X13229763Y-3801405D01*
X13263789Y-3863717D01*
X13258724Y-3934532D01*
X13216177Y-3991368D01*
X13149657Y-4016179D01*
X13140668Y-4016500D01*
X5866097Y-4016500D01*
X5797976Y-3996498D01*
X5751483Y-3942842D01*
X5740576Y-3879520D01*
X5743422Y-3846975D01*
X5294733Y-3398287D01*
X5260708Y-3335974D01*
X5265772Y-3265159D01*
X5304312Y-3211451D01*
X5405735Y-3128937D01*
X5405739Y-3128934D01*
X5454683Y-3059594D01*
X5510306Y-3015479D01*
X5580952Y-3008437D01*
X5644191Y-3040708D01*
X5646715Y-3043163D01*
X6096974Y-3493422D01*
X6096977Y-3493422D01*
X6151866Y-3415031D01*
X6151867Y-3415029D01*
X6249847Y-3204911D01*
X6249849Y-3204906D01*
X6309853Y-2980966D01*
X6330060Y-2749999D01*
X6309853Y-2519033D01*
X6249849Y-2295093D01*
X6249847Y-2295089D01*
X6151867Y-2084970D01*
X6096975Y-2006577D01*
X6096973Y-2006577D01*
X5650425Y-2453126D01*
X5588113Y-2487152D01*
X5517298Y-2482087D01*
X5460462Y-2439540D01*
X5458390Y-2436690D01*
X5453557Y-2429842D01*
X5350360Y-2319346D01*
X5317476Y-2299349D01*
X5269665Y-2246865D01*
X5257819Y-2176863D01*
X5285699Y-2111570D01*
X5293848Y-2102596D01*
X5743422Y-1653023D01*
X5665031Y-1598133D01*
X5454911Y-1500152D01*
X5454906Y-1500150D01*
X5230966Y-1440146D01*
X4999999Y-1419939D01*
X4769033Y-1440146D01*
X4545093Y-1500150D01*
X4545089Y-1500152D01*
X4334966Y-1598134D01*
X4256577Y-1653022D01*
X4256577Y-1653024D01*
X4705266Y-2101713D01*
X4739292Y-2164025D01*
X4734227Y-2234840D01*
X4695688Y-2288547D01*
X4594265Y-2371060D01*
X4594261Y-2371064D01*
X4545317Y-2440404D01*
X4489692Y-2484521D01*
X4419046Y-2491563D01*
X4355807Y-2459292D01*
X4353284Y-2456837D01*
X3903024Y-2006577D01*
X3903022Y-2006577D01*
X3848134Y-2084966D01*
X3750152Y-2295089D01*
X3750150Y-2295093D01*
X3690146Y-2519033D01*
X3669939Y-2749999D01*
X3690146Y-2980966D01*
X3750150Y-3204906D01*
X3750152Y-3204911D01*
X3848132Y-3415029D01*
X3848133Y-3415031D01*
X3972909Y-3593230D01*
X3995597Y-3660504D01*
X3978312Y-3729364D01*
X3926542Y-3777948D01*
X3869696Y-3791500D01*
X3808230Y-3791500D01*
X3722501Y-3801795D01*
X3722496Y-3801796D01*
X3586069Y-3855596D01*
X3469212Y-3944212D01*
X3380596Y-4061069D01*
X3342215Y-4158399D01*
X3298617Y-4214432D01*
X3231646Y-4238000D01*
X3162565Y-4221619D01*
X3113307Y-4170490D01*
X3107785Y-4158399D01*
X3069403Y-4061069D01*
X3069403Y-4061068D01*
X2980788Y-3944212D01*
X2863932Y-3855597D01*
X2863929Y-3855596D01*
X2863930Y-3855596D01*
X2727503Y-3801796D01*
X2727498Y-3801795D01*
X2641769Y-3791500D01*
X2641768Y-3791500D01*
X2158232Y-3791500D01*
X2158230Y-3791500D01*
X2072501Y-3801795D01*
X2072496Y-3801796D01*
X1936069Y-3855596D01*
X1819212Y-3944212D01*
X1730596Y-4061069D01*
X1676796Y-4197496D01*
X1676795Y-4197501D01*
X1666500Y-4283230D01*
X1666500Y-4916769D01*
X300500Y-4916769D01*
X300500Y-2002250D01*
X300661Y-1997755D01*
X312132Y-1837354D01*
X317155Y-1767117D01*
X319714Y-1749327D01*
X323346Y-1732633D01*
X367427Y-1529995D01*
X372485Y-1512767D01*
X450934Y-1302434D01*
X458395Y-1286098D01*
X565973Y-1089086D01*
X575690Y-1073967D01*
X710211Y-894267D01*
X721971Y-880696D01*
X880696Y-721971D01*
X894267Y-710211D01*
X1073970Y-575688D01*
X1089086Y-565973D01*
X1286098Y-458395D01*
X1302434Y-450934D01*
X1512767Y-372485D01*
X1529995Y-367427D01*
X1749331Y-319713D01*
X1767117Y-317155D01*
X1856953Y-310730D01*
X1997756Y-300661D01*
X2002252Y-300500D01*
X2047595Y-300500D01*
X6573500Y-300500D01*
X6641621Y-320502D01*
G37*
%TD.AperFunction*%
%TD*%
%TA.AperFunction,Conductor*%
%TO.N,GND*%
G36*
X51002208Y-300657D02*
G01*
X51233020Y-317165D01*
X51250529Y-319683D01*
X51470144Y-367458D01*
X51487103Y-372437D01*
X51697694Y-450983D01*
X51713777Y-458327D01*
X51911036Y-566040D01*
X51925919Y-575605D01*
X52105836Y-710289D01*
X52119207Y-721875D01*
X52278124Y-880792D01*
X52289710Y-894163D01*
X52424394Y-1074080D01*
X52433959Y-1088963D01*
X52541669Y-1286217D01*
X52549019Y-1302311D01*
X52627559Y-1512887D01*
X52632543Y-1529862D01*
X52680316Y-1749470D01*
X52682834Y-1766982D01*
X52699342Y-1997788D01*
X52699500Y-2002212D01*
X52699500Y-36997786D01*
X52699342Y-37002210D01*
X52682834Y-37233017D01*
X52680316Y-37250529D01*
X52632543Y-37470137D01*
X52627559Y-37487112D01*
X52549019Y-37697688D01*
X52541669Y-37713782D01*
X52433959Y-37911036D01*
X52424394Y-37925919D01*
X52289710Y-38105836D01*
X52278124Y-38119207D01*
X52119207Y-38278124D01*
X52105836Y-38289710D01*
X51925919Y-38424394D01*
X51911036Y-38433959D01*
X51713782Y-38541669D01*
X51697688Y-38549019D01*
X51487112Y-38627559D01*
X51470137Y-38632543D01*
X51250529Y-38680316D01*
X51233017Y-38682834D01*
X51019172Y-38698128D01*
X51002208Y-38699342D01*
X50997786Y-38699500D01*
X30982690Y-38699500D01*
X30915651Y-38679815D01*
X30908379Y-38674767D01*
X30697375Y-38516811D01*
X30684005Y-38505225D01*
X30494774Y-38315994D01*
X30483188Y-38302624D01*
X30473521Y-38289710D01*
X30322802Y-38088375D01*
X30313244Y-38073501D01*
X30184987Y-37838616D01*
X30177638Y-37822524D01*
X30137079Y-37713782D01*
X30084108Y-37571762D01*
X30079129Y-37554803D01*
X30022241Y-37293291D01*
X30019724Y-37275785D01*
X30016665Y-37233017D01*
X30007151Y-37100000D01*
X31600001Y-37100000D01*
X31600001Y-37224986D01*
X31610494Y-37327697D01*
X31665641Y-37494119D01*
X31665643Y-37494124D01*
X31757684Y-37643345D01*
X31881654Y-37767315D01*
X32030875Y-37859356D01*
X32030880Y-37859358D01*
X32197302Y-37914505D01*
X32197309Y-37914506D01*
X32300019Y-37924999D01*
X32749999Y-37924999D01*
X32750000Y-37924998D01*
X32750000Y-37100000D01*
X31600001Y-37100000D01*
X30007151Y-37100000D01*
X30000157Y-37002208D01*
X30000000Y-36997786D01*
X30000000Y-36537233D01*
X30019685Y-36470194D01*
X30072489Y-36424439D01*
X30141647Y-36414495D01*
X30158593Y-36418156D01*
X30259931Y-36447598D01*
X30272222Y-36448565D01*
X30296804Y-36450500D01*
X30296806Y-36450500D01*
X30492885Y-36450500D01*
X30544951Y-36461961D01*
X30593798Y-36484560D01*
X30593800Y-36484560D01*
X30593803Y-36484562D01*
X30593805Y-36484562D01*
X30593807Y-36484563D01*
X30618521Y-36490003D01*
X30779784Y-36525500D01*
X30779785Y-36525500D01*
X31111532Y-36525500D01*
X31111911Y-36525489D01*
X31149548Y-36525490D01*
X31322155Y-36502767D01*
X31437698Y-36471810D01*
X31443909Y-36470146D01*
X31513759Y-36471810D01*
X31571620Y-36510973D01*
X31599123Y-36575202D01*
X31600000Y-36589921D01*
X31600000Y-36600000D01*
X32750000Y-36600000D01*
X32750000Y-35775000D01*
X32662503Y-35775000D01*
X32595464Y-35755315D01*
X32549709Y-35702511D01*
X32539765Y-35633353D01*
X32568790Y-35569797D01*
X32574808Y-35563333D01*
X32823933Y-35314208D01*
X32885252Y-35280726D01*
X32954943Y-35285710D01*
X32999291Y-35314211D01*
X33242995Y-35557915D01*
X33243031Y-35557954D01*
X33267357Y-35582280D01*
X33300842Y-35643603D01*
X33295858Y-35713295D01*
X33267358Y-35757641D01*
X33250000Y-35774999D01*
X33250000Y-37924999D01*
X33699972Y-37924999D01*
X33699986Y-37924998D01*
X33802697Y-37914505D01*
X33969119Y-37859358D01*
X33969124Y-37859356D01*
X34118342Y-37767317D01*
X34212318Y-37673341D01*
X34273641Y-37639856D01*
X34343333Y-37644840D01*
X34399267Y-37686711D01*
X34417706Y-37722018D01*
X34462996Y-37858694D01*
X34463001Y-37858705D01*
X34552029Y-38003040D01*
X34552032Y-38003044D01*
X34671955Y-38122967D01*
X34671959Y-38122970D01*
X34816294Y-38211998D01*
X34816297Y-38211999D01*
X34816303Y-38212003D01*
X34977292Y-38265349D01*
X35076655Y-38275500D01*
X35623344Y-38275499D01*
X35623352Y-38275498D01*
X35623355Y-38275498D01*
X35677760Y-38269940D01*
X35722708Y-38265349D01*
X35883697Y-38212003D01*
X36028044Y-38122968D01*
X36037668Y-38113343D01*
X36098987Y-38079856D01*
X36168679Y-38084835D01*
X36213034Y-38113339D01*
X36222267Y-38122572D01*
X36222271Y-38122575D01*
X36366507Y-38211542D01*
X36366518Y-38211547D01*
X36527393Y-38264855D01*
X36626683Y-38274999D01*
X36650000Y-38274998D01*
X37149999Y-38274998D01*
X37150000Y-38274999D01*
X37173308Y-38274999D01*
X37173322Y-38274998D01*
X37272607Y-38264855D01*
X37433481Y-38211547D01*
X37433492Y-38211542D01*
X37577728Y-38122575D01*
X37577732Y-38122572D01*
X37697572Y-38002732D01*
X37697575Y-38002728D01*
X37786542Y-37858492D01*
X37786547Y-37858481D01*
X37839855Y-37697606D01*
X37849999Y-37598322D01*
X37850000Y-37598309D01*
X37850000Y-37550000D01*
X37150000Y-37550000D01*
X37149999Y-38274998D01*
X36650000Y-38274998D01*
X36650000Y-37174000D01*
X36669685Y-37106961D01*
X36722489Y-37061206D01*
X36774000Y-37050000D01*
X37849999Y-37050000D01*
X37849999Y-37001692D01*
X37849998Y-37001677D01*
X37839855Y-36902392D01*
X37786547Y-36741518D01*
X37786542Y-36741507D01*
X37697575Y-36597271D01*
X37697572Y-36597267D01*
X37577732Y-36477427D01*
X37577728Y-36477424D01*
X37433492Y-36388457D01*
X37433481Y-36388452D01*
X37272606Y-36335144D01*
X37173322Y-36325000D01*
X37039636Y-36325000D01*
X36972597Y-36305315D01*
X36926842Y-36252511D01*
X36916898Y-36183353D01*
X36939704Y-36130286D01*
X36938920Y-36129803D01*
X36942191Y-36124499D01*
X36942366Y-36124093D01*
X36942707Y-36123660D01*
X36942712Y-36123656D01*
X37034814Y-35974334D01*
X37089999Y-35807797D01*
X37100500Y-35705009D01*
X37100499Y-34904992D01*
X37094830Y-34849500D01*
X37089999Y-34802203D01*
X37089998Y-34802200D01*
X37089269Y-34800000D01*
X38100000Y-34800000D01*
X38100000Y-35724985D01*
X38100004Y-35725018D01*
X38110494Y-35827699D01*
X38165640Y-35994120D01*
X38165642Y-35994125D01*
X38257683Y-36143346D01*
X38381653Y-36267316D01*
X38530874Y-36359357D01*
X38530879Y-36359359D01*
X38697302Y-36414506D01*
X38697300Y-36414506D01*
X38756134Y-36420516D01*
X38767124Y-36425000D01*
X38796858Y-36425000D01*
X38803163Y-36425321D01*
X38813462Y-36426373D01*
X38821419Y-36425000D01*
X38851375Y-36425000D01*
X38851384Y-36424999D01*
X39875000Y-36424999D01*
X39875000Y-36424998D01*
X40374999Y-36424998D01*
X40375000Y-36424999D01*
X41550000Y-36424999D01*
X41550000Y-34800000D01*
X42050000Y-34800000D01*
X42050000Y-36424999D01*
X43224999Y-36424999D01*
X43224999Y-36424998D01*
X43225000Y-34800000D01*
X43725000Y-34800000D01*
X43725000Y-36424999D01*
X44799974Y-36424999D01*
X44799988Y-36424998D01*
X44902699Y-36414505D01*
X45069120Y-36359359D01*
X45069125Y-36359357D01*
X45218346Y-36267316D01*
X45342316Y-36143346D01*
X45434357Y-35994125D01*
X45434359Y-35994120D01*
X45489505Y-35827698D01*
X45499999Y-35724988D01*
X45500000Y-35724975D01*
X45500000Y-34800000D01*
X43725000Y-34800000D01*
X43225000Y-34800000D01*
X42050000Y-34800000D01*
X41550000Y-34800000D01*
X40375000Y-34800000D01*
X40374999Y-36424998D01*
X39875000Y-36424998D01*
X39875000Y-34800000D01*
X38100000Y-34800000D01*
X37089269Y-34800000D01*
X37068784Y-34738181D01*
X37034814Y-34635666D01*
X36942712Y-34486344D01*
X36818656Y-34362288D01*
X36669428Y-34270244D01*
X36622705Y-34218297D01*
X36611482Y-34149334D01*
X36639326Y-34085252D01*
X36669430Y-34059167D01*
X36818343Y-33967317D01*
X36942315Y-33843345D01*
X37034356Y-33694124D01*
X37034358Y-33694119D01*
X37089505Y-33527697D01*
X37089506Y-33527690D01*
X37099999Y-33424986D01*
X37100000Y-33424973D01*
X37100000Y-33275000D01*
X38100000Y-33275000D01*
X38100000Y-34300000D01*
X39875000Y-34300000D01*
X39875000Y-33275000D01*
X40375000Y-33275000D01*
X40375000Y-34300000D01*
X41550000Y-34300000D01*
X41550000Y-33275000D01*
X40375000Y-33275000D01*
X39875000Y-33275000D01*
X38100000Y-33275000D01*
X37100000Y-33275000D01*
X35374000Y-33275000D01*
X35306961Y-33255315D01*
X35261206Y-33202511D01*
X35250000Y-33151000D01*
X35250000Y-32899000D01*
X35269685Y-32831961D01*
X35322489Y-32786206D01*
X35374000Y-32775000D01*
X37099999Y-32775000D01*
X37099999Y-32625028D01*
X37099998Y-32625013D01*
X37089505Y-32522302D01*
X37034358Y-32355880D01*
X37034356Y-32355875D01*
X36942315Y-32206654D01*
X36818345Y-32082684D01*
X36669429Y-31990832D01*
X36622705Y-31938884D01*
X36611482Y-31869921D01*
X36639326Y-31805839D01*
X36669426Y-31779756D01*
X36717669Y-31750000D01*
X38100000Y-31750000D01*
X38100000Y-32775000D01*
X39875000Y-32775000D01*
X39875000Y-31750000D01*
X40375000Y-31750000D01*
X40375000Y-32775000D01*
X41926000Y-32775000D01*
X41993039Y-32794685D01*
X42038794Y-32847489D01*
X42050000Y-32899000D01*
X42050000Y-34300000D01*
X43225000Y-34300000D01*
X43725000Y-34300000D01*
X45499999Y-34300000D01*
X45499999Y-33224812D01*
X45519684Y-33157773D01*
X45572487Y-33112018D01*
X45641646Y-33102074D01*
X45705202Y-33131099D01*
X45727808Y-33156990D01*
X45801564Y-33269882D01*
X46416050Y-32655395D01*
X46477373Y-32621910D01*
X46547064Y-32626894D01*
X46602998Y-32668765D01*
X46608039Y-32676025D01*
X46608048Y-32676039D01*
X46643239Y-32730798D01*
X46758602Y-32830759D01*
X46756293Y-32833422D01*
X46791006Y-32873499D01*
X46800935Y-32942660D01*
X46771898Y-33006210D01*
X46765882Y-33012669D01*
X46154942Y-33623609D01*
X46201768Y-33660055D01*
X46201770Y-33660056D01*
X46420385Y-33778364D01*
X46420396Y-33778369D01*
X46655506Y-33859083D01*
X46900707Y-33900000D01*
X47149293Y-33900000D01*
X47394493Y-33859083D01*
X47629603Y-33778369D01*
X47629614Y-33778364D01*
X47848228Y-33660057D01*
X47848231Y-33660055D01*
X47895056Y-33623609D01*
X47284116Y-33012669D01*
X47250631Y-32951346D01*
X47255615Y-32881654D01*
X47292641Y-32832193D01*
X47291398Y-32830759D01*
X47333030Y-32794685D01*
X47406761Y-32730798D01*
X47441954Y-32676037D01*
X47494755Y-32630283D01*
X47563914Y-32620339D01*
X47627470Y-32649363D01*
X47633949Y-32655396D01*
X48248434Y-33269882D01*
X48348731Y-33116369D01*
X48448587Y-32888717D01*
X48509612Y-32647738D01*
X48509614Y-32647729D01*
X48530141Y-32400005D01*
X48530141Y-32399994D01*
X48509614Y-32152270D01*
X48509612Y-32152261D01*
X48448587Y-31911282D01*
X48348731Y-31683630D01*
X48248434Y-31530116D01*
X47633949Y-32144602D01*
X47572626Y-32178087D01*
X47502934Y-32173103D01*
X47447001Y-32131231D01*
X47441953Y-32123961D01*
X47406761Y-32069202D01*
X47316316Y-31990832D01*
X47298100Y-31975048D01*
X47298099Y-31975047D01*
X47291398Y-31969241D01*
X47293698Y-31966585D01*
X47258960Y-31926428D01*
X47249074Y-31857261D01*
X47278152Y-31793729D01*
X47284116Y-31787329D01*
X47895056Y-31176389D01*
X47848229Y-31139943D01*
X47629614Y-31021635D01*
X47629603Y-31021630D01*
X47394493Y-30940916D01*
X47149293Y-30900000D01*
X46900707Y-30900000D01*
X46655506Y-30940916D01*
X46420396Y-31021630D01*
X46420390Y-31021632D01*
X46201761Y-31139949D01*
X46154942Y-31176388D01*
X46154942Y-31176390D01*
X46765883Y-31787330D01*
X46799368Y-31848653D01*
X46794384Y-31918344D01*
X46757358Y-31967805D01*
X46758602Y-31969241D01*
X46751900Y-31975047D01*
X46751900Y-31975048D01*
X46733879Y-31990662D01*
X46643238Y-32069202D01*
X46608046Y-32123962D01*
X46555242Y-32169717D01*
X46486083Y-32179660D01*
X46422528Y-32150634D01*
X46416050Y-32144603D01*
X45801564Y-31530116D01*
X45701266Y-31683634D01*
X45692567Y-31703465D01*
X45647610Y-31756949D01*
X45580873Y-31777637D01*
X45513546Y-31758960D01*
X45502255Y-31750000D01*
X43725000Y-31750000D01*
X43725000Y-34300000D01*
X43225000Y-34300000D01*
X43225000Y-31750000D01*
X40375000Y-31750000D01*
X39875000Y-31750000D01*
X38100000Y-31750000D01*
X36717669Y-31750000D01*
X36818656Y-31687712D01*
X36942712Y-31563656D01*
X37034814Y-31414334D01*
X37089999Y-31247797D01*
X37100500Y-31145009D01*
X37100499Y-30344992D01*
X37099104Y-30331340D01*
X37089999Y-30242203D01*
X37089998Y-30242200D01*
X37083404Y-30222300D01*
X37034814Y-30075666D01*
X36942712Y-29926344D01*
X36854845Y-29838477D01*
X36821360Y-29777154D01*
X36826344Y-29707462D01*
X36868216Y-29651529D01*
X36933680Y-29627112D01*
X36981530Y-29633090D01*
X37077393Y-29664855D01*
X37176683Y-29674999D01*
X37200000Y-29674998D01*
X37200000Y-28574000D01*
X37219685Y-28506961D01*
X37272489Y-28461206D01*
X37324000Y-28450000D01*
X37576000Y-28450000D01*
X37643039Y-28469685D01*
X37688794Y-28522489D01*
X37700000Y-28574000D01*
X37700000Y-29674999D01*
X37723308Y-29674999D01*
X37723322Y-29674998D01*
X37822607Y-29664855D01*
X37983481Y-29611547D01*
X37983492Y-29611542D01*
X38127727Y-29522576D01*
X38243711Y-29406592D01*
X38305034Y-29373107D01*
X38374726Y-29378091D01*
X38396489Y-29388734D01*
X38430659Y-29409810D01*
X38430660Y-29409810D01*
X38430666Y-29409814D01*
X38549300Y-29449125D01*
X38606743Y-29488896D01*
X38633567Y-29553412D01*
X38621252Y-29622188D01*
X38573710Y-29673388D01*
X38549303Y-29684535D01*
X38530879Y-29690640D01*
X38530874Y-29690642D01*
X38381653Y-29782683D01*
X38257683Y-29906653D01*
X38165642Y-30055874D01*
X38165640Y-30055879D01*
X38110494Y-30222301D01*
X38100000Y-30325011D01*
X38100000Y-31250000D01*
X43225000Y-31250000D01*
X43225000Y-29625000D01*
X42223232Y-29625000D01*
X42156193Y-29605315D01*
X42110438Y-29552511D01*
X42100494Y-29483353D01*
X42129519Y-29419797D01*
X42158133Y-29395462D01*
X42243656Y-29342712D01*
X42367712Y-29218656D01*
X42459814Y-29069334D01*
X42514999Y-28902797D01*
X42525500Y-28800009D01*
X42525500Y-28350000D01*
X43325001Y-28350000D01*
X43325001Y-28799986D01*
X43335494Y-28902697D01*
X43390641Y-29069119D01*
X43390643Y-29069124D01*
X43482684Y-29218345D01*
X43606654Y-29342315D01*
X43721217Y-29412978D01*
X43767941Y-29464926D01*
X43779164Y-29533889D01*
X43751320Y-29597971D01*
X43743802Y-29606197D01*
X43725000Y-29624999D01*
X43725000Y-31250000D01*
X45499999Y-31250000D01*
X45499999Y-30325028D01*
X45499998Y-30325013D01*
X45489827Y-30225448D01*
X45489741Y-30223761D01*
X45489505Y-30222300D01*
X45434359Y-30055879D01*
X45434357Y-30055874D01*
X45342316Y-29906653D01*
X45218346Y-29782683D01*
X45069125Y-29690642D01*
X45069120Y-29690640D01*
X45025128Y-29676063D01*
X44967683Y-29636291D01*
X44940860Y-29571775D01*
X44953175Y-29502999D01*
X45000718Y-29451799D01*
X45025130Y-29440650D01*
X45044122Y-29434356D01*
X45044124Y-29434356D01*
X45193345Y-29342315D01*
X45317315Y-29218345D01*
X45409356Y-29069124D01*
X45409358Y-29069119D01*
X45464505Y-28902697D01*
X45464506Y-28902690D01*
X45474999Y-28799986D01*
X45475000Y-28799973D01*
X45475000Y-28350000D01*
X43325001Y-28350000D01*
X42525500Y-28350000D01*
X42525499Y-27850000D01*
X43325000Y-27850000D01*
X44150000Y-27850000D01*
X44150000Y-26050000D01*
X44650000Y-26050000D01*
X44650000Y-27850000D01*
X45474999Y-27850000D01*
X45474999Y-27400028D01*
X45474998Y-27400013D01*
X45464505Y-27297302D01*
X45409358Y-27130880D01*
X45409356Y-27130875D01*
X45337943Y-27015097D01*
X45319503Y-26947705D01*
X45337943Y-26884903D01*
X45409356Y-26769124D01*
X45409358Y-26769119D01*
X45464505Y-26602697D01*
X45464506Y-26602690D01*
X45474999Y-26499986D01*
X45475000Y-26499973D01*
X45475000Y-26050000D01*
X44650000Y-26050000D01*
X44150000Y-26050000D01*
X43325001Y-26050000D01*
X43325001Y-26499986D01*
X43335494Y-26602697D01*
X43390641Y-26769119D01*
X43390645Y-26769128D01*
X43462056Y-26884904D01*
X43480496Y-26952296D01*
X43462056Y-27015096D01*
X43390645Y-27130871D01*
X43390641Y-27130880D01*
X43335494Y-27297302D01*
X43335493Y-27297309D01*
X43325000Y-27400013D01*
X43325000Y-27850000D01*
X42525499Y-27850000D01*
X42525499Y-27399992D01*
X42514999Y-27297203D01*
X42459814Y-27130666D01*
X42459813Y-27130664D01*
X42457542Y-27123811D01*
X42459364Y-27123207D01*
X42450500Y-27083202D01*
X42450500Y-26950226D01*
X42450500Y-26816793D01*
X42459377Y-26776798D01*
X42457542Y-26776190D01*
X42459882Y-26769128D01*
X42514999Y-26602797D01*
X42525500Y-26500009D01*
X42525499Y-25550000D01*
X43325000Y-25550000D01*
X44150000Y-25550000D01*
X44150000Y-24400000D01*
X44650000Y-24400000D01*
X44650000Y-25550000D01*
X45474999Y-25550000D01*
X45474999Y-25100028D01*
X45474998Y-25100013D01*
X45464505Y-24997302D01*
X45409358Y-24830880D01*
X45409356Y-24830875D01*
X45317315Y-24681654D01*
X45193345Y-24557684D01*
X45044124Y-24465643D01*
X45044119Y-24465641D01*
X44877697Y-24410494D01*
X44877690Y-24410493D01*
X44774986Y-24400000D01*
X44650000Y-24400000D01*
X44150000Y-24400000D01*
X44025027Y-24400000D01*
X44025012Y-24400001D01*
X43922302Y-24410494D01*
X43755880Y-24465641D01*
X43755875Y-24465643D01*
X43606654Y-24557684D01*
X43482684Y-24681654D01*
X43390643Y-24830875D01*
X43390641Y-24830880D01*
X43335494Y-24997302D01*
X43335493Y-24997309D01*
X43325000Y-25100013D01*
X43325000Y-25550000D01*
X42525499Y-25550000D01*
X42525499Y-25099992D01*
X42524860Y-25093741D01*
X42514999Y-24997203D01*
X42514998Y-24997200D01*
X42459814Y-24830667D01*
X42459812Y-24830663D01*
X42450987Y-24816356D01*
X42433121Y-24763409D01*
X42431461Y-24746556D01*
X42424009Y-24670886D01*
X42371280Y-24405802D01*
X42292822Y-24147163D01*
X42256361Y-24059139D01*
X42248893Y-23989673D01*
X42280168Y-23927193D01*
X42340257Y-23891541D01*
X42409927Y-23893983D01*
X42547302Y-23939505D01*
X42547309Y-23939506D01*
X42650019Y-23949999D01*
X43449999Y-23949999D01*
X43450000Y-23949998D01*
X43450000Y-22550000D01*
X43950000Y-22550000D01*
X43950000Y-23949999D01*
X44749972Y-23949999D01*
X44749986Y-23949998D01*
X44852697Y-23939505D01*
X45019119Y-23884358D01*
X45019124Y-23884356D01*
X45168345Y-23792315D01*
X45292315Y-23668345D01*
X45384356Y-23519124D01*
X45384358Y-23519119D01*
X45439505Y-23352697D01*
X45439506Y-23352690D01*
X45449999Y-23249986D01*
X45450000Y-23249973D01*
X45450000Y-22550000D01*
X43950000Y-22550000D01*
X43450000Y-22550000D01*
X41950001Y-22550000D01*
X41950001Y-23135718D01*
X41930316Y-23202757D01*
X41877512Y-23248512D01*
X41808354Y-23258456D01*
X41744798Y-23229431D01*
X41738323Y-23223402D01*
X41723821Y-23208901D01*
X41723817Y-23208896D01*
X41186818Y-22671897D01*
X41153333Y-22610574D01*
X41150499Y-22584216D01*
X41150499Y-22050000D01*
X41950000Y-22050000D01*
X43450000Y-22050000D01*
X43450000Y-20650000D01*
X43950000Y-20650000D01*
X43950000Y-22050000D01*
X45449999Y-22050000D01*
X45449999Y-21350028D01*
X45449998Y-21350013D01*
X45439505Y-21247302D01*
X45384358Y-21080880D01*
X45384356Y-21080875D01*
X45292315Y-20931654D01*
X45168345Y-20807684D01*
X45019124Y-20715643D01*
X45019119Y-20715641D01*
X44852697Y-20660494D01*
X44852690Y-20660493D01*
X44749986Y-20650000D01*
X43950000Y-20650000D01*
X43450000Y-20650000D01*
X42650028Y-20650000D01*
X42650012Y-20650001D01*
X42547302Y-20660494D01*
X42380880Y-20715641D01*
X42380875Y-20715643D01*
X42231654Y-20807684D01*
X42107684Y-20931654D01*
X42015643Y-21080875D01*
X42015641Y-21080880D01*
X41960494Y-21247302D01*
X41960493Y-21247309D01*
X41950000Y-21350013D01*
X41950000Y-22050000D01*
X41150499Y-22050000D01*
X41150499Y-21349998D01*
X41150498Y-21349981D01*
X41139999Y-21247203D01*
X41139998Y-21247200D01*
X41104318Y-21139526D01*
X41084814Y-21080666D01*
X40992712Y-20931344D01*
X40868656Y-20807288D01*
X40759402Y-20739900D01*
X40712679Y-20687953D01*
X40700500Y-20634362D01*
X40700500Y-19717534D01*
X40720185Y-19650495D01*
X40772989Y-19604740D01*
X40811897Y-19594176D01*
X40852797Y-19589999D01*
X41019334Y-19534814D01*
X41168656Y-19442712D01*
X41292712Y-19318656D01*
X41384814Y-19169334D01*
X41439999Y-19002797D01*
X41450500Y-18900009D01*
X41450499Y-17499992D01*
X41439999Y-17397203D01*
X41384814Y-17230666D01*
X41292712Y-17081344D01*
X41168656Y-16957288D01*
X41019334Y-16865186D01*
X40852797Y-16810001D01*
X40852795Y-16810000D01*
X40750010Y-16799500D01*
X38649998Y-16799500D01*
X38649988Y-16799501D01*
X38636596Y-16800869D01*
X38567904Y-16788096D01*
X38517022Y-16740213D01*
X38500000Y-16677510D01*
X38500000Y-14350000D01*
X38850001Y-14350000D01*
X38850001Y-14799986D01*
X38860494Y-14902697D01*
X38915641Y-15069119D01*
X38915643Y-15069124D01*
X39007684Y-15218345D01*
X39131654Y-15342315D01*
X39280875Y-15434356D01*
X39280880Y-15434358D01*
X39447302Y-15489505D01*
X39447309Y-15489506D01*
X39550019Y-15499999D01*
X39674999Y-15499999D01*
X39675000Y-15499998D01*
X39675000Y-14350000D01*
X40175000Y-14350000D01*
X40175000Y-15499999D01*
X40299972Y-15499999D01*
X40299986Y-15499998D01*
X40402697Y-15489505D01*
X40569119Y-15434358D01*
X40569124Y-15434356D01*
X40718345Y-15342315D01*
X40842315Y-15218345D01*
X40934356Y-15069124D01*
X40934358Y-15069119D01*
X40989505Y-14902697D01*
X40989506Y-14902690D01*
X40999999Y-14799986D01*
X41000000Y-14799973D01*
X41000000Y-14350000D01*
X40175000Y-14350000D01*
X39675000Y-14350000D01*
X38850001Y-14350000D01*
X38500000Y-14350000D01*
X38500000Y-14132383D01*
X38500000Y-13000000D01*
X36972946Y-12083767D01*
X36969159Y-12081301D01*
X36805377Y-11965849D01*
X36761924Y-11911135D01*
X36754950Y-11841614D01*
X36786669Y-11779359D01*
X36847010Y-11744135D01*
X36876814Y-11740499D01*
X37942872Y-11740499D01*
X38002483Y-11734091D01*
X38137331Y-11683796D01*
X38252546Y-11597546D01*
X38313086Y-11516673D01*
X38369018Y-11474805D01*
X38436537Y-11469369D01*
X38554420Y-11492817D01*
X38562235Y-11494911D01*
X38747604Y-11557835D01*
X38755086Y-11560935D01*
X38930644Y-11647509D01*
X38937670Y-11651565D01*
X38985903Y-11683793D01*
X39100424Y-11760313D01*
X39106865Y-11765255D01*
X39255450Y-11895558D01*
X39258412Y-11898333D01*
X39848398Y-12488319D01*
X39881883Y-12549642D01*
X39876899Y-12619334D01*
X39835027Y-12675267D01*
X39769563Y-12699684D01*
X39760718Y-12700000D01*
X39550029Y-12700000D01*
X39550012Y-12700001D01*
X39447302Y-12710494D01*
X39280880Y-12765641D01*
X39280875Y-12765643D01*
X39131654Y-12857684D01*
X39007684Y-12981654D01*
X38915643Y-13130875D01*
X38915641Y-13130880D01*
X38860494Y-13297302D01*
X38860493Y-13297309D01*
X38850000Y-13400013D01*
X38850000Y-13850000D01*
X40999999Y-13850000D01*
X41017358Y-13832641D01*
X41078681Y-13799156D01*
X41148373Y-13804140D01*
X41192720Y-13832641D01*
X41763181Y-14403102D01*
X41796666Y-14464425D01*
X41799500Y-14490783D01*
X41799500Y-14800000D01*
X41799501Y-14800019D01*
X41810000Y-14902796D01*
X41810001Y-14902799D01*
X41839946Y-14993166D01*
X41865186Y-15069334D01*
X41957288Y-15218656D01*
X42081344Y-15342712D01*
X42230666Y-15434814D01*
X42397203Y-15489999D01*
X42499991Y-15500500D01*
X43095044Y-15500499D01*
X43127097Y-15505790D01*
X43127363Y-15504800D01*
X43131282Y-15505850D01*
X43131284Y-15505851D01*
X43366032Y-15568761D01*
X43449681Y-15579777D01*
X43606968Y-15600493D01*
X43606980Y-15600493D01*
X43606982Y-15600494D01*
X43623082Y-15600494D01*
X43623184Y-15600500D01*
X43626812Y-15600500D01*
X43665202Y-15600500D01*
X43732241Y-15620185D01*
X43770739Y-15659401D01*
X43807288Y-15718656D01*
X43931344Y-15842712D01*
X44080666Y-15934814D01*
X44247203Y-15989999D01*
X44349991Y-16000500D01*
X44875500Y-16000499D01*
X44942539Y-16020183D01*
X44988294Y-16072987D01*
X44999500Y-16124499D01*
X44999500Y-16688051D01*
X44979815Y-16755090D01*
X44927011Y-16800845D01*
X44859545Y-16810545D01*
X44859531Y-16810689D01*
X44858956Y-16810630D01*
X44857853Y-16810789D01*
X44854304Y-16810155D01*
X44750010Y-16799500D01*
X42649998Y-16799500D01*
X42649981Y-16799501D01*
X42547203Y-16810000D01*
X42547200Y-16810001D01*
X42380668Y-16865185D01*
X42380663Y-16865187D01*
X42231342Y-16957289D01*
X42107289Y-17081342D01*
X42015187Y-17230663D01*
X42015185Y-17230666D01*
X42015186Y-17230666D01*
X41960001Y-17397203D01*
X41960001Y-17397204D01*
X41960000Y-17397204D01*
X41949500Y-17499983D01*
X41949500Y-18900001D01*
X41949501Y-18900018D01*
X41960000Y-19002796D01*
X41960001Y-19002799D01*
X42003018Y-19132614D01*
X42015186Y-19169334D01*
X42107288Y-19318656D01*
X42231344Y-19442712D01*
X42380666Y-19534814D01*
X42547203Y-19589999D01*
X42649991Y-19600500D01*
X44750008Y-19600499D01*
X44852797Y-19589999D01*
X45019334Y-19534814D01*
X45168656Y-19442712D01*
X45208202Y-19403165D01*
X45269523Y-19369681D01*
X45339214Y-19374665D01*
X45395148Y-19416535D01*
X45412063Y-19447511D01*
X45451161Y-19552337D01*
X45451162Y-19552339D01*
X45628600Y-19940873D01*
X45833307Y-20315765D01*
X46064239Y-20675102D01*
X46163193Y-20807288D01*
X46320214Y-21017042D01*
X46426347Y-21139526D01*
X46576486Y-21312796D01*
X46599931Y-21339852D01*
X46679003Y-21418924D01*
X46679005Y-21418926D01*
X47171198Y-21911119D01*
X47638053Y-22377973D01*
X47671538Y-22439296D01*
X47673948Y-22455414D01*
X47689890Y-22647812D01*
X47689892Y-22647824D01*
X47750936Y-22888881D01*
X47850826Y-23116606D01*
X47986833Y-23324782D01*
X47986836Y-23324785D01*
X48155256Y-23507738D01*
X48351491Y-23660474D01*
X48570190Y-23778828D01*
X48805386Y-23859571D01*
X49050665Y-23900500D01*
X49299335Y-23900500D01*
X49544614Y-23859571D01*
X49779810Y-23778828D01*
X49998509Y-23660474D01*
X50194744Y-23507738D01*
X50363164Y-23324785D01*
X50499173Y-23116607D01*
X50599063Y-22888881D01*
X50660108Y-22647821D01*
X50661123Y-22635579D01*
X50676051Y-22455414D01*
X50680643Y-22400000D01*
X50660108Y-22152179D01*
X50599063Y-21911119D01*
X50582258Y-21872808D01*
X50499173Y-21683393D01*
X50363166Y-21475217D01*
X50311346Y-21418926D01*
X50194744Y-21292262D01*
X49998509Y-21139526D01*
X49998507Y-21139525D01*
X49998506Y-21139524D01*
X49779811Y-21021172D01*
X49779802Y-21021169D01*
X49544616Y-20940429D01*
X49299335Y-20899500D01*
X49050665Y-20899500D01*
X49045537Y-20899500D01*
X49045537Y-20898242D01*
X48982926Y-20885346D01*
X48953464Y-20863544D01*
X48233577Y-20143657D01*
X48233567Y-20143646D01*
X48165866Y-20075945D01*
X48042095Y-19940873D01*
X47933196Y-19822030D01*
X47929721Y-19817890D01*
X47721699Y-19546791D01*
X47718612Y-19542383D01*
X47534997Y-19254167D01*
X47532318Y-19249528D01*
X47374523Y-18946406D01*
X47372252Y-18941536D01*
X47241483Y-18625834D01*
X47239634Y-18620753D01*
X47136880Y-18294861D01*
X47135485Y-18289650D01*
X47061528Y-17956051D01*
X47060590Y-17950735D01*
X47015988Y-17611946D01*
X47015519Y-17606593D01*
X47000500Y-17262591D01*
X47000500Y-15741195D01*
X47018961Y-15676098D01*
X47029259Y-15659403D01*
X47084814Y-15569334D01*
X47139999Y-15402797D01*
X47150500Y-15300009D01*
X47150500Y-15300001D01*
X47649500Y-15300001D01*
X47649501Y-15300018D01*
X47660000Y-15402796D01*
X47660001Y-15402799D01*
X47715185Y-15569331D01*
X47715187Y-15569336D01*
X47734409Y-15600500D01*
X47807288Y-15718656D01*
X47931344Y-15842712D01*
X48080666Y-15934814D01*
X48247203Y-15989999D01*
X48349991Y-16000500D01*
X50450008Y-16000499D01*
X50552797Y-15989999D01*
X50719334Y-15934814D01*
X50868656Y-15842712D01*
X50992712Y-15718656D01*
X51084814Y-15569334D01*
X51139999Y-15402797D01*
X51150500Y-15300009D01*
X51150499Y-13899992D01*
X51139999Y-13797203D01*
X51084814Y-13630666D01*
X50992712Y-13481344D01*
X50868656Y-13357288D01*
X50719334Y-13265186D01*
X50552797Y-13210001D01*
X50552795Y-13210000D01*
X50506896Y-13205311D01*
X50442204Y-13178914D01*
X50402054Y-13121732D01*
X50395500Y-13081953D01*
X50395500Y-12344466D01*
X50415185Y-12277427D01*
X50454403Y-12238927D01*
X50513656Y-12202381D01*
X50637712Y-12078325D01*
X50729814Y-11929003D01*
X50784999Y-11762466D01*
X50795500Y-11659678D01*
X50795499Y-9559661D01*
X50793695Y-9542005D01*
X50784999Y-9456872D01*
X50784998Y-9456869D01*
X50773765Y-9422971D01*
X50729814Y-9290335D01*
X50637712Y-9141013D01*
X50513656Y-9016957D01*
X50364334Y-8924855D01*
X50197797Y-8869670D01*
X50197795Y-8869669D01*
X50095010Y-8859169D01*
X48694998Y-8859169D01*
X48694981Y-8859170D01*
X48592203Y-8869669D01*
X48592200Y-8869670D01*
X48425668Y-8924854D01*
X48425663Y-8924856D01*
X48276342Y-9016958D01*
X48152289Y-9141011D01*
X48060187Y-9290332D01*
X48060185Y-9290335D01*
X48060186Y-9290335D01*
X48005001Y-9456872D01*
X48005001Y-9456873D01*
X48005000Y-9456873D01*
X47994500Y-9559652D01*
X47994500Y-11659670D01*
X47994501Y-11659687D01*
X48005000Y-11762465D01*
X48005001Y-11762468D01*
X48031228Y-11841614D01*
X48060186Y-11929003D01*
X48152288Y-12078325D01*
X48276344Y-12202381D01*
X48335596Y-12238927D01*
X48382321Y-12290873D01*
X48394500Y-12344466D01*
X48394500Y-13082975D01*
X48374815Y-13150014D01*
X48322011Y-13195769D01*
X48283104Y-13206333D01*
X48247201Y-13210001D01*
X48247200Y-13210001D01*
X48080668Y-13265185D01*
X48080663Y-13265187D01*
X47931342Y-13357289D01*
X47807289Y-13481342D01*
X47715187Y-13630663D01*
X47715185Y-13630668D01*
X47702337Y-13669442D01*
X47660001Y-13797203D01*
X47660001Y-13797204D01*
X47660000Y-13797204D01*
X47649500Y-13899983D01*
X47649500Y-15300001D01*
X47150500Y-15300001D01*
X47150499Y-13899992D01*
X47139999Y-13797203D01*
X47084814Y-13630666D01*
X46992712Y-13481344D01*
X46868656Y-13357288D01*
X46719334Y-13265186D01*
X46552797Y-13210001D01*
X46552795Y-13210000D01*
X46450010Y-13199500D01*
X44349998Y-13199500D01*
X44349981Y-13199501D01*
X44247203Y-13210000D01*
X44247200Y-13210001D01*
X44080664Y-13265186D01*
X44075914Y-13267402D01*
X44006836Y-13277891D01*
X43943053Y-13249369D01*
X43905808Y-13194023D01*
X43884814Y-13130666D01*
X43792712Y-12981344D01*
X43668656Y-12857288D01*
X43519334Y-12765186D01*
X43352797Y-12710001D01*
X43352795Y-12710000D01*
X43250016Y-12699500D01*
X43250009Y-12699500D01*
X42940782Y-12699500D01*
X42873743Y-12679815D01*
X42853101Y-12663181D01*
X40739697Y-10549777D01*
X40739677Y-10549755D01*
X40708312Y-10518390D01*
X40708295Y-10518359D01*
X40548345Y-10358412D01*
X40548336Y-10358403D01*
X40277989Y-10136539D01*
X40277982Y-10136534D01*
X39987188Y-9942235D01*
X39987181Y-9942232D01*
X39678744Y-9777371D01*
X39355626Y-9643533D01*
X39020945Y-9542010D01*
X39020940Y-9542009D01*
X39020937Y-9542008D01*
X39020925Y-9542005D01*
X38677932Y-9473781D01*
X38677917Y-9473778D01*
X38427683Y-9449132D01*
X38362896Y-9422971D01*
X38340572Y-9400040D01*
X38252547Y-9282455D01*
X38252544Y-9282452D01*
X38137335Y-9196206D01*
X38137328Y-9196202D01*
X38002482Y-9145908D01*
X38002483Y-9145908D01*
X37942883Y-9139501D01*
X37942881Y-9139500D01*
X37942873Y-9139500D01*
X37942864Y-9139500D01*
X36247129Y-9139500D01*
X36247123Y-9139501D01*
X36187515Y-9145909D01*
X36167330Y-9153437D01*
X36097638Y-9158419D01*
X36036316Y-9124932D01*
X36002833Y-9063608D01*
X36000000Y-9037254D01*
X36000000Y-9020005D01*
X41549556Y-9020005D01*
X41569310Y-9334004D01*
X41569311Y-9334011D01*
X41591272Y-9449132D01*
X41625905Y-9630689D01*
X41628270Y-9643083D01*
X41725497Y-9942316D01*
X41725499Y-9942321D01*
X41859461Y-10227003D01*
X41859464Y-10227009D01*
X42028051Y-10492661D01*
X42028054Y-10492665D01*
X42228606Y-10735090D01*
X42228608Y-10735092D01*
X42228610Y-10735094D01*
X42420824Y-10915595D01*
X42457968Y-10950476D01*
X42457978Y-10950484D01*
X42712504Y-11135408D01*
X42712509Y-11135410D01*
X42712516Y-11135416D01*
X42988234Y-11286994D01*
X42988239Y-11286996D01*
X42988241Y-11286997D01*
X42988242Y-11286998D01*
X43280771Y-11402818D01*
X43280774Y-11402819D01*
X43477218Y-11453257D01*
X43585527Y-11481066D01*
X43651010Y-11489338D01*
X43897670Y-11520499D01*
X43897679Y-11520499D01*
X43897682Y-11520500D01*
X43897684Y-11520500D01*
X44212316Y-11520500D01*
X44212318Y-11520500D01*
X44212321Y-11520499D01*
X44212329Y-11520499D01*
X44414854Y-11494914D01*
X44524473Y-11481066D01*
X44829225Y-11402819D01*
X44829228Y-11402818D01*
X45121757Y-11286998D01*
X45121758Y-11286997D01*
X45121756Y-11286997D01*
X45121766Y-11286994D01*
X45397484Y-11135416D01*
X45652030Y-10950478D01*
X45881390Y-10735094D01*
X46081947Y-10492663D01*
X46250537Y-10227007D01*
X46384503Y-9942315D01*
X46481731Y-9643079D01*
X46540688Y-9334015D01*
X46543436Y-9290335D01*
X46560444Y-9020005D01*
X46560444Y-9019994D01*
X46540689Y-8705995D01*
X46540688Y-8705988D01*
X46540688Y-8705985D01*
X46481731Y-8396921D01*
X46384503Y-8097685D01*
X46378383Y-8084680D01*
X46305026Y-7928788D01*
X46250537Y-7812993D01*
X46108513Y-7589198D01*
X46081948Y-7547338D01*
X46081945Y-7547334D01*
X45881393Y-7304909D01*
X45881391Y-7304907D01*
X45652031Y-7089523D01*
X45652021Y-7089515D01*
X45397495Y-6904591D01*
X45397488Y-6904586D01*
X45397484Y-6904584D01*
X45315784Y-6859669D01*
X47995001Y-6859669D01*
X47995001Y-7659655D01*
X48005494Y-7762366D01*
X48060641Y-7928788D01*
X48060643Y-7928793D01*
X48152684Y-8078014D01*
X48276654Y-8201984D01*
X48425875Y-8294025D01*
X48425880Y-8294027D01*
X48592302Y-8349174D01*
X48592309Y-8349175D01*
X48695019Y-8359668D01*
X49144999Y-8359668D01*
X49145000Y-8359667D01*
X49145000Y-6859669D01*
X49645000Y-6859669D01*
X49645000Y-8359668D01*
X50094972Y-8359668D01*
X50094986Y-8359667D01*
X50197697Y-8349174D01*
X50364119Y-8294027D01*
X50364124Y-8294025D01*
X50513345Y-8201984D01*
X50637315Y-8078014D01*
X50729356Y-7928793D01*
X50729358Y-7928788D01*
X50784505Y-7762366D01*
X50784506Y-7762359D01*
X50794999Y-7659655D01*
X50795000Y-7659642D01*
X50795000Y-6859669D01*
X49645000Y-6859669D01*
X49145000Y-6859669D01*
X47995001Y-6859669D01*
X45315784Y-6859669D01*
X45121766Y-6753006D01*
X45121763Y-6753004D01*
X45121758Y-6753002D01*
X45121757Y-6753001D01*
X44829228Y-6637181D01*
X44829225Y-6637180D01*
X44524476Y-6558934D01*
X44524463Y-6558932D01*
X44212329Y-6519500D01*
X44212318Y-6519500D01*
X43897682Y-6519500D01*
X43897670Y-6519500D01*
X43585536Y-6558932D01*
X43585523Y-6558934D01*
X43280774Y-6637180D01*
X43280771Y-6637181D01*
X42988242Y-6753001D01*
X42988241Y-6753002D01*
X42712516Y-6904584D01*
X42712504Y-6904591D01*
X42457978Y-7089515D01*
X42457968Y-7089523D01*
X42228608Y-7304907D01*
X42228606Y-7304909D01*
X42028054Y-7547334D01*
X42028051Y-7547338D01*
X41859464Y-7812990D01*
X41859461Y-7812996D01*
X41725499Y-8097678D01*
X41725497Y-8097683D01*
X41628270Y-8396916D01*
X41569311Y-8705988D01*
X41569310Y-8705995D01*
X41549556Y-9019994D01*
X41549556Y-9020005D01*
X36000000Y-9020005D01*
X36000000Y-8963820D01*
X36019685Y-8896781D01*
X36072489Y-8851026D01*
X36091905Y-8844045D01*
X36117691Y-8837136D01*
X36156486Y-8826742D01*
X36156489Y-8826740D01*
X36156496Y-8826739D01*
X36362734Y-8730568D01*
X36549139Y-8600047D01*
X36710047Y-8439139D01*
X36840568Y-8252734D01*
X36936739Y-8046496D01*
X36995635Y-7826692D01*
X37015468Y-7600000D01*
X36995635Y-7373308D01*
X36936739Y-7153504D01*
X36840568Y-6947266D01*
X36710047Y-6760861D01*
X36710045Y-6760858D01*
X36549141Y-6599954D01*
X36362734Y-6469432D01*
X36362732Y-6469431D01*
X36156497Y-6373261D01*
X36156488Y-6373258D01*
X36105773Y-6359669D01*
X47995000Y-6359669D01*
X49145000Y-6359669D01*
X49145000Y-6359668D01*
X49644999Y-6359668D01*
X49645000Y-6359669D01*
X50794999Y-6359669D01*
X50794999Y-5559697D01*
X50794998Y-5559682D01*
X50784505Y-5456971D01*
X50729358Y-5290549D01*
X50729356Y-5290544D01*
X50637315Y-5141323D01*
X50513345Y-5017353D01*
X50364124Y-4925312D01*
X50364119Y-4925310D01*
X50197697Y-4870163D01*
X50197690Y-4870162D01*
X50094986Y-4859669D01*
X49645000Y-4859669D01*
X49644999Y-6359668D01*
X49145000Y-6359668D01*
X49145000Y-4859669D01*
X48695028Y-4859669D01*
X48695012Y-4859670D01*
X48592302Y-4870163D01*
X48425880Y-4925310D01*
X48425875Y-4925312D01*
X48276654Y-5017353D01*
X48152684Y-5141323D01*
X48060643Y-5290544D01*
X48060641Y-5290549D01*
X48005494Y-5456971D01*
X48005493Y-5456978D01*
X47995000Y-5559682D01*
X47995000Y-6359669D01*
X36105773Y-6359669D01*
X36000000Y-6331327D01*
X36000000Y-300500D01*
X50952405Y-300500D01*
X50997786Y-300500D01*
X51002208Y-300657D01*
G37*
%TD.AperFunction*%
%TA.AperFunction,Conductor*%
G36*
X37964915Y-19137598D02*
G01*
X38020848Y-19179470D01*
X38027119Y-19188683D01*
X38107285Y-19318652D01*
X38107288Y-19318656D01*
X38231344Y-19442712D01*
X38380666Y-19534814D01*
X38547203Y-19589999D01*
X38588103Y-19594177D01*
X38652793Y-19620573D01*
X38692945Y-19677753D01*
X38699500Y-19717535D01*
X38699500Y-20525500D01*
X38679815Y-20592539D01*
X38627011Y-20638294D01*
X38575501Y-20649500D01*
X38349999Y-20649500D01*
X38349980Y-20649501D01*
X38247203Y-20660000D01*
X38247200Y-20660001D01*
X38080668Y-20715185D01*
X38080663Y-20715187D01*
X37931342Y-20807289D01*
X37807289Y-20931342D01*
X37715187Y-21080663D01*
X37715185Y-21080668D01*
X37715115Y-21080880D01*
X37660001Y-21247203D01*
X37660001Y-21247204D01*
X37660000Y-21247204D01*
X37649500Y-21349983D01*
X37649500Y-23250001D01*
X37649501Y-23250018D01*
X37660000Y-23352796D01*
X37660001Y-23352799D01*
X37711343Y-23507738D01*
X37715186Y-23519334D01*
X37807288Y-23668656D01*
X37931344Y-23792712D01*
X38080666Y-23884814D01*
X38247203Y-23939999D01*
X38349991Y-23950500D01*
X39584216Y-23950499D01*
X39651255Y-23970184D01*
X39671897Y-23986818D01*
X39848398Y-24163319D01*
X39881883Y-24224642D01*
X39876899Y-24294334D01*
X39835027Y-24350267D01*
X39769563Y-24374684D01*
X39760717Y-24375000D01*
X39650000Y-24375000D01*
X39650000Y-25576000D01*
X39630315Y-25643039D01*
X39577511Y-25688794D01*
X39526000Y-25700000D01*
X38000001Y-25700000D01*
X38000001Y-25824984D01*
X38003875Y-25862897D01*
X37991106Y-25931590D01*
X37943226Y-25982475D01*
X37880517Y-25999500D01*
X37554884Y-25999500D01*
X37554763Y-25999503D01*
X37455046Y-25999503D01*
X37152868Y-26033549D01*
X37152849Y-26033552D01*
X36856371Y-26101220D01*
X36856365Y-26101222D01*
X36569317Y-26201663D01*
X36295326Y-26333610D01*
X36037825Y-26495408D01*
X35800064Y-26685015D01*
X35764487Y-26720591D01*
X35764485Y-26720594D01*
X35764483Y-26720596D01*
X35715960Y-26769119D01*
X35507448Y-26977629D01*
X35507435Y-26977641D01*
X35473523Y-27011553D01*
X35473507Y-27011561D01*
X35440007Y-27045062D01*
X35395162Y-27089909D01*
X35354477Y-27130595D01*
X35207212Y-27322521D01*
X35207206Y-27322530D01*
X35086266Y-27532013D01*
X35086256Y-27532032D01*
X34993686Y-27755521D01*
X34931075Y-27989193D01*
X34899500Y-28229042D01*
X34899500Y-28248013D01*
X34879815Y-28315052D01*
X34873877Y-28323498D01*
X34780168Y-28445625D01*
X34780162Y-28445634D01*
X34669839Y-28636729D01*
X34669831Y-28636745D01*
X34616624Y-28765209D01*
X34572785Y-28819613D01*
X34506491Y-28841680D01*
X34438791Y-28824402D01*
X34391180Y-28773267D01*
X34384356Y-28756763D01*
X34334358Y-28605880D01*
X34334356Y-28605875D01*
X34242315Y-28456654D01*
X34118345Y-28332684D01*
X33969124Y-28240643D01*
X33969119Y-28240641D01*
X33802697Y-28185494D01*
X33802690Y-28185493D01*
X33699986Y-28175000D01*
X33250000Y-28175000D01*
X33250000Y-30324999D01*
X33699972Y-30324999D01*
X33699984Y-30324998D01*
X33762897Y-30318571D01*
X33831590Y-30331340D01*
X33882475Y-30379221D01*
X33899500Y-30441929D01*
X33899500Y-31007566D01*
X33879815Y-31074605D01*
X33827011Y-31120360D01*
X33762899Y-31130924D01*
X33700012Y-31124500D01*
X32299998Y-31124500D01*
X32299981Y-31124501D01*
X32197203Y-31135000D01*
X32197200Y-31135001D01*
X32030668Y-31190185D01*
X32030663Y-31190187D01*
X31881342Y-31282289D01*
X31757289Y-31406342D01*
X31665187Y-31555663D01*
X31665185Y-31555666D01*
X31665186Y-31555666D01*
X31610001Y-31722203D01*
X31610001Y-31722204D01*
X31610000Y-31722204D01*
X31599500Y-31824983D01*
X31599500Y-31975500D01*
X31579815Y-32042539D01*
X31527011Y-32088294D01*
X31475500Y-32099500D01*
X30124000Y-32099500D01*
X30056961Y-32079815D01*
X30011206Y-32027011D01*
X30000000Y-31975500D01*
X30000000Y-29500000D01*
X31600001Y-29500000D01*
X31600001Y-29624986D01*
X31610494Y-29727697D01*
X31665641Y-29894119D01*
X31665643Y-29894124D01*
X31757684Y-30043345D01*
X31881654Y-30167315D01*
X32030875Y-30259356D01*
X32030880Y-30259358D01*
X32197302Y-30314505D01*
X32197309Y-30314506D01*
X32300019Y-30324999D01*
X32749999Y-30324999D01*
X32750000Y-30324998D01*
X32750000Y-29500000D01*
X31600001Y-29500000D01*
X30000000Y-29500000D01*
X30000000Y-29000000D01*
X31600000Y-29000000D01*
X32750000Y-29000000D01*
X32750000Y-28175000D01*
X32300028Y-28175000D01*
X32300012Y-28175001D01*
X32197302Y-28185494D01*
X32030880Y-28240641D01*
X32030875Y-28240643D01*
X31881654Y-28332684D01*
X31757684Y-28456654D01*
X31665643Y-28605875D01*
X31665641Y-28605880D01*
X31610494Y-28772302D01*
X31610493Y-28772309D01*
X31600000Y-28875013D01*
X31600000Y-29000000D01*
X30000000Y-29000000D01*
X30000000Y-27830464D01*
X30000133Y-27826408D01*
X30016844Y-27571428D01*
X30017901Y-27563393D01*
X30067354Y-27314777D01*
X30069455Y-27306938D01*
X30086423Y-27256952D01*
X30150939Y-27066893D01*
X30154031Y-27059429D01*
X30266155Y-26832064D01*
X30270199Y-26825058D01*
X30331672Y-26733058D01*
X30347070Y-26714296D01*
X31861366Y-25200000D01*
X38000000Y-25200000D01*
X39150000Y-25200000D01*
X39150000Y-24375000D01*
X38700028Y-24375000D01*
X38700012Y-24375001D01*
X38597302Y-24385494D01*
X38430880Y-24440641D01*
X38430875Y-24440643D01*
X38281654Y-24532684D01*
X38157684Y-24656654D01*
X38065643Y-24805875D01*
X38065641Y-24805880D01*
X38010494Y-24972302D01*
X38010493Y-24972309D01*
X38000000Y-25075013D01*
X38000000Y-25200000D01*
X31861366Y-25200000D01*
X33493586Y-23567780D01*
X33493589Y-23567775D01*
X33494551Y-23566814D01*
X33495058Y-23566275D01*
X33559844Y-23501489D01*
X33623942Y-23437394D01*
X33920207Y-23090514D01*
X33920209Y-23090511D01*
X33942965Y-23059189D01*
X33955581Y-23044418D01*
X37833902Y-19166097D01*
X37895223Y-19132614D01*
X37964915Y-19137598D01*
G37*
%TD.AperFunction*%
%TD*%
M02*
