%TF.GenerationSoftware,KiCad,Pcbnew,7.0.7-7.0.7~ubuntu22.04.1*%
%TF.CreationDate,2023-09-02T15:09:26-04:00*%
%TF.ProjectId,avclan-mockingboard-rounded,6176636c-616e-42d6-9d6f-636b696e6762,rev?*%
%TF.SameCoordinates,Original*%
%TF.FileFunction,Paste,Top*%
%TF.FilePolarity,Positive*%
%FSLAX46Y46*%
G04 Gerber Fmt 4.6, Leading zero omitted, Abs format (unit mm)*
G04 Created by KiCad (PCBNEW 7.0.7-7.0.7~ubuntu22.04.1) date 2023-09-02 15:09:26*
%MOMM*%
%LPD*%
G01*
G04 APERTURE LIST*
G04 Aperture macros list*
%AMRoundRect*
0 Rectangle with rounded corners*
0 $1 Rounding radius*
0 $2 $3 $4 $5 $6 $7 $8 $9 X,Y pos of 4 corners*
0 Add a 4 corners polygon primitive as box body*
4,1,4,$2,$3,$4,$5,$6,$7,$8,$9,$2,$3,0*
0 Add four circle primitives for the rounded corners*
1,1,$1+$1,$2,$3*
1,1,$1+$1,$4,$5*
1,1,$1+$1,$6,$7*
1,1,$1+$1,$8,$9*
0 Add four rect primitives between the rounded corners*
20,1,$1+$1,$2,$3,$4,$5,0*
20,1,$1+$1,$4,$5,$6,$7,0*
20,1,$1+$1,$6,$7,$8,$9,0*
20,1,$1+$1,$8,$9,$2,$3,0*%
G04 Aperture macros list end*
%ADD10RoundRect,0.200000X0.275000X-0.200000X0.275000X0.200000X-0.275000X0.200000X-0.275000X-0.200000X0*%
%ADD11RoundRect,0.200000X0.200000X0.275000X-0.200000X0.275000X-0.200000X-0.275000X0.200000X-0.275000X0*%
%ADD12RoundRect,0.250000X-0.325000X-0.650000X0.325000X-0.650000X0.325000X0.650000X-0.325000X0.650000X0*%
%ADD13RoundRect,0.218750X-0.218750X-0.256250X0.218750X-0.256250X0.218750X0.256250X-0.218750X0.256250X0*%
%ADD14RoundRect,0.225000X-0.225000X-0.250000X0.225000X-0.250000X0.225000X0.250000X-0.225000X0.250000X0*%
%ADD15RoundRect,0.250000X0.450000X-0.262500X0.450000X0.262500X-0.450000X0.262500X-0.450000X-0.262500X0*%
%ADD16RoundRect,0.250000X-1.000000X-0.900000X1.000000X-0.900000X1.000000X0.900000X-1.000000X0.900000X0*%
%ADD17RoundRect,0.250000X-1.000000X-0.650000X1.000000X-0.650000X1.000000X0.650000X-1.000000X0.650000X0*%
%ADD18RoundRect,0.150000X-0.512500X-0.150000X0.512500X-0.150000X0.512500X0.150000X-0.512500X0.150000X0*%
%ADD19RoundRect,0.140000X-0.170000X0.140000X-0.170000X-0.140000X0.170000X-0.140000X0.170000X0.140000X0*%
%ADD20RoundRect,0.200000X-0.200000X-0.275000X0.200000X-0.275000X0.200000X0.275000X-0.200000X0.275000X0*%
%ADD21RoundRect,0.250000X-0.850000X-0.350000X0.850000X-0.350000X0.850000X0.350000X-0.850000X0.350000X0*%
%ADD22RoundRect,0.250000X-1.275000X-1.125000X1.275000X-1.125000X1.275000X1.125000X-1.275000X1.125000X0*%
%ADD23RoundRect,0.250000X0.325000X0.650000X-0.325000X0.650000X-0.325000X-0.650000X0.325000X-0.650000X0*%
%ADD24RoundRect,0.250000X0.400000X0.600000X-0.400000X0.600000X-0.400000X-0.600000X0.400000X-0.600000X0*%
%ADD25RoundRect,0.250000X-0.262500X-0.450000X0.262500X-0.450000X0.262500X0.450000X-0.262500X0.450000X0*%
%ADD26RoundRect,0.140000X-0.140000X-0.170000X0.140000X-0.170000X0.140000X0.170000X-0.140000X0.170000X0*%
%ADD27RoundRect,0.150000X0.875000X0.150000X-0.875000X0.150000X-0.875000X-0.150000X0.875000X-0.150000X0*%
%ADD28RoundRect,0.250000X0.650000X-0.325000X0.650000X0.325000X-0.650000X0.325000X-0.650000X-0.325000X0*%
%ADD29RoundRect,0.250000X-0.650000X0.325000X-0.650000X-0.325000X0.650000X-0.325000X0.650000X0.325000X0*%
%ADD30RoundRect,0.250000X-0.650000X1.000000X-0.650000X-1.000000X0.650000X-1.000000X0.650000X1.000000X0*%
G04 APERTURE END LIST*
D10*
%TO.C,R9*%
X26550000Y-15425000D03*
X26550000Y-13775000D03*
%TD*%
D11*
%TO.C,R6*%
X14850000Y-11950331D03*
X13200000Y-11950331D03*
%TD*%
D12*
%TO.C,C3*%
X41450000Y-28100000D03*
X44400000Y-28100000D03*
%TD*%
D13*
%TO.C,D9*%
X16384118Y-18700000D03*
X17959118Y-18700000D03*
%TD*%
D14*
%TO.C,C5*%
X35900000Y-28700000D03*
X37450000Y-28700000D03*
%TD*%
D15*
%TO.C,R2*%
X32512500Y-17400000D03*
X32512500Y-15575000D03*
%TD*%
D16*
%TO.C,D4*%
X39400000Y-22300000D03*
X43700000Y-22300000D03*
%TD*%
D17*
%TO.C,D2*%
X39700000Y-18200000D03*
X43700000Y-18200000D03*
%TD*%
D18*
%TO.C,D6*%
X25662500Y-29050000D03*
X25662500Y-30950000D03*
X27937500Y-30000000D03*
%TD*%
D19*
%TO.C,C10*%
X18662500Y-15050000D03*
X18662500Y-16010000D03*
%TD*%
D20*
%TO.C,R7*%
X23500000Y-15325000D03*
X25150000Y-15325000D03*
%TD*%
D21*
%TO.C,U1*%
X35500000Y-30745000D03*
X35500000Y-33025000D03*
D22*
X40125000Y-31500000D03*
X40125000Y-34550000D03*
X43475000Y-31500000D03*
X43475000Y-34550000D03*
D21*
X35500000Y-35305000D03*
%TD*%
D23*
%TO.C,C1*%
X42875000Y-14100000D03*
X39925000Y-14100000D03*
%TD*%
%TO.C,C11*%
X10100000Y-13800000D03*
X7150000Y-13800000D03*
%TD*%
D24*
%TO.C,D10*%
X26550000Y-17250000D03*
X23050000Y-17250000D03*
%TD*%
D20*
%TO.C,R12*%
X7175000Y-11900000D03*
X8825000Y-11900000D03*
%TD*%
D11*
%TO.C,R11*%
X6450000Y-28600000D03*
X4800000Y-28600000D03*
%TD*%
D25*
%TO.C,R3*%
X32587500Y-13775000D03*
X34412500Y-13775000D03*
%TD*%
D26*
%TO.C,C9*%
X22968236Y-33385000D03*
X23928236Y-33385000D03*
%TD*%
D18*
%TO.C,D8*%
X28600000Y-34700000D03*
X28600000Y-36600000D03*
X30875000Y-35650000D03*
%TD*%
D27*
%TO.C,U2*%
X23278236Y-31950000D03*
X23278236Y-30680000D03*
X23278236Y-29410000D03*
X23278236Y-28140000D03*
X23278236Y-26870000D03*
X23278236Y-25600000D03*
X23278236Y-24330000D03*
X23278236Y-23060000D03*
X23278236Y-21790000D03*
X23278236Y-20520000D03*
X13978236Y-20520000D03*
X13978236Y-21790000D03*
X13978236Y-23060000D03*
X13978236Y-24330000D03*
X13978236Y-25600000D03*
X13978236Y-26870000D03*
X13978236Y-28140000D03*
X13978236Y-29410000D03*
X13978236Y-30680000D03*
X13978236Y-31950000D03*
%TD*%
D11*
%TO.C,R13*%
X4050000Y-4600000D03*
X2400000Y-4600000D03*
%TD*%
D17*
%TO.C,D1*%
X45400000Y-14600000D03*
X49400000Y-14600000D03*
%TD*%
D12*
%TO.C,C2*%
X41450000Y-25800000D03*
X44400000Y-25800000D03*
%TD*%
D18*
%TO.C,D7*%
X25600000Y-24100000D03*
X25600000Y-26000000D03*
X27875000Y-25050000D03*
%TD*%
D28*
%TO.C,C7*%
X33000000Y-32200000D03*
X33000000Y-29250000D03*
%TD*%
D14*
%TO.C,C6*%
X35350000Y-37300000D03*
X36900000Y-37300000D03*
%TD*%
D10*
%TO.C,R4*%
X36212500Y-17300000D03*
X36212500Y-15650000D03*
%TD*%
D18*
%TO.C,U3*%
X14925000Y-15100000D03*
X14925000Y-16050000D03*
X14925000Y-17000000D03*
X17200000Y-17000000D03*
X17200000Y-15100000D03*
%TD*%
D11*
%TO.C,R10*%
X14984118Y-18700000D03*
X13334118Y-18700000D03*
%TD*%
%TO.C,R5*%
X14850000Y-13440331D03*
X13200000Y-13440331D03*
%TD*%
D29*
%TO.C,C8*%
X33000000Y-33900000D03*
X33000000Y-36850000D03*
%TD*%
D30*
%TO.C,D3*%
X49395000Y-6609669D03*
X49395000Y-10609669D03*
%TD*%
D28*
%TO.C,C12*%
X3200000Y-9150000D03*
X3200000Y-6200000D03*
%TD*%
D15*
%TO.C,R1*%
X34412500Y-17400000D03*
X34412500Y-15575000D03*
%TD*%
D28*
%TO.C,C4*%
X39400000Y-28400000D03*
X39400000Y-25450000D03*
%TD*%
D20*
%TO.C,R8*%
X23500000Y-13825000D03*
X25150000Y-13825000D03*
%TD*%
M02*
