%TF.GenerationSoftware,KiCad,Pcbnew,7.0.7-7.0.7~ubuntu22.04.1*%
%TF.CreationDate,2023-09-02T15:09:26-04:00*%
%TF.ProjectId,avclan-mockingboard-rounded,6176636c-616e-42d6-9d6f-636b696e6762,rev?*%
%TF.SameCoordinates,Original*%
%TF.FileFunction,Copper,L3,Inr*%
%TF.FilePolarity,Positive*%
%FSLAX46Y46*%
G04 Gerber Fmt 4.6, Leading zero omitted, Abs format (unit mm)*
G04 Created by KiCad (PCBNEW 7.0.7-7.0.7~ubuntu22.04.1) date 2023-09-02 15:09:26*
%MOMM*%
%LPD*%
G01*
G04 APERTURE LIST*
%TA.AperFunction,ComponentPad*%
%ADD10C,2.000000*%
%TD*%
%TA.AperFunction,ComponentPad*%
%ADD11R,1.700000X1.700000*%
%TD*%
%TA.AperFunction,ComponentPad*%
%ADD12O,1.700000X1.700000*%
%TD*%
%TA.AperFunction,ComponentPad*%
%ADD13R,1.650000X1.650000*%
%TD*%
%TA.AperFunction,ComponentPad*%
%ADD14C,1.650000*%
%TD*%
%TA.AperFunction,ComponentPad*%
%ADD15C,4.000000*%
%TD*%
%TA.AperFunction,ComponentPad*%
%ADD16R,1.600000X1.600000*%
%TD*%
%TA.AperFunction,ComponentPad*%
%ADD17C,1.600000*%
%TD*%
%TA.AperFunction,ViaPad*%
%ADD18C,0.800000*%
%TD*%
G04 APERTURE END LIST*
D10*
%TO.N,+12V*%
%TO.C,RV1*%
X49175000Y-22400000D03*
%TO.N,GND*%
X47025000Y-32400000D03*
%TD*%
D11*
%TO.N,GND*%
%TO.C,J4*%
X17500000Y-36200000D03*
D12*
%TO.N,CTS*%
X14960000Y-36200000D03*
%TO.N,SERIAL_PWR*%
X12420000Y-36200000D03*
%TO.N,TxD*%
X9880000Y-36200000D03*
%TO.N,RxD*%
X7340000Y-36200000D03*
%TO.N,RTS*%
X4800000Y-36200000D03*
%TD*%
D13*
%TO.N,Net-(J1-S)*%
%TO.C,J1*%
X14300000Y-2750000D03*
D14*
%TO.N,AUDIO_L*%
X5900000Y-7750000D03*
%TO.N,AUDIO_R*%
X11100000Y-10850000D03*
%TO.N,GND*%
X5000000Y-2750000D03*
%TD*%
D15*
%TO.N,N/C*%
%TO.C,J2*%
X44055000Y-9020000D03*
X19055000Y-9020000D03*
D16*
%TO.N,+12V*%
X37095000Y-10440000D03*
D17*
%TO.N,AVCLAN_BUS_TX+*%
X34325000Y-10440000D03*
%TO.N,GND*%
X31555000Y-10440000D03*
X28785000Y-10440000D03*
%TO.N,/AUDIO-R*%
X26015000Y-10440000D03*
%TO.N,Net-(J2-IGN{slash}ACC)*%
X35710000Y-7600000D03*
%TO.N,AVCLAN_BUS_TX-*%
X32940000Y-7600000D03*
%TO.N,GND*%
X30170000Y-7600000D03*
%TO.N,/AUDIO-L*%
X27400000Y-7600000D03*
%TD*%
D11*
%TO.N,UPDI_PWR*%
%TO.C,J3*%
X9850000Y-31200000D03*
D12*
%TO.N,GND*%
X7310000Y-31200000D03*
%TO.N,Net-(J3-Pin_3)*%
X4770000Y-31200000D03*
%TD*%
D18*
%TO.N,GND*%
X24500000Y-7300000D03*
X10250000Y-6100000D03*
X13950000Y-9850000D03*
X51500000Y-19500000D03*
X37750000Y-25500000D03*
X6000000Y-1000000D03*
X25000000Y-33100000D03*
X15500000Y-6050000D03*
X45500000Y-37500000D03*
X51500000Y-1500000D03*
X51500000Y-28500000D03*
X12300000Y-32000000D03*
X19537500Y-16150000D03*
X13200000Y-32900000D03*
X12400000Y-12700000D03*
X51500000Y-10500000D03*
X45750000Y-28250000D03*
X26000000Y-12500000D03*
X47000000Y-12250000D03*
X47800000Y-6600000D03*
X41800000Y-36500000D03*
X38250000Y-37500000D03*
X41775000Y-29800000D03*
X6200000Y-10300000D03*
X45475000Y-33100000D03*
X1500000Y-9000000D03*
X44500000Y-1000000D03*
X37500000Y-8500000D03*
X45750000Y-25750000D03*
X37000000Y-1000000D03*
X43500000Y-36500000D03*
X30800000Y-37500000D03*
X37675000Y-33050000D03*
X30000000Y-1000000D03*
X45475000Y-34550000D03*
X45475000Y-31450000D03*
X49400000Y-4800000D03*
X1500000Y-16500000D03*
X33000000Y-28000000D03*
X13000000Y-1000000D03*
X20000000Y-1000000D03*
X51000000Y-6600000D03*
X40100000Y-36500000D03*
X37250000Y-20500000D03*
X13500000Y-16300000D03*
X37975000Y-34550000D03*
X30600000Y-31400000D03*
X51500000Y-37500000D03*
X1500000Y-1500000D03*
X18000000Y-12500000D03*
X31000000Y-27200000D03*
X38700000Y-15300000D03*
X40075000Y-29800000D03*
X37975000Y-31450000D03*
X43475000Y-29550000D03*
%TO.N,+5V*%
X26800000Y-31950000D03*
X19500000Y-15050000D03*
%TO.N,UPDI_PWR*%
X27300000Y-34750000D03*
%TO.N,Net-(J1-S)*%
X14300000Y-8800000D03*
%TD*%
%TA.AperFunction,Conductor*%
%TO.N,GND*%
G36*
X6642539Y-320185D02*
G01*
X6688294Y-372989D01*
X6699500Y-424500D01*
X6699500Y-1440784D01*
X6696437Y-1462745D01*
X6695598Y-1471792D01*
X6699235Y-1511035D01*
X6699500Y-1516758D01*
X6699500Y-1527843D01*
X6699501Y-1527855D01*
X6701536Y-1538749D01*
X6702327Y-1544415D01*
X6705964Y-1583658D01*
X6708443Y-1592372D01*
X6711667Y-1601989D01*
X6714938Y-1610432D01*
X6714939Y-1610433D01*
X6735690Y-1643948D01*
X6738467Y-1648933D01*
X6744442Y-1660931D01*
X6756042Y-1684228D01*
X6761526Y-1691490D01*
X6767957Y-1699235D01*
X6774080Y-1705951D01*
X6805535Y-1729706D01*
X6809943Y-1733366D01*
X6810006Y-1733423D01*
X6839067Y-1759916D01*
X6839068Y-1759916D01*
X6839069Y-1759917D01*
X6846797Y-1764702D01*
X6855580Y-1769594D01*
X6863732Y-1773653D01*
X6863736Y-1773656D01*
X6901660Y-1784445D01*
X6907054Y-1786253D01*
X6943827Y-1800500D01*
X6943829Y-1800500D01*
X6952755Y-1802169D01*
X6962742Y-1803562D01*
X6971792Y-1804401D01*
X6971792Y-1804400D01*
X6971793Y-1804401D01*
X6980847Y-1803562D01*
X7011036Y-1800765D01*
X7016759Y-1800500D01*
X9068580Y-1800500D01*
X9135619Y-1820185D01*
X9181374Y-1872989D01*
X9191318Y-1942147D01*
X9162293Y-2005703D01*
X9134552Y-2029494D01*
X8995227Y-2117036D01*
X8867036Y-2245227D01*
X8770583Y-2398732D01*
X8770582Y-2398735D01*
X8710705Y-2569854D01*
X8690409Y-2749996D01*
X8690409Y-2750003D01*
X8710705Y-2930145D01*
X8770582Y-3101264D01*
X8770583Y-3101267D01*
X8820463Y-3180651D01*
X8867036Y-3254772D01*
X8995228Y-3382964D01*
X9148732Y-3479416D01*
X9319849Y-3539293D01*
X9319852Y-3539293D01*
X9319854Y-3539294D01*
X9410799Y-3549540D01*
X9454810Y-3554499D01*
X9454813Y-3554500D01*
X9454816Y-3554500D01*
X9545187Y-3554500D01*
X9545188Y-3554499D01*
X9612667Y-3546896D01*
X9680145Y-3539294D01*
X9680146Y-3539293D01*
X9680151Y-3539293D01*
X9851268Y-3479416D01*
X10004772Y-3382964D01*
X10132964Y-3254772D01*
X10229416Y-3101268D01*
X10289293Y-2930151D01*
X10289294Y-2930145D01*
X10309591Y-2750003D01*
X10309591Y-2749996D01*
X10289294Y-2569854D01*
X10289293Y-2569852D01*
X10289293Y-2569849D01*
X10229416Y-2398732D01*
X10132964Y-2245228D01*
X10004772Y-2117036D01*
X9865447Y-2029493D01*
X9819157Y-1977160D01*
X9808508Y-1908106D01*
X9836883Y-1844258D01*
X9895273Y-1805886D01*
X9931420Y-1800500D01*
X11940785Y-1800500D01*
X11962742Y-1803562D01*
X11971792Y-1804401D01*
X11971792Y-1804400D01*
X11971793Y-1804401D01*
X11980847Y-1803562D01*
X12011036Y-1800765D01*
X12016759Y-1800500D01*
X12027844Y-1800500D01*
X12038757Y-1798459D01*
X12044387Y-1797673D01*
X12083660Y-1794035D01*
X12083665Y-1794032D01*
X12092421Y-1791541D01*
X12101940Y-1788350D01*
X12110431Y-1785061D01*
X12110433Y-1785061D01*
X12143965Y-1764297D01*
X12148919Y-1761538D01*
X12184228Y-1743958D01*
X12184228Y-1743957D01*
X12191523Y-1738448D01*
X12199197Y-1732076D01*
X12205949Y-1725921D01*
X12205949Y-1725920D01*
X12205952Y-1725919D01*
X12229715Y-1694449D01*
X12233341Y-1690082D01*
X12259916Y-1660933D01*
X12259918Y-1660927D01*
X12264721Y-1653170D01*
X12269579Y-1644448D01*
X12273650Y-1636271D01*
X12273656Y-1636264D01*
X12284445Y-1598338D01*
X12286251Y-1592951D01*
X12300500Y-1556173D01*
X12300500Y-1556170D01*
X12300501Y-1556168D01*
X12302172Y-1547229D01*
X12303561Y-1537276D01*
X12304401Y-1528207D01*
X12300765Y-1488964D01*
X12300500Y-1483241D01*
X12300500Y-424500D01*
X12320185Y-357461D01*
X12372989Y-311706D01*
X12424500Y-300500D01*
X50952405Y-300500D01*
X50997786Y-300500D01*
X51002208Y-300657D01*
X51233020Y-317165D01*
X51250529Y-319683D01*
X51470144Y-367458D01*
X51487103Y-372437D01*
X51697694Y-450983D01*
X51713777Y-458327D01*
X51911036Y-566040D01*
X51925919Y-575605D01*
X52105836Y-710289D01*
X52119207Y-721875D01*
X52278124Y-880792D01*
X52289710Y-894163D01*
X52424394Y-1074080D01*
X52433959Y-1088963D01*
X52541669Y-1286217D01*
X52549019Y-1302311D01*
X52612231Y-1471792D01*
X52627559Y-1512887D01*
X52632543Y-1529862D01*
X52680316Y-1749470D01*
X52682834Y-1766982D01*
X52699342Y-1997788D01*
X52699500Y-2002212D01*
X52699500Y-36997786D01*
X52699342Y-37002210D01*
X52682834Y-37233017D01*
X52680316Y-37250529D01*
X52632543Y-37470137D01*
X52627559Y-37487112D01*
X52549019Y-37697688D01*
X52541669Y-37713782D01*
X52433959Y-37911036D01*
X52424394Y-37925919D01*
X52289710Y-38105836D01*
X52278124Y-38119207D01*
X52119207Y-38278124D01*
X52105836Y-38289710D01*
X51925919Y-38424394D01*
X51911036Y-38433959D01*
X51713782Y-38541669D01*
X51697688Y-38549019D01*
X51487112Y-38627559D01*
X51470137Y-38632543D01*
X51250529Y-38680316D01*
X51233017Y-38682834D01*
X51019172Y-38698128D01*
X51002208Y-38699342D01*
X50997786Y-38699500D01*
X2002214Y-38699500D01*
X1997791Y-38699342D01*
X1979142Y-38698008D01*
X1766982Y-38682834D01*
X1749470Y-38680316D01*
X1529862Y-38632543D01*
X1512887Y-38627559D01*
X1302311Y-38549019D01*
X1286217Y-38541669D01*
X1088963Y-38433959D01*
X1074080Y-38424394D01*
X894163Y-38289710D01*
X880792Y-38278124D01*
X721875Y-38119207D01*
X710289Y-38105836D01*
X575605Y-37925919D01*
X566040Y-37911036D01*
X458330Y-37713782D01*
X450983Y-37697694D01*
X372437Y-37487103D01*
X367458Y-37470144D01*
X319683Y-37250529D01*
X317165Y-37233017D01*
X311755Y-37157379D01*
X300657Y-37002208D01*
X300500Y-36997786D01*
X300500Y-36200000D01*
X3444341Y-36200000D01*
X3464936Y-36435403D01*
X3464938Y-36435413D01*
X3526094Y-36663655D01*
X3526096Y-36663659D01*
X3526097Y-36663663D01*
X3595408Y-36812301D01*
X3625965Y-36877830D01*
X3625967Y-36877834D01*
X3678183Y-36952405D01*
X3761505Y-37071401D01*
X3928599Y-37238495D01*
X4005135Y-37292086D01*
X4122165Y-37374032D01*
X4122167Y-37374033D01*
X4122170Y-37374035D01*
X4336337Y-37473903D01*
X4564592Y-37535063D01*
X4735319Y-37550000D01*
X4799999Y-37555659D01*
X4800000Y-37555659D01*
X4800001Y-37555659D01*
X4864681Y-37550000D01*
X5035408Y-37535063D01*
X5263663Y-37473903D01*
X5477830Y-37374035D01*
X5671401Y-37238495D01*
X5838495Y-37071401D01*
X5968426Y-36885841D01*
X6023002Y-36842217D01*
X6092500Y-36835023D01*
X6154855Y-36866546D01*
X6171575Y-36885842D01*
X6301500Y-37071395D01*
X6301505Y-37071401D01*
X6468599Y-37238495D01*
X6545135Y-37292086D01*
X6662165Y-37374032D01*
X6662167Y-37374033D01*
X6662170Y-37374035D01*
X6876337Y-37473903D01*
X7104592Y-37535063D01*
X7275319Y-37550000D01*
X7339999Y-37555659D01*
X7340000Y-37555659D01*
X7340001Y-37555659D01*
X7404681Y-37550000D01*
X7575408Y-37535063D01*
X7803663Y-37473903D01*
X8017830Y-37374035D01*
X8211401Y-37238495D01*
X8378495Y-37071401D01*
X8508426Y-36885840D01*
X8563001Y-36842217D01*
X8632499Y-36835023D01*
X8694854Y-36866546D01*
X8711574Y-36885841D01*
X8841505Y-37071401D01*
X9008599Y-37238495D01*
X9085135Y-37292086D01*
X9202165Y-37374032D01*
X9202167Y-37374033D01*
X9202170Y-37374035D01*
X9416337Y-37473903D01*
X9644592Y-37535063D01*
X9815319Y-37550000D01*
X9879999Y-37555659D01*
X9880000Y-37555659D01*
X9880001Y-37555659D01*
X9944681Y-37550000D01*
X10115408Y-37535063D01*
X10343663Y-37473903D01*
X10557830Y-37374035D01*
X10751401Y-37238495D01*
X10918495Y-37071401D01*
X11048426Y-36885841D01*
X11103002Y-36842217D01*
X11172500Y-36835023D01*
X11234855Y-36866546D01*
X11251575Y-36885842D01*
X11381500Y-37071395D01*
X11381505Y-37071401D01*
X11548599Y-37238495D01*
X11625135Y-37292086D01*
X11742165Y-37374032D01*
X11742167Y-37374033D01*
X11742170Y-37374035D01*
X11956337Y-37473903D01*
X12184592Y-37535063D01*
X12355319Y-37550000D01*
X12419999Y-37555659D01*
X12420000Y-37555659D01*
X12420001Y-37555659D01*
X12484681Y-37550000D01*
X12655408Y-37535063D01*
X12883663Y-37473903D01*
X13097830Y-37374035D01*
X13291401Y-37238495D01*
X13458495Y-37071401D01*
X13588426Y-36885841D01*
X13643002Y-36842217D01*
X13712500Y-36835023D01*
X13774855Y-36866546D01*
X13791575Y-36885842D01*
X13921500Y-37071395D01*
X13921505Y-37071401D01*
X14088599Y-37238495D01*
X14165135Y-37292086D01*
X14282165Y-37374032D01*
X14282167Y-37374033D01*
X14282170Y-37374035D01*
X14496337Y-37473903D01*
X14724592Y-37535063D01*
X14895319Y-37550000D01*
X14959999Y-37555659D01*
X14960000Y-37555659D01*
X14960001Y-37555659D01*
X15024681Y-37550000D01*
X15195408Y-37535063D01*
X15423663Y-37473903D01*
X15637830Y-37374035D01*
X15831401Y-37238495D01*
X15953717Y-37116178D01*
X16015036Y-37082696D01*
X16084728Y-37087680D01*
X16140662Y-37129551D01*
X16157577Y-37160528D01*
X16206646Y-37292088D01*
X16206649Y-37292093D01*
X16292809Y-37407187D01*
X16292812Y-37407190D01*
X16407906Y-37493350D01*
X16407913Y-37493354D01*
X16542620Y-37543596D01*
X16542627Y-37543598D01*
X16602155Y-37549999D01*
X16602172Y-37550000D01*
X17250000Y-37550000D01*
X17250000Y-36812301D01*
X17269685Y-36745262D01*
X17322489Y-36699507D01*
X17391647Y-36689563D01*
X17464237Y-36700000D01*
X17464238Y-36700000D01*
X17535762Y-36700000D01*
X17535763Y-36700000D01*
X17608353Y-36689563D01*
X17677512Y-36699507D01*
X17730315Y-36745262D01*
X17750000Y-36812301D01*
X17750000Y-37550000D01*
X18397828Y-37550000D01*
X18397844Y-37549999D01*
X18457372Y-37543598D01*
X18457379Y-37543596D01*
X18592086Y-37493354D01*
X18592093Y-37493350D01*
X18707187Y-37407190D01*
X18707190Y-37407187D01*
X18793350Y-37292093D01*
X18793354Y-37292086D01*
X18843596Y-37157379D01*
X18843598Y-37157372D01*
X18849999Y-37097844D01*
X18850000Y-37097827D01*
X18850000Y-36450000D01*
X18113347Y-36450000D01*
X18046308Y-36430315D01*
X18000553Y-36377511D01*
X17990609Y-36308353D01*
X17994369Y-36291067D01*
X18000000Y-36271888D01*
X18000000Y-36128111D01*
X17994369Y-36108933D01*
X17994370Y-36039064D01*
X18032145Y-35980286D01*
X18095701Y-35951262D01*
X18113347Y-35950000D01*
X18850000Y-35950000D01*
X18850000Y-35302172D01*
X18849999Y-35302155D01*
X18843598Y-35242627D01*
X18843596Y-35242620D01*
X18793354Y-35107913D01*
X18793350Y-35107906D01*
X18707190Y-34992812D01*
X18707187Y-34992809D01*
X18592093Y-34906649D01*
X18592086Y-34906645D01*
X18457379Y-34856403D01*
X18457372Y-34856401D01*
X18397844Y-34850000D01*
X17750000Y-34850000D01*
X17750000Y-35587698D01*
X17730315Y-35654737D01*
X17677511Y-35700492D01*
X17608355Y-35710436D01*
X17535766Y-35700000D01*
X17535763Y-35700000D01*
X17464237Y-35700000D01*
X17464233Y-35700000D01*
X17391645Y-35710436D01*
X17322487Y-35700492D01*
X17269684Y-35654736D01*
X17250000Y-35587698D01*
X17250000Y-34850000D01*
X16602155Y-34850000D01*
X16542627Y-34856401D01*
X16542620Y-34856403D01*
X16407913Y-34906645D01*
X16407906Y-34906649D01*
X16292812Y-34992809D01*
X16292809Y-34992812D01*
X16206649Y-35107906D01*
X16206645Y-35107913D01*
X16157578Y-35239470D01*
X16115707Y-35295404D01*
X16050242Y-35319821D01*
X15981969Y-35304969D01*
X15953715Y-35283819D01*
X15909366Y-35239470D01*
X15831401Y-35161505D01*
X15831397Y-35161502D01*
X15831396Y-35161501D01*
X15637834Y-35025967D01*
X15637830Y-35025965D01*
X15566727Y-34992809D01*
X15423663Y-34926097D01*
X15423659Y-34926096D01*
X15423655Y-34926094D01*
X15195413Y-34864938D01*
X15195403Y-34864936D01*
X14960001Y-34844341D01*
X14959999Y-34844341D01*
X14724596Y-34864936D01*
X14724586Y-34864938D01*
X14496344Y-34926094D01*
X14496335Y-34926098D01*
X14282171Y-35025964D01*
X14282169Y-35025965D01*
X14088597Y-35161505D01*
X13921505Y-35328597D01*
X13791575Y-35514158D01*
X13736998Y-35557783D01*
X13667500Y-35564977D01*
X13605145Y-35533454D01*
X13588425Y-35514158D01*
X13458494Y-35328597D01*
X13291402Y-35161506D01*
X13291395Y-35161501D01*
X13097834Y-35025967D01*
X13097830Y-35025965D01*
X13026727Y-34992809D01*
X12883663Y-34926097D01*
X12883659Y-34926096D01*
X12883655Y-34926094D01*
X12655413Y-34864938D01*
X12655403Y-34864936D01*
X12420001Y-34844341D01*
X12419999Y-34844341D01*
X12184596Y-34864936D01*
X12184586Y-34864938D01*
X11956344Y-34926094D01*
X11956335Y-34926098D01*
X11742171Y-35025964D01*
X11742169Y-35025965D01*
X11548597Y-35161505D01*
X11381505Y-35328597D01*
X11251575Y-35514158D01*
X11196998Y-35557783D01*
X11127500Y-35564977D01*
X11065145Y-35533454D01*
X11048425Y-35514158D01*
X10918494Y-35328597D01*
X10751402Y-35161506D01*
X10751395Y-35161501D01*
X10557834Y-35025967D01*
X10557830Y-35025965D01*
X10486727Y-34992809D01*
X10343663Y-34926097D01*
X10343659Y-34926096D01*
X10343655Y-34926094D01*
X10115413Y-34864938D01*
X10115403Y-34864936D01*
X9880001Y-34844341D01*
X9879999Y-34844341D01*
X9644596Y-34864936D01*
X9644586Y-34864938D01*
X9416344Y-34926094D01*
X9416335Y-34926098D01*
X9202171Y-35025964D01*
X9202169Y-35025965D01*
X9008597Y-35161505D01*
X8841508Y-35328594D01*
X8711574Y-35514159D01*
X8656997Y-35557784D01*
X8587498Y-35564976D01*
X8525144Y-35533454D01*
X8508424Y-35514158D01*
X8378494Y-35328597D01*
X8211402Y-35161506D01*
X8211395Y-35161501D01*
X8017834Y-35025967D01*
X8017830Y-35025965D01*
X7946727Y-34992809D01*
X7803663Y-34926097D01*
X7803659Y-34926096D01*
X7803655Y-34926094D01*
X7575413Y-34864938D01*
X7575403Y-34864936D01*
X7340001Y-34844341D01*
X7339999Y-34844341D01*
X7104596Y-34864936D01*
X7104586Y-34864938D01*
X6876344Y-34926094D01*
X6876335Y-34926098D01*
X6662171Y-35025964D01*
X6662169Y-35025965D01*
X6468597Y-35161505D01*
X6301505Y-35328597D01*
X6171575Y-35514158D01*
X6116998Y-35557783D01*
X6047500Y-35564977D01*
X5985145Y-35533454D01*
X5968425Y-35514158D01*
X5838494Y-35328597D01*
X5671402Y-35161506D01*
X5671395Y-35161501D01*
X5477834Y-35025967D01*
X5477830Y-35025965D01*
X5406727Y-34992809D01*
X5263663Y-34926097D01*
X5263659Y-34926096D01*
X5263655Y-34926094D01*
X5035413Y-34864938D01*
X5035403Y-34864936D01*
X4800001Y-34844341D01*
X4799999Y-34844341D01*
X4564596Y-34864936D01*
X4564586Y-34864938D01*
X4336344Y-34926094D01*
X4336335Y-34926098D01*
X4122171Y-35025964D01*
X4122169Y-35025965D01*
X3928597Y-35161505D01*
X3761505Y-35328597D01*
X3625965Y-35522169D01*
X3625964Y-35522171D01*
X3526098Y-35736335D01*
X3526094Y-35736344D01*
X3464938Y-35964586D01*
X3464936Y-35964596D01*
X3444341Y-36199999D01*
X3444341Y-36200000D01*
X300500Y-36200000D01*
X300500Y-34750000D01*
X26394540Y-34750000D01*
X26414326Y-34938256D01*
X26414327Y-34938259D01*
X26472818Y-35118277D01*
X26472821Y-35118284D01*
X26567467Y-35282216D01*
X26609229Y-35328597D01*
X26694129Y-35422888D01*
X26847265Y-35534148D01*
X26847270Y-35534151D01*
X27020192Y-35611142D01*
X27020197Y-35611144D01*
X27205354Y-35650500D01*
X27205355Y-35650500D01*
X27394644Y-35650500D01*
X27394646Y-35650500D01*
X27579803Y-35611144D01*
X27752730Y-35534151D01*
X27905871Y-35422888D01*
X28032533Y-35282216D01*
X28127179Y-35118284D01*
X28185674Y-34938256D01*
X28205460Y-34750000D01*
X28185674Y-34561744D01*
X28127179Y-34381716D01*
X28032533Y-34217784D01*
X27905871Y-34077112D01*
X27905870Y-34077111D01*
X27752734Y-33965851D01*
X27752729Y-33965848D01*
X27579807Y-33888857D01*
X27579802Y-33888855D01*
X27434000Y-33857865D01*
X27394646Y-33849500D01*
X27205354Y-33849500D01*
X27172897Y-33856398D01*
X27020197Y-33888855D01*
X27020192Y-33888857D01*
X26847270Y-33965848D01*
X26847265Y-33965851D01*
X26694129Y-34077111D01*
X26567466Y-34217785D01*
X26472821Y-34381715D01*
X26472818Y-34381722D01*
X26414327Y-34561740D01*
X26414326Y-34561744D01*
X26394540Y-34750000D01*
X300500Y-34750000D01*
X300500Y-31200000D01*
X3414341Y-31200000D01*
X3434936Y-31435403D01*
X3434938Y-31435413D01*
X3496094Y-31663655D01*
X3496096Y-31663659D01*
X3496097Y-31663663D01*
X3590500Y-31866110D01*
X3595965Y-31877830D01*
X3595967Y-31877834D01*
X3664038Y-31975048D01*
X3731505Y-32071401D01*
X3898599Y-32238495D01*
X3995384Y-32306264D01*
X4092165Y-32374032D01*
X4092167Y-32374033D01*
X4092170Y-32374035D01*
X4306337Y-32473903D01*
X4534592Y-32535063D01*
X4711034Y-32550500D01*
X4769999Y-32555659D01*
X4770000Y-32555659D01*
X4770001Y-32555659D01*
X4828966Y-32550500D01*
X5005408Y-32535063D01*
X5233663Y-32473903D01*
X5447830Y-32374035D01*
X5641401Y-32238495D01*
X5808495Y-32071401D01*
X5938730Y-31885405D01*
X5993307Y-31841781D01*
X6062805Y-31834587D01*
X6125160Y-31866110D01*
X6141879Y-31885405D01*
X6271890Y-32071078D01*
X6438917Y-32238105D01*
X6632421Y-32373600D01*
X6846507Y-32473429D01*
X6846516Y-32473433D01*
X7059998Y-32530635D01*
X7059998Y-31812300D01*
X7079682Y-31745261D01*
X7132486Y-31699506D01*
X7201642Y-31689562D01*
X7274237Y-31700000D01*
X7274240Y-31700000D01*
X7345762Y-31700000D01*
X7345763Y-31700000D01*
X7418353Y-31689563D01*
X7487512Y-31699507D01*
X7540315Y-31745262D01*
X7560000Y-31812301D01*
X7560000Y-32530633D01*
X7773483Y-32473433D01*
X7773492Y-32473429D01*
X7987578Y-32373600D01*
X8181078Y-32238108D01*
X8303133Y-32116053D01*
X8364456Y-32082568D01*
X8434148Y-32087552D01*
X8490082Y-32129423D01*
X8506997Y-32160401D01*
X8556202Y-32292328D01*
X8556206Y-32292335D01*
X8642452Y-32407544D01*
X8642455Y-32407547D01*
X8757664Y-32493793D01*
X8757671Y-32493797D01*
X8892517Y-32544091D01*
X8892516Y-32544091D01*
X8899444Y-32544835D01*
X8952127Y-32550500D01*
X10747872Y-32550499D01*
X10807483Y-32544091D01*
X10942331Y-32493796D01*
X11057546Y-32407546D01*
X11143796Y-32292331D01*
X11194091Y-32157483D01*
X11200500Y-32097873D01*
X11200500Y-31950000D01*
X25894540Y-31950000D01*
X25914326Y-32138256D01*
X25914327Y-32138259D01*
X25972818Y-32318277D01*
X25972821Y-32318284D01*
X26067467Y-32482216D01*
X26133596Y-32555659D01*
X26194129Y-32622888D01*
X26347265Y-32734148D01*
X26347270Y-32734151D01*
X26520192Y-32811142D01*
X26520197Y-32811144D01*
X26705354Y-32850500D01*
X26705355Y-32850500D01*
X26894644Y-32850500D01*
X26894646Y-32850500D01*
X27079803Y-32811144D01*
X27252730Y-32734151D01*
X27405871Y-32622888D01*
X27532533Y-32482216D01*
X27579997Y-32400005D01*
X45519859Y-32400005D01*
X45540385Y-32647729D01*
X45540387Y-32647738D01*
X45601412Y-32888717D01*
X45701266Y-33116364D01*
X45801564Y-33269882D01*
X46416050Y-32655395D01*
X46477373Y-32621910D01*
X46547064Y-32626894D01*
X46602998Y-32668765D01*
X46608039Y-32676025D01*
X46643239Y-32730798D01*
X46735964Y-32811144D01*
X46758602Y-32830759D01*
X46756293Y-32833422D01*
X46791006Y-32873499D01*
X46800935Y-32942660D01*
X46771898Y-33006210D01*
X46765882Y-33012669D01*
X46154942Y-33623609D01*
X46201768Y-33660055D01*
X46201770Y-33660056D01*
X46420385Y-33778364D01*
X46420396Y-33778369D01*
X46655506Y-33859083D01*
X46900707Y-33900000D01*
X47149293Y-33900000D01*
X47394493Y-33859083D01*
X47629603Y-33778369D01*
X47629614Y-33778364D01*
X47848228Y-33660057D01*
X47848231Y-33660055D01*
X47895056Y-33623609D01*
X47284116Y-33012669D01*
X47250631Y-32951346D01*
X47255615Y-32881654D01*
X47292641Y-32832193D01*
X47291398Y-32830759D01*
X47298100Y-32824952D01*
X47406761Y-32730798D01*
X47441954Y-32676037D01*
X47494755Y-32630283D01*
X47563914Y-32620339D01*
X47627470Y-32649363D01*
X47633949Y-32655396D01*
X48248434Y-33269882D01*
X48348731Y-33116369D01*
X48448587Y-32888717D01*
X48509612Y-32647738D01*
X48509614Y-32647729D01*
X48530141Y-32400005D01*
X48530141Y-32399994D01*
X48509614Y-32152270D01*
X48509612Y-32152261D01*
X48448587Y-31911282D01*
X48348731Y-31683630D01*
X48248434Y-31530116D01*
X47633949Y-32144602D01*
X47572626Y-32178087D01*
X47502934Y-32173103D01*
X47447001Y-32131231D01*
X47441953Y-32123961D01*
X47406761Y-32069202D01*
X47291398Y-31969241D01*
X47293698Y-31966585D01*
X47258960Y-31926428D01*
X47249074Y-31857261D01*
X47278152Y-31793729D01*
X47284116Y-31787329D01*
X47895056Y-31176389D01*
X47848229Y-31139943D01*
X47629614Y-31021635D01*
X47629603Y-31021630D01*
X47394493Y-30940916D01*
X47149293Y-30900000D01*
X46900707Y-30900000D01*
X46655506Y-30940916D01*
X46420396Y-31021630D01*
X46420390Y-31021632D01*
X46201761Y-31139949D01*
X46154942Y-31176388D01*
X46154942Y-31176390D01*
X46765883Y-31787330D01*
X46799368Y-31848653D01*
X46794384Y-31918344D01*
X46757358Y-31967805D01*
X46758602Y-31969241D01*
X46643238Y-32069202D01*
X46608046Y-32123962D01*
X46555242Y-32169717D01*
X46486083Y-32179660D01*
X46422528Y-32150634D01*
X46416050Y-32144603D01*
X45801564Y-31530116D01*
X45701267Y-31683632D01*
X45601412Y-31911282D01*
X45540387Y-32152261D01*
X45540385Y-32152270D01*
X45519859Y-32399994D01*
X45519859Y-32400005D01*
X27579997Y-32400005D01*
X27627179Y-32318284D01*
X27685674Y-32138256D01*
X27705460Y-31950000D01*
X27685674Y-31761744D01*
X27627179Y-31581716D01*
X27532533Y-31417784D01*
X27405871Y-31277112D01*
X27405870Y-31277111D01*
X27252734Y-31165851D01*
X27252729Y-31165848D01*
X27079807Y-31088857D01*
X27079802Y-31088855D01*
X26934000Y-31057865D01*
X26894646Y-31049500D01*
X26705354Y-31049500D01*
X26672897Y-31056398D01*
X26520197Y-31088855D01*
X26520192Y-31088857D01*
X26347270Y-31165848D01*
X26347265Y-31165851D01*
X26194129Y-31277111D01*
X26067466Y-31417785D01*
X25972821Y-31581715D01*
X25972818Y-31581722D01*
X25919681Y-31745262D01*
X25914326Y-31761744D01*
X25894540Y-31950000D01*
X11200500Y-31950000D01*
X11200499Y-30302128D01*
X11194091Y-30242517D01*
X11193002Y-30239598D01*
X11143797Y-30107671D01*
X11143793Y-30107664D01*
X11057547Y-29992455D01*
X11057544Y-29992452D01*
X10942335Y-29906206D01*
X10942328Y-29906202D01*
X10807482Y-29855908D01*
X10807483Y-29855908D01*
X10747883Y-29849501D01*
X10747881Y-29849500D01*
X10747873Y-29849500D01*
X10747864Y-29849500D01*
X8952129Y-29849500D01*
X8952123Y-29849501D01*
X8892516Y-29855908D01*
X8757671Y-29906202D01*
X8757664Y-29906206D01*
X8642455Y-29992452D01*
X8642452Y-29992455D01*
X8556206Y-30107664D01*
X8556202Y-30107671D01*
X8506997Y-30239598D01*
X8465126Y-30295532D01*
X8399661Y-30319949D01*
X8331388Y-30305097D01*
X8303134Y-30283946D01*
X8181082Y-30161894D01*
X7987578Y-30026399D01*
X7773492Y-29926570D01*
X7773486Y-29926567D01*
X7560000Y-29869364D01*
X7560000Y-30587698D01*
X7540315Y-30654737D01*
X7487511Y-30700492D01*
X7418355Y-30710436D01*
X7345766Y-30700000D01*
X7345763Y-30700000D01*
X7274237Y-30700000D01*
X7201646Y-30710437D01*
X7132487Y-30700493D01*
X7079683Y-30654738D01*
X7059999Y-30587699D01*
X7059999Y-29869364D01*
X7059998Y-29869364D01*
X6846505Y-29926570D01*
X6632422Y-30026399D01*
X6632420Y-30026400D01*
X6438926Y-30161886D01*
X6438920Y-30161891D01*
X6271891Y-30328920D01*
X6271890Y-30328922D01*
X6141880Y-30514595D01*
X6087303Y-30558219D01*
X6017804Y-30565412D01*
X5955450Y-30533890D01*
X5938730Y-30514594D01*
X5808494Y-30328597D01*
X5641402Y-30161506D01*
X5641395Y-30161501D01*
X5447834Y-30025967D01*
X5447830Y-30025965D01*
X5447828Y-30025964D01*
X5233663Y-29926097D01*
X5233659Y-29926096D01*
X5233655Y-29926094D01*
X5005413Y-29864938D01*
X5005403Y-29864936D01*
X4770001Y-29844341D01*
X4769999Y-29844341D01*
X4534596Y-29864936D01*
X4534586Y-29864938D01*
X4306344Y-29926094D01*
X4306335Y-29926098D01*
X4092171Y-30025964D01*
X4092169Y-30025965D01*
X3898597Y-30161505D01*
X3731505Y-30328597D01*
X3595965Y-30522169D01*
X3595964Y-30522171D01*
X3496098Y-30736335D01*
X3496094Y-30736344D01*
X3434938Y-30964586D01*
X3434936Y-30964596D01*
X3414341Y-31199999D01*
X3414341Y-31200000D01*
X300500Y-31200000D01*
X300500Y-22400005D01*
X47669357Y-22400005D01*
X47689890Y-22647812D01*
X47689892Y-22647824D01*
X47750936Y-22888881D01*
X47850826Y-23116606D01*
X47986833Y-23324782D01*
X47986836Y-23324785D01*
X48155256Y-23507738D01*
X48351491Y-23660474D01*
X48570190Y-23778828D01*
X48805386Y-23859571D01*
X49050665Y-23900500D01*
X49299335Y-23900500D01*
X49544614Y-23859571D01*
X49779810Y-23778828D01*
X49998509Y-23660474D01*
X50194744Y-23507738D01*
X50363164Y-23324785D01*
X50499173Y-23116607D01*
X50599063Y-22888881D01*
X50660108Y-22647821D01*
X50680643Y-22400000D01*
X50660108Y-22152179D01*
X50599063Y-21911119D01*
X50499173Y-21683393D01*
X50499173Y-21683392D01*
X50363166Y-21475217D01*
X50341557Y-21451744D01*
X50194744Y-21292262D01*
X49998509Y-21139526D01*
X49998507Y-21139525D01*
X49998506Y-21139524D01*
X49779811Y-21021172D01*
X49779802Y-21021169D01*
X49544616Y-20940429D01*
X49299335Y-20899500D01*
X49050665Y-20899500D01*
X48805383Y-20940429D01*
X48570197Y-21021169D01*
X48570188Y-21021172D01*
X48351493Y-21139524D01*
X48155257Y-21292261D01*
X47986833Y-21475217D01*
X47850826Y-21683393D01*
X47750936Y-21911118D01*
X47689892Y-22152175D01*
X47689890Y-22152187D01*
X47669357Y-22399994D01*
X47669357Y-22400005D01*
X300500Y-22400005D01*
X300500Y-15050000D01*
X18594540Y-15050000D01*
X18614326Y-15238256D01*
X18614327Y-15238259D01*
X18672818Y-15418277D01*
X18672821Y-15418284D01*
X18767467Y-15582216D01*
X18894129Y-15722887D01*
X18894129Y-15722888D01*
X19047265Y-15834148D01*
X19047270Y-15834151D01*
X19220192Y-15911142D01*
X19220197Y-15911144D01*
X19405354Y-15950500D01*
X19405355Y-15950500D01*
X19594644Y-15950500D01*
X19594646Y-15950500D01*
X19779803Y-15911144D01*
X19952730Y-15834151D01*
X20105871Y-15722888D01*
X20232533Y-15582216D01*
X20327179Y-15418284D01*
X20385674Y-15238256D01*
X20405460Y-15050000D01*
X20385674Y-14861744D01*
X20327179Y-14681716D01*
X20232533Y-14517784D01*
X20105871Y-14377112D01*
X20105870Y-14377111D01*
X19952734Y-14265851D01*
X19952729Y-14265848D01*
X19779807Y-14188857D01*
X19779802Y-14188855D01*
X19634001Y-14157865D01*
X19594646Y-14149500D01*
X19405354Y-14149500D01*
X19372897Y-14156398D01*
X19220197Y-14188855D01*
X19220192Y-14188857D01*
X19047270Y-14265848D01*
X19047265Y-14265851D01*
X18894129Y-14377111D01*
X18767466Y-14517785D01*
X18672821Y-14681715D01*
X18672818Y-14681722D01*
X18614327Y-14861740D01*
X18614326Y-14861744D01*
X18594540Y-15050000D01*
X300500Y-15050000D01*
X300500Y-10850001D01*
X9769437Y-10850001D01*
X9789650Y-11081044D01*
X9789651Y-11081051D01*
X9849678Y-11305074D01*
X9849679Y-11305076D01*
X9849680Y-11305079D01*
X9947699Y-11515282D01*
X10080730Y-11705269D01*
X10244731Y-11869270D01*
X10434718Y-12002301D01*
X10644921Y-12100320D01*
X10868950Y-12160349D01*
X11033985Y-12174787D01*
X11099998Y-12180563D01*
X11100000Y-12180563D01*
X11100002Y-12180563D01*
X11157762Y-12175509D01*
X11331050Y-12160349D01*
X11555079Y-12100320D01*
X11765282Y-12002301D01*
X11955269Y-11869270D01*
X12119270Y-11705269D01*
X12252301Y-11515282D01*
X12350320Y-11305079D01*
X12410349Y-11081050D01*
X12430563Y-10850000D01*
X12426197Y-10800101D01*
X12418843Y-10716036D01*
X12410349Y-10618950D01*
X12350320Y-10394921D01*
X12252301Y-10184719D01*
X12252299Y-10184716D01*
X12252298Y-10184714D01*
X12119273Y-9994735D01*
X12119268Y-9994729D01*
X11955269Y-9830730D01*
X11893549Y-9787513D01*
X11765282Y-9697699D01*
X11555079Y-9599680D01*
X11555076Y-9599679D01*
X11555074Y-9599678D01*
X11331051Y-9539651D01*
X11331044Y-9539650D01*
X11100002Y-9519437D01*
X11099998Y-9519437D01*
X10868955Y-9539650D01*
X10868948Y-9539651D01*
X10644917Y-9599681D01*
X10434718Y-9697699D01*
X10434714Y-9697701D01*
X10244735Y-9830726D01*
X10244729Y-9830731D01*
X10080731Y-9994729D01*
X10080726Y-9994735D01*
X9947701Y-10184714D01*
X9947699Y-10184718D01*
X9849681Y-10394917D01*
X9789651Y-10618948D01*
X9789650Y-10618955D01*
X9769437Y-10849998D01*
X9769437Y-10850001D01*
X300500Y-10850001D01*
X300500Y-7750001D01*
X4569437Y-7750001D01*
X4589650Y-7981044D01*
X4589651Y-7981051D01*
X4649678Y-8205074D01*
X4649679Y-8205076D01*
X4649680Y-8205079D01*
X4747699Y-8415282D01*
X4880730Y-8605269D01*
X5044731Y-8769270D01*
X5234718Y-8902301D01*
X5444921Y-9000320D01*
X5668950Y-9060349D01*
X5833985Y-9074787D01*
X5899998Y-9080563D01*
X5900000Y-9080563D01*
X5900002Y-9080563D01*
X5957762Y-9075509D01*
X6131050Y-9060349D01*
X6355079Y-9000320D01*
X6565282Y-8902301D01*
X6711382Y-8800000D01*
X13394540Y-8800000D01*
X13414326Y-8988256D01*
X13414327Y-8988259D01*
X13472818Y-9168277D01*
X13472821Y-9168284D01*
X13567467Y-9332216D01*
X13664474Y-9439953D01*
X13694129Y-9472888D01*
X13847265Y-9584148D01*
X13847270Y-9584151D01*
X14020192Y-9661142D01*
X14020197Y-9661144D01*
X14205354Y-9700500D01*
X14205355Y-9700500D01*
X14394644Y-9700500D01*
X14394646Y-9700500D01*
X14579803Y-9661144D01*
X14752730Y-9584151D01*
X14905871Y-9472888D01*
X15032533Y-9332216D01*
X15127179Y-9168284D01*
X15175358Y-9020005D01*
X16549556Y-9020005D01*
X16569310Y-9334004D01*
X16569311Y-9334011D01*
X16581455Y-9397671D01*
X16619990Y-9599681D01*
X16628270Y-9643083D01*
X16725497Y-9942316D01*
X16725499Y-9942321D01*
X16859461Y-10227003D01*
X16859464Y-10227009D01*
X17028051Y-10492661D01*
X17028054Y-10492665D01*
X17228606Y-10735090D01*
X17228608Y-10735092D01*
X17228610Y-10735094D01*
X17418592Y-10913499D01*
X17457968Y-10950476D01*
X17457978Y-10950484D01*
X17712504Y-11135408D01*
X17712509Y-11135410D01*
X17712516Y-11135416D01*
X17988234Y-11286994D01*
X17988239Y-11286996D01*
X17988241Y-11286997D01*
X17988242Y-11286998D01*
X18280771Y-11402818D01*
X18280774Y-11402819D01*
X18585523Y-11481065D01*
X18585527Y-11481066D01*
X18651010Y-11489338D01*
X18897670Y-11520499D01*
X18897679Y-11520499D01*
X18897682Y-11520500D01*
X18897684Y-11520500D01*
X19212316Y-11520500D01*
X19212318Y-11520500D01*
X19212321Y-11520499D01*
X19212329Y-11520499D01*
X19398593Y-11496968D01*
X19524473Y-11481066D01*
X19829225Y-11402819D01*
X19829228Y-11402818D01*
X20121757Y-11286998D01*
X20121758Y-11286997D01*
X20121756Y-11286997D01*
X20121766Y-11286994D01*
X20397484Y-11135416D01*
X20652030Y-10950478D01*
X20881390Y-10735094D01*
X21081947Y-10492663D01*
X21115367Y-10440001D01*
X24709532Y-10440001D01*
X24729364Y-10666686D01*
X24729366Y-10666697D01*
X24788258Y-10886488D01*
X24788261Y-10886497D01*
X24884431Y-11092732D01*
X24884432Y-11092734D01*
X25014954Y-11279141D01*
X25175858Y-11440045D01*
X25175861Y-11440047D01*
X25362266Y-11570568D01*
X25568504Y-11666739D01*
X25788308Y-11725635D01*
X25950230Y-11739801D01*
X26014998Y-11745468D01*
X26015000Y-11745468D01*
X26015002Y-11745468D01*
X26071807Y-11740498D01*
X26241692Y-11725635D01*
X26461496Y-11666739D01*
X26667734Y-11570568D01*
X26854139Y-11440047D01*
X27015047Y-11279139D01*
X27145568Y-11092734D01*
X27241739Y-10886496D01*
X27280484Y-10741895D01*
X27316847Y-10682238D01*
X27379694Y-10651708D01*
X27449070Y-10660002D01*
X27502948Y-10704487D01*
X27520033Y-10741897D01*
X27558731Y-10886319D01*
X27558734Y-10886326D01*
X27654865Y-11092481D01*
X27654866Y-11092483D01*
X27705973Y-11165471D01*
X27705973Y-11165472D01*
X28176049Y-10695395D01*
X28237372Y-10661910D01*
X28307063Y-10666894D01*
X28362997Y-10708765D01*
X28368045Y-10716036D01*
X28384666Y-10741898D01*
X28403239Y-10770798D01*
X28494645Y-10850001D01*
X28518602Y-10870759D01*
X28516293Y-10873422D01*
X28551006Y-10913499D01*
X28560935Y-10982660D01*
X28531898Y-11046210D01*
X28525882Y-11052669D01*
X28059526Y-11519025D01*
X28059526Y-11519026D01*
X28132512Y-11570131D01*
X28132516Y-11570133D01*
X28338673Y-11666265D01*
X28338682Y-11666269D01*
X28558389Y-11725139D01*
X28558400Y-11725141D01*
X28784998Y-11744966D01*
X28785002Y-11744966D01*
X29011599Y-11725141D01*
X29011610Y-11725139D01*
X29231317Y-11666269D01*
X29231331Y-11666264D01*
X29437478Y-11570136D01*
X29510472Y-11519025D01*
X29044116Y-11052669D01*
X29010631Y-10991346D01*
X29015615Y-10921654D01*
X29052641Y-10872193D01*
X29051398Y-10870759D01*
X29072121Y-10852803D01*
X29166761Y-10770798D01*
X29201955Y-10716034D01*
X29254754Y-10670283D01*
X29323913Y-10660338D01*
X29387469Y-10689362D01*
X29393949Y-10695395D01*
X29864025Y-11165472D01*
X29915136Y-11092478D01*
X30011264Y-10886331D01*
X30011269Y-10886317D01*
X30050225Y-10740932D01*
X30086590Y-10681271D01*
X30149437Y-10650742D01*
X30218812Y-10659037D01*
X30272690Y-10703522D01*
X30289775Y-10740932D01*
X30328730Y-10886317D01*
X30328734Y-10886326D01*
X30424865Y-11092481D01*
X30424866Y-11092483D01*
X30475973Y-11165471D01*
X30475973Y-11165472D01*
X30946049Y-10695395D01*
X31007372Y-10661910D01*
X31077063Y-10666894D01*
X31132997Y-10708765D01*
X31138045Y-10716036D01*
X31154666Y-10741898D01*
X31173239Y-10770798D01*
X31264645Y-10850001D01*
X31288602Y-10870759D01*
X31286293Y-10873422D01*
X31321006Y-10913499D01*
X31330935Y-10982660D01*
X31301898Y-11046210D01*
X31295882Y-11052669D01*
X30829526Y-11519025D01*
X30829526Y-11519026D01*
X30902512Y-11570131D01*
X30902516Y-11570133D01*
X31108673Y-11666265D01*
X31108682Y-11666269D01*
X31328389Y-11725139D01*
X31328400Y-11725141D01*
X31554998Y-11744966D01*
X31555002Y-11744966D01*
X31781599Y-11725141D01*
X31781610Y-11725139D01*
X32001317Y-11666269D01*
X32001331Y-11666264D01*
X32207478Y-11570136D01*
X32280472Y-11519025D01*
X31814116Y-11052669D01*
X31780631Y-10991346D01*
X31785615Y-10921654D01*
X31822641Y-10872193D01*
X31821398Y-10870759D01*
X31842121Y-10852803D01*
X31936761Y-10770798D01*
X31971955Y-10716034D01*
X32024754Y-10670283D01*
X32093913Y-10660338D01*
X32157469Y-10689362D01*
X32163949Y-10695395D01*
X32634025Y-11165472D01*
X32685136Y-11092478D01*
X32781264Y-10886331D01*
X32781269Y-10886317D01*
X32819966Y-10741898D01*
X32856331Y-10682237D01*
X32919178Y-10651708D01*
X32988553Y-10660003D01*
X33042431Y-10704488D01*
X33059516Y-10741898D01*
X33098258Y-10886488D01*
X33098261Y-10886497D01*
X33194431Y-11092732D01*
X33194432Y-11092734D01*
X33324954Y-11279141D01*
X33485858Y-11440045D01*
X33485861Y-11440047D01*
X33672266Y-11570568D01*
X33878504Y-11666739D01*
X34098308Y-11725635D01*
X34260230Y-11739801D01*
X34324998Y-11745468D01*
X34325000Y-11745468D01*
X34325002Y-11745468D01*
X34381807Y-11740498D01*
X34551692Y-11725635D01*
X34771496Y-11666739D01*
X34977734Y-11570568D01*
X35164139Y-11440047D01*
X35325047Y-11279139D01*
X35455568Y-11092734D01*
X35551739Y-10886496D01*
X35551741Y-10886488D01*
X35553593Y-10881402D01*
X35555689Y-10882165D01*
X35587032Y-10830670D01*
X35649859Y-10800101D01*
X35719240Y-10808352D01*
X35773146Y-10852803D01*
X35794463Y-10919341D01*
X35794500Y-10922371D01*
X35794500Y-11287869D01*
X35794501Y-11287876D01*
X35800908Y-11347483D01*
X35851202Y-11482328D01*
X35851206Y-11482335D01*
X35937452Y-11597544D01*
X35937455Y-11597547D01*
X36052664Y-11683793D01*
X36052671Y-11683797D01*
X36187517Y-11734091D01*
X36187516Y-11734091D01*
X36194444Y-11734835D01*
X36247127Y-11740500D01*
X37942872Y-11740499D01*
X38002483Y-11734091D01*
X38137331Y-11683796D01*
X38252546Y-11597546D01*
X38338796Y-11482331D01*
X38389091Y-11347483D01*
X38395500Y-11287873D01*
X38395499Y-9592128D01*
X38389091Y-9532517D01*
X38384212Y-9519437D01*
X38338797Y-9397671D01*
X38338793Y-9397664D01*
X38252547Y-9282455D01*
X38252544Y-9282452D01*
X38137335Y-9196206D01*
X38137328Y-9196202D01*
X38002482Y-9145908D01*
X38002483Y-9145908D01*
X37942883Y-9139501D01*
X37942881Y-9139500D01*
X37942873Y-9139500D01*
X37942864Y-9139500D01*
X36247129Y-9139500D01*
X36247123Y-9139501D01*
X36187516Y-9145908D01*
X36052671Y-9196202D01*
X36052664Y-9196206D01*
X35937455Y-9282452D01*
X35937452Y-9282455D01*
X35851206Y-9397664D01*
X35851202Y-9397671D01*
X35800908Y-9532517D01*
X35794501Y-9592116D01*
X35794501Y-9592123D01*
X35794500Y-9592135D01*
X35794500Y-9957626D01*
X35774815Y-10024665D01*
X35722011Y-10070420D01*
X35652853Y-10080364D01*
X35589297Y-10051339D01*
X35555059Y-9998064D01*
X35553593Y-9998598D01*
X35551738Y-9993502D01*
X35527869Y-9942315D01*
X35455568Y-9787266D01*
X35325047Y-9600861D01*
X35325045Y-9600858D01*
X35164141Y-9439954D01*
X34977734Y-9309432D01*
X34977732Y-9309431D01*
X34771497Y-9213261D01*
X34771488Y-9213258D01*
X34551697Y-9154366D01*
X34551693Y-9154365D01*
X34551692Y-9154365D01*
X34551691Y-9154364D01*
X34551686Y-9154364D01*
X34325002Y-9134532D01*
X34324998Y-9134532D01*
X34098313Y-9154364D01*
X34098302Y-9154366D01*
X33878511Y-9213258D01*
X33878502Y-9213261D01*
X33672267Y-9309431D01*
X33672265Y-9309432D01*
X33485858Y-9439954D01*
X33324954Y-9600858D01*
X33194432Y-9787265D01*
X33194431Y-9787267D01*
X33098261Y-9993502D01*
X33098259Y-9993508D01*
X33059516Y-10138102D01*
X33023151Y-10197762D01*
X32960304Y-10228291D01*
X32890928Y-10219996D01*
X32837050Y-10175511D01*
X32819966Y-10138101D01*
X32781269Y-9993682D01*
X32781265Y-9993673D01*
X32685133Y-9787516D01*
X32685131Y-9787512D01*
X32634025Y-9714526D01*
X32163949Y-10184603D01*
X32102626Y-10218088D01*
X32032934Y-10213104D01*
X31977001Y-10171232D01*
X31971952Y-10163961D01*
X31936761Y-10109202D01*
X31828100Y-10015048D01*
X31828099Y-10015047D01*
X31821398Y-10009241D01*
X31823698Y-10006585D01*
X31788960Y-9966428D01*
X31779074Y-9897261D01*
X31808152Y-9833729D01*
X31814116Y-9827329D01*
X32280472Y-9360973D01*
X32207483Y-9309866D01*
X32207481Y-9309865D01*
X32001326Y-9213734D01*
X32001317Y-9213730D01*
X31781610Y-9154860D01*
X31781599Y-9154858D01*
X31555002Y-9135034D01*
X31554998Y-9135034D01*
X31328400Y-9154858D01*
X31328389Y-9154860D01*
X31108682Y-9213730D01*
X31108673Y-9213734D01*
X30902513Y-9309868D01*
X30829526Y-9360973D01*
X31295883Y-9827330D01*
X31329368Y-9888653D01*
X31324384Y-9958345D01*
X31287357Y-10007805D01*
X31288602Y-10009241D01*
X31173237Y-10109203D01*
X31138046Y-10163962D01*
X31085242Y-10209717D01*
X31016084Y-10219661D01*
X30952528Y-10190636D01*
X30946050Y-10184604D01*
X30475973Y-9714526D01*
X30475972Y-9714527D01*
X30424868Y-9787513D01*
X30328734Y-9993673D01*
X30328731Y-9993679D01*
X30289775Y-10139068D01*
X30253410Y-10198728D01*
X30190563Y-10229257D01*
X30121187Y-10220962D01*
X30067310Y-10176477D01*
X30050225Y-10139068D01*
X30011268Y-9993679D01*
X30011265Y-9993673D01*
X29915133Y-9787516D01*
X29915131Y-9787512D01*
X29864025Y-9714526D01*
X29393949Y-10184603D01*
X29332626Y-10218088D01*
X29262934Y-10213104D01*
X29207001Y-10171232D01*
X29201952Y-10163961D01*
X29166761Y-10109202D01*
X29058100Y-10015048D01*
X29058099Y-10015047D01*
X29051398Y-10009241D01*
X29053698Y-10006585D01*
X29018960Y-9966428D01*
X29009074Y-9897261D01*
X29038152Y-9833729D01*
X29044116Y-9827329D01*
X29510472Y-9360973D01*
X29437483Y-9309866D01*
X29437481Y-9309865D01*
X29231326Y-9213734D01*
X29231317Y-9213730D01*
X29011610Y-9154860D01*
X29011599Y-9154858D01*
X28785002Y-9135034D01*
X28784998Y-9135034D01*
X28558400Y-9154858D01*
X28558389Y-9154860D01*
X28338682Y-9213730D01*
X28338673Y-9213734D01*
X28132513Y-9309868D01*
X28059526Y-9360973D01*
X28525883Y-9827330D01*
X28559368Y-9888653D01*
X28554384Y-9958345D01*
X28517357Y-10007805D01*
X28518602Y-10009241D01*
X28403237Y-10109203D01*
X28368046Y-10163962D01*
X28315242Y-10209717D01*
X28246084Y-10219661D01*
X28182528Y-10190636D01*
X28176050Y-10184604D01*
X27705973Y-9714526D01*
X27705972Y-9714527D01*
X27654868Y-9787513D01*
X27558734Y-9993673D01*
X27558731Y-9993680D01*
X27520033Y-10138102D01*
X27483667Y-10197762D01*
X27420820Y-10228291D01*
X27351445Y-10219996D01*
X27297567Y-10175510D01*
X27280484Y-10138103D01*
X27241739Y-9993504D01*
X27145568Y-9787266D01*
X27015047Y-9600861D01*
X27015045Y-9600858D01*
X26854141Y-9439954D01*
X26667734Y-9309432D01*
X26667732Y-9309431D01*
X26461497Y-9213261D01*
X26461488Y-9213258D01*
X26241697Y-9154366D01*
X26241693Y-9154365D01*
X26241692Y-9154365D01*
X26241691Y-9154364D01*
X26241686Y-9154364D01*
X26015002Y-9134532D01*
X26014998Y-9134532D01*
X25788313Y-9154364D01*
X25788302Y-9154366D01*
X25568511Y-9213258D01*
X25568502Y-9213261D01*
X25362267Y-9309431D01*
X25362265Y-9309432D01*
X25175858Y-9439954D01*
X25014954Y-9600858D01*
X24884432Y-9787265D01*
X24884431Y-9787267D01*
X24788261Y-9993502D01*
X24788258Y-9993511D01*
X24729366Y-10213302D01*
X24729364Y-10213313D01*
X24709532Y-10439998D01*
X24709532Y-10440001D01*
X21115367Y-10440001D01*
X21250537Y-10227007D01*
X21384503Y-9942315D01*
X21481731Y-9643079D01*
X21540688Y-9334015D01*
X21540801Y-9332216D01*
X21560444Y-9020005D01*
X41549556Y-9020005D01*
X41569310Y-9334004D01*
X41569311Y-9334011D01*
X41581455Y-9397671D01*
X41619990Y-9599681D01*
X41628270Y-9643083D01*
X41725497Y-9942316D01*
X41725499Y-9942321D01*
X41859461Y-10227003D01*
X41859464Y-10227009D01*
X42028051Y-10492661D01*
X42028054Y-10492665D01*
X42228606Y-10735090D01*
X42228608Y-10735092D01*
X42228610Y-10735094D01*
X42418592Y-10913499D01*
X42457968Y-10950476D01*
X42457978Y-10950484D01*
X42712504Y-11135408D01*
X42712509Y-11135410D01*
X42712516Y-11135416D01*
X42988234Y-11286994D01*
X42988239Y-11286996D01*
X42988241Y-11286997D01*
X42988242Y-11286998D01*
X43280771Y-11402818D01*
X43280774Y-11402819D01*
X43585523Y-11481065D01*
X43585527Y-11481066D01*
X43651010Y-11489338D01*
X43897670Y-11520499D01*
X43897679Y-11520499D01*
X43897682Y-11520500D01*
X43897684Y-11520500D01*
X44212316Y-11520500D01*
X44212318Y-11520500D01*
X44212321Y-11520499D01*
X44212329Y-11520499D01*
X44398593Y-11496968D01*
X44524473Y-11481066D01*
X44829225Y-11402819D01*
X44829228Y-11402818D01*
X45121757Y-11286998D01*
X45121758Y-11286997D01*
X45121756Y-11286997D01*
X45121766Y-11286994D01*
X45397484Y-11135416D01*
X45652030Y-10950478D01*
X45881390Y-10735094D01*
X46081947Y-10492663D01*
X46250537Y-10227007D01*
X46384503Y-9942315D01*
X46481731Y-9643079D01*
X46540688Y-9334015D01*
X46540801Y-9332216D01*
X46560444Y-9020005D01*
X46560444Y-9019994D01*
X46540689Y-8705995D01*
X46540688Y-8705988D01*
X46540688Y-8705985D01*
X46481731Y-8396921D01*
X46384503Y-8097685D01*
X46378383Y-8084680D01*
X46305667Y-7930151D01*
X46250537Y-7812993D01*
X46081947Y-7547337D01*
X46066042Y-7528111D01*
X45881393Y-7304909D01*
X45881391Y-7304907D01*
X45817839Y-7245227D01*
X45652030Y-7089522D01*
X45652027Y-7089520D01*
X45652021Y-7089515D01*
X45397495Y-6904591D01*
X45397488Y-6904586D01*
X45397484Y-6904584D01*
X45121766Y-6753006D01*
X45121763Y-6753004D01*
X45121758Y-6753002D01*
X45121757Y-6753001D01*
X44829228Y-6637181D01*
X44829225Y-6637180D01*
X44524476Y-6558934D01*
X44524463Y-6558932D01*
X44212329Y-6519500D01*
X44212318Y-6519500D01*
X43897682Y-6519500D01*
X43897670Y-6519500D01*
X43585536Y-6558932D01*
X43585523Y-6558934D01*
X43280774Y-6637180D01*
X43280771Y-6637181D01*
X42988242Y-6753001D01*
X42988241Y-6753002D01*
X42712516Y-6904584D01*
X42712504Y-6904591D01*
X42457978Y-7089515D01*
X42457968Y-7089523D01*
X42228608Y-7304907D01*
X42228606Y-7304909D01*
X42028054Y-7547334D01*
X42028051Y-7547338D01*
X41859464Y-7812990D01*
X41859461Y-7812996D01*
X41725499Y-8097678D01*
X41725497Y-8097683D01*
X41628270Y-8396916D01*
X41569311Y-8705988D01*
X41569310Y-8705995D01*
X41549556Y-9019994D01*
X41549556Y-9020005D01*
X21560444Y-9020005D01*
X21560444Y-9019994D01*
X21540689Y-8705995D01*
X21540688Y-8705988D01*
X21540688Y-8705985D01*
X21481731Y-8396921D01*
X21384503Y-8097685D01*
X21378383Y-8084680D01*
X21305667Y-7930151D01*
X21250537Y-7812993D01*
X21115369Y-7600001D01*
X26094532Y-7600001D01*
X26114364Y-7826686D01*
X26114366Y-7826697D01*
X26173258Y-8046488D01*
X26173261Y-8046497D01*
X26269431Y-8252732D01*
X26269432Y-8252734D01*
X26399954Y-8439141D01*
X26560858Y-8600045D01*
X26560861Y-8600047D01*
X26747266Y-8730568D01*
X26953504Y-8826739D01*
X27173308Y-8885635D01*
X27335230Y-8899801D01*
X27399998Y-8905468D01*
X27400000Y-8905468D01*
X27400002Y-8905468D01*
X27456672Y-8900509D01*
X27626692Y-8885635D01*
X27846496Y-8826739D01*
X28052734Y-8730568D01*
X28239139Y-8600047D01*
X28400047Y-8439139D01*
X28530568Y-8252734D01*
X28626739Y-8046496D01*
X28665484Y-7901895D01*
X28701847Y-7842238D01*
X28764694Y-7811708D01*
X28834070Y-7820002D01*
X28887948Y-7864487D01*
X28905033Y-7901897D01*
X28943731Y-8046319D01*
X28943734Y-8046326D01*
X29039865Y-8252481D01*
X29039866Y-8252483D01*
X29090973Y-8325471D01*
X29090973Y-8325472D01*
X29561049Y-7855395D01*
X29622372Y-7821910D01*
X29692063Y-7826894D01*
X29747997Y-7868765D01*
X29753045Y-7876036D01*
X29769666Y-7901898D01*
X29788239Y-7930798D01*
X29886394Y-8015849D01*
X29903602Y-8030759D01*
X29901293Y-8033422D01*
X29936006Y-8073499D01*
X29945935Y-8142660D01*
X29916898Y-8206210D01*
X29910882Y-8212669D01*
X29444526Y-8679025D01*
X29444526Y-8679026D01*
X29517512Y-8730131D01*
X29517516Y-8730133D01*
X29723673Y-8826265D01*
X29723682Y-8826269D01*
X29943389Y-8885139D01*
X29943400Y-8885141D01*
X30169998Y-8904966D01*
X30170002Y-8904966D01*
X30396599Y-8885141D01*
X30396610Y-8885139D01*
X30616317Y-8826269D01*
X30616331Y-8826264D01*
X30822478Y-8730136D01*
X30895472Y-8679025D01*
X30429116Y-8212669D01*
X30395631Y-8151346D01*
X30400615Y-8081654D01*
X30437641Y-8032193D01*
X30436398Y-8030759D01*
X30453603Y-8015851D01*
X30551761Y-7930798D01*
X30586955Y-7876034D01*
X30639754Y-7830283D01*
X30708913Y-7820338D01*
X30772469Y-7849362D01*
X30778949Y-7855395D01*
X31249025Y-8325472D01*
X31300136Y-8252478D01*
X31396264Y-8046331D01*
X31396269Y-8046317D01*
X31434966Y-7901898D01*
X31471331Y-7842237D01*
X31534178Y-7811708D01*
X31603553Y-7820003D01*
X31657431Y-7864488D01*
X31674516Y-7901898D01*
X31713258Y-8046488D01*
X31713261Y-8046497D01*
X31809431Y-8252732D01*
X31809432Y-8252734D01*
X31939954Y-8439141D01*
X32100858Y-8600045D01*
X32100861Y-8600047D01*
X32287266Y-8730568D01*
X32493504Y-8826739D01*
X32713308Y-8885635D01*
X32875230Y-8899801D01*
X32939998Y-8905468D01*
X32940000Y-8905468D01*
X32940002Y-8905468D01*
X32996673Y-8900509D01*
X33166692Y-8885635D01*
X33386496Y-8826739D01*
X33592734Y-8730568D01*
X33779139Y-8600047D01*
X33940047Y-8439139D01*
X34070568Y-8252734D01*
X34166739Y-8046496D01*
X34205225Y-7902862D01*
X34241590Y-7843202D01*
X34304437Y-7812673D01*
X34373812Y-7820968D01*
X34427690Y-7865453D01*
X34444775Y-7902863D01*
X34483258Y-8046488D01*
X34483261Y-8046497D01*
X34579431Y-8252732D01*
X34579432Y-8252734D01*
X34709954Y-8439141D01*
X34870858Y-8600045D01*
X34870861Y-8600047D01*
X35057266Y-8730568D01*
X35263504Y-8826739D01*
X35483308Y-8885635D01*
X35645230Y-8899801D01*
X35709998Y-8905468D01*
X35710000Y-8905468D01*
X35710002Y-8905468D01*
X35766672Y-8900509D01*
X35936692Y-8885635D01*
X36156496Y-8826739D01*
X36362734Y-8730568D01*
X36549139Y-8600047D01*
X36710047Y-8439139D01*
X36840568Y-8252734D01*
X36936739Y-8046496D01*
X36995635Y-7826692D01*
X37015468Y-7600000D01*
X36995635Y-7373308D01*
X36936739Y-7153504D01*
X36840568Y-6947266D01*
X36710047Y-6760861D01*
X36710045Y-6760858D01*
X36549141Y-6599954D01*
X36362734Y-6469432D01*
X36362732Y-6469431D01*
X36156497Y-6373261D01*
X36156488Y-6373258D01*
X35936697Y-6314366D01*
X35936693Y-6314365D01*
X35936692Y-6314365D01*
X35936691Y-6314364D01*
X35936686Y-6314364D01*
X35710002Y-6294532D01*
X35709998Y-6294532D01*
X35483313Y-6314364D01*
X35483302Y-6314366D01*
X35263511Y-6373258D01*
X35263502Y-6373261D01*
X35057267Y-6469431D01*
X35057265Y-6469432D01*
X34870858Y-6599954D01*
X34709954Y-6760858D01*
X34579432Y-6947265D01*
X34579431Y-6947267D01*
X34483261Y-7153502D01*
X34483258Y-7153511D01*
X34444775Y-7297136D01*
X34408410Y-7356797D01*
X34345563Y-7387326D01*
X34276188Y-7379031D01*
X34222310Y-7334546D01*
X34205225Y-7297136D01*
X34166741Y-7153511D01*
X34166738Y-7153502D01*
X34150344Y-7118345D01*
X34070568Y-6947266D01*
X33940047Y-6760861D01*
X33940045Y-6760858D01*
X33779141Y-6599954D01*
X33592734Y-6469432D01*
X33592732Y-6469431D01*
X33386497Y-6373261D01*
X33386488Y-6373258D01*
X33166697Y-6314366D01*
X33166693Y-6314365D01*
X33166692Y-6314365D01*
X33166691Y-6314364D01*
X33166686Y-6314364D01*
X32940002Y-6294532D01*
X32939998Y-6294532D01*
X32713313Y-6314364D01*
X32713302Y-6314366D01*
X32493511Y-6373258D01*
X32493502Y-6373261D01*
X32287267Y-6469431D01*
X32287265Y-6469432D01*
X32100858Y-6599954D01*
X31939954Y-6760858D01*
X31809432Y-6947265D01*
X31809431Y-6947267D01*
X31713261Y-7153502D01*
X31713259Y-7153508D01*
X31674516Y-7298102D01*
X31638151Y-7357762D01*
X31575304Y-7388291D01*
X31505928Y-7379996D01*
X31452050Y-7335511D01*
X31434966Y-7298101D01*
X31396269Y-7153682D01*
X31396265Y-7153673D01*
X31300133Y-6947516D01*
X31300131Y-6947512D01*
X31249025Y-6874526D01*
X30778949Y-7344603D01*
X30717626Y-7378088D01*
X30647934Y-7373104D01*
X30592001Y-7331232D01*
X30586952Y-7323961D01*
X30574706Y-7304906D01*
X30551761Y-7269202D01*
X30443100Y-7175048D01*
X30443099Y-7175047D01*
X30436398Y-7169241D01*
X30438698Y-7166585D01*
X30403960Y-7126428D01*
X30394074Y-7057261D01*
X30423152Y-6993729D01*
X30429116Y-6987329D01*
X30895472Y-6520973D01*
X30822483Y-6469866D01*
X30822481Y-6469865D01*
X30616326Y-6373734D01*
X30616317Y-6373730D01*
X30396610Y-6314860D01*
X30396599Y-6314858D01*
X30170002Y-6295034D01*
X30169998Y-6295034D01*
X29943400Y-6314858D01*
X29943389Y-6314860D01*
X29723682Y-6373730D01*
X29723673Y-6373734D01*
X29517513Y-6469868D01*
X29444526Y-6520973D01*
X29910883Y-6987330D01*
X29944368Y-7048653D01*
X29939384Y-7118345D01*
X29902357Y-7167805D01*
X29903602Y-7169241D01*
X29788237Y-7269203D01*
X29753046Y-7323962D01*
X29700242Y-7369717D01*
X29631084Y-7379661D01*
X29567528Y-7350636D01*
X29561050Y-7344604D01*
X29090973Y-6874526D01*
X29090972Y-6874527D01*
X29039868Y-6947513D01*
X28943734Y-7153673D01*
X28943731Y-7153680D01*
X28905033Y-7298102D01*
X28868667Y-7357762D01*
X28805820Y-7388291D01*
X28736445Y-7379996D01*
X28682567Y-7335510D01*
X28665484Y-7298103D01*
X28626739Y-7153504D01*
X28530568Y-6947266D01*
X28400047Y-6760861D01*
X28400045Y-6760858D01*
X28239141Y-6599954D01*
X28052734Y-6469432D01*
X28052732Y-6469431D01*
X27846497Y-6373261D01*
X27846488Y-6373258D01*
X27626697Y-6314366D01*
X27626693Y-6314365D01*
X27626692Y-6314365D01*
X27626691Y-6314364D01*
X27626686Y-6314364D01*
X27400002Y-6294532D01*
X27399998Y-6294532D01*
X27173313Y-6314364D01*
X27173302Y-6314366D01*
X26953511Y-6373258D01*
X26953502Y-6373261D01*
X26747267Y-6469431D01*
X26747265Y-6469432D01*
X26560858Y-6599954D01*
X26399954Y-6760858D01*
X26269432Y-6947265D01*
X26269431Y-6947267D01*
X26173261Y-7153502D01*
X26173258Y-7153511D01*
X26114366Y-7373302D01*
X26114364Y-7373313D01*
X26094532Y-7599998D01*
X26094532Y-7600001D01*
X21115369Y-7600001D01*
X21081947Y-7547337D01*
X21066042Y-7528111D01*
X20881393Y-7304909D01*
X20881391Y-7304907D01*
X20817839Y-7245227D01*
X20652030Y-7089522D01*
X20652027Y-7089520D01*
X20652021Y-7089515D01*
X20397495Y-6904591D01*
X20397488Y-6904586D01*
X20397484Y-6904584D01*
X20121766Y-6753006D01*
X20121763Y-6753004D01*
X20121758Y-6753002D01*
X20121757Y-6753001D01*
X19829228Y-6637181D01*
X19829225Y-6637180D01*
X19524476Y-6558934D01*
X19524463Y-6558932D01*
X19212329Y-6519500D01*
X19212318Y-6519500D01*
X18897682Y-6519500D01*
X18897670Y-6519500D01*
X18585536Y-6558932D01*
X18585523Y-6558934D01*
X18280774Y-6637180D01*
X18280771Y-6637181D01*
X17988242Y-6753001D01*
X17988241Y-6753002D01*
X17712516Y-6904584D01*
X17712504Y-6904591D01*
X17457978Y-7089515D01*
X17457968Y-7089523D01*
X17228608Y-7304907D01*
X17228606Y-7304909D01*
X17028054Y-7547334D01*
X17028051Y-7547338D01*
X16859464Y-7812990D01*
X16859461Y-7812996D01*
X16725499Y-8097678D01*
X16725497Y-8097683D01*
X16628270Y-8396916D01*
X16569311Y-8705988D01*
X16569310Y-8705995D01*
X16549556Y-9019994D01*
X16549556Y-9020005D01*
X15175358Y-9020005D01*
X15185674Y-8988256D01*
X15205460Y-8800000D01*
X15185674Y-8611744D01*
X15127179Y-8431716D01*
X15032533Y-8267784D01*
X14905871Y-8127112D01*
X14870300Y-8101268D01*
X14752734Y-8015851D01*
X14752729Y-8015848D01*
X14579807Y-7938857D01*
X14579802Y-7938855D01*
X14434001Y-7907865D01*
X14394646Y-7899500D01*
X14205354Y-7899500D01*
X14172897Y-7906398D01*
X14020197Y-7938855D01*
X14020192Y-7938857D01*
X13847270Y-8015848D01*
X13847265Y-8015851D01*
X13694129Y-8127111D01*
X13567466Y-8267785D01*
X13472821Y-8431715D01*
X13472818Y-8431722D01*
X13416430Y-8605269D01*
X13414326Y-8611744D01*
X13394540Y-8800000D01*
X6711382Y-8800000D01*
X6755269Y-8769270D01*
X6919270Y-8605269D01*
X7052301Y-8415282D01*
X7150320Y-8205079D01*
X7210349Y-7981050D01*
X7230563Y-7750003D01*
X8690409Y-7750003D01*
X8710705Y-7930145D01*
X8770582Y-8101264D01*
X8770583Y-8101267D01*
X8796592Y-8142660D01*
X8867036Y-8254772D01*
X8995228Y-8382964D01*
X9148732Y-8479416D01*
X9319849Y-8539293D01*
X9319852Y-8539293D01*
X9319854Y-8539294D01*
X9410799Y-8549540D01*
X9454810Y-8554499D01*
X9454813Y-8554500D01*
X9454816Y-8554500D01*
X9545187Y-8554500D01*
X9545188Y-8554499D01*
X9612667Y-8546896D01*
X9680145Y-8539294D01*
X9680146Y-8539293D01*
X9680151Y-8539293D01*
X9851268Y-8479416D01*
X10004772Y-8382964D01*
X10132964Y-8254772D01*
X10229416Y-8101268D01*
X10289293Y-7930151D01*
X10292368Y-7902863D01*
X10309591Y-7750003D01*
X10309591Y-7749996D01*
X10289294Y-7569854D01*
X10289293Y-7569852D01*
X10289293Y-7569849D01*
X10229416Y-7398732D01*
X10132964Y-7245228D01*
X10004772Y-7117036D01*
X9953338Y-7084718D01*
X9851267Y-7020583D01*
X9851264Y-7020582D01*
X9680145Y-6960705D01*
X9545190Y-6945500D01*
X9545184Y-6945500D01*
X9454816Y-6945500D01*
X9454809Y-6945500D01*
X9319854Y-6960705D01*
X9148735Y-7020582D01*
X9148732Y-7020583D01*
X8995227Y-7117036D01*
X8867036Y-7245227D01*
X8770583Y-7398732D01*
X8770582Y-7398735D01*
X8710705Y-7569854D01*
X8690409Y-7749996D01*
X8690409Y-7750003D01*
X7230563Y-7750003D01*
X7230563Y-7750000D01*
X7210349Y-7518950D01*
X7150320Y-7294921D01*
X7052301Y-7084719D01*
X7052299Y-7084716D01*
X7052298Y-7084714D01*
X6919273Y-6894735D01*
X6919268Y-6894729D01*
X6755269Y-6730730D01*
X6755263Y-6730726D01*
X6565282Y-6597699D01*
X6355079Y-6499680D01*
X6355076Y-6499679D01*
X6355074Y-6499678D01*
X6131051Y-6439651D01*
X6131044Y-6439650D01*
X5900002Y-6419437D01*
X5899998Y-6419437D01*
X5668955Y-6439650D01*
X5668948Y-6439651D01*
X5444917Y-6499681D01*
X5234718Y-6597699D01*
X5234714Y-6597701D01*
X5044735Y-6730726D01*
X5044729Y-6730731D01*
X4880731Y-6894729D01*
X4880726Y-6894735D01*
X4747701Y-7084714D01*
X4747699Y-7084718D01*
X4649681Y-7294917D01*
X4589651Y-7518948D01*
X4589650Y-7518955D01*
X4569437Y-7749998D01*
X4569437Y-7750001D01*
X300500Y-7750001D01*
X300500Y-2750000D01*
X3669939Y-2750000D01*
X3690145Y-2980958D01*
X3690147Y-2980968D01*
X3750148Y-3204900D01*
X3750152Y-3204909D01*
X3848132Y-3415029D01*
X3848133Y-3415031D01*
X3903023Y-3493422D01*
X3903023Y-3493423D01*
X4351482Y-3044964D01*
X4412805Y-3011479D01*
X4482496Y-3016463D01*
X4538430Y-3058334D01*
X4541514Y-3063249D01*
X4541549Y-3063225D01*
X4546441Y-3070156D01*
X4649637Y-3180651D01*
X4649638Y-3180652D01*
X4684698Y-3201973D01*
X4731749Y-3253623D01*
X4743407Y-3322513D01*
X4715970Y-3386770D01*
X4707950Y-3395601D01*
X4256575Y-3846975D01*
X4334968Y-3901866D01*
X4334970Y-3901867D01*
X4545090Y-3999847D01*
X4545099Y-3999851D01*
X4769031Y-4059852D01*
X4769041Y-4059854D01*
X4999999Y-4080061D01*
X5000001Y-4080061D01*
X5230958Y-4059854D01*
X5230968Y-4059852D01*
X5454900Y-3999851D01*
X5454909Y-3999847D01*
X5665030Y-3901867D01*
X5743423Y-3846975D01*
X5519318Y-3622870D01*
X12974500Y-3622870D01*
X12974501Y-3622876D01*
X12980908Y-3682483D01*
X13031202Y-3817328D01*
X13031206Y-3817335D01*
X13117452Y-3932544D01*
X13117455Y-3932547D01*
X13232664Y-4018793D01*
X13232671Y-4018797D01*
X13367517Y-4069091D01*
X13367516Y-4069091D01*
X13374444Y-4069835D01*
X13427127Y-4075500D01*
X15172872Y-4075499D01*
X15232483Y-4069091D01*
X15367331Y-4018796D01*
X15482546Y-3932546D01*
X15568796Y-3817331D01*
X15619091Y-3682483D01*
X15625500Y-3622873D01*
X15625499Y-1877128D01*
X15619091Y-1817517D01*
X15611984Y-1798463D01*
X15568797Y-1682671D01*
X15568793Y-1682664D01*
X15482547Y-1567455D01*
X15482544Y-1567452D01*
X15367335Y-1481206D01*
X15367328Y-1481202D01*
X15232482Y-1430908D01*
X15232483Y-1430908D01*
X15172883Y-1424501D01*
X15172881Y-1424500D01*
X15172873Y-1424500D01*
X15172864Y-1424500D01*
X13427129Y-1424500D01*
X13427123Y-1424501D01*
X13367516Y-1430908D01*
X13232671Y-1481202D01*
X13232664Y-1481206D01*
X13117455Y-1567452D01*
X13117452Y-1567455D01*
X13031206Y-1682664D01*
X13031202Y-1682671D01*
X12980908Y-1817517D01*
X12974945Y-1872989D01*
X12974501Y-1877123D01*
X12974500Y-1877135D01*
X12974500Y-3622870D01*
X5519318Y-3622870D01*
X5293166Y-3396718D01*
X5259681Y-3335395D01*
X5264665Y-3265703D01*
X5302588Y-3212853D01*
X5405739Y-3128934D01*
X5456052Y-3057655D01*
X5510793Y-3014239D01*
X5580318Y-3007310D01*
X5642553Y-3039068D01*
X5645037Y-3041484D01*
X6096975Y-3493423D01*
X6151867Y-3415030D01*
X6249847Y-3204909D01*
X6249851Y-3204900D01*
X6309852Y-2980968D01*
X6309854Y-2980958D01*
X6330061Y-2750000D01*
X6330061Y-2749999D01*
X6309854Y-2519041D01*
X6309852Y-2519031D01*
X6249851Y-2295099D01*
X6249847Y-2295090D01*
X6151868Y-2084972D01*
X6096974Y-2006576D01*
X5648517Y-2455034D01*
X5587194Y-2488519D01*
X5517502Y-2483535D01*
X5461569Y-2441663D01*
X5458486Y-2436750D01*
X5458451Y-2436775D01*
X5453558Y-2429843D01*
X5398661Y-2371064D01*
X5350362Y-2319348D01*
X5315300Y-2298026D01*
X5268248Y-2246374D01*
X5256591Y-2177484D01*
X5284029Y-2113227D01*
X5292048Y-2104397D01*
X5743423Y-1653023D01*
X5665031Y-1598133D01*
X5665029Y-1598132D01*
X5454909Y-1500152D01*
X5454900Y-1500148D01*
X5230968Y-1440147D01*
X5230958Y-1440145D01*
X5000001Y-1419939D01*
X4999999Y-1419939D01*
X4769041Y-1440145D01*
X4769031Y-1440147D01*
X4545099Y-1500148D01*
X4545090Y-1500152D01*
X4334971Y-1598132D01*
X4334969Y-1598133D01*
X4256577Y-1653024D01*
X4256576Y-1653024D01*
X4706833Y-2103280D01*
X4740318Y-2164603D01*
X4735334Y-2234294D01*
X4697408Y-2287148D01*
X4594262Y-2371064D01*
X4594258Y-2371069D01*
X4543947Y-2442343D01*
X4489204Y-2485760D01*
X4419679Y-2492689D01*
X4357444Y-2460930D01*
X4354962Y-2458515D01*
X3903024Y-2006576D01*
X3903024Y-2006577D01*
X3848133Y-2084969D01*
X3848132Y-2084971D01*
X3750152Y-2295090D01*
X3750148Y-2295099D01*
X3690147Y-2519031D01*
X3690145Y-2519041D01*
X3669939Y-2749999D01*
X3669939Y-2750000D01*
X300500Y-2750000D01*
X300500Y-2002213D01*
X300658Y-1997789D01*
X300658Y-1997788D01*
X317165Y-1766977D01*
X319683Y-1749470D01*
X320882Y-1743958D01*
X367459Y-1529851D01*
X372436Y-1512900D01*
X450985Y-1302299D01*
X458325Y-1286227D01*
X566044Y-1088956D01*
X575600Y-1074086D01*
X710294Y-894156D01*
X721868Y-880799D01*
X880799Y-721868D01*
X894156Y-710294D01*
X1074086Y-575600D01*
X1088956Y-566044D01*
X1286227Y-458325D01*
X1302299Y-450985D01*
X1512900Y-372436D01*
X1529851Y-367459D01*
X1749472Y-319682D01*
X1766977Y-317165D01*
X1997791Y-300657D01*
X2002214Y-300500D01*
X2047595Y-300500D01*
X6575500Y-300500D01*
X6642539Y-320185D01*
G37*
%TD.AperFunction*%
%TD*%
M02*
