%TF.GenerationSoftware,KiCad,Pcbnew,7.0.7-7.0.7~ubuntu22.04.1*%
%TF.CreationDate,2023-09-02T15:09:26-04:00*%
%TF.ProjectId,avclan-mockingboard-rounded,6176636c-616e-42d6-9d6f-636b696e6762,rev?*%
%TF.SameCoordinates,Original*%
%TF.FileFunction,Legend,Top*%
%TF.FilePolarity,Positive*%
%FSLAX46Y46*%
G04 Gerber Fmt 4.6, Leading zero omitted, Abs format (unit mm)*
G04 Created by KiCad (PCBNEW 7.0.7-7.0.7~ubuntu22.04.1) date 2023-09-02 15:09:26*
%MOMM*%
%LPD*%
G01*
G04 APERTURE LIST*
G04 Aperture macros list*
%AMRoundRect*
0 Rectangle with rounded corners*
0 $1 Rounding radius*
0 $2 $3 $4 $5 $6 $7 $8 $9 X,Y pos of 4 corners*
0 Add a 4 corners polygon primitive as box body*
4,1,4,$2,$3,$4,$5,$6,$7,$8,$9,$2,$3,0*
0 Add four circle primitives for the rounded corners*
1,1,$1+$1,$2,$3*
1,1,$1+$1,$4,$5*
1,1,$1+$1,$6,$7*
1,1,$1+$1,$8,$9*
0 Add four rect primitives between the rounded corners*
20,1,$1+$1,$2,$3,$4,$5,0*
20,1,$1+$1,$4,$5,$6,$7,0*
20,1,$1+$1,$6,$7,$8,$9,0*
20,1,$1+$1,$8,$9,$2,$3,0*%
G04 Aperture macros list end*
%ADD10C,0.155000*%
%ADD11C,0.300000*%
%ADD12C,0.153000*%
%ADD13C,0.120000*%
%ADD14C,0.150000*%
%ADD15C,0.127000*%
%ADD16C,0.400000*%
%ADD17C,0.002540*%
%ADD18RoundRect,0.200000X0.275000X-0.200000X0.275000X0.200000X-0.275000X0.200000X-0.275000X-0.200000X0*%
%ADD19RoundRect,0.200000X0.200000X0.275000X-0.200000X0.275000X-0.200000X-0.275000X0.200000X-0.275000X0*%
%ADD20RoundRect,0.250000X-0.325000X-0.650000X0.325000X-0.650000X0.325000X0.650000X-0.325000X0.650000X0*%
%ADD21RoundRect,0.218750X-0.218750X-0.256250X0.218750X-0.256250X0.218750X0.256250X-0.218750X0.256250X0*%
%ADD22RoundRect,0.225000X-0.225000X-0.250000X0.225000X-0.250000X0.225000X0.250000X-0.225000X0.250000X0*%
%ADD23RoundRect,0.250000X0.450000X-0.262500X0.450000X0.262500X-0.450000X0.262500X-0.450000X-0.262500X0*%
%ADD24RoundRect,0.250000X-1.000000X-0.900000X1.000000X-0.900000X1.000000X0.900000X-1.000000X0.900000X0*%
%ADD25RoundRect,0.250000X-1.000000X-0.650000X1.000000X-0.650000X1.000000X0.650000X-1.000000X0.650000X0*%
%ADD26C,2.000000*%
%ADD27RoundRect,0.150000X-0.512500X-0.150000X0.512500X-0.150000X0.512500X0.150000X-0.512500X0.150000X0*%
%ADD28RoundRect,0.140000X-0.170000X0.140000X-0.170000X-0.140000X0.170000X-0.140000X0.170000X0.140000X0*%
%ADD29RoundRect,0.200000X-0.200000X-0.275000X0.200000X-0.275000X0.200000X0.275000X-0.200000X0.275000X0*%
%ADD30RoundRect,0.250000X-0.850000X-0.350000X0.850000X-0.350000X0.850000X0.350000X-0.850000X0.350000X0*%
%ADD31RoundRect,0.249997X-2.950003X-2.650003X2.950003X-2.650003X2.950003X2.650003X-2.950003X2.650003X0*%
%ADD32RoundRect,0.250000X0.325000X0.650000X-0.325000X0.650000X-0.325000X-0.650000X0.325000X-0.650000X0*%
%ADD33RoundRect,0.250000X0.400000X0.600000X-0.400000X0.600000X-0.400000X-0.600000X0.400000X-0.600000X0*%
%ADD34RoundRect,0.250000X-0.262500X-0.450000X0.262500X-0.450000X0.262500X0.450000X-0.262500X0.450000X0*%
%ADD35RoundRect,0.140000X-0.140000X-0.170000X0.140000X-0.170000X0.140000X0.170000X-0.140000X0.170000X0*%
%ADD36R,1.700000X1.700000*%
%ADD37O,1.700000X1.700000*%
%ADD38RoundRect,0.150000X0.875000X0.150000X-0.875000X0.150000X-0.875000X-0.150000X0.875000X-0.150000X0*%
%ADD39C,1.100000*%
%ADD40RoundRect,0.102000X-0.825000X0.825000X-0.825000X-0.825000X0.825000X-0.825000X0.825000X0.825000X0*%
%ADD41C,1.854000*%
%ADD42C,4.000000*%
%ADD43R,1.600000X1.600000*%
%ADD44C,1.600000*%
%ADD45RoundRect,0.250000X0.650000X-0.325000X0.650000X0.325000X-0.650000X0.325000X-0.650000X-0.325000X0*%
%ADD46RoundRect,0.250000X-0.650000X0.325000X-0.650000X-0.325000X0.650000X-0.325000X0.650000X0.325000X0*%
%ADD47RoundRect,0.250000X-0.650000X1.000000X-0.650000X-1.000000X0.650000X-1.000000X0.650000X1.000000X0*%
G04 APERTURE END LIST*
D10*
X4144830Y-25202892D02*
X4382925Y-25869559D01*
X4382925Y-25869559D02*
X4621020Y-25202892D01*
X5525782Y-25869559D02*
X4954354Y-25869559D01*
X5240068Y-25869559D02*
X5240068Y-24869559D01*
X5240068Y-24869559D02*
X5144830Y-25012416D01*
X5144830Y-25012416D02*
X5049592Y-25107654D01*
X5049592Y-25107654D02*
X4954354Y-25155273D01*
X5954354Y-25774320D02*
X6001973Y-25821940D01*
X6001973Y-25821940D02*
X5954354Y-25869559D01*
X5954354Y-25869559D02*
X5906735Y-25821940D01*
X5906735Y-25821940D02*
X5954354Y-25774320D01*
X5954354Y-25774320D02*
X5954354Y-25869559D01*
X6621020Y-24869559D02*
X6716258Y-24869559D01*
X6716258Y-24869559D02*
X6811496Y-24917178D01*
X6811496Y-24917178D02*
X6859115Y-24964797D01*
X6859115Y-24964797D02*
X6906734Y-25060035D01*
X6906734Y-25060035D02*
X6954353Y-25250511D01*
X6954353Y-25250511D02*
X6954353Y-25488606D01*
X6954353Y-25488606D02*
X6906734Y-25679082D01*
X6906734Y-25679082D02*
X6859115Y-25774320D01*
X6859115Y-25774320D02*
X6811496Y-25821940D01*
X6811496Y-25821940D02*
X6716258Y-25869559D01*
X6716258Y-25869559D02*
X6621020Y-25869559D01*
X6621020Y-25869559D02*
X6525782Y-25821940D01*
X6525782Y-25821940D02*
X6478163Y-25774320D01*
X6478163Y-25774320D02*
X6430544Y-25679082D01*
X6430544Y-25679082D02*
X6382925Y-25488606D01*
X6382925Y-25488606D02*
X6382925Y-25250511D01*
X6382925Y-25250511D02*
X6430544Y-25060035D01*
X6430544Y-25060035D02*
X6478163Y-24964797D01*
X6478163Y-24964797D02*
X6525782Y-24917178D01*
X6525782Y-24917178D02*
X6621020Y-24869559D01*
D11*
X24900000Y-32100000D02*
G75*
G03*
X24900000Y-32100000I-100000J0D01*
G01*
X13900000Y-14800000D02*
G75*
G03*
X13900000Y-14800000I-100000J0D01*
G01*
D10*
X17869559Y-30374217D02*
X18583844Y-30374217D01*
X18583844Y-30374217D02*
X18726701Y-30421836D01*
X18726701Y-30421836D02*
X18821940Y-30517074D01*
X18821940Y-30517074D02*
X18869559Y-30659931D01*
X18869559Y-30659931D02*
X18869559Y-30755169D01*
X18869559Y-29421836D02*
X18869559Y-29898026D01*
X18869559Y-29898026D02*
X17869559Y-29898026D01*
X18774320Y-28517074D02*
X18821940Y-28564693D01*
X18821940Y-28564693D02*
X18869559Y-28707550D01*
X18869559Y-28707550D02*
X18869559Y-28802788D01*
X18869559Y-28802788D02*
X18821940Y-28945645D01*
X18821940Y-28945645D02*
X18726701Y-29040883D01*
X18726701Y-29040883D02*
X18631463Y-29088502D01*
X18631463Y-29088502D02*
X18440987Y-29136121D01*
X18440987Y-29136121D02*
X18298130Y-29136121D01*
X18298130Y-29136121D02*
X18107654Y-29088502D01*
X18107654Y-29088502D02*
X18012416Y-29040883D01*
X18012416Y-29040883D02*
X17917178Y-28945645D01*
X17917178Y-28945645D02*
X17869559Y-28802788D01*
X17869559Y-28802788D02*
X17869559Y-28707550D01*
X17869559Y-28707550D02*
X17917178Y-28564693D01*
X17917178Y-28564693D02*
X17964797Y-28517074D01*
X17869559Y-27802788D02*
X18583844Y-27802788D01*
X18583844Y-27802788D02*
X18726701Y-27850407D01*
X18726701Y-27850407D02*
X18821940Y-27945645D01*
X18821940Y-27945645D02*
X18869559Y-28088502D01*
X18869559Y-28088502D02*
X18869559Y-28183740D01*
X18869559Y-26850407D02*
X18869559Y-27326597D01*
X18869559Y-27326597D02*
X17869559Y-27326597D01*
X18774320Y-25945645D02*
X18821940Y-25993264D01*
X18821940Y-25993264D02*
X18869559Y-26136121D01*
X18869559Y-26136121D02*
X18869559Y-26231359D01*
X18869559Y-26231359D02*
X18821940Y-26374216D01*
X18821940Y-26374216D02*
X18726701Y-26469454D01*
X18726701Y-26469454D02*
X18631463Y-26517073D01*
X18631463Y-26517073D02*
X18440987Y-26564692D01*
X18440987Y-26564692D02*
X18298130Y-26564692D01*
X18298130Y-26564692D02*
X18107654Y-26517073D01*
X18107654Y-26517073D02*
X18012416Y-26469454D01*
X18012416Y-26469454D02*
X17917178Y-26374216D01*
X17917178Y-26374216D02*
X17869559Y-26231359D01*
X17869559Y-26231359D02*
X17869559Y-26136121D01*
X17869559Y-26136121D02*
X17917178Y-25993264D01*
X17917178Y-25993264D02*
X17964797Y-25945645D01*
X17869559Y-25231359D02*
X18583844Y-25231359D01*
X18583844Y-25231359D02*
X18726701Y-25278978D01*
X18726701Y-25278978D02*
X18821940Y-25374216D01*
X18821940Y-25374216D02*
X18869559Y-25517073D01*
X18869559Y-25517073D02*
X18869559Y-25612311D01*
X18869559Y-24278978D02*
X18869559Y-24755168D01*
X18869559Y-24755168D02*
X17869559Y-24755168D01*
X18774320Y-23374216D02*
X18821940Y-23421835D01*
X18821940Y-23421835D02*
X18869559Y-23564692D01*
X18869559Y-23564692D02*
X18869559Y-23659930D01*
X18869559Y-23659930D02*
X18821940Y-23802787D01*
X18821940Y-23802787D02*
X18726701Y-23898025D01*
X18726701Y-23898025D02*
X18631463Y-23945644D01*
X18631463Y-23945644D02*
X18440987Y-23993263D01*
X18440987Y-23993263D02*
X18298130Y-23993263D01*
X18298130Y-23993263D02*
X18107654Y-23945644D01*
X18107654Y-23945644D02*
X18012416Y-23898025D01*
X18012416Y-23898025D02*
X17917178Y-23802787D01*
X17917178Y-23802787D02*
X17869559Y-23659930D01*
X17869559Y-23659930D02*
X17869559Y-23564692D01*
X17869559Y-23564692D02*
X17917178Y-23421835D01*
X17917178Y-23421835D02*
X17964797Y-23374216D01*
X17869559Y-22659930D02*
X18583844Y-22659930D01*
X18583844Y-22659930D02*
X18726701Y-22707549D01*
X18726701Y-22707549D02*
X18821940Y-22802787D01*
X18821940Y-22802787D02*
X18869559Y-22945644D01*
X18869559Y-22945644D02*
X18869559Y-23040882D01*
X18869559Y-21707549D02*
X18869559Y-22183739D01*
X18869559Y-22183739D02*
X17869559Y-22183739D01*
X18774320Y-20802787D02*
X18821940Y-20850406D01*
X18821940Y-20850406D02*
X18869559Y-20993263D01*
X18869559Y-20993263D02*
X18869559Y-21088501D01*
X18869559Y-21088501D02*
X18821940Y-21231358D01*
X18821940Y-21231358D02*
X18726701Y-21326596D01*
X18726701Y-21326596D02*
X18631463Y-21374215D01*
X18631463Y-21374215D02*
X18440987Y-21421834D01*
X18440987Y-21421834D02*
X18298130Y-21421834D01*
X18298130Y-21421834D02*
X18107654Y-21374215D01*
X18107654Y-21374215D02*
X18012416Y-21326596D01*
X18012416Y-21326596D02*
X17917178Y-21231358D01*
X17917178Y-21231358D02*
X17869559Y-21088501D01*
X17869559Y-21088501D02*
X17869559Y-20993263D01*
X17869559Y-20993263D02*
X17917178Y-20850406D01*
X17917178Y-20850406D02*
X17964797Y-20802787D01*
X31530544Y-25069559D02*
X31721020Y-25069559D01*
X31721020Y-25069559D02*
X31816258Y-25117178D01*
X31816258Y-25117178D02*
X31911496Y-25212416D01*
X31911496Y-25212416D02*
X31959115Y-25402892D01*
X31959115Y-25402892D02*
X31959115Y-25736225D01*
X31959115Y-25736225D02*
X31911496Y-25926701D01*
X31911496Y-25926701D02*
X31816258Y-26021940D01*
X31816258Y-26021940D02*
X31721020Y-26069559D01*
X31721020Y-26069559D02*
X31530544Y-26069559D01*
X31530544Y-26069559D02*
X31435306Y-26021940D01*
X31435306Y-26021940D02*
X31340068Y-25926701D01*
X31340068Y-25926701D02*
X31292449Y-25736225D01*
X31292449Y-25736225D02*
X31292449Y-25402892D01*
X31292449Y-25402892D02*
X31340068Y-25212416D01*
X31340068Y-25212416D02*
X31435306Y-25117178D01*
X31435306Y-25117178D02*
X31530544Y-25069559D01*
X32340068Y-26021940D02*
X32482925Y-26069559D01*
X32482925Y-26069559D02*
X32721020Y-26069559D01*
X32721020Y-26069559D02*
X32816258Y-26021940D01*
X32816258Y-26021940D02*
X32863877Y-25974320D01*
X32863877Y-25974320D02*
X32911496Y-25879082D01*
X32911496Y-25879082D02*
X32911496Y-25783844D01*
X32911496Y-25783844D02*
X32863877Y-25688606D01*
X32863877Y-25688606D02*
X32816258Y-25640987D01*
X32816258Y-25640987D02*
X32721020Y-25593368D01*
X32721020Y-25593368D02*
X32530544Y-25545749D01*
X32530544Y-25545749D02*
X32435306Y-25498130D01*
X32435306Y-25498130D02*
X32387687Y-25450511D01*
X32387687Y-25450511D02*
X32340068Y-25355273D01*
X32340068Y-25355273D02*
X32340068Y-25260035D01*
X32340068Y-25260035D02*
X32387687Y-25164797D01*
X32387687Y-25164797D02*
X32435306Y-25117178D01*
X32435306Y-25117178D02*
X32530544Y-25069559D01*
X32530544Y-25069559D02*
X32768639Y-25069559D01*
X32768639Y-25069559D02*
X32911496Y-25117178D01*
X33340068Y-26069559D02*
X33340068Y-25069559D01*
X33340068Y-25545749D02*
X33911496Y-25545749D01*
X33911496Y-26069559D02*
X33911496Y-25069559D01*
D12*
X28404663Y-14691666D02*
X27928472Y-15024999D01*
X28404663Y-15263094D02*
X27404663Y-15263094D01*
X27404663Y-15263094D02*
X27404663Y-14882142D01*
X27404663Y-14882142D02*
X27452282Y-14786904D01*
X27452282Y-14786904D02*
X27499901Y-14739285D01*
X27499901Y-14739285D02*
X27595139Y-14691666D01*
X27595139Y-14691666D02*
X27737996Y-14691666D01*
X27737996Y-14691666D02*
X27833234Y-14739285D01*
X27833234Y-14739285D02*
X27880853Y-14786904D01*
X27880853Y-14786904D02*
X27928472Y-14882142D01*
X27928472Y-14882142D02*
X27928472Y-15263094D01*
X28404663Y-14215475D02*
X28404663Y-14024999D01*
X28404663Y-14024999D02*
X28357044Y-13929761D01*
X28357044Y-13929761D02*
X28309424Y-13882142D01*
X28309424Y-13882142D02*
X28166567Y-13786904D01*
X28166567Y-13786904D02*
X27976091Y-13739285D01*
X27976091Y-13739285D02*
X27595139Y-13739285D01*
X27595139Y-13739285D02*
X27499901Y-13786904D01*
X27499901Y-13786904D02*
X27452282Y-13834523D01*
X27452282Y-13834523D02*
X27404663Y-13929761D01*
X27404663Y-13929761D02*
X27404663Y-14120237D01*
X27404663Y-14120237D02*
X27452282Y-14215475D01*
X27452282Y-14215475D02*
X27499901Y-14263094D01*
X27499901Y-14263094D02*
X27595139Y-14310713D01*
X27595139Y-14310713D02*
X27833234Y-14310713D01*
X27833234Y-14310713D02*
X27928472Y-14263094D01*
X27928472Y-14263094D02*
X27976091Y-14215475D01*
X27976091Y-14215475D02*
X28023710Y-14120237D01*
X28023710Y-14120237D02*
X28023710Y-13929761D01*
X28023710Y-13929761D02*
X27976091Y-13834523D01*
X27976091Y-13834523D02*
X27928472Y-13786904D01*
X27928472Y-13786904D02*
X27833234Y-13739285D01*
D10*
X11533333Y-12962390D02*
X11200000Y-12486199D01*
X10961905Y-12962390D02*
X10961905Y-11962390D01*
X10961905Y-11962390D02*
X11342857Y-11962390D01*
X11342857Y-11962390D02*
X11438095Y-12010009D01*
X11438095Y-12010009D02*
X11485714Y-12057628D01*
X11485714Y-12057628D02*
X11533333Y-12152866D01*
X11533333Y-12152866D02*
X11533333Y-12295723D01*
X11533333Y-12295723D02*
X11485714Y-12390961D01*
X11485714Y-12390961D02*
X11438095Y-12438580D01*
X11438095Y-12438580D02*
X11342857Y-12486199D01*
X11342857Y-12486199D02*
X10961905Y-12486199D01*
X12390476Y-11962390D02*
X12200000Y-11962390D01*
X12200000Y-11962390D02*
X12104762Y-12010009D01*
X12104762Y-12010009D02*
X12057143Y-12057628D01*
X12057143Y-12057628D02*
X11961905Y-12200485D01*
X11961905Y-12200485D02*
X11914286Y-12390961D01*
X11914286Y-12390961D02*
X11914286Y-12771913D01*
X11914286Y-12771913D02*
X11961905Y-12867151D01*
X11961905Y-12867151D02*
X12009524Y-12914771D01*
X12009524Y-12914771D02*
X12104762Y-12962390D01*
X12104762Y-12962390D02*
X12295238Y-12962390D01*
X12295238Y-12962390D02*
X12390476Y-12914771D01*
X12390476Y-12914771D02*
X12438095Y-12867151D01*
X12438095Y-12867151D02*
X12485714Y-12771913D01*
X12485714Y-12771913D02*
X12485714Y-12533818D01*
X12485714Y-12533818D02*
X12438095Y-12438580D01*
X12438095Y-12438580D02*
X12390476Y-12390961D01*
X12390476Y-12390961D02*
X12295238Y-12343342D01*
X12295238Y-12343342D02*
X12104762Y-12343342D01*
X12104762Y-12343342D02*
X12009524Y-12390961D01*
X12009524Y-12390961D02*
X11961905Y-12438580D01*
X11961905Y-12438580D02*
X11914286Y-12533818D01*
X46433333Y-28459320D02*
X46385714Y-28506940D01*
X46385714Y-28506940D02*
X46242857Y-28554559D01*
X46242857Y-28554559D02*
X46147619Y-28554559D01*
X46147619Y-28554559D02*
X46004762Y-28506940D01*
X46004762Y-28506940D02*
X45909524Y-28411701D01*
X45909524Y-28411701D02*
X45861905Y-28316463D01*
X45861905Y-28316463D02*
X45814286Y-28125987D01*
X45814286Y-28125987D02*
X45814286Y-27983130D01*
X45814286Y-27983130D02*
X45861905Y-27792654D01*
X45861905Y-27792654D02*
X45909524Y-27697416D01*
X45909524Y-27697416D02*
X46004762Y-27602178D01*
X46004762Y-27602178D02*
X46147619Y-27554559D01*
X46147619Y-27554559D02*
X46242857Y-27554559D01*
X46242857Y-27554559D02*
X46385714Y-27602178D01*
X46385714Y-27602178D02*
X46433333Y-27649797D01*
X46766667Y-27554559D02*
X47385714Y-27554559D01*
X47385714Y-27554559D02*
X47052381Y-27935511D01*
X47052381Y-27935511D02*
X47195238Y-27935511D01*
X47195238Y-27935511D02*
X47290476Y-27983130D01*
X47290476Y-27983130D02*
X47338095Y-28030749D01*
X47338095Y-28030749D02*
X47385714Y-28125987D01*
X47385714Y-28125987D02*
X47385714Y-28364082D01*
X47385714Y-28364082D02*
X47338095Y-28459320D01*
X47338095Y-28459320D02*
X47290476Y-28506940D01*
X47290476Y-28506940D02*
X47195238Y-28554559D01*
X47195238Y-28554559D02*
X46909524Y-28554559D01*
X46909524Y-28554559D02*
X46814286Y-28506940D01*
X46814286Y-28506940D02*
X46766667Y-28459320D01*
X18846023Y-19154559D02*
X18846023Y-18154559D01*
X18846023Y-18154559D02*
X19084118Y-18154559D01*
X19084118Y-18154559D02*
X19226975Y-18202178D01*
X19226975Y-18202178D02*
X19322213Y-18297416D01*
X19322213Y-18297416D02*
X19369832Y-18392654D01*
X19369832Y-18392654D02*
X19417451Y-18583130D01*
X19417451Y-18583130D02*
X19417451Y-18725987D01*
X19417451Y-18725987D02*
X19369832Y-18916463D01*
X19369832Y-18916463D02*
X19322213Y-19011701D01*
X19322213Y-19011701D02*
X19226975Y-19106940D01*
X19226975Y-19106940D02*
X19084118Y-19154559D01*
X19084118Y-19154559D02*
X18846023Y-19154559D01*
X19893642Y-19154559D02*
X20084118Y-19154559D01*
X20084118Y-19154559D02*
X20179356Y-19106940D01*
X20179356Y-19106940D02*
X20226975Y-19059320D01*
X20226975Y-19059320D02*
X20322213Y-18916463D01*
X20322213Y-18916463D02*
X20369832Y-18725987D01*
X20369832Y-18725987D02*
X20369832Y-18345035D01*
X20369832Y-18345035D02*
X20322213Y-18249797D01*
X20322213Y-18249797D02*
X20274594Y-18202178D01*
X20274594Y-18202178D02*
X20179356Y-18154559D01*
X20179356Y-18154559D02*
X19988880Y-18154559D01*
X19988880Y-18154559D02*
X19893642Y-18202178D01*
X19893642Y-18202178D02*
X19846023Y-18249797D01*
X19846023Y-18249797D02*
X19798404Y-18345035D01*
X19798404Y-18345035D02*
X19798404Y-18583130D01*
X19798404Y-18583130D02*
X19846023Y-18678368D01*
X19846023Y-18678368D02*
X19893642Y-18725987D01*
X19893642Y-18725987D02*
X19988880Y-18773606D01*
X19988880Y-18773606D02*
X20179356Y-18773606D01*
X20179356Y-18773606D02*
X20274594Y-18725987D01*
X20274594Y-18725987D02*
X20322213Y-18678368D01*
X20322213Y-18678368D02*
X20369832Y-18583130D01*
X36433333Y-27759320D02*
X36385714Y-27806940D01*
X36385714Y-27806940D02*
X36242857Y-27854559D01*
X36242857Y-27854559D02*
X36147619Y-27854559D01*
X36147619Y-27854559D02*
X36004762Y-27806940D01*
X36004762Y-27806940D02*
X35909524Y-27711701D01*
X35909524Y-27711701D02*
X35861905Y-27616463D01*
X35861905Y-27616463D02*
X35814286Y-27425987D01*
X35814286Y-27425987D02*
X35814286Y-27283130D01*
X35814286Y-27283130D02*
X35861905Y-27092654D01*
X35861905Y-27092654D02*
X35909524Y-26997416D01*
X35909524Y-26997416D02*
X36004762Y-26902178D01*
X36004762Y-26902178D02*
X36147619Y-26854559D01*
X36147619Y-26854559D02*
X36242857Y-26854559D01*
X36242857Y-26854559D02*
X36385714Y-26902178D01*
X36385714Y-26902178D02*
X36433333Y-26949797D01*
X37338095Y-26854559D02*
X36861905Y-26854559D01*
X36861905Y-26854559D02*
X36814286Y-27330749D01*
X36814286Y-27330749D02*
X36861905Y-27283130D01*
X36861905Y-27283130D02*
X36957143Y-27235511D01*
X36957143Y-27235511D02*
X37195238Y-27235511D01*
X37195238Y-27235511D02*
X37290476Y-27283130D01*
X37290476Y-27283130D02*
X37338095Y-27330749D01*
X37338095Y-27330749D02*
X37385714Y-27425987D01*
X37385714Y-27425987D02*
X37385714Y-27664082D01*
X37385714Y-27664082D02*
X37338095Y-27759320D01*
X37338095Y-27759320D02*
X37290476Y-27806940D01*
X37290476Y-27806940D02*
X37195238Y-27854559D01*
X37195238Y-27854559D02*
X36957143Y-27854559D01*
X36957143Y-27854559D02*
X36861905Y-27806940D01*
X36861905Y-27806940D02*
X36814286Y-27759320D01*
X33067059Y-19166666D02*
X32590868Y-19499999D01*
X33067059Y-19738094D02*
X32067059Y-19738094D01*
X32067059Y-19738094D02*
X32067059Y-19357142D01*
X32067059Y-19357142D02*
X32114678Y-19261904D01*
X32114678Y-19261904D02*
X32162297Y-19214285D01*
X32162297Y-19214285D02*
X32257535Y-19166666D01*
X32257535Y-19166666D02*
X32400392Y-19166666D01*
X32400392Y-19166666D02*
X32495630Y-19214285D01*
X32495630Y-19214285D02*
X32543249Y-19261904D01*
X32543249Y-19261904D02*
X32590868Y-19357142D01*
X32590868Y-19357142D02*
X32590868Y-19738094D01*
X32162297Y-18785713D02*
X32114678Y-18738094D01*
X32114678Y-18738094D02*
X32067059Y-18642856D01*
X32067059Y-18642856D02*
X32067059Y-18404761D01*
X32067059Y-18404761D02*
X32114678Y-18309523D01*
X32114678Y-18309523D02*
X32162297Y-18261904D01*
X32162297Y-18261904D02*
X32257535Y-18214285D01*
X32257535Y-18214285D02*
X32352773Y-18214285D01*
X32352773Y-18214285D02*
X32495630Y-18261904D01*
X32495630Y-18261904D02*
X33067059Y-18833332D01*
X33067059Y-18833332D02*
X33067059Y-18214285D01*
D12*
X36061905Y-22754663D02*
X36061905Y-21754663D01*
X36061905Y-21754663D02*
X36300000Y-21754663D01*
X36300000Y-21754663D02*
X36442857Y-21802282D01*
X36442857Y-21802282D02*
X36538095Y-21897520D01*
X36538095Y-21897520D02*
X36585714Y-21992758D01*
X36585714Y-21992758D02*
X36633333Y-22183234D01*
X36633333Y-22183234D02*
X36633333Y-22326091D01*
X36633333Y-22326091D02*
X36585714Y-22516567D01*
X36585714Y-22516567D02*
X36538095Y-22611805D01*
X36538095Y-22611805D02*
X36442857Y-22707044D01*
X36442857Y-22707044D02*
X36300000Y-22754663D01*
X36300000Y-22754663D02*
X36061905Y-22754663D01*
X37490476Y-22087996D02*
X37490476Y-22754663D01*
X37252381Y-21707044D02*
X37014286Y-22421329D01*
X37014286Y-22421329D02*
X37633333Y-22421329D01*
X37954663Y-18838094D02*
X36954663Y-18838094D01*
X36954663Y-18838094D02*
X36954663Y-18599999D01*
X36954663Y-18599999D02*
X37002282Y-18457142D01*
X37002282Y-18457142D02*
X37097520Y-18361904D01*
X37097520Y-18361904D02*
X37192758Y-18314285D01*
X37192758Y-18314285D02*
X37383234Y-18266666D01*
X37383234Y-18266666D02*
X37526091Y-18266666D01*
X37526091Y-18266666D02*
X37716567Y-18314285D01*
X37716567Y-18314285D02*
X37811805Y-18361904D01*
X37811805Y-18361904D02*
X37907044Y-18457142D01*
X37907044Y-18457142D02*
X37954663Y-18599999D01*
X37954663Y-18599999D02*
X37954663Y-18838094D01*
X37049901Y-17885713D02*
X37002282Y-17838094D01*
X37002282Y-17838094D02*
X36954663Y-17742856D01*
X36954663Y-17742856D02*
X36954663Y-17504761D01*
X36954663Y-17504761D02*
X37002282Y-17409523D01*
X37002282Y-17409523D02*
X37049901Y-17361904D01*
X37049901Y-17361904D02*
X37145139Y-17314285D01*
X37145139Y-17314285D02*
X37240377Y-17314285D01*
X37240377Y-17314285D02*
X37383234Y-17361904D01*
X37383234Y-17361904D02*
X37954663Y-17933332D01*
X37954663Y-17933332D02*
X37954663Y-17314285D01*
X49654663Y-25695238D02*
X49178472Y-26028571D01*
X49654663Y-26266666D02*
X48654663Y-26266666D01*
X48654663Y-26266666D02*
X48654663Y-25885714D01*
X48654663Y-25885714D02*
X48702282Y-25790476D01*
X48702282Y-25790476D02*
X48749901Y-25742857D01*
X48749901Y-25742857D02*
X48845139Y-25695238D01*
X48845139Y-25695238D02*
X48987996Y-25695238D01*
X48987996Y-25695238D02*
X49083234Y-25742857D01*
X49083234Y-25742857D02*
X49130853Y-25790476D01*
X49130853Y-25790476D02*
X49178472Y-25885714D01*
X49178472Y-25885714D02*
X49178472Y-26266666D01*
X48654663Y-25409523D02*
X49654663Y-25076190D01*
X49654663Y-25076190D02*
X48654663Y-24742857D01*
X49654663Y-23885714D02*
X49654663Y-24457142D01*
X49654663Y-24171428D02*
X48654663Y-24171428D01*
X48654663Y-24171428D02*
X48797520Y-24266666D01*
X48797520Y-24266666D02*
X48892758Y-24361904D01*
X48892758Y-24361904D02*
X48940377Y-24457142D01*
X27911905Y-31654663D02*
X27911905Y-30654663D01*
X27911905Y-30654663D02*
X28150000Y-30654663D01*
X28150000Y-30654663D02*
X28292857Y-30702282D01*
X28292857Y-30702282D02*
X28388095Y-30797520D01*
X28388095Y-30797520D02*
X28435714Y-30892758D01*
X28435714Y-30892758D02*
X28483333Y-31083234D01*
X28483333Y-31083234D02*
X28483333Y-31226091D01*
X28483333Y-31226091D02*
X28435714Y-31416567D01*
X28435714Y-31416567D02*
X28388095Y-31511805D01*
X28388095Y-31511805D02*
X28292857Y-31607044D01*
X28292857Y-31607044D02*
X28150000Y-31654663D01*
X28150000Y-31654663D02*
X27911905Y-31654663D01*
X29340476Y-30654663D02*
X29150000Y-30654663D01*
X29150000Y-30654663D02*
X29054762Y-30702282D01*
X29054762Y-30702282D02*
X29007143Y-30749901D01*
X29007143Y-30749901D02*
X28911905Y-30892758D01*
X28911905Y-30892758D02*
X28864286Y-31083234D01*
X28864286Y-31083234D02*
X28864286Y-31464186D01*
X28864286Y-31464186D02*
X28911905Y-31559424D01*
X28911905Y-31559424D02*
X28959524Y-31607044D01*
X28959524Y-31607044D02*
X29054762Y-31654663D01*
X29054762Y-31654663D02*
X29245238Y-31654663D01*
X29245238Y-31654663D02*
X29340476Y-31607044D01*
X29340476Y-31607044D02*
X29388095Y-31559424D01*
X29388095Y-31559424D02*
X29435714Y-31464186D01*
X29435714Y-31464186D02*
X29435714Y-31226091D01*
X29435714Y-31226091D02*
X29388095Y-31130853D01*
X29388095Y-31130853D02*
X29340476Y-31083234D01*
X29340476Y-31083234D02*
X29245238Y-31035615D01*
X29245238Y-31035615D02*
X29054762Y-31035615D01*
X29054762Y-31035615D02*
X28959524Y-31083234D01*
X28959524Y-31083234D02*
X28911905Y-31130853D01*
X28911905Y-31130853D02*
X28864286Y-31226091D01*
D10*
X20421820Y-16172857D02*
X20469440Y-16220476D01*
X20469440Y-16220476D02*
X20517059Y-16363333D01*
X20517059Y-16363333D02*
X20517059Y-16458571D01*
X20517059Y-16458571D02*
X20469440Y-16601428D01*
X20469440Y-16601428D02*
X20374201Y-16696666D01*
X20374201Y-16696666D02*
X20278963Y-16744285D01*
X20278963Y-16744285D02*
X20088487Y-16791904D01*
X20088487Y-16791904D02*
X19945630Y-16791904D01*
X19945630Y-16791904D02*
X19755154Y-16744285D01*
X19755154Y-16744285D02*
X19659916Y-16696666D01*
X19659916Y-16696666D02*
X19564678Y-16601428D01*
X19564678Y-16601428D02*
X19517059Y-16458571D01*
X19517059Y-16458571D02*
X19517059Y-16363333D01*
X19517059Y-16363333D02*
X19564678Y-16220476D01*
X19564678Y-16220476D02*
X19612297Y-16172857D01*
X20517059Y-15220476D02*
X20517059Y-15791904D01*
X20517059Y-15506190D02*
X19517059Y-15506190D01*
X19517059Y-15506190D02*
X19659916Y-15601428D01*
X19659916Y-15601428D02*
X19755154Y-15696666D01*
X19755154Y-15696666D02*
X19802773Y-15791904D01*
X19517059Y-14601428D02*
X19517059Y-14506190D01*
X19517059Y-14506190D02*
X19564678Y-14410952D01*
X19564678Y-14410952D02*
X19612297Y-14363333D01*
X19612297Y-14363333D02*
X19707535Y-14315714D01*
X19707535Y-14315714D02*
X19898011Y-14268095D01*
X19898011Y-14268095D02*
X20136106Y-14268095D01*
X20136106Y-14268095D02*
X20326582Y-14315714D01*
X20326582Y-14315714D02*
X20421820Y-14363333D01*
X20421820Y-14363333D02*
X20469440Y-14410952D01*
X20469440Y-14410952D02*
X20517059Y-14506190D01*
X20517059Y-14506190D02*
X20517059Y-14601428D01*
X20517059Y-14601428D02*
X20469440Y-14696666D01*
X20469440Y-14696666D02*
X20421820Y-14744285D01*
X20421820Y-14744285D02*
X20326582Y-14791904D01*
X20326582Y-14791904D02*
X20136106Y-14839523D01*
X20136106Y-14839523D02*
X19898011Y-14839523D01*
X19898011Y-14839523D02*
X19707535Y-14791904D01*
X19707535Y-14791904D02*
X19612297Y-14744285D01*
X19612297Y-14744285D02*
X19564678Y-14696666D01*
X19564678Y-14696666D02*
X19517059Y-14601428D01*
X21714333Y-15779559D02*
X21381000Y-15303368D01*
X21142905Y-15779559D02*
X21142905Y-14779559D01*
X21142905Y-14779559D02*
X21523857Y-14779559D01*
X21523857Y-14779559D02*
X21619095Y-14827178D01*
X21619095Y-14827178D02*
X21666714Y-14874797D01*
X21666714Y-14874797D02*
X21714333Y-14970035D01*
X21714333Y-14970035D02*
X21714333Y-15112892D01*
X21714333Y-15112892D02*
X21666714Y-15208130D01*
X21666714Y-15208130D02*
X21619095Y-15255749D01*
X21619095Y-15255749D02*
X21523857Y-15303368D01*
X21523857Y-15303368D02*
X21142905Y-15303368D01*
X22047667Y-14779559D02*
X22714333Y-14779559D01*
X22714333Y-14779559D02*
X22285762Y-15779559D01*
X42838095Y-36754559D02*
X42838095Y-37564082D01*
X42838095Y-37564082D02*
X42885714Y-37659320D01*
X42885714Y-37659320D02*
X42933333Y-37706940D01*
X42933333Y-37706940D02*
X43028571Y-37754559D01*
X43028571Y-37754559D02*
X43219047Y-37754559D01*
X43219047Y-37754559D02*
X43314285Y-37706940D01*
X43314285Y-37706940D02*
X43361904Y-37659320D01*
X43361904Y-37659320D02*
X43409523Y-37564082D01*
X43409523Y-37564082D02*
X43409523Y-36754559D01*
X44409523Y-37754559D02*
X43838095Y-37754559D01*
X44123809Y-37754559D02*
X44123809Y-36754559D01*
X44123809Y-36754559D02*
X44028571Y-36897416D01*
X44028571Y-36897416D02*
X43933333Y-36992654D01*
X43933333Y-36992654D02*
X43838095Y-37040273D01*
D12*
X38233333Y-14359424D02*
X38185714Y-14407044D01*
X38185714Y-14407044D02*
X38042857Y-14454663D01*
X38042857Y-14454663D02*
X37947619Y-14454663D01*
X37947619Y-14454663D02*
X37804762Y-14407044D01*
X37804762Y-14407044D02*
X37709524Y-14311805D01*
X37709524Y-14311805D02*
X37661905Y-14216567D01*
X37661905Y-14216567D02*
X37614286Y-14026091D01*
X37614286Y-14026091D02*
X37614286Y-13883234D01*
X37614286Y-13883234D02*
X37661905Y-13692758D01*
X37661905Y-13692758D02*
X37709524Y-13597520D01*
X37709524Y-13597520D02*
X37804762Y-13502282D01*
X37804762Y-13502282D02*
X37947619Y-13454663D01*
X37947619Y-13454663D02*
X38042857Y-13454663D01*
X38042857Y-13454663D02*
X38185714Y-13502282D01*
X38185714Y-13502282D02*
X38233333Y-13549901D01*
X39185714Y-14454663D02*
X38614286Y-14454663D01*
X38900000Y-14454663D02*
X38900000Y-13454663D01*
X38900000Y-13454663D02*
X38804762Y-13597520D01*
X38804762Y-13597520D02*
X38709524Y-13692758D01*
X38709524Y-13692758D02*
X38614286Y-13740377D01*
D10*
X4257142Y-14059320D02*
X4209523Y-14106940D01*
X4209523Y-14106940D02*
X4066666Y-14154559D01*
X4066666Y-14154559D02*
X3971428Y-14154559D01*
X3971428Y-14154559D02*
X3828571Y-14106940D01*
X3828571Y-14106940D02*
X3733333Y-14011701D01*
X3733333Y-14011701D02*
X3685714Y-13916463D01*
X3685714Y-13916463D02*
X3638095Y-13725987D01*
X3638095Y-13725987D02*
X3638095Y-13583130D01*
X3638095Y-13583130D02*
X3685714Y-13392654D01*
X3685714Y-13392654D02*
X3733333Y-13297416D01*
X3733333Y-13297416D02*
X3828571Y-13202178D01*
X3828571Y-13202178D02*
X3971428Y-13154559D01*
X3971428Y-13154559D02*
X4066666Y-13154559D01*
X4066666Y-13154559D02*
X4209523Y-13202178D01*
X4209523Y-13202178D02*
X4257142Y-13249797D01*
X5209523Y-14154559D02*
X4638095Y-14154559D01*
X4923809Y-14154559D02*
X4923809Y-13154559D01*
X4923809Y-13154559D02*
X4828571Y-13297416D01*
X4828571Y-13297416D02*
X4733333Y-13392654D01*
X4733333Y-13392654D02*
X4638095Y-13440273D01*
X6161904Y-14154559D02*
X5590476Y-14154559D01*
X5876190Y-14154559D02*
X5876190Y-13154559D01*
X5876190Y-13154559D02*
X5780952Y-13297416D01*
X5780952Y-13297416D02*
X5685714Y-13392654D01*
X5685714Y-13392654D02*
X5590476Y-13440273D01*
D12*
X27785714Y-17679663D02*
X27785714Y-16679663D01*
X27785714Y-16679663D02*
X28023809Y-16679663D01*
X28023809Y-16679663D02*
X28166666Y-16727282D01*
X28166666Y-16727282D02*
X28261904Y-16822520D01*
X28261904Y-16822520D02*
X28309523Y-16917758D01*
X28309523Y-16917758D02*
X28357142Y-17108234D01*
X28357142Y-17108234D02*
X28357142Y-17251091D01*
X28357142Y-17251091D02*
X28309523Y-17441567D01*
X28309523Y-17441567D02*
X28261904Y-17536805D01*
X28261904Y-17536805D02*
X28166666Y-17632044D01*
X28166666Y-17632044D02*
X28023809Y-17679663D01*
X28023809Y-17679663D02*
X27785714Y-17679663D01*
X29309523Y-17679663D02*
X28738095Y-17679663D01*
X29023809Y-17679663D02*
X29023809Y-16679663D01*
X29023809Y-16679663D02*
X28928571Y-16822520D01*
X28928571Y-16822520D02*
X28833333Y-16917758D01*
X28833333Y-16917758D02*
X28738095Y-16965377D01*
X29928571Y-16679663D02*
X30023809Y-16679663D01*
X30023809Y-16679663D02*
X30119047Y-16727282D01*
X30119047Y-16727282D02*
X30166666Y-16774901D01*
X30166666Y-16774901D02*
X30214285Y-16870139D01*
X30214285Y-16870139D02*
X30261904Y-17060615D01*
X30261904Y-17060615D02*
X30261904Y-17298710D01*
X30261904Y-17298710D02*
X30214285Y-17489186D01*
X30214285Y-17489186D02*
X30166666Y-17584424D01*
X30166666Y-17584424D02*
X30119047Y-17632044D01*
X30119047Y-17632044D02*
X30023809Y-17679663D01*
X30023809Y-17679663D02*
X29928571Y-17679663D01*
X29928571Y-17679663D02*
X29833333Y-17632044D01*
X29833333Y-17632044D02*
X29785714Y-17584424D01*
X29785714Y-17584424D02*
X29738095Y-17489186D01*
X29738095Y-17489186D02*
X29690476Y-17298710D01*
X29690476Y-17298710D02*
X29690476Y-17060615D01*
X29690476Y-17060615D02*
X29738095Y-16870139D01*
X29738095Y-16870139D02*
X29785714Y-16774901D01*
X29785714Y-16774901D02*
X29833333Y-16727282D01*
X29833333Y-16727282D02*
X29928571Y-16679663D01*
D10*
X4257142Y-12354559D02*
X3923809Y-11878368D01*
X3685714Y-12354559D02*
X3685714Y-11354559D01*
X3685714Y-11354559D02*
X4066666Y-11354559D01*
X4066666Y-11354559D02*
X4161904Y-11402178D01*
X4161904Y-11402178D02*
X4209523Y-11449797D01*
X4209523Y-11449797D02*
X4257142Y-11545035D01*
X4257142Y-11545035D02*
X4257142Y-11687892D01*
X4257142Y-11687892D02*
X4209523Y-11783130D01*
X4209523Y-11783130D02*
X4161904Y-11830749D01*
X4161904Y-11830749D02*
X4066666Y-11878368D01*
X4066666Y-11878368D02*
X3685714Y-11878368D01*
X5209523Y-12354559D02*
X4638095Y-12354559D01*
X4923809Y-12354559D02*
X4923809Y-11354559D01*
X4923809Y-11354559D02*
X4828571Y-11497416D01*
X4828571Y-11497416D02*
X4733333Y-11592654D01*
X4733333Y-11592654D02*
X4638095Y-11640273D01*
X5590476Y-11449797D02*
X5638095Y-11402178D01*
X5638095Y-11402178D02*
X5733333Y-11354559D01*
X5733333Y-11354559D02*
X5971428Y-11354559D01*
X5971428Y-11354559D02*
X6066666Y-11402178D01*
X6066666Y-11402178D02*
X6114285Y-11449797D01*
X6114285Y-11449797D02*
X6161904Y-11545035D01*
X6161904Y-11545035D02*
X6161904Y-11640273D01*
X6161904Y-11640273D02*
X6114285Y-11783130D01*
X6114285Y-11783130D02*
X5542857Y-12354559D01*
X5542857Y-12354559D02*
X6161904Y-12354559D01*
D12*
X7757142Y-29054663D02*
X7423809Y-28578472D01*
X7185714Y-29054663D02*
X7185714Y-28054663D01*
X7185714Y-28054663D02*
X7566666Y-28054663D01*
X7566666Y-28054663D02*
X7661904Y-28102282D01*
X7661904Y-28102282D02*
X7709523Y-28149901D01*
X7709523Y-28149901D02*
X7757142Y-28245139D01*
X7757142Y-28245139D02*
X7757142Y-28387996D01*
X7757142Y-28387996D02*
X7709523Y-28483234D01*
X7709523Y-28483234D02*
X7661904Y-28530853D01*
X7661904Y-28530853D02*
X7566666Y-28578472D01*
X7566666Y-28578472D02*
X7185714Y-28578472D01*
X8709523Y-29054663D02*
X8138095Y-29054663D01*
X8423809Y-29054663D02*
X8423809Y-28054663D01*
X8423809Y-28054663D02*
X8328571Y-28197520D01*
X8328571Y-28197520D02*
X8233333Y-28292758D01*
X8233333Y-28292758D02*
X8138095Y-28340377D01*
X9661904Y-29054663D02*
X9090476Y-29054663D01*
X9376190Y-29054663D02*
X9376190Y-28054663D01*
X9376190Y-28054663D02*
X9280952Y-28197520D01*
X9280952Y-28197520D02*
X9185714Y-28292758D01*
X9185714Y-28292758D02*
X9090476Y-28340377D01*
D10*
X30733333Y-14254559D02*
X30400000Y-13778368D01*
X30161905Y-14254559D02*
X30161905Y-13254559D01*
X30161905Y-13254559D02*
X30542857Y-13254559D01*
X30542857Y-13254559D02*
X30638095Y-13302178D01*
X30638095Y-13302178D02*
X30685714Y-13349797D01*
X30685714Y-13349797D02*
X30733333Y-13445035D01*
X30733333Y-13445035D02*
X30733333Y-13587892D01*
X30733333Y-13587892D02*
X30685714Y-13683130D01*
X30685714Y-13683130D02*
X30638095Y-13730749D01*
X30638095Y-13730749D02*
X30542857Y-13778368D01*
X30542857Y-13778368D02*
X30161905Y-13778368D01*
X31066667Y-13254559D02*
X31685714Y-13254559D01*
X31685714Y-13254559D02*
X31352381Y-13635511D01*
X31352381Y-13635511D02*
X31495238Y-13635511D01*
X31495238Y-13635511D02*
X31590476Y-13683130D01*
X31590476Y-13683130D02*
X31638095Y-13730749D01*
X31638095Y-13730749D02*
X31685714Y-13825987D01*
X31685714Y-13825987D02*
X31685714Y-14064082D01*
X31685714Y-14064082D02*
X31638095Y-14159320D01*
X31638095Y-14159320D02*
X31590476Y-14206940D01*
X31590476Y-14206940D02*
X31495238Y-14254559D01*
X31495238Y-14254559D02*
X31209524Y-14254559D01*
X31209524Y-14254559D02*
X31114286Y-14206940D01*
X31114286Y-14206940D02*
X31066667Y-14159320D01*
X25133333Y-33744320D02*
X25085714Y-33791940D01*
X25085714Y-33791940D02*
X24942857Y-33839559D01*
X24942857Y-33839559D02*
X24847619Y-33839559D01*
X24847619Y-33839559D02*
X24704762Y-33791940D01*
X24704762Y-33791940D02*
X24609524Y-33696701D01*
X24609524Y-33696701D02*
X24561905Y-33601463D01*
X24561905Y-33601463D02*
X24514286Y-33410987D01*
X24514286Y-33410987D02*
X24514286Y-33268130D01*
X24514286Y-33268130D02*
X24561905Y-33077654D01*
X24561905Y-33077654D02*
X24609524Y-32982416D01*
X24609524Y-32982416D02*
X24704762Y-32887178D01*
X24704762Y-32887178D02*
X24847619Y-32839559D01*
X24847619Y-32839559D02*
X24942857Y-32839559D01*
X24942857Y-32839559D02*
X25085714Y-32887178D01*
X25085714Y-32887178D02*
X25133333Y-32934797D01*
X25609524Y-33839559D02*
X25800000Y-33839559D01*
X25800000Y-33839559D02*
X25895238Y-33791940D01*
X25895238Y-33791940D02*
X25942857Y-33744320D01*
X25942857Y-33744320D02*
X26038095Y-33601463D01*
X26038095Y-33601463D02*
X26085714Y-33410987D01*
X26085714Y-33410987D02*
X26085714Y-33030035D01*
X26085714Y-33030035D02*
X26038095Y-32934797D01*
X26038095Y-32934797D02*
X25990476Y-32887178D01*
X25990476Y-32887178D02*
X25895238Y-32839559D01*
X25895238Y-32839559D02*
X25704762Y-32839559D01*
X25704762Y-32839559D02*
X25609524Y-32887178D01*
X25609524Y-32887178D02*
X25561905Y-32934797D01*
X25561905Y-32934797D02*
X25514286Y-33030035D01*
X25514286Y-33030035D02*
X25514286Y-33268130D01*
X25514286Y-33268130D02*
X25561905Y-33363368D01*
X25561905Y-33363368D02*
X25609524Y-33410987D01*
X25609524Y-33410987D02*
X25704762Y-33458606D01*
X25704762Y-33458606D02*
X25895238Y-33458606D01*
X25895238Y-33458606D02*
X25990476Y-33410987D01*
X25990476Y-33410987D02*
X26038095Y-33363368D01*
X26038095Y-33363368D02*
X26085714Y-33268130D01*
X17166666Y-37454559D02*
X17166666Y-38168844D01*
X17166666Y-38168844D02*
X17119047Y-38311701D01*
X17119047Y-38311701D02*
X17023809Y-38406940D01*
X17023809Y-38406940D02*
X16880952Y-38454559D01*
X16880952Y-38454559D02*
X16785714Y-38454559D01*
X18071428Y-37787892D02*
X18071428Y-38454559D01*
X17833333Y-37406940D02*
X17595238Y-38121225D01*
X17595238Y-38121225D02*
X18214285Y-38121225D01*
D12*
X28999405Y-38454663D02*
X28999405Y-37454663D01*
X28999405Y-37454663D02*
X29237500Y-37454663D01*
X29237500Y-37454663D02*
X29380357Y-37502282D01*
X29380357Y-37502282D02*
X29475595Y-37597520D01*
X29475595Y-37597520D02*
X29523214Y-37692758D01*
X29523214Y-37692758D02*
X29570833Y-37883234D01*
X29570833Y-37883234D02*
X29570833Y-38026091D01*
X29570833Y-38026091D02*
X29523214Y-38216567D01*
X29523214Y-38216567D02*
X29475595Y-38311805D01*
X29475595Y-38311805D02*
X29380357Y-38407044D01*
X29380357Y-38407044D02*
X29237500Y-38454663D01*
X29237500Y-38454663D02*
X28999405Y-38454663D01*
X30142262Y-37883234D02*
X30047024Y-37835615D01*
X30047024Y-37835615D02*
X29999405Y-37787996D01*
X29999405Y-37787996D02*
X29951786Y-37692758D01*
X29951786Y-37692758D02*
X29951786Y-37645139D01*
X29951786Y-37645139D02*
X29999405Y-37549901D01*
X29999405Y-37549901D02*
X30047024Y-37502282D01*
X30047024Y-37502282D02*
X30142262Y-37454663D01*
X30142262Y-37454663D02*
X30332738Y-37454663D01*
X30332738Y-37454663D02*
X30427976Y-37502282D01*
X30427976Y-37502282D02*
X30475595Y-37549901D01*
X30475595Y-37549901D02*
X30523214Y-37645139D01*
X30523214Y-37645139D02*
X30523214Y-37692758D01*
X30523214Y-37692758D02*
X30475595Y-37787996D01*
X30475595Y-37787996D02*
X30427976Y-37835615D01*
X30427976Y-37835615D02*
X30332738Y-37883234D01*
X30332738Y-37883234D02*
X30142262Y-37883234D01*
X30142262Y-37883234D02*
X30047024Y-37930853D01*
X30047024Y-37930853D02*
X29999405Y-37978472D01*
X29999405Y-37978472D02*
X29951786Y-38073710D01*
X29951786Y-38073710D02*
X29951786Y-38264186D01*
X29951786Y-38264186D02*
X29999405Y-38359424D01*
X29999405Y-38359424D02*
X30047024Y-38407044D01*
X30047024Y-38407044D02*
X30142262Y-38454663D01*
X30142262Y-38454663D02*
X30332738Y-38454663D01*
X30332738Y-38454663D02*
X30427976Y-38407044D01*
X30427976Y-38407044D02*
X30475595Y-38359424D01*
X30475595Y-38359424D02*
X30523214Y-38264186D01*
X30523214Y-38264186D02*
X30523214Y-38073710D01*
X30523214Y-38073710D02*
X30475595Y-37978472D01*
X30475595Y-37978472D02*
X30427976Y-37930853D01*
X30427976Y-37930853D02*
X30332738Y-37883234D01*
X20638095Y-33054663D02*
X20638095Y-33864186D01*
X20638095Y-33864186D02*
X20685714Y-33959424D01*
X20685714Y-33959424D02*
X20733333Y-34007044D01*
X20733333Y-34007044D02*
X20828571Y-34054663D01*
X20828571Y-34054663D02*
X21019047Y-34054663D01*
X21019047Y-34054663D02*
X21114285Y-34007044D01*
X21114285Y-34007044D02*
X21161904Y-33959424D01*
X21161904Y-33959424D02*
X21209523Y-33864186D01*
X21209523Y-33864186D02*
X21209523Y-33054663D01*
X21638095Y-33149901D02*
X21685714Y-33102282D01*
X21685714Y-33102282D02*
X21780952Y-33054663D01*
X21780952Y-33054663D02*
X22019047Y-33054663D01*
X22019047Y-33054663D02*
X22114285Y-33102282D01*
X22114285Y-33102282D02*
X22161904Y-33149901D01*
X22161904Y-33149901D02*
X22209523Y-33245139D01*
X22209523Y-33245139D02*
X22209523Y-33340377D01*
X22209523Y-33340377D02*
X22161904Y-33483234D01*
X22161904Y-33483234D02*
X21590476Y-34054663D01*
X21590476Y-34054663D02*
X22209523Y-34054663D01*
D10*
X1757142Y-3754559D02*
X1423809Y-3278368D01*
X1185714Y-3754559D02*
X1185714Y-2754559D01*
X1185714Y-2754559D02*
X1566666Y-2754559D01*
X1566666Y-2754559D02*
X1661904Y-2802178D01*
X1661904Y-2802178D02*
X1709523Y-2849797D01*
X1709523Y-2849797D02*
X1757142Y-2945035D01*
X1757142Y-2945035D02*
X1757142Y-3087892D01*
X1757142Y-3087892D02*
X1709523Y-3183130D01*
X1709523Y-3183130D02*
X1661904Y-3230749D01*
X1661904Y-3230749D02*
X1566666Y-3278368D01*
X1566666Y-3278368D02*
X1185714Y-3278368D01*
X2709523Y-3754559D02*
X2138095Y-3754559D01*
X2423809Y-3754559D02*
X2423809Y-2754559D01*
X2423809Y-2754559D02*
X2328571Y-2897416D01*
X2328571Y-2897416D02*
X2233333Y-2992654D01*
X2233333Y-2992654D02*
X2138095Y-3040273D01*
X3042857Y-2754559D02*
X3661904Y-2754559D01*
X3661904Y-2754559D02*
X3328571Y-3135511D01*
X3328571Y-3135511D02*
X3471428Y-3135511D01*
X3471428Y-3135511D02*
X3566666Y-3183130D01*
X3566666Y-3183130D02*
X3614285Y-3230749D01*
X3614285Y-3230749D02*
X3661904Y-3325987D01*
X3661904Y-3325987D02*
X3661904Y-3564082D01*
X3661904Y-3564082D02*
X3614285Y-3659320D01*
X3614285Y-3659320D02*
X3566666Y-3706940D01*
X3566666Y-3706940D02*
X3471428Y-3754559D01*
X3471428Y-3754559D02*
X3185714Y-3754559D01*
X3185714Y-3754559D02*
X3090476Y-3706940D01*
X3090476Y-3706940D02*
X3042857Y-3659320D01*
D12*
X51061905Y-15054663D02*
X51061905Y-14054663D01*
X51061905Y-14054663D02*
X51300000Y-14054663D01*
X51300000Y-14054663D02*
X51442857Y-14102282D01*
X51442857Y-14102282D02*
X51538095Y-14197520D01*
X51538095Y-14197520D02*
X51585714Y-14292758D01*
X51585714Y-14292758D02*
X51633333Y-14483234D01*
X51633333Y-14483234D02*
X51633333Y-14626091D01*
X51633333Y-14626091D02*
X51585714Y-14816567D01*
X51585714Y-14816567D02*
X51538095Y-14911805D01*
X51538095Y-14911805D02*
X51442857Y-15007044D01*
X51442857Y-15007044D02*
X51300000Y-15054663D01*
X51300000Y-15054663D02*
X51061905Y-15054663D01*
X52585714Y-15054663D02*
X52014286Y-15054663D01*
X52300000Y-15054663D02*
X52300000Y-14054663D01*
X52300000Y-14054663D02*
X52204762Y-14197520D01*
X52204762Y-14197520D02*
X52109524Y-14292758D01*
X52109524Y-14292758D02*
X52014286Y-14340377D01*
D10*
X3821666Y-454559D02*
X3821666Y-1168844D01*
X3821666Y-1168844D02*
X3774047Y-1311701D01*
X3774047Y-1311701D02*
X3678809Y-1406940D01*
X3678809Y-1406940D02*
X3535952Y-1454559D01*
X3535952Y-1454559D02*
X3440714Y-1454559D01*
X4821666Y-1454559D02*
X4250238Y-1454559D01*
X4535952Y-1454559D02*
X4535952Y-454559D01*
X4535952Y-454559D02*
X4440714Y-597416D01*
X4440714Y-597416D02*
X4345476Y-692654D01*
X4345476Y-692654D02*
X4250238Y-740273D01*
X46433333Y-26159320D02*
X46385714Y-26206940D01*
X46385714Y-26206940D02*
X46242857Y-26254559D01*
X46242857Y-26254559D02*
X46147619Y-26254559D01*
X46147619Y-26254559D02*
X46004762Y-26206940D01*
X46004762Y-26206940D02*
X45909524Y-26111701D01*
X45909524Y-26111701D02*
X45861905Y-26016463D01*
X45861905Y-26016463D02*
X45814286Y-25825987D01*
X45814286Y-25825987D02*
X45814286Y-25683130D01*
X45814286Y-25683130D02*
X45861905Y-25492654D01*
X45861905Y-25492654D02*
X45909524Y-25397416D01*
X45909524Y-25397416D02*
X46004762Y-25302178D01*
X46004762Y-25302178D02*
X46147619Y-25254559D01*
X46147619Y-25254559D02*
X46242857Y-25254559D01*
X46242857Y-25254559D02*
X46385714Y-25302178D01*
X46385714Y-25302178D02*
X46433333Y-25349797D01*
X46814286Y-25349797D02*
X46861905Y-25302178D01*
X46861905Y-25302178D02*
X46957143Y-25254559D01*
X46957143Y-25254559D02*
X47195238Y-25254559D01*
X47195238Y-25254559D02*
X47290476Y-25302178D01*
X47290476Y-25302178D02*
X47338095Y-25349797D01*
X47338095Y-25349797D02*
X47385714Y-25445035D01*
X47385714Y-25445035D02*
X47385714Y-25540273D01*
X47385714Y-25540273D02*
X47338095Y-25683130D01*
X47338095Y-25683130D02*
X46766667Y-26254559D01*
X46766667Y-26254559D02*
X47385714Y-26254559D01*
D12*
X27861905Y-26654663D02*
X27861905Y-25654663D01*
X27861905Y-25654663D02*
X28100000Y-25654663D01*
X28100000Y-25654663D02*
X28242857Y-25702282D01*
X28242857Y-25702282D02*
X28338095Y-25797520D01*
X28338095Y-25797520D02*
X28385714Y-25892758D01*
X28385714Y-25892758D02*
X28433333Y-26083234D01*
X28433333Y-26083234D02*
X28433333Y-26226091D01*
X28433333Y-26226091D02*
X28385714Y-26416567D01*
X28385714Y-26416567D02*
X28338095Y-26511805D01*
X28338095Y-26511805D02*
X28242857Y-26607044D01*
X28242857Y-26607044D02*
X28100000Y-26654663D01*
X28100000Y-26654663D02*
X27861905Y-26654663D01*
X28766667Y-25654663D02*
X29433333Y-25654663D01*
X29433333Y-25654663D02*
X29004762Y-26654663D01*
D10*
X31221666Y-3554559D02*
X31221666Y-4268844D01*
X31221666Y-4268844D02*
X31174047Y-4411701D01*
X31174047Y-4411701D02*
X31078809Y-4506940D01*
X31078809Y-4506940D02*
X30935952Y-4554559D01*
X30935952Y-4554559D02*
X30840714Y-4554559D01*
X31650238Y-3649797D02*
X31697857Y-3602178D01*
X31697857Y-3602178D02*
X31793095Y-3554559D01*
X31793095Y-3554559D02*
X32031190Y-3554559D01*
X32031190Y-3554559D02*
X32126428Y-3602178D01*
X32126428Y-3602178D02*
X32174047Y-3649797D01*
X32174047Y-3649797D02*
X32221666Y-3745035D01*
X32221666Y-3745035D02*
X32221666Y-3840273D01*
X32221666Y-3840273D02*
X32174047Y-3983130D01*
X32174047Y-3983130D02*
X31602619Y-4554559D01*
X31602619Y-4554559D02*
X32221666Y-4554559D01*
X32833333Y-28109320D02*
X32785714Y-28156940D01*
X32785714Y-28156940D02*
X32642857Y-28204559D01*
X32642857Y-28204559D02*
X32547619Y-28204559D01*
X32547619Y-28204559D02*
X32404762Y-28156940D01*
X32404762Y-28156940D02*
X32309524Y-28061701D01*
X32309524Y-28061701D02*
X32261905Y-27966463D01*
X32261905Y-27966463D02*
X32214286Y-27775987D01*
X32214286Y-27775987D02*
X32214286Y-27633130D01*
X32214286Y-27633130D02*
X32261905Y-27442654D01*
X32261905Y-27442654D02*
X32309524Y-27347416D01*
X32309524Y-27347416D02*
X32404762Y-27252178D01*
X32404762Y-27252178D02*
X32547619Y-27204559D01*
X32547619Y-27204559D02*
X32642857Y-27204559D01*
X32642857Y-27204559D02*
X32785714Y-27252178D01*
X32785714Y-27252178D02*
X32833333Y-27299797D01*
X33166667Y-27204559D02*
X33833333Y-27204559D01*
X33833333Y-27204559D02*
X33404762Y-28204559D01*
X38383333Y-37759320D02*
X38335714Y-37806940D01*
X38335714Y-37806940D02*
X38192857Y-37854559D01*
X38192857Y-37854559D02*
X38097619Y-37854559D01*
X38097619Y-37854559D02*
X37954762Y-37806940D01*
X37954762Y-37806940D02*
X37859524Y-37711701D01*
X37859524Y-37711701D02*
X37811905Y-37616463D01*
X37811905Y-37616463D02*
X37764286Y-37425987D01*
X37764286Y-37425987D02*
X37764286Y-37283130D01*
X37764286Y-37283130D02*
X37811905Y-37092654D01*
X37811905Y-37092654D02*
X37859524Y-36997416D01*
X37859524Y-36997416D02*
X37954762Y-36902178D01*
X37954762Y-36902178D02*
X38097619Y-36854559D01*
X38097619Y-36854559D02*
X38192857Y-36854559D01*
X38192857Y-36854559D02*
X38335714Y-36902178D01*
X38335714Y-36902178D02*
X38383333Y-36949797D01*
X39240476Y-36854559D02*
X39050000Y-36854559D01*
X39050000Y-36854559D02*
X38954762Y-36902178D01*
X38954762Y-36902178D02*
X38907143Y-36949797D01*
X38907143Y-36949797D02*
X38811905Y-37092654D01*
X38811905Y-37092654D02*
X38764286Y-37283130D01*
X38764286Y-37283130D02*
X38764286Y-37664082D01*
X38764286Y-37664082D02*
X38811905Y-37759320D01*
X38811905Y-37759320D02*
X38859524Y-37806940D01*
X38859524Y-37806940D02*
X38954762Y-37854559D01*
X38954762Y-37854559D02*
X39145238Y-37854559D01*
X39145238Y-37854559D02*
X39240476Y-37806940D01*
X39240476Y-37806940D02*
X39288095Y-37759320D01*
X39288095Y-37759320D02*
X39335714Y-37664082D01*
X39335714Y-37664082D02*
X39335714Y-37425987D01*
X39335714Y-37425987D02*
X39288095Y-37330749D01*
X39288095Y-37330749D02*
X39240476Y-37283130D01*
X39240476Y-37283130D02*
X39145238Y-37235511D01*
X39145238Y-37235511D02*
X38954762Y-37235511D01*
X38954762Y-37235511D02*
X38859524Y-37283130D01*
X38859524Y-37283130D02*
X38811905Y-37330749D01*
X38811905Y-37330749D02*
X38764286Y-37425987D01*
X36667059Y-19166666D02*
X36190868Y-19499999D01*
X36667059Y-19738094D02*
X35667059Y-19738094D01*
X35667059Y-19738094D02*
X35667059Y-19357142D01*
X35667059Y-19357142D02*
X35714678Y-19261904D01*
X35714678Y-19261904D02*
X35762297Y-19214285D01*
X35762297Y-19214285D02*
X35857535Y-19166666D01*
X35857535Y-19166666D02*
X36000392Y-19166666D01*
X36000392Y-19166666D02*
X36095630Y-19214285D01*
X36095630Y-19214285D02*
X36143249Y-19261904D01*
X36143249Y-19261904D02*
X36190868Y-19357142D01*
X36190868Y-19357142D02*
X36190868Y-19738094D01*
X36000392Y-18309523D02*
X36667059Y-18309523D01*
X35619440Y-18547618D02*
X36333725Y-18785713D01*
X36333725Y-18785713D02*
X36333725Y-18166666D01*
X16938095Y-13254559D02*
X16938095Y-14064082D01*
X16938095Y-14064082D02*
X16985714Y-14159320D01*
X16985714Y-14159320D02*
X17033333Y-14206940D01*
X17033333Y-14206940D02*
X17128571Y-14254559D01*
X17128571Y-14254559D02*
X17319047Y-14254559D01*
X17319047Y-14254559D02*
X17414285Y-14206940D01*
X17414285Y-14206940D02*
X17461904Y-14159320D01*
X17461904Y-14159320D02*
X17509523Y-14064082D01*
X17509523Y-14064082D02*
X17509523Y-13254559D01*
X17890476Y-13254559D02*
X18509523Y-13254559D01*
X18509523Y-13254559D02*
X18176190Y-13635511D01*
X18176190Y-13635511D02*
X18319047Y-13635511D01*
X18319047Y-13635511D02*
X18414285Y-13683130D01*
X18414285Y-13683130D02*
X18461904Y-13730749D01*
X18461904Y-13730749D02*
X18509523Y-13825987D01*
X18509523Y-13825987D02*
X18509523Y-14064082D01*
X18509523Y-14064082D02*
X18461904Y-14159320D01*
X18461904Y-14159320D02*
X18414285Y-14206940D01*
X18414285Y-14206940D02*
X18319047Y-14254559D01*
X18319047Y-14254559D02*
X18033333Y-14254559D01*
X18033333Y-14254559D02*
X17938095Y-14206940D01*
X17938095Y-14206940D02*
X17890476Y-14159320D01*
X9466666Y-32454559D02*
X9466666Y-33168844D01*
X9466666Y-33168844D02*
X9419047Y-33311701D01*
X9419047Y-33311701D02*
X9323809Y-33406940D01*
X9323809Y-33406940D02*
X9180952Y-33454559D01*
X9180952Y-33454559D02*
X9085714Y-33454559D01*
X9847619Y-32454559D02*
X10466666Y-32454559D01*
X10466666Y-32454559D02*
X10133333Y-32835511D01*
X10133333Y-32835511D02*
X10276190Y-32835511D01*
X10276190Y-32835511D02*
X10371428Y-32883130D01*
X10371428Y-32883130D02*
X10419047Y-32930749D01*
X10419047Y-32930749D02*
X10466666Y-33025987D01*
X10466666Y-33025987D02*
X10466666Y-33264082D01*
X10466666Y-33264082D02*
X10419047Y-33359320D01*
X10419047Y-33359320D02*
X10371428Y-33406940D01*
X10371428Y-33406940D02*
X10276190Y-33454559D01*
X10276190Y-33454559D02*
X9990476Y-33454559D01*
X9990476Y-33454559D02*
X9895238Y-33406940D01*
X9895238Y-33406940D02*
X9847619Y-33359320D01*
X10641260Y-19154559D02*
X10307927Y-18678368D01*
X10069832Y-19154559D02*
X10069832Y-18154559D01*
X10069832Y-18154559D02*
X10450784Y-18154559D01*
X10450784Y-18154559D02*
X10546022Y-18202178D01*
X10546022Y-18202178D02*
X10593641Y-18249797D01*
X10593641Y-18249797D02*
X10641260Y-18345035D01*
X10641260Y-18345035D02*
X10641260Y-18487892D01*
X10641260Y-18487892D02*
X10593641Y-18583130D01*
X10593641Y-18583130D02*
X10546022Y-18630749D01*
X10546022Y-18630749D02*
X10450784Y-18678368D01*
X10450784Y-18678368D02*
X10069832Y-18678368D01*
X11593641Y-19154559D02*
X11022213Y-19154559D01*
X11307927Y-19154559D02*
X11307927Y-18154559D01*
X11307927Y-18154559D02*
X11212689Y-18297416D01*
X11212689Y-18297416D02*
X11117451Y-18392654D01*
X11117451Y-18392654D02*
X11022213Y-18440273D01*
X12212689Y-18154559D02*
X12307927Y-18154559D01*
X12307927Y-18154559D02*
X12403165Y-18202178D01*
X12403165Y-18202178D02*
X12450784Y-18249797D01*
X12450784Y-18249797D02*
X12498403Y-18345035D01*
X12498403Y-18345035D02*
X12546022Y-18535511D01*
X12546022Y-18535511D02*
X12546022Y-18773606D01*
X12546022Y-18773606D02*
X12498403Y-18964082D01*
X12498403Y-18964082D02*
X12450784Y-19059320D01*
X12450784Y-19059320D02*
X12403165Y-19106940D01*
X12403165Y-19106940D02*
X12307927Y-19154559D01*
X12307927Y-19154559D02*
X12212689Y-19154559D01*
X12212689Y-19154559D02*
X12117451Y-19106940D01*
X12117451Y-19106940D02*
X12069832Y-19059320D01*
X12069832Y-19059320D02*
X12022213Y-18964082D01*
X12022213Y-18964082D02*
X11974594Y-18773606D01*
X11974594Y-18773606D02*
X11974594Y-18535511D01*
X11974594Y-18535511D02*
X12022213Y-18345035D01*
X12022213Y-18345035D02*
X12069832Y-18249797D01*
X12069832Y-18249797D02*
X12117451Y-18202178D01*
X12117451Y-18202178D02*
X12212689Y-18154559D01*
X11533333Y-14494890D02*
X11200000Y-14018699D01*
X10961905Y-14494890D02*
X10961905Y-13494890D01*
X10961905Y-13494890D02*
X11342857Y-13494890D01*
X11342857Y-13494890D02*
X11438095Y-13542509D01*
X11438095Y-13542509D02*
X11485714Y-13590128D01*
X11485714Y-13590128D02*
X11533333Y-13685366D01*
X11533333Y-13685366D02*
X11533333Y-13828223D01*
X11533333Y-13828223D02*
X11485714Y-13923461D01*
X11485714Y-13923461D02*
X11438095Y-13971080D01*
X11438095Y-13971080D02*
X11342857Y-14018699D01*
X11342857Y-14018699D02*
X10961905Y-14018699D01*
X12438095Y-13494890D02*
X11961905Y-13494890D01*
X11961905Y-13494890D02*
X11914286Y-13971080D01*
X11914286Y-13971080D02*
X11961905Y-13923461D01*
X11961905Y-13923461D02*
X12057143Y-13875842D01*
X12057143Y-13875842D02*
X12295238Y-13875842D01*
X12295238Y-13875842D02*
X12390476Y-13923461D01*
X12390476Y-13923461D02*
X12438095Y-13971080D01*
X12438095Y-13971080D02*
X12485714Y-14066318D01*
X12485714Y-14066318D02*
X12485714Y-14304413D01*
X12485714Y-14304413D02*
X12438095Y-14399651D01*
X12438095Y-14399651D02*
X12390476Y-14447271D01*
X12390476Y-14447271D02*
X12295238Y-14494890D01*
X12295238Y-14494890D02*
X12057143Y-14494890D01*
X12057143Y-14494890D02*
X11961905Y-14447271D01*
X11961905Y-14447271D02*
X11914286Y-14399651D01*
X32858333Y-38609320D02*
X32810714Y-38656940D01*
X32810714Y-38656940D02*
X32667857Y-38704559D01*
X32667857Y-38704559D02*
X32572619Y-38704559D01*
X32572619Y-38704559D02*
X32429762Y-38656940D01*
X32429762Y-38656940D02*
X32334524Y-38561701D01*
X32334524Y-38561701D02*
X32286905Y-38466463D01*
X32286905Y-38466463D02*
X32239286Y-38275987D01*
X32239286Y-38275987D02*
X32239286Y-38133130D01*
X32239286Y-38133130D02*
X32286905Y-37942654D01*
X32286905Y-37942654D02*
X32334524Y-37847416D01*
X32334524Y-37847416D02*
X32429762Y-37752178D01*
X32429762Y-37752178D02*
X32572619Y-37704559D01*
X32572619Y-37704559D02*
X32667857Y-37704559D01*
X32667857Y-37704559D02*
X32810714Y-37752178D01*
X32810714Y-37752178D02*
X32858333Y-37799797D01*
X33429762Y-38133130D02*
X33334524Y-38085511D01*
X33334524Y-38085511D02*
X33286905Y-38037892D01*
X33286905Y-38037892D02*
X33239286Y-37942654D01*
X33239286Y-37942654D02*
X33239286Y-37895035D01*
X33239286Y-37895035D02*
X33286905Y-37799797D01*
X33286905Y-37799797D02*
X33334524Y-37752178D01*
X33334524Y-37752178D02*
X33429762Y-37704559D01*
X33429762Y-37704559D02*
X33620238Y-37704559D01*
X33620238Y-37704559D02*
X33715476Y-37752178D01*
X33715476Y-37752178D02*
X33763095Y-37799797D01*
X33763095Y-37799797D02*
X33810714Y-37895035D01*
X33810714Y-37895035D02*
X33810714Y-37942654D01*
X33810714Y-37942654D02*
X33763095Y-38037892D01*
X33763095Y-38037892D02*
X33715476Y-38085511D01*
X33715476Y-38085511D02*
X33620238Y-38133130D01*
X33620238Y-38133130D02*
X33429762Y-38133130D01*
X33429762Y-38133130D02*
X33334524Y-38180749D01*
X33334524Y-38180749D02*
X33286905Y-38228368D01*
X33286905Y-38228368D02*
X33239286Y-38323606D01*
X33239286Y-38323606D02*
X33239286Y-38514082D01*
X33239286Y-38514082D02*
X33286905Y-38609320D01*
X33286905Y-38609320D02*
X33334524Y-38656940D01*
X33334524Y-38656940D02*
X33429762Y-38704559D01*
X33429762Y-38704559D02*
X33620238Y-38704559D01*
X33620238Y-38704559D02*
X33715476Y-38656940D01*
X33715476Y-38656940D02*
X33763095Y-38609320D01*
X33763095Y-38609320D02*
X33810714Y-38514082D01*
X33810714Y-38514082D02*
X33810714Y-38323606D01*
X33810714Y-38323606D02*
X33763095Y-38228368D01*
X33763095Y-38228368D02*
X33715476Y-38180749D01*
X33715476Y-38180749D02*
X33620238Y-38133130D01*
D12*
X52454663Y-9338094D02*
X51454663Y-9338094D01*
X51454663Y-9338094D02*
X51454663Y-9099999D01*
X51454663Y-9099999D02*
X51502282Y-8957142D01*
X51502282Y-8957142D02*
X51597520Y-8861904D01*
X51597520Y-8861904D02*
X51692758Y-8814285D01*
X51692758Y-8814285D02*
X51883234Y-8766666D01*
X51883234Y-8766666D02*
X52026091Y-8766666D01*
X52026091Y-8766666D02*
X52216567Y-8814285D01*
X52216567Y-8814285D02*
X52311805Y-8861904D01*
X52311805Y-8861904D02*
X52407044Y-8957142D01*
X52407044Y-8957142D02*
X52454663Y-9099999D01*
X52454663Y-9099999D02*
X52454663Y-9338094D01*
X51454663Y-8433332D02*
X51454663Y-7814285D01*
X51454663Y-7814285D02*
X51835615Y-8147618D01*
X51835615Y-8147618D02*
X51835615Y-8004761D01*
X51835615Y-8004761D02*
X51883234Y-7909523D01*
X51883234Y-7909523D02*
X51930853Y-7861904D01*
X51930853Y-7861904D02*
X52026091Y-7814285D01*
X52026091Y-7814285D02*
X52264186Y-7814285D01*
X52264186Y-7814285D02*
X52359424Y-7861904D01*
X52359424Y-7861904D02*
X52407044Y-7909523D01*
X52407044Y-7909523D02*
X52454663Y-8004761D01*
X52454663Y-8004761D02*
X52454663Y-8290475D01*
X52454663Y-8290475D02*
X52407044Y-8385713D01*
X52407044Y-8385713D02*
X52359424Y-8433332D01*
D10*
X1759320Y-8242857D02*
X1806940Y-8290476D01*
X1806940Y-8290476D02*
X1854559Y-8433333D01*
X1854559Y-8433333D02*
X1854559Y-8528571D01*
X1854559Y-8528571D02*
X1806940Y-8671428D01*
X1806940Y-8671428D02*
X1711701Y-8766666D01*
X1711701Y-8766666D02*
X1616463Y-8814285D01*
X1616463Y-8814285D02*
X1425987Y-8861904D01*
X1425987Y-8861904D02*
X1283130Y-8861904D01*
X1283130Y-8861904D02*
X1092654Y-8814285D01*
X1092654Y-8814285D02*
X997416Y-8766666D01*
X997416Y-8766666D02*
X902178Y-8671428D01*
X902178Y-8671428D02*
X854559Y-8528571D01*
X854559Y-8528571D02*
X854559Y-8433333D01*
X854559Y-8433333D02*
X902178Y-8290476D01*
X902178Y-8290476D02*
X949797Y-8242857D01*
X1854559Y-7290476D02*
X1854559Y-7861904D01*
X1854559Y-7576190D02*
X854559Y-7576190D01*
X854559Y-7576190D02*
X997416Y-7671428D01*
X997416Y-7671428D02*
X1092654Y-7766666D01*
X1092654Y-7766666D02*
X1140273Y-7861904D01*
X949797Y-6909523D02*
X902178Y-6861904D01*
X902178Y-6861904D02*
X854559Y-6766666D01*
X854559Y-6766666D02*
X854559Y-6528571D01*
X854559Y-6528571D02*
X902178Y-6433333D01*
X902178Y-6433333D02*
X949797Y-6385714D01*
X949797Y-6385714D02*
X1045035Y-6338095D01*
X1045035Y-6338095D02*
X1140273Y-6338095D01*
X1140273Y-6338095D02*
X1283130Y-6385714D01*
X1283130Y-6385714D02*
X1854559Y-6957142D01*
X1854559Y-6957142D02*
X1854559Y-6338095D01*
X34954559Y-19166666D02*
X34478368Y-19499999D01*
X34954559Y-19738094D02*
X33954559Y-19738094D01*
X33954559Y-19738094D02*
X33954559Y-19357142D01*
X33954559Y-19357142D02*
X34002178Y-19261904D01*
X34002178Y-19261904D02*
X34049797Y-19214285D01*
X34049797Y-19214285D02*
X34145035Y-19166666D01*
X34145035Y-19166666D02*
X34287892Y-19166666D01*
X34287892Y-19166666D02*
X34383130Y-19214285D01*
X34383130Y-19214285D02*
X34430749Y-19261904D01*
X34430749Y-19261904D02*
X34478368Y-19357142D01*
X34478368Y-19357142D02*
X34478368Y-19738094D01*
X34954559Y-18214285D02*
X34954559Y-18785713D01*
X34954559Y-18499999D02*
X33954559Y-18499999D01*
X33954559Y-18499999D02*
X34097416Y-18595237D01*
X34097416Y-18595237D02*
X34192654Y-18690475D01*
X34192654Y-18690475D02*
X34240273Y-18785713D01*
X37033333Y-25859320D02*
X36985714Y-25906940D01*
X36985714Y-25906940D02*
X36842857Y-25954559D01*
X36842857Y-25954559D02*
X36747619Y-25954559D01*
X36747619Y-25954559D02*
X36604762Y-25906940D01*
X36604762Y-25906940D02*
X36509524Y-25811701D01*
X36509524Y-25811701D02*
X36461905Y-25716463D01*
X36461905Y-25716463D02*
X36414286Y-25525987D01*
X36414286Y-25525987D02*
X36414286Y-25383130D01*
X36414286Y-25383130D02*
X36461905Y-25192654D01*
X36461905Y-25192654D02*
X36509524Y-25097416D01*
X36509524Y-25097416D02*
X36604762Y-25002178D01*
X36604762Y-25002178D02*
X36747619Y-24954559D01*
X36747619Y-24954559D02*
X36842857Y-24954559D01*
X36842857Y-24954559D02*
X36985714Y-25002178D01*
X36985714Y-25002178D02*
X37033333Y-25049797D01*
X37890476Y-25287892D02*
X37890476Y-25954559D01*
X37652381Y-24906940D02*
X37414286Y-25621225D01*
X37414286Y-25621225D02*
X38033333Y-25621225D01*
X21733333Y-14279559D02*
X21400000Y-13803368D01*
X21161905Y-14279559D02*
X21161905Y-13279559D01*
X21161905Y-13279559D02*
X21542857Y-13279559D01*
X21542857Y-13279559D02*
X21638095Y-13327178D01*
X21638095Y-13327178D02*
X21685714Y-13374797D01*
X21685714Y-13374797D02*
X21733333Y-13470035D01*
X21733333Y-13470035D02*
X21733333Y-13612892D01*
X21733333Y-13612892D02*
X21685714Y-13708130D01*
X21685714Y-13708130D02*
X21638095Y-13755749D01*
X21638095Y-13755749D02*
X21542857Y-13803368D01*
X21542857Y-13803368D02*
X21161905Y-13803368D01*
X22304762Y-13708130D02*
X22209524Y-13660511D01*
X22209524Y-13660511D02*
X22161905Y-13612892D01*
X22161905Y-13612892D02*
X22114286Y-13517654D01*
X22114286Y-13517654D02*
X22114286Y-13470035D01*
X22114286Y-13470035D02*
X22161905Y-13374797D01*
X22161905Y-13374797D02*
X22209524Y-13327178D01*
X22209524Y-13327178D02*
X22304762Y-13279559D01*
X22304762Y-13279559D02*
X22495238Y-13279559D01*
X22495238Y-13279559D02*
X22590476Y-13327178D01*
X22590476Y-13327178D02*
X22638095Y-13374797D01*
X22638095Y-13374797D02*
X22685714Y-13470035D01*
X22685714Y-13470035D02*
X22685714Y-13517654D01*
X22685714Y-13517654D02*
X22638095Y-13612892D01*
X22638095Y-13612892D02*
X22590476Y-13660511D01*
X22590476Y-13660511D02*
X22495238Y-13708130D01*
X22495238Y-13708130D02*
X22304762Y-13708130D01*
X22304762Y-13708130D02*
X22209524Y-13755749D01*
X22209524Y-13755749D02*
X22161905Y-13803368D01*
X22161905Y-13803368D02*
X22114286Y-13898606D01*
X22114286Y-13898606D02*
X22114286Y-14089082D01*
X22114286Y-14089082D02*
X22161905Y-14184320D01*
X22161905Y-14184320D02*
X22209524Y-14231940D01*
X22209524Y-14231940D02*
X22304762Y-14279559D01*
X22304762Y-14279559D02*
X22495238Y-14279559D01*
X22495238Y-14279559D02*
X22590476Y-14231940D01*
X22590476Y-14231940D02*
X22638095Y-14184320D01*
X22638095Y-14184320D02*
X22685714Y-14089082D01*
X22685714Y-14089082D02*
X22685714Y-13898606D01*
X22685714Y-13898606D02*
X22638095Y-13803368D01*
X22638095Y-13803368D02*
X22590476Y-13755749D01*
X22590476Y-13755749D02*
X22495238Y-13708130D01*
D13*
%TO.C,R9*%
X26027500Y-14837258D02*
X26027500Y-14362742D01*
X27072500Y-14837258D02*
X27072500Y-14362742D01*
%TO.C,R6*%
X14262258Y-12472831D02*
X13787742Y-12472831D01*
X14262258Y-11427831D02*
X13787742Y-11427831D01*
%TO.C,C3*%
X42213748Y-27190000D02*
X43636252Y-27190000D01*
X42213748Y-29010000D02*
X43636252Y-29010000D01*
%TO.C,D9*%
X15686618Y-17965000D02*
X15686618Y-19435000D01*
X15686618Y-19435000D02*
X17971618Y-19435000D01*
X17971618Y-17965000D02*
X15686618Y-17965000D01*
%TO.C,C5*%
X36534420Y-28190000D02*
X36815580Y-28190000D01*
X36534420Y-29210000D02*
X36815580Y-29210000D01*
%TO.C,R2*%
X31777500Y-16714564D02*
X31777500Y-16260436D01*
X33247500Y-16714564D02*
X33247500Y-16260436D01*
%TO.C,D4*%
X37890000Y-20150000D02*
X37890000Y-24450000D01*
X37890000Y-20150000D02*
X43700000Y-20150000D01*
X37890000Y-24450000D02*
X43700000Y-24450000D01*
%TO.C,D2*%
X38190000Y-16550000D02*
X38190000Y-19850000D01*
X38190000Y-16550000D02*
X43700000Y-16550000D01*
X38190000Y-19850000D02*
X43700000Y-19850000D01*
D14*
%TO.C,RV1*%
X50650000Y-16650000D02*
X45550000Y-16650000D01*
X50650000Y-16650000D02*
X50650000Y-38150000D01*
X45550000Y-16650000D02*
X45550000Y-38150000D01*
X50650000Y-38150000D02*
X45550000Y-38150000D01*
D13*
%TO.C,D6*%
X26800000Y-28440000D02*
X25000000Y-28440000D01*
X26800000Y-28440000D02*
X27600000Y-28440000D01*
X26800000Y-31560000D02*
X26000000Y-31560000D01*
X26800000Y-31560000D02*
X27600000Y-31560000D01*
%TO.C,C10*%
X19022500Y-15422164D02*
X19022500Y-15637836D01*
X18302500Y-15422164D02*
X18302500Y-15637836D01*
%TO.C,R7*%
X24087742Y-14802500D02*
X24562258Y-14802500D01*
X24087742Y-15847500D02*
X24562258Y-15847500D01*
%TO.C,U1*%
X37230000Y-29575000D02*
X37230000Y-29845000D01*
X37230000Y-29845000D02*
X34400000Y-29845000D01*
X37230000Y-36205000D02*
X36130000Y-36205000D01*
X37230000Y-36475000D02*
X37230000Y-36205000D01*
X43650000Y-29575000D02*
X37230000Y-29575000D01*
X43650000Y-36475000D02*
X37230000Y-36475000D01*
%TO.C,C1*%
X42111252Y-15010000D02*
X40688748Y-15010000D01*
X42111252Y-13190000D02*
X40688748Y-13190000D01*
%TO.C,C11*%
X9336252Y-14710000D02*
X7913748Y-14710000D01*
X9336252Y-12890000D02*
X7913748Y-12890000D01*
%TO.C,D10*%
X27460000Y-18360000D02*
X27460000Y-16140000D01*
X27460000Y-16140000D02*
X23050000Y-16140000D01*
X23050000Y-18360000D02*
X27460000Y-18360000D01*
%TO.C,R12*%
X7762742Y-11377500D02*
X8237258Y-11377500D01*
X7762742Y-12422500D02*
X8237258Y-12422500D01*
%TO.C,R11*%
X5862258Y-29122500D02*
X5387742Y-29122500D01*
X5862258Y-28077500D02*
X5387742Y-28077500D01*
%TO.C,R3*%
X33272936Y-13040000D02*
X33727064Y-13040000D01*
X33272936Y-14510000D02*
X33727064Y-14510000D01*
%TO.C,C9*%
X23340400Y-33025000D02*
X23556072Y-33025000D01*
X23340400Y-33745000D02*
X23556072Y-33745000D01*
%TO.C,J4*%
X18830000Y-34870000D02*
X18830000Y-36200000D01*
X17500000Y-34870000D02*
X18830000Y-34870000D01*
X16230000Y-34870000D02*
X3470000Y-34870000D01*
X16230000Y-34870000D02*
X16230000Y-37530000D01*
X3470000Y-34870000D02*
X3470000Y-37530000D01*
X16230000Y-37530000D02*
X3470000Y-37530000D01*
%TO.C,D8*%
X29737500Y-34090000D02*
X27937500Y-34090000D01*
X29737500Y-34090000D02*
X30537500Y-34090000D01*
X29737500Y-37210000D02*
X28937500Y-37210000D01*
X29737500Y-37210000D02*
X30537500Y-37210000D01*
%TO.C,U2*%
X22488236Y-32745000D02*
X22488236Y-32510000D01*
X22488236Y-32510000D02*
X24303236Y-32510000D01*
X22488236Y-19725000D02*
X22488236Y-19960000D01*
X18628236Y-32745000D02*
X22488236Y-32745000D01*
X18628236Y-32745000D02*
X14768236Y-32745000D01*
X18628236Y-19725000D02*
X22488236Y-19725000D01*
X18628236Y-19725000D02*
X14768236Y-19725000D01*
X14768236Y-32745000D02*
X14768236Y-32510000D01*
X14768236Y-19725000D02*
X14768236Y-19960000D01*
%TO.C,R13*%
X3462258Y-5122500D02*
X2987742Y-5122500D01*
X3462258Y-4077500D02*
X2987742Y-4077500D01*
%TO.C,D1*%
X43890000Y-12950000D02*
X43890000Y-16250000D01*
X43890000Y-12950000D02*
X49400000Y-12950000D01*
X43890000Y-16250000D02*
X49400000Y-16250000D01*
D15*
%TO.C,J1*%
X12500000Y3150000D02*
X12500000Y150000D01*
X6500000Y3150000D02*
X12500000Y3150000D01*
X14200000Y150000D02*
X12500000Y150000D01*
X12500000Y150000D02*
X11750000Y150000D01*
X11750000Y150000D02*
X11750000Y-1150000D01*
X7250000Y150000D02*
X6500000Y150000D01*
X6500000Y150000D02*
X6500000Y3150000D01*
X6500000Y150000D02*
X5200000Y150000D01*
X5200000Y150000D02*
X5200000Y-1600000D01*
X11750000Y-1150000D02*
X7250000Y-1150000D01*
X7250000Y-1150000D02*
X7250000Y150000D01*
X14200000Y-1550000D02*
X14200000Y150000D01*
X14200000Y-3950000D02*
X14200000Y-10850000D01*
X5200000Y-6850000D02*
X5200000Y-3800000D01*
X14200000Y-10850000D02*
X12200000Y-10850000D01*
X9850000Y-10850000D02*
X5200000Y-10850000D01*
X5200000Y-10850000D02*
X5200000Y-8750000D01*
D16*
X15200000Y-1350000D02*
G75*
G03*
X15200000Y-1350000I-200000J0D01*
G01*
D13*
%TO.C,C2*%
X42213748Y-24890000D02*
X43636252Y-24890000D01*
X42213748Y-26710000D02*
X43636252Y-26710000D01*
%TO.C,D7*%
X26737500Y-23490000D02*
X24937500Y-23490000D01*
X26737500Y-23490000D02*
X27537500Y-23490000D01*
X26737500Y-26610000D02*
X25937500Y-26610000D01*
X26737500Y-26610000D02*
X27537500Y-26610000D01*
%TO.C,J2*%
X47040000Y-12300000D02*
X16070000Y-12300000D01*
X47040000Y40000D02*
X47040000Y-12300000D01*
X37345000Y-13194338D02*
X36845000Y-13194338D01*
X37095000Y-12761325D02*
X37345000Y-13194338D01*
X36845000Y-13194338D02*
X37095000Y-12761325D01*
X16070000Y-12300000D02*
X16070000Y40000D01*
%TO.C,G\u002A\u002A\u002A*%
D17*
X32871780Y-20457180D02*
X32930200Y-20462260D01*
X32945440Y-20464800D01*
X32953060Y-20492740D01*
X32968300Y-20561320D01*
X32986080Y-20660380D01*
X33008940Y-20779760D01*
X33011480Y-20800080D01*
X33036880Y-20922000D01*
X33057200Y-21023600D01*
X33074980Y-21099800D01*
X33085140Y-21135360D01*
X33115620Y-21153140D01*
X33179120Y-21181080D01*
X33262940Y-21216640D01*
X33354380Y-21254740D01*
X33443280Y-21287760D01*
X33514400Y-21313160D01*
X33555040Y-21325860D01*
X33557580Y-21325860D01*
X33585520Y-21310620D01*
X33643940Y-21269980D01*
X33727760Y-21214100D01*
X33826820Y-21145520D01*
X33834440Y-21140440D01*
X33936040Y-21071860D01*
X34019860Y-21013440D01*
X34083360Y-20972800D01*
X34113840Y-20955020D01*
X34134160Y-20962640D01*
X34177340Y-20995660D01*
X34243380Y-21056620D01*
X34342440Y-21153140D01*
X34370380Y-21178540D01*
X34456740Y-21267440D01*
X34530400Y-21343640D01*
X34581200Y-21399520D01*
X34604060Y-21430000D01*
X34604060Y-21432540D01*
X34588820Y-21460480D01*
X34553260Y-21518900D01*
X34497380Y-21605260D01*
X34428800Y-21704320D01*
X34423720Y-21711940D01*
X34355140Y-21813540D01*
X34299260Y-21897360D01*
X34258620Y-21958320D01*
X34240840Y-21986260D01*
X34238300Y-21988800D01*
X34245920Y-22016740D01*
X34268780Y-22077700D01*
X34301800Y-22161520D01*
X34339900Y-22255500D01*
X34380540Y-22344400D01*
X34413560Y-22418060D01*
X34436420Y-22463780D01*
X34444040Y-22471400D01*
X34471980Y-22481560D01*
X34543100Y-22496800D01*
X34642160Y-22517120D01*
X34759000Y-22539980D01*
X34766620Y-22542520D01*
X34886000Y-22565380D01*
X34985060Y-22583160D01*
X35056180Y-22598400D01*
X35086660Y-22606020D01*
X35091740Y-22633960D01*
X35094280Y-22700000D01*
X35096820Y-22806680D01*
X35099360Y-22936220D01*
X35099360Y-22951460D01*
X35099360Y-23091160D01*
X35096820Y-23185140D01*
X35094280Y-23246100D01*
X35091740Y-23279120D01*
X35084120Y-23294360D01*
X35076500Y-23299440D01*
X35043480Y-23307060D01*
X34972360Y-23319760D01*
X34873300Y-23340080D01*
X34761540Y-23360400D01*
X34647240Y-23380720D01*
X34550720Y-23401040D01*
X34482140Y-23416280D01*
X34456740Y-23426440D01*
X34441500Y-23454380D01*
X34413560Y-23520420D01*
X34375460Y-23609320D01*
X34344980Y-23685520D01*
X34248460Y-23929360D01*
X34426260Y-24188440D01*
X34494840Y-24287500D01*
X34550720Y-24373860D01*
X34588820Y-24434820D01*
X34604060Y-24465300D01*
X34586280Y-24488160D01*
X34540560Y-24538960D01*
X34471980Y-24612620D01*
X34385620Y-24698980D01*
X34370380Y-24714220D01*
X34266240Y-24818360D01*
X34192580Y-24886940D01*
X34144320Y-24927580D01*
X34118920Y-24942820D01*
X34113840Y-24942820D01*
X34083360Y-24925040D01*
X34022400Y-24886940D01*
X33938580Y-24831060D01*
X33847140Y-24767560D01*
X33750620Y-24704060D01*
X33669340Y-24650720D01*
X33616000Y-24615160D01*
X33593140Y-24602460D01*
X33567740Y-24612620D01*
X33509320Y-24640560D01*
X33461060Y-24665960D01*
X33384860Y-24701520D01*
X33344220Y-24716760D01*
X33323900Y-24714220D01*
X33323900Y-24711680D01*
X33311200Y-24683740D01*
X33280720Y-24617700D01*
X33237540Y-24516100D01*
X33184200Y-24389100D01*
X33123240Y-24241780D01*
X33087680Y-24157960D01*
X32864160Y-23619480D01*
X32894640Y-23594080D01*
X32935280Y-23563600D01*
X32993700Y-23517880D01*
X33008940Y-23507720D01*
X33138480Y-23383260D01*
X33232460Y-23233400D01*
X33283260Y-23063220D01*
X33290880Y-22887960D01*
X33285800Y-22847320D01*
X33237540Y-22689840D01*
X33151180Y-22539980D01*
X33087680Y-22468860D01*
X32940360Y-22357100D01*
X32772720Y-22291060D01*
X32600000Y-22270740D01*
X32419660Y-22293600D01*
X32257100Y-22362180D01*
X32117400Y-22471400D01*
X32003100Y-22618720D01*
X31937060Y-22781280D01*
X31916740Y-22951460D01*
X31939600Y-23136880D01*
X32010720Y-23301980D01*
X32127560Y-23446760D01*
X32246940Y-23543280D01*
X32300280Y-23583920D01*
X32333300Y-23614400D01*
X32335840Y-23622020D01*
X32325680Y-23649960D01*
X32300280Y-23718540D01*
X32259640Y-23815060D01*
X32211380Y-23934440D01*
X32155500Y-24069060D01*
X32097080Y-24208760D01*
X32041200Y-24343380D01*
X31985320Y-24470380D01*
X31939600Y-24579600D01*
X31904040Y-24660880D01*
X31881180Y-24709140D01*
X31876100Y-24719300D01*
X31843080Y-24711680D01*
X31782120Y-24686280D01*
X31741480Y-24665960D01*
X31672900Y-24630400D01*
X31627180Y-24607540D01*
X31614480Y-24602460D01*
X31589080Y-24615160D01*
X31533200Y-24653260D01*
X31451920Y-24706600D01*
X31352860Y-24772640D01*
X31253800Y-24838680D01*
X31169980Y-24894560D01*
X31111560Y-24930120D01*
X31086160Y-24945360D01*
X31063300Y-24927580D01*
X31009960Y-24881860D01*
X30936300Y-24813280D01*
X30849940Y-24729460D01*
X30832160Y-24711680D01*
X30720400Y-24602460D01*
X30646740Y-24526260D01*
X30608640Y-24478000D01*
X30598480Y-24460220D01*
X30616260Y-24432280D01*
X30654360Y-24371320D01*
X30712780Y-24287500D01*
X30778820Y-24190980D01*
X30847400Y-24091920D01*
X30900740Y-24010640D01*
X30938840Y-23952220D01*
X30951540Y-23924280D01*
X30941380Y-23891260D01*
X30918520Y-23825220D01*
X30882960Y-23736320D01*
X30844860Y-23642340D01*
X30804220Y-23550900D01*
X30768660Y-23474700D01*
X30745800Y-23426440D01*
X30735640Y-23416280D01*
X30705160Y-23408660D01*
X30634040Y-23395960D01*
X30534980Y-23375640D01*
X30438460Y-23357860D01*
X30321620Y-23337540D01*
X30225100Y-23317220D01*
X30156520Y-23301980D01*
X30128580Y-23294360D01*
X30100640Y-23281660D01*
X30108260Y-22606020D01*
X30291140Y-22570460D01*
X30410520Y-22547600D01*
X30532440Y-22524740D01*
X30621340Y-22506960D01*
X30766120Y-22479020D01*
X30865180Y-22258040D01*
X30905820Y-22158980D01*
X30941380Y-22075160D01*
X30959160Y-22019280D01*
X30964240Y-22006580D01*
X30949000Y-21973560D01*
X30910900Y-21907520D01*
X30849940Y-21813540D01*
X30794060Y-21729720D01*
X30725480Y-21630660D01*
X30667060Y-21544300D01*
X30626420Y-21483340D01*
X30608640Y-21455400D01*
X30606100Y-21440160D01*
X30613720Y-21419840D01*
X30641660Y-21386820D01*
X30689920Y-21333480D01*
X30768660Y-21254740D01*
X30832160Y-21188700D01*
X30921060Y-21102340D01*
X30997260Y-21028680D01*
X31053140Y-20975340D01*
X31081080Y-20949940D01*
X31083620Y-20949940D01*
X31106480Y-20962640D01*
X31164900Y-21000740D01*
X31246180Y-21056620D01*
X31347780Y-21125200D01*
X31373180Y-21142980D01*
X31655120Y-21333480D01*
X31883720Y-21242040D01*
X31982780Y-21201400D01*
X32061520Y-21168380D01*
X32109780Y-21148060D01*
X32122480Y-21142980D01*
X32130100Y-21115040D01*
X32142800Y-21049000D01*
X32163120Y-20949940D01*
X32185980Y-20833100D01*
X32191060Y-20810240D01*
X32213920Y-20688320D01*
X32234240Y-20584180D01*
X32252020Y-20510520D01*
X32262180Y-20472420D01*
X32262180Y-20469880D01*
X32290120Y-20464800D01*
X32358700Y-20459720D01*
X32452680Y-20457180D01*
X32561900Y-20454640D01*
X32673660Y-20454640D01*
X32782880Y-20454640D01*
X32871780Y-20457180D01*
G36*
X32871780Y-20457180D02*
G01*
X32930200Y-20462260D01*
X32945440Y-20464800D01*
X32953060Y-20492740D01*
X32968300Y-20561320D01*
X32986080Y-20660380D01*
X33008940Y-20779760D01*
X33011480Y-20800080D01*
X33036880Y-20922000D01*
X33057200Y-21023600D01*
X33074980Y-21099800D01*
X33085140Y-21135360D01*
X33115620Y-21153140D01*
X33179120Y-21181080D01*
X33262940Y-21216640D01*
X33354380Y-21254740D01*
X33443280Y-21287760D01*
X33514400Y-21313160D01*
X33555040Y-21325860D01*
X33557580Y-21325860D01*
X33585520Y-21310620D01*
X33643940Y-21269980D01*
X33727760Y-21214100D01*
X33826820Y-21145520D01*
X33834440Y-21140440D01*
X33936040Y-21071860D01*
X34019860Y-21013440D01*
X34083360Y-20972800D01*
X34113840Y-20955020D01*
X34134160Y-20962640D01*
X34177340Y-20995660D01*
X34243380Y-21056620D01*
X34342440Y-21153140D01*
X34370380Y-21178540D01*
X34456740Y-21267440D01*
X34530400Y-21343640D01*
X34581200Y-21399520D01*
X34604060Y-21430000D01*
X34604060Y-21432540D01*
X34588820Y-21460480D01*
X34553260Y-21518900D01*
X34497380Y-21605260D01*
X34428800Y-21704320D01*
X34423720Y-21711940D01*
X34355140Y-21813540D01*
X34299260Y-21897360D01*
X34258620Y-21958320D01*
X34240840Y-21986260D01*
X34238300Y-21988800D01*
X34245920Y-22016740D01*
X34268780Y-22077700D01*
X34301800Y-22161520D01*
X34339900Y-22255500D01*
X34380540Y-22344400D01*
X34413560Y-22418060D01*
X34436420Y-22463780D01*
X34444040Y-22471400D01*
X34471980Y-22481560D01*
X34543100Y-22496800D01*
X34642160Y-22517120D01*
X34759000Y-22539980D01*
X34766620Y-22542520D01*
X34886000Y-22565380D01*
X34985060Y-22583160D01*
X35056180Y-22598400D01*
X35086660Y-22606020D01*
X35091740Y-22633960D01*
X35094280Y-22700000D01*
X35096820Y-22806680D01*
X35099360Y-22936220D01*
X35099360Y-22951460D01*
X35099360Y-23091160D01*
X35096820Y-23185140D01*
X35094280Y-23246100D01*
X35091740Y-23279120D01*
X35084120Y-23294360D01*
X35076500Y-23299440D01*
X35043480Y-23307060D01*
X34972360Y-23319760D01*
X34873300Y-23340080D01*
X34761540Y-23360400D01*
X34647240Y-23380720D01*
X34550720Y-23401040D01*
X34482140Y-23416280D01*
X34456740Y-23426440D01*
X34441500Y-23454380D01*
X34413560Y-23520420D01*
X34375460Y-23609320D01*
X34344980Y-23685520D01*
X34248460Y-23929360D01*
X34426260Y-24188440D01*
X34494840Y-24287500D01*
X34550720Y-24373860D01*
X34588820Y-24434820D01*
X34604060Y-24465300D01*
X34586280Y-24488160D01*
X34540560Y-24538960D01*
X34471980Y-24612620D01*
X34385620Y-24698980D01*
X34370380Y-24714220D01*
X34266240Y-24818360D01*
X34192580Y-24886940D01*
X34144320Y-24927580D01*
X34118920Y-24942820D01*
X34113840Y-24942820D01*
X34083360Y-24925040D01*
X34022400Y-24886940D01*
X33938580Y-24831060D01*
X33847140Y-24767560D01*
X33750620Y-24704060D01*
X33669340Y-24650720D01*
X33616000Y-24615160D01*
X33593140Y-24602460D01*
X33567740Y-24612620D01*
X33509320Y-24640560D01*
X33461060Y-24665960D01*
X33384860Y-24701520D01*
X33344220Y-24716760D01*
X33323900Y-24714220D01*
X33323900Y-24711680D01*
X33311200Y-24683740D01*
X33280720Y-24617700D01*
X33237540Y-24516100D01*
X33184200Y-24389100D01*
X33123240Y-24241780D01*
X33087680Y-24157960D01*
X32864160Y-23619480D01*
X32894640Y-23594080D01*
X32935280Y-23563600D01*
X32993700Y-23517880D01*
X33008940Y-23507720D01*
X33138480Y-23383260D01*
X33232460Y-23233400D01*
X33283260Y-23063220D01*
X33290880Y-22887960D01*
X33285800Y-22847320D01*
X33237540Y-22689840D01*
X33151180Y-22539980D01*
X33087680Y-22468860D01*
X32940360Y-22357100D01*
X32772720Y-22291060D01*
X32600000Y-22270740D01*
X32419660Y-22293600D01*
X32257100Y-22362180D01*
X32117400Y-22471400D01*
X32003100Y-22618720D01*
X31937060Y-22781280D01*
X31916740Y-22951460D01*
X31939600Y-23136880D01*
X32010720Y-23301980D01*
X32127560Y-23446760D01*
X32246940Y-23543280D01*
X32300280Y-23583920D01*
X32333300Y-23614400D01*
X32335840Y-23622020D01*
X32325680Y-23649960D01*
X32300280Y-23718540D01*
X32259640Y-23815060D01*
X32211380Y-23934440D01*
X32155500Y-24069060D01*
X32097080Y-24208760D01*
X32041200Y-24343380D01*
X31985320Y-24470380D01*
X31939600Y-24579600D01*
X31904040Y-24660880D01*
X31881180Y-24709140D01*
X31876100Y-24719300D01*
X31843080Y-24711680D01*
X31782120Y-24686280D01*
X31741480Y-24665960D01*
X31672900Y-24630400D01*
X31627180Y-24607540D01*
X31614480Y-24602460D01*
X31589080Y-24615160D01*
X31533200Y-24653260D01*
X31451920Y-24706600D01*
X31352860Y-24772640D01*
X31253800Y-24838680D01*
X31169980Y-24894560D01*
X31111560Y-24930120D01*
X31086160Y-24945360D01*
X31063300Y-24927580D01*
X31009960Y-24881860D01*
X30936300Y-24813280D01*
X30849940Y-24729460D01*
X30832160Y-24711680D01*
X30720400Y-24602460D01*
X30646740Y-24526260D01*
X30608640Y-24478000D01*
X30598480Y-24460220D01*
X30616260Y-24432280D01*
X30654360Y-24371320D01*
X30712780Y-24287500D01*
X30778820Y-24190980D01*
X30847400Y-24091920D01*
X30900740Y-24010640D01*
X30938840Y-23952220D01*
X30951540Y-23924280D01*
X30941380Y-23891260D01*
X30918520Y-23825220D01*
X30882960Y-23736320D01*
X30844860Y-23642340D01*
X30804220Y-23550900D01*
X30768660Y-23474700D01*
X30745800Y-23426440D01*
X30735640Y-23416280D01*
X30705160Y-23408660D01*
X30634040Y-23395960D01*
X30534980Y-23375640D01*
X30438460Y-23357860D01*
X30321620Y-23337540D01*
X30225100Y-23317220D01*
X30156520Y-23301980D01*
X30128580Y-23294360D01*
X30100640Y-23281660D01*
X30108260Y-22606020D01*
X30291140Y-22570460D01*
X30410520Y-22547600D01*
X30532440Y-22524740D01*
X30621340Y-22506960D01*
X30766120Y-22479020D01*
X30865180Y-22258040D01*
X30905820Y-22158980D01*
X30941380Y-22075160D01*
X30959160Y-22019280D01*
X30964240Y-22006580D01*
X30949000Y-21973560D01*
X30910900Y-21907520D01*
X30849940Y-21813540D01*
X30794060Y-21729720D01*
X30725480Y-21630660D01*
X30667060Y-21544300D01*
X30626420Y-21483340D01*
X30608640Y-21455400D01*
X30606100Y-21440160D01*
X30613720Y-21419840D01*
X30641660Y-21386820D01*
X30689920Y-21333480D01*
X30768660Y-21254740D01*
X30832160Y-21188700D01*
X30921060Y-21102340D01*
X30997260Y-21028680D01*
X31053140Y-20975340D01*
X31081080Y-20949940D01*
X31083620Y-20949940D01*
X31106480Y-20962640D01*
X31164900Y-21000740D01*
X31246180Y-21056620D01*
X31347780Y-21125200D01*
X31373180Y-21142980D01*
X31655120Y-21333480D01*
X31883720Y-21242040D01*
X31982780Y-21201400D01*
X32061520Y-21168380D01*
X32109780Y-21148060D01*
X32122480Y-21142980D01*
X32130100Y-21115040D01*
X32142800Y-21049000D01*
X32163120Y-20949940D01*
X32185980Y-20833100D01*
X32191060Y-20810240D01*
X32213920Y-20688320D01*
X32234240Y-20584180D01*
X32252020Y-20510520D01*
X32262180Y-20472420D01*
X32262180Y-20469880D01*
X32290120Y-20464800D01*
X32358700Y-20459720D01*
X32452680Y-20457180D01*
X32561900Y-20454640D01*
X32673660Y-20454640D01*
X32782880Y-20454640D01*
X32871780Y-20457180D01*
G37*
D13*
%TO.C,C7*%
X32090000Y-31436252D02*
X32090000Y-30013748D01*
X33910000Y-31436252D02*
X33910000Y-30013748D01*
%TO.C,C6*%
X35984420Y-36790000D02*
X36265580Y-36790000D01*
X35984420Y-37810000D02*
X36265580Y-37810000D01*
%TO.C,R4*%
X35690000Y-16712258D02*
X35690000Y-16237742D01*
X36735000Y-16712258D02*
X36735000Y-16237742D01*
%TO.C,U3*%
X16062500Y-14490000D02*
X14262500Y-14490000D01*
X16062500Y-14490000D02*
X16862500Y-14490000D01*
X16062500Y-17610000D02*
X15262500Y-17610000D01*
X16062500Y-17610000D02*
X16862500Y-17610000D01*
%TO.C,J3*%
X11180000Y-29870000D02*
X11180000Y-31200000D01*
X9850000Y-29870000D02*
X11180000Y-29870000D01*
X8580000Y-29870000D02*
X3440000Y-29870000D01*
X8580000Y-29870000D02*
X8580000Y-32530000D01*
X3440000Y-29870000D02*
X3440000Y-32530000D01*
X8580000Y-32530000D02*
X3440000Y-32530000D01*
%TO.C,R10*%
X14396376Y-19222500D02*
X13921860Y-19222500D01*
X14396376Y-18177500D02*
X13921860Y-18177500D01*
%TO.C,R5*%
X14262258Y-13962831D02*
X13787742Y-13962831D01*
X14262258Y-12917831D02*
X13787742Y-12917831D01*
%TO.C,C8*%
X33910000Y-34663748D02*
X33910000Y-36086252D01*
X32090000Y-34663748D02*
X32090000Y-36086252D01*
%TO.C,D3*%
X51045000Y-5099669D02*
X47745000Y-5099669D01*
X51045000Y-5099669D02*
X51045000Y-10609669D01*
X47745000Y-5099669D02*
X47745000Y-10609669D01*
%TO.C,C12*%
X2290000Y-8386252D02*
X2290000Y-6963748D01*
X4110000Y-8386252D02*
X4110000Y-6963748D01*
%TO.C,R1*%
X33677500Y-16714564D02*
X33677500Y-16260436D01*
X35147500Y-16714564D02*
X35147500Y-16260436D01*
%TO.C,C4*%
X38490000Y-27636252D02*
X38490000Y-26213748D01*
X40310000Y-27636252D02*
X40310000Y-26213748D01*
%TO.C,R8*%
X24087742Y-13302500D02*
X24562258Y-13302500D01*
X24087742Y-14347500D02*
X24562258Y-14347500D01*
%TD*%
%LPC*%
D18*
%TO.C,R9*%
X26550000Y-15425000D03*
X26550000Y-13775000D03*
%TD*%
D19*
%TO.C,R6*%
X14850000Y-11950331D03*
X13200000Y-11950331D03*
%TD*%
D20*
%TO.C,C3*%
X41450000Y-28100000D03*
X44400000Y-28100000D03*
%TD*%
D21*
%TO.C,D9*%
X16384118Y-18700000D03*
X17959118Y-18700000D03*
%TD*%
D22*
%TO.C,C5*%
X35900000Y-28700000D03*
X37450000Y-28700000D03*
%TD*%
D23*
%TO.C,R2*%
X32512500Y-17400000D03*
X32512500Y-15575000D03*
%TD*%
D24*
%TO.C,D4*%
X39400000Y-22300000D03*
X43700000Y-22300000D03*
%TD*%
D25*
%TO.C,D2*%
X39700000Y-18200000D03*
X43700000Y-18200000D03*
%TD*%
D26*
%TO.C,RV1*%
X49175000Y-22400000D03*
X47025000Y-32400000D03*
%TD*%
D27*
%TO.C,D6*%
X25662500Y-29050000D03*
X25662500Y-30950000D03*
X27937500Y-30000000D03*
%TD*%
D28*
%TO.C,C10*%
X18662500Y-15050000D03*
X18662500Y-16010000D03*
%TD*%
D29*
%TO.C,R7*%
X23500000Y-15325000D03*
X25150000Y-15325000D03*
%TD*%
D30*
%TO.C,U1*%
X35500000Y-30745000D03*
X35500000Y-33025000D03*
D31*
X41800000Y-33025000D03*
D30*
X35500000Y-35305000D03*
%TD*%
D32*
%TO.C,C1*%
X42875000Y-14100000D03*
X39925000Y-14100000D03*
%TD*%
%TO.C,C11*%
X10100000Y-13800000D03*
X7150000Y-13800000D03*
%TD*%
D33*
%TO.C,D10*%
X26550000Y-17250000D03*
X23050000Y-17250000D03*
%TD*%
D29*
%TO.C,R12*%
X7175000Y-11900000D03*
X8825000Y-11900000D03*
%TD*%
D19*
%TO.C,R11*%
X6450000Y-28600000D03*
X4800000Y-28600000D03*
%TD*%
D34*
%TO.C,R3*%
X32587500Y-13775000D03*
X34412500Y-13775000D03*
%TD*%
D35*
%TO.C,C9*%
X22968236Y-33385000D03*
X23928236Y-33385000D03*
%TD*%
D36*
%TO.C,J4*%
X17500000Y-36200000D03*
D37*
X14960000Y-36200000D03*
X12420000Y-36200000D03*
X9880000Y-36200000D03*
X7340000Y-36200000D03*
X4800000Y-36200000D03*
%TD*%
D27*
%TO.C,D8*%
X28600000Y-34700000D03*
X28600000Y-36600000D03*
X30875000Y-35650000D03*
%TD*%
D38*
%TO.C,U2*%
X23278236Y-31950000D03*
X23278236Y-30680000D03*
X23278236Y-29410000D03*
X23278236Y-28140000D03*
X23278236Y-26870000D03*
X23278236Y-25600000D03*
X23278236Y-24330000D03*
X23278236Y-23060000D03*
X23278236Y-21790000D03*
X23278236Y-20520000D03*
X13978236Y-20520000D03*
X13978236Y-21790000D03*
X13978236Y-23060000D03*
X13978236Y-24330000D03*
X13978236Y-25600000D03*
X13978236Y-26870000D03*
X13978236Y-28140000D03*
X13978236Y-29410000D03*
X13978236Y-30680000D03*
X13978236Y-31950000D03*
%TD*%
D19*
%TO.C,R13*%
X4050000Y-4600000D03*
X2400000Y-4600000D03*
%TD*%
D25*
%TO.C,D1*%
X45400000Y-14600000D03*
X49400000Y-14600000D03*
%TD*%
D39*
%TO.C,J1*%
X9500000Y-2750000D03*
X9500000Y-7750000D03*
D40*
X14300000Y-2750000D03*
D41*
X5900000Y-7750000D03*
X11100000Y-10850000D03*
X5000000Y-2750000D03*
%TD*%
D20*
%TO.C,C2*%
X41450000Y-25800000D03*
X44400000Y-25800000D03*
%TD*%
D27*
%TO.C,D7*%
X25600000Y-24100000D03*
X25600000Y-26000000D03*
X27875000Y-25050000D03*
%TD*%
D42*
%TO.C,J2*%
X44055000Y-9020000D03*
X19055000Y-9020000D03*
D43*
X37095000Y-10440000D03*
D44*
X34325000Y-10440000D03*
X31555000Y-10440000D03*
X28785000Y-10440000D03*
X26015000Y-10440000D03*
X35710000Y-7600000D03*
X32940000Y-7600000D03*
X30170000Y-7600000D03*
X27400000Y-7600000D03*
%TD*%
D45*
%TO.C,C7*%
X33000000Y-32200000D03*
X33000000Y-29250000D03*
%TD*%
D22*
%TO.C,C6*%
X35350000Y-37300000D03*
X36900000Y-37300000D03*
%TD*%
D18*
%TO.C,R4*%
X36212500Y-17300000D03*
X36212500Y-15650000D03*
%TD*%
D27*
%TO.C,U3*%
X14925000Y-15100000D03*
X14925000Y-16050000D03*
X14925000Y-17000000D03*
X17200000Y-17000000D03*
X17200000Y-15100000D03*
%TD*%
D36*
%TO.C,J3*%
X9850000Y-31200000D03*
D37*
X7310000Y-31200000D03*
X4770000Y-31200000D03*
%TD*%
D19*
%TO.C,R10*%
X14984118Y-18700000D03*
X13334118Y-18700000D03*
%TD*%
%TO.C,R5*%
X14850000Y-13440331D03*
X13200000Y-13440331D03*
%TD*%
D46*
%TO.C,C8*%
X33000000Y-33900000D03*
X33000000Y-36850000D03*
%TD*%
D47*
%TO.C,D3*%
X49395000Y-6609669D03*
X49395000Y-10609669D03*
%TD*%
D45*
%TO.C,C12*%
X3200000Y-9150000D03*
X3200000Y-6200000D03*
%TD*%
D23*
%TO.C,R1*%
X34412500Y-17400000D03*
X34412500Y-15575000D03*
%TD*%
D45*
%TO.C,C4*%
X39400000Y-28400000D03*
X39400000Y-25450000D03*
%TD*%
D29*
%TO.C,R8*%
X23500000Y-13825000D03*
X25150000Y-13825000D03*
%TD*%
%LPD*%
M02*
