%TF.GenerationSoftware,KiCad,Pcbnew,7.0.7-7.0.7~ubuntu22.04.1*%
%TF.CreationDate,2023-09-02T15:09:26-04:00*%
%TF.ProjectId,avclan-mockingboard-rounded,6176636c-616e-42d6-9d6f-636b696e6762,rev?*%
%TF.SameCoordinates,Original*%
%TF.FileFunction,Copper,L4,Bot*%
%TF.FilePolarity,Positive*%
%FSLAX46Y46*%
G04 Gerber Fmt 4.6, Leading zero omitted, Abs format (unit mm)*
G04 Created by KiCad (PCBNEW 7.0.7-7.0.7~ubuntu22.04.1) date 2023-09-02 15:09:26*
%MOMM*%
%LPD*%
G01*
G04 APERTURE LIST*
%TA.AperFunction,ComponentPad*%
%ADD10C,2.000000*%
%TD*%
%TA.AperFunction,ComponentPad*%
%ADD11R,1.700000X1.700000*%
%TD*%
%TA.AperFunction,ComponentPad*%
%ADD12O,1.700000X1.700000*%
%TD*%
%TA.AperFunction,ComponentPad*%
%ADD13R,1.650000X1.650000*%
%TD*%
%TA.AperFunction,ComponentPad*%
%ADD14C,1.650000*%
%TD*%
%TA.AperFunction,ComponentPad*%
%ADD15C,4.000000*%
%TD*%
%TA.AperFunction,ComponentPad*%
%ADD16R,1.600000X1.600000*%
%TD*%
%TA.AperFunction,ComponentPad*%
%ADD17C,1.600000*%
%TD*%
%TA.AperFunction,ViaPad*%
%ADD18C,0.800000*%
%TD*%
%TA.AperFunction,Conductor*%
%ADD19C,0.500000*%
%TD*%
%TA.AperFunction,Conductor*%
%ADD20C,0.750000*%
%TD*%
G04 APERTURE END LIST*
D10*
%TO.P,RV1,1*%
%TO.N,+12V*%
X49175000Y-22400000D03*
%TO.P,RV1,2*%
%TO.N,GND*%
X47025000Y-32400000D03*
%TD*%
D11*
%TO.P,J4,1,Pin_1*%
%TO.N,GND*%
X17500000Y-36200000D03*
D12*
%TO.P,J4,2,Pin_2*%
%TO.N,CTS*%
X14960000Y-36200000D03*
%TO.P,J4,3,Pin_3*%
%TO.N,SERIAL_PWR*%
X12420000Y-36200000D03*
%TO.P,J4,4,Pin_4*%
%TO.N,TxD*%
X9880000Y-36200000D03*
%TO.P,J4,5,Pin_5*%
%TO.N,RxD*%
X7340000Y-36200000D03*
%TO.P,J4,6,Pin_6*%
%TO.N,RTS*%
X4800000Y-36200000D03*
%TD*%
D13*
%TO.P,J1,1,S*%
%TO.N,Net-(J1-S)*%
X14300000Y-2750000D03*
D14*
%TO.P,J1,2,T*%
%TO.N,AUDIO_L*%
X5900000Y-7750000D03*
%TO.P,J1,3,R1*%
%TO.N,AUDIO_R*%
X11100000Y-10850000D03*
%TO.P,J1,4,R2*%
%TO.N,GND*%
X5000000Y-2750000D03*
%TD*%
D15*
%TO.P,J2,0*%
%TO.N,N/C*%
X44055000Y-9020000D03*
X19055000Y-9020000D03*
D16*
%TO.P,J2,1,BAT*%
%TO.N,+12V*%
X37095000Y-10440000D03*
D17*
%TO.P,J2,2,BUS+*%
%TO.N,AVCLAN_BUS_TX+*%
X34325000Y-10440000D03*
%TO.P,J2,3,L+*%
%TO.N,GND*%
X31555000Y-10440000D03*
%TO.P,J2,4,R+*%
X28785000Y-10440000D03*
%TO.P,J2,5,GND*%
%TO.N,/AUDIO-R*%
X26015000Y-10440000D03*
%TO.P,J2,6,IGN/ACC*%
%TO.N,Net-(J2-IGN{slash}ACC)*%
X35710000Y-7600000D03*
%TO.P,J2,7,BUS-*%
%TO.N,AVCLAN_BUS_TX-*%
X32940000Y-7600000D03*
%TO.P,J2,8,L-*%
%TO.N,GND*%
X30170000Y-7600000D03*
%TO.P,J2,9,R-*%
%TO.N,/AUDIO-L*%
X27400000Y-7600000D03*
%TD*%
D11*
%TO.P,J3,1,Pin_1*%
%TO.N,UPDI_PWR*%
X9850000Y-31200000D03*
D12*
%TO.P,J3,2,Pin_2*%
%TO.N,GND*%
X7310000Y-31200000D03*
%TO.P,J3,3,Pin_3*%
%TO.N,Net-(J3-Pin_3)*%
X4770000Y-31200000D03*
%TD*%
D18*
%TO.N,GND*%
X24500000Y-7300000D03*
X10250000Y-6100000D03*
X13950000Y-9850000D03*
X51500000Y-19500000D03*
X37750000Y-25500000D03*
X6000000Y-1000000D03*
X25000000Y-33100000D03*
X15500000Y-6050000D03*
X45500000Y-37500000D03*
X51500000Y-1500000D03*
X51500000Y-28500000D03*
X12300000Y-32000000D03*
X19537500Y-16150000D03*
X13200000Y-32900000D03*
X12400000Y-12700000D03*
X51500000Y-10500000D03*
X45750000Y-28250000D03*
X26000000Y-12500000D03*
X47000000Y-12250000D03*
X47800000Y-6600000D03*
X41800000Y-36500000D03*
X38250000Y-37500000D03*
X41775000Y-29800000D03*
X6200000Y-10300000D03*
X45475000Y-33100000D03*
X1500000Y-9000000D03*
X44500000Y-1000000D03*
X37500000Y-8500000D03*
X45750000Y-25750000D03*
X37000000Y-1000000D03*
X43500000Y-36500000D03*
X30800000Y-37500000D03*
X37675000Y-33050000D03*
X30000000Y-1000000D03*
X45475000Y-34550000D03*
X45475000Y-31450000D03*
X49400000Y-4800000D03*
X1500000Y-16500000D03*
X33000000Y-28000000D03*
X13000000Y-1000000D03*
X20000000Y-1000000D03*
X51000000Y-6600000D03*
X40100000Y-36500000D03*
X37250000Y-20500000D03*
X13500000Y-16300000D03*
X37975000Y-34550000D03*
X30600000Y-31400000D03*
X51500000Y-37500000D03*
X1500000Y-1500000D03*
X18000000Y-12500000D03*
X31000000Y-27200000D03*
X38700000Y-15300000D03*
X40075000Y-29800000D03*
X37975000Y-31450000D03*
X43475000Y-29550000D03*
%TO.N,+5V*%
X26800000Y-31950000D03*
X19500000Y-15050000D03*
%TO.N,UPDI_PWR*%
X27300000Y-34750000D03*
%TO.N,Net-(J1-S)*%
X14300000Y-8800000D03*
%TD*%
D19*
%TO.N,Net-(J1-S)*%
X14322510Y-2532179D02*
G75*
G03*
X14300000Y-2586488I54290J-54321D01*
G01*
D20*
%TO.N,UPDI_PWR*%
X11174990Y-33275010D02*
G75*
G03*
X14373832Y-34600000I3198810J3198810D01*
G01*
X9849992Y-31575000D02*
G75*
G03*
X10115166Y-32215164I905308J0D01*
G01*
X27224990Y-34675010D02*
G75*
G03*
X27043933Y-34600000I-181090J-181090D01*
G01*
D19*
%TO.N,+5V*%
X26799998Y-24464381D02*
G75*
G03*
X25206207Y-20616625I-5441598J-19D01*
G01*
X19678688Y-15089142D02*
G75*
G03*
X19463541Y-15000000I-215188J-215158D01*
G01*
X26800000Y-24464381D02*
X26800000Y-31950000D01*
X19463541Y-15000000D02*
X19337500Y-15000000D01*
X25206207Y-20616625D02*
X19678706Y-15089124D01*
D20*
%TO.N,UPDI_PWR*%
X14373832Y-34600000D02*
X27043933Y-34600000D01*
X11175000Y-33275000D02*
X10115165Y-32215165D01*
X27300000Y-34750000D02*
X27225000Y-34675000D01*
X9850000Y-31575000D02*
X9850000Y-31200000D01*
D19*
%TO.N,Net-(J1-S)*%
X14300000Y-8800000D02*
X14300000Y-2586488D01*
X14322500Y-2532169D02*
X14345000Y-2509669D01*
%TD*%
%TA.AperFunction,Conductor*%
%TO.N,GND*%
G36*
X6641621Y-320502D02*
G01*
X6688114Y-374158D01*
X6699500Y-426500D01*
X6699500Y-1440507D01*
X6696514Y-1461911D01*
X6695598Y-1471792D01*
X6697841Y-1495997D01*
X6699231Y-1510994D01*
X6699500Y-1516799D01*
X6699500Y-1527846D01*
X6701529Y-1538706D01*
X6702332Y-1544463D01*
X6705964Y-1583661D01*
X6708666Y-1593157D01*
X6711363Y-1601204D01*
X6714940Y-1610435D01*
X6735660Y-1643900D01*
X6738493Y-1648985D01*
X6756041Y-1684226D01*
X6756042Y-1684228D01*
X6756043Y-1684229D01*
X6762034Y-1692161D01*
X6767397Y-1698621D01*
X6774081Y-1705952D01*
X6805503Y-1729680D01*
X6809967Y-1733388D01*
X6839067Y-1759916D01*
X6839068Y-1759916D01*
X6847517Y-1765147D01*
X6854832Y-1769222D01*
X6863734Y-1773654D01*
X6863736Y-1773656D01*
X6880947Y-1778552D01*
X6901600Y-1784429D01*
X6907110Y-1786275D01*
X6943827Y-1800500D01*
X6943830Y-1800501D01*
X6953572Y-1802322D01*
X6961911Y-1803485D01*
X6971791Y-1804401D01*
X6971792Y-1804400D01*
X6971793Y-1804401D01*
X6981678Y-1803485D01*
X7010995Y-1800769D01*
X7016811Y-1800500D01*
X9061638Y-1800500D01*
X9129759Y-1820502D01*
X9176252Y-1874158D01*
X9186356Y-1944432D01*
X9156862Y-2009012D01*
X9128673Y-2033188D01*
X8995225Y-2117037D01*
X8867037Y-2245225D01*
X8770583Y-2398733D01*
X8737043Y-2494585D01*
X8710707Y-2569849D01*
X8690409Y-2750000D01*
X8710707Y-2930151D01*
X8710708Y-2930153D01*
X8756002Y-3059597D01*
X8770584Y-3101268D01*
X8818809Y-3178019D01*
X8867037Y-3254774D01*
X8995225Y-3382962D01*
X8995227Y-3382963D01*
X8995228Y-3382964D01*
X9148732Y-3479416D01*
X9319849Y-3539293D01*
X9454816Y-3554500D01*
X9545184Y-3554500D01*
X9680151Y-3539293D01*
X9851268Y-3479416D01*
X10004772Y-3382964D01*
X10132964Y-3254772D01*
X10229416Y-3101268D01*
X10289293Y-2930151D01*
X10309591Y-2750000D01*
X10289293Y-2569849D01*
X10229416Y-2398732D01*
X10132964Y-2245228D01*
X10132963Y-2245227D01*
X10132962Y-2245225D01*
X10004774Y-2117037D01*
X9871327Y-2033188D01*
X9824289Y-1980009D01*
X9813468Y-1909842D01*
X9842300Y-1844964D01*
X9901632Y-1805972D01*
X9938362Y-1800500D01*
X11940507Y-1800500D01*
X11961911Y-1803485D01*
X11971791Y-1804401D01*
X11971792Y-1804400D01*
X11971793Y-1804401D01*
X11981678Y-1803485D01*
X12010995Y-1800769D01*
X12016811Y-1800500D01*
X12027842Y-1800500D01*
X12027844Y-1800500D01*
X12038688Y-1798472D01*
X12044445Y-1797668D01*
X12083660Y-1794035D01*
X12083663Y-1794033D01*
X12093231Y-1791311D01*
X12101142Y-1788659D01*
X12110424Y-1785062D01*
X12110433Y-1785061D01*
X12143913Y-1764330D01*
X12148974Y-1761511D01*
X12184228Y-1743958D01*
X12184230Y-1743954D01*
X12192193Y-1737942D01*
X12198585Y-1732633D01*
X12205947Y-1725922D01*
X12205946Y-1725922D01*
X12205952Y-1725919D01*
X12229687Y-1694486D01*
X12233381Y-1690038D01*
X12259916Y-1660933D01*
X12259917Y-1660930D01*
X12265161Y-1652461D01*
X12269205Y-1645201D01*
X12273653Y-1636267D01*
X12273656Y-1636264D01*
X12284428Y-1598399D01*
X12286277Y-1592884D01*
X12300499Y-1556176D01*
X12302325Y-1546403D01*
X12303485Y-1538091D01*
X12304401Y-1528207D01*
X12300769Y-1489003D01*
X12300500Y-1483188D01*
X12300500Y-426500D01*
X12320502Y-358379D01*
X12374158Y-311886D01*
X12426500Y-300500D01*
X36000000Y-300500D01*
X36000000Y-6300000D01*
X33751936Y-6581008D01*
X33542730Y-6607158D01*
X33472654Y-6595759D01*
X33460775Y-6589260D01*
X33447417Y-6580990D01*
X33447409Y-6580985D01*
X33251526Y-6505100D01*
X33045034Y-6466500D01*
X32834966Y-6466500D01*
X32628474Y-6505100D01*
X32432591Y-6580985D01*
X32432590Y-6580985D01*
X32432589Y-6580986D01*
X32432584Y-6580988D01*
X32253985Y-6691572D01*
X32186069Y-6753486D01*
X32122252Y-6784596D01*
X32116814Y-6785397D01*
X32000003Y-6799999D01*
X31999994Y-6800000D01*
X31261482Y-6892314D01*
X31249027Y-6874527D01*
X31249024Y-6874527D01*
X31226915Y-6896635D01*
X31200000Y-6900000D01*
X31196635Y-6926915D01*
X30780704Y-7342848D01*
X30718392Y-7376874D01*
X30647577Y-7371809D01*
X30590741Y-7329262D01*
X30585611Y-7321873D01*
X30551762Y-7269203D01*
X30524093Y-7245228D01*
X30443100Y-7175048D01*
X30443098Y-7175047D01*
X30437314Y-7170035D01*
X30398930Y-7110309D01*
X30398930Y-7039313D01*
X30430730Y-6985715D01*
X30895471Y-6520972D01*
X30895471Y-6520971D01*
X30822486Y-6469867D01*
X30616328Y-6373734D01*
X30616323Y-6373732D01*
X30396602Y-6314859D01*
X30169999Y-6295034D01*
X29943397Y-6314859D01*
X29723676Y-6373732D01*
X29723672Y-6373734D01*
X29517515Y-6469867D01*
X29444526Y-6520973D01*
X29909268Y-6985715D01*
X29943294Y-7048027D01*
X29938229Y-7118842D01*
X29902685Y-7170035D01*
X29788238Y-7269202D01*
X29754388Y-7321875D01*
X29700732Y-7368368D01*
X29630458Y-7378471D01*
X29565877Y-7348978D01*
X29559294Y-7342849D01*
X29090972Y-6874526D01*
X29039867Y-6947515D01*
X28943734Y-7153672D01*
X28943732Y-7153676D01*
X28884859Y-7373397D01*
X28865034Y-7600000D01*
X28884859Y-7826602D01*
X28943732Y-8046323D01*
X28943734Y-8046328D01*
X29039867Y-8252486D01*
X29090972Y-8325471D01*
X29559293Y-7857150D01*
X29621606Y-7823125D01*
X29692421Y-7828189D01*
X29749257Y-7870736D01*
X29754387Y-7878124D01*
X29787823Y-7930151D01*
X29788239Y-7930798D01*
X29896900Y-8024952D01*
X29896901Y-8024952D01*
X29902684Y-8029963D01*
X29941068Y-8089689D01*
X29941068Y-8160685D01*
X29909268Y-8214283D01*
X29444527Y-8679026D01*
X29444527Y-8679027D01*
X29517513Y-8730132D01*
X29723671Y-8826265D01*
X29723676Y-8826267D01*
X29943397Y-8885140D01*
X30034527Y-8893113D01*
X30100645Y-8918976D01*
X30142285Y-8976479D01*
X30146226Y-9047367D01*
X30126349Y-9082433D01*
X29607075Y-9428616D01*
X29437483Y-9309866D01*
X29231328Y-9213734D01*
X29231323Y-9213732D01*
X29011602Y-9154859D01*
X28785000Y-9135034D01*
X28558397Y-9154859D01*
X28338676Y-9213732D01*
X28338672Y-9213734D01*
X28132515Y-9309867D01*
X28059526Y-9360973D01*
X28524268Y-9825715D01*
X28558294Y-9888027D01*
X28553229Y-9958842D01*
X28517685Y-10010035D01*
X28403238Y-10109202D01*
X28369388Y-10161875D01*
X28315732Y-10208368D01*
X28245458Y-10218471D01*
X28180877Y-10188978D01*
X28174294Y-10182849D01*
X27705972Y-9714526D01*
X27654867Y-9787515D01*
X27558734Y-9993672D01*
X27558732Y-9993676D01*
X27499859Y-10213397D01*
X27480034Y-10440000D01*
X27499859Y-10666602D01*
X27558732Y-10886323D01*
X27558734Y-10886328D01*
X27654867Y-11092486D01*
X27705972Y-11165471D01*
X28174293Y-10697150D01*
X28236606Y-10663125D01*
X28307421Y-10668189D01*
X28364257Y-10710736D01*
X28369387Y-10718124D01*
X28403238Y-10770797D01*
X28403239Y-10770798D01*
X28511900Y-10864952D01*
X28511901Y-10864952D01*
X28517684Y-10869963D01*
X28556068Y-10929689D01*
X28556068Y-11000685D01*
X28524268Y-11054283D01*
X28059527Y-11519026D01*
X28059527Y-11519027D01*
X28132513Y-11570132D01*
X28338671Y-11666265D01*
X28338676Y-11666267D01*
X28558397Y-11725140D01*
X28785000Y-11744965D01*
X29011602Y-11725140D01*
X29231323Y-11666267D01*
X29231327Y-11666265D01*
X29320750Y-11624567D01*
X29390941Y-11613906D01*
X29455754Y-11642886D01*
X29494611Y-11702305D01*
X29500000Y-11738762D01*
X29500000Y-12497748D01*
X29499839Y-12502244D01*
X29480285Y-12775645D01*
X29477726Y-12793439D01*
X29420902Y-13054654D01*
X29415838Y-13071904D01*
X29322413Y-13322386D01*
X29314945Y-13338738D01*
X29186824Y-13573374D01*
X29177104Y-13588498D01*
X29016897Y-13802509D01*
X29005124Y-13816095D01*
X28816095Y-14005124D01*
X28802509Y-14016897D01*
X28588498Y-14177104D01*
X28573374Y-14186824D01*
X28338738Y-14314945D01*
X28322386Y-14322413D01*
X28071904Y-14415838D01*
X28054654Y-14420902D01*
X27793439Y-14477726D01*
X27775645Y-14480285D01*
X27502244Y-14499839D01*
X27497748Y-14500000D01*
X20038297Y-14500000D01*
X19970176Y-14479998D01*
X19960656Y-14473170D01*
X19820269Y-14384959D01*
X19820267Y-14384958D01*
X19664252Y-14330366D01*
X19500000Y-14311859D01*
X19335748Y-14330366D01*
X19335745Y-14330366D01*
X19335745Y-14330367D01*
X19179732Y-14384958D01*
X19179730Y-14384959D01*
X19039776Y-14472898D01*
X19036602Y-14475429D01*
X19034165Y-14476423D01*
X19033786Y-14476662D01*
X19033744Y-14476595D01*
X18976400Y-14500000D01*
X17500000Y-14500000D01*
X17500000Y-15999999D01*
X17500000Y-16000000D01*
X17482310Y-16224766D01*
X17479217Y-16244294D01*
X17428899Y-16453883D01*
X17422789Y-16472687D01*
X17340303Y-16671827D01*
X17331326Y-16689444D01*
X17218706Y-16873222D01*
X17207085Y-16889217D01*
X17067100Y-17053119D01*
X17053119Y-17067100D01*
X16889217Y-17207085D01*
X16873222Y-17218706D01*
X16689444Y-17331326D01*
X16671827Y-17340303D01*
X16472687Y-17422789D01*
X16453883Y-17428899D01*
X16244294Y-17479217D01*
X16224766Y-17482310D01*
X16002463Y-17499806D01*
X15997518Y-17500000D01*
X2002252Y-17500000D01*
X1997756Y-17499839D01*
X1724354Y-17480285D01*
X1706560Y-17477726D01*
X1445345Y-17420902D01*
X1428095Y-17415838D01*
X1177613Y-17322413D01*
X1161261Y-17314945D01*
X926625Y-17186824D01*
X911501Y-17177104D01*
X697490Y-17016897D01*
X683904Y-17005124D01*
X494875Y-16816095D01*
X483102Y-16802509D01*
X398462Y-16689444D01*
X325630Y-16592152D01*
X300820Y-16525634D01*
X300500Y-16516673D01*
X300500Y-10850000D01*
X9936537Y-10850000D01*
X9956347Y-11063789D01*
X10015100Y-11270283D01*
X10015103Y-11270291D01*
X10110804Y-11462484D01*
X10192096Y-11570132D01*
X10240191Y-11633821D01*
X10398854Y-11778462D01*
X10398856Y-11778463D01*
X10398857Y-11778464D01*
X10581400Y-11891489D01*
X10581408Y-11891492D01*
X10781598Y-11969047D01*
X10781603Y-11969049D01*
X10992649Y-12008500D01*
X10992651Y-12008500D01*
X11207349Y-12008500D01*
X11207351Y-12008500D01*
X11418397Y-11969049D01*
X11618600Y-11891489D01*
X11801143Y-11778464D01*
X11959810Y-11633820D01*
X12089196Y-11462484D01*
X12184897Y-11270291D01*
X12243653Y-11063786D01*
X12263463Y-10850000D01*
X12243653Y-10636214D01*
X12184897Y-10429709D01*
X12089196Y-10237516D01*
X11959810Y-10066180D01*
X11880277Y-9993676D01*
X11801145Y-9921537D01*
X11670637Y-9840731D01*
X11618600Y-9808511D01*
X11618598Y-9808510D01*
X11618591Y-9808507D01*
X11418401Y-9730952D01*
X11418402Y-9730952D01*
X11418397Y-9730951D01*
X11207351Y-9691500D01*
X10992649Y-9691500D01*
X10869470Y-9714526D01*
X10781597Y-9730952D01*
X10581408Y-9808507D01*
X10581401Y-9808510D01*
X10398854Y-9921537D01*
X10240191Y-10066178D01*
X10110805Y-10237514D01*
X10015103Y-10429708D01*
X10015100Y-10429716D01*
X9956347Y-10636210D01*
X9936537Y-10850000D01*
X300500Y-10850000D01*
X300500Y-7750000D01*
X4736537Y-7750000D01*
X4756347Y-7963789D01*
X4815100Y-8170283D01*
X4815103Y-8170291D01*
X4910804Y-8362484D01*
X4999107Y-8479416D01*
X5040191Y-8533821D01*
X5198854Y-8678462D01*
X5198856Y-8678463D01*
X5198857Y-8678464D01*
X5381400Y-8791489D01*
X5381408Y-8791492D01*
X5581598Y-8869047D01*
X5581603Y-8869049D01*
X5792649Y-8908500D01*
X5792651Y-8908500D01*
X6007349Y-8908500D01*
X6007351Y-8908500D01*
X6218397Y-8869049D01*
X6418600Y-8791489D01*
X6601143Y-8678464D01*
X6759810Y-8533820D01*
X6889196Y-8362484D01*
X6984897Y-8170291D01*
X7043653Y-7963786D01*
X7063463Y-7750000D01*
X8690409Y-7750000D01*
X8710707Y-7930151D01*
X8722477Y-7963786D01*
X8764779Y-8084680D01*
X8770584Y-8101268D01*
X8785558Y-8125099D01*
X8867037Y-8254774D01*
X8995225Y-8382962D01*
X8995227Y-8382963D01*
X8995228Y-8382964D01*
X9148732Y-8479416D01*
X9319849Y-8539293D01*
X9454816Y-8554500D01*
X9545184Y-8554500D01*
X9680151Y-8539293D01*
X9851268Y-8479416D01*
X10004772Y-8382964D01*
X10132964Y-8254772D01*
X10229416Y-8101268D01*
X10289293Y-7930151D01*
X10309591Y-7750000D01*
X10289293Y-7569849D01*
X10229416Y-7398732D01*
X10132964Y-7245228D01*
X10132963Y-7245227D01*
X10132962Y-7245225D01*
X10004774Y-7117037D01*
X9851266Y-7020583D01*
X9751619Y-6985715D01*
X9680151Y-6960707D01*
X9545184Y-6945500D01*
X9454816Y-6945500D01*
X9319849Y-6960707D01*
X9319846Y-6960707D01*
X9319846Y-6960708D01*
X9148733Y-7020583D01*
X8995225Y-7117037D01*
X8867037Y-7245225D01*
X8770583Y-7398733D01*
X8710708Y-7569846D01*
X8710707Y-7569849D01*
X8690409Y-7750000D01*
X7063463Y-7750000D01*
X7043653Y-7536214D01*
X7041347Y-7528111D01*
X6984899Y-7329716D01*
X6984898Y-7329715D01*
X6984897Y-7329709D01*
X6889196Y-7137516D01*
X6759810Y-6966180D01*
X6759808Y-6966178D01*
X6601145Y-6821537D01*
X6418598Y-6708510D01*
X6418591Y-6708507D01*
X6218401Y-6630952D01*
X6218402Y-6630952D01*
X6218397Y-6630951D01*
X6007351Y-6591500D01*
X5792649Y-6591500D01*
X5633390Y-6621270D01*
X5581597Y-6630952D01*
X5381408Y-6708507D01*
X5381401Y-6708510D01*
X5198854Y-6821537D01*
X5040191Y-6966178D01*
X4910805Y-7137514D01*
X4815103Y-7329708D01*
X4815100Y-7329716D01*
X4756347Y-7536210D01*
X4736537Y-7750000D01*
X300500Y-7750000D01*
X300500Y-2749999D01*
X3669939Y-2749999D01*
X3690146Y-2980966D01*
X3750150Y-3204906D01*
X3750152Y-3204911D01*
X3848133Y-3415031D01*
X3903023Y-3493422D01*
X4349572Y-3046872D01*
X4411885Y-3012847D01*
X4482700Y-3017911D01*
X4539536Y-3060458D01*
X4541606Y-3063305D01*
X4546442Y-3070155D01*
X4546442Y-3070156D01*
X4649638Y-3180652D01*
X4682522Y-3200649D01*
X4730333Y-3253132D01*
X4742180Y-3323133D01*
X4714300Y-3388427D01*
X4706151Y-3397401D01*
X4256576Y-3846976D01*
X4256576Y-3846977D01*
X4334965Y-3901865D01*
X4545088Y-3999847D01*
X4545093Y-3999849D01*
X4769033Y-4059853D01*
X5000000Y-4080060D01*
X5230966Y-4059853D01*
X5454906Y-3999849D01*
X5454911Y-3999847D01*
X5665029Y-3901867D01*
X5665031Y-3901866D01*
X5743422Y-3846977D01*
X5743422Y-3846975D01*
X5510530Y-3614084D01*
X13141500Y-3614084D01*
X13147893Y-3662645D01*
X13147894Y-3662648D01*
X13197598Y-3769239D01*
X13197599Y-3769239D01*
X13197599Y-3769240D01*
X13197599Y-3769241D01*
X13280758Y-3852400D01*
X13280759Y-3852400D01*
X13280761Y-3852402D01*
X13387352Y-3902106D01*
X13435920Y-3908500D01*
X13590500Y-3908500D01*
X13658621Y-3928502D01*
X13705114Y-3982158D01*
X13716500Y-4034500D01*
X13716500Y-8313659D01*
X13697188Y-8380693D01*
X13675789Y-8414751D01*
X13634956Y-8479736D01*
X13586222Y-8619013D01*
X13580366Y-8635748D01*
X13561859Y-8800000D01*
X13580366Y-8964252D01*
X13599872Y-9019996D01*
X13634958Y-9120267D01*
X13634959Y-9120269D01*
X13722897Y-9260223D01*
X13839776Y-9377102D01*
X13909618Y-9420986D01*
X13979733Y-9465042D01*
X14135748Y-9519634D01*
X14300000Y-9538141D01*
X14464252Y-9519634D01*
X14620267Y-9465042D01*
X14760223Y-9377102D01*
X14877102Y-9260223D01*
X14965042Y-9120267D01*
X15000126Y-9020003D01*
X16716493Y-9020003D01*
X16736498Y-9325231D01*
X16736500Y-9325245D01*
X16760473Y-9445761D01*
X16791336Y-9600920D01*
X16796176Y-9625248D01*
X16796178Y-9625258D01*
X16894498Y-9914900D01*
X16894504Y-9914914D01*
X17029792Y-10189251D01*
X17199731Y-10443584D01*
X17199734Y-10443588D01*
X17401425Y-10673574D01*
X17547063Y-10801294D01*
X17631407Y-10875262D01*
X17631409Y-10875263D01*
X17631411Y-10875265D01*
X17631415Y-10875268D01*
X17728294Y-10940000D01*
X17885746Y-11045206D01*
X18160092Y-11180499D01*
X18449750Y-11278824D01*
X18749764Y-11338501D01*
X18901238Y-11348429D01*
X19054997Y-11358507D01*
X19055000Y-11358507D01*
X19055003Y-11358507D01*
X19169463Y-11351004D01*
X19360236Y-11338501D01*
X19660250Y-11278824D01*
X19949908Y-11180499D01*
X20224254Y-11045206D01*
X20478593Y-10875262D01*
X20708574Y-10673574D01*
X20910262Y-10443593D01*
X20912660Y-10440004D01*
X24876644Y-10440004D01*
X24896026Y-10649170D01*
X24909677Y-10697150D01*
X24953515Y-10851222D01*
X25047150Y-11039267D01*
X25047151Y-11039268D01*
X25173741Y-11206901D01*
X25173744Y-11206903D01*
X25173745Y-11206905D01*
X25252635Y-11278823D01*
X25328988Y-11348429D01*
X25328990Y-11348430D01*
X25507584Y-11459011D01*
X25507585Y-11459011D01*
X25507591Y-11459015D01*
X25703474Y-11534900D01*
X25909966Y-11573500D01*
X25909969Y-11573500D01*
X26120031Y-11573500D01*
X26120034Y-11573500D01*
X26326526Y-11534900D01*
X26522409Y-11459015D01*
X26701013Y-11348428D01*
X26856255Y-11206905D01*
X26982850Y-11039267D01*
X27076485Y-10851222D01*
X27133973Y-10649172D01*
X27140434Y-10579447D01*
X27153356Y-10440004D01*
X27153356Y-10439995D01*
X27134593Y-10237516D01*
X27133973Y-10230828D01*
X27076485Y-10028778D01*
X26982850Y-9840733D01*
X26899946Y-9730951D01*
X26856258Y-9673098D01*
X26701011Y-9531570D01*
X26701009Y-9531569D01*
X26522415Y-9420988D01*
X26522411Y-9420986D01*
X26522409Y-9420985D01*
X26326526Y-9345100D01*
X26120034Y-9306500D01*
X25909966Y-9306500D01*
X25703474Y-9345100D01*
X25507591Y-9420985D01*
X25507590Y-9420985D01*
X25507589Y-9420986D01*
X25507584Y-9420988D01*
X25328990Y-9531569D01*
X25328988Y-9531570D01*
X25173741Y-9673098D01*
X25047151Y-9840731D01*
X24953515Y-10028778D01*
X24953512Y-10028786D01*
X24896026Y-10230829D01*
X24876644Y-10439995D01*
X24876644Y-10440004D01*
X20912660Y-10440004D01*
X21080206Y-10189254D01*
X21215499Y-9914908D01*
X21313824Y-9625250D01*
X21373501Y-9325236D01*
X21393507Y-9020000D01*
X21385190Y-8893113D01*
X21380809Y-8826265D01*
X21373501Y-8714764D01*
X21313824Y-8414750D01*
X21303033Y-8382962D01*
X21215501Y-8125099D01*
X21215499Y-8125092D01*
X21080206Y-7850747D01*
X20912665Y-7600004D01*
X26261644Y-7600004D01*
X26281026Y-7809170D01*
X26294677Y-7857150D01*
X26338515Y-8011222D01*
X26432150Y-8199267D01*
X26432151Y-8199268D01*
X26558741Y-8366901D01*
X26713988Y-8508429D01*
X26713990Y-8508430D01*
X26892584Y-8619011D01*
X26892585Y-8619011D01*
X26892591Y-8619015D01*
X27088474Y-8694900D01*
X27294966Y-8733500D01*
X27294969Y-8733500D01*
X27505031Y-8733500D01*
X27505034Y-8733500D01*
X27711526Y-8694900D01*
X27907409Y-8619015D01*
X28086013Y-8508428D01*
X28241255Y-8366905D01*
X28367850Y-8199267D01*
X28461485Y-8011222D01*
X28518973Y-7809172D01*
X28525434Y-7739447D01*
X28538356Y-7600004D01*
X28538356Y-7599995D01*
X28522203Y-7425690D01*
X28518973Y-7390828D01*
X28461485Y-7188778D01*
X28367850Y-7000733D01*
X28291780Y-6900000D01*
X28241258Y-6833098D01*
X28228576Y-6821537D01*
X28104590Y-6708507D01*
X28086011Y-6691570D01*
X28086009Y-6691569D01*
X27907415Y-6580988D01*
X27907411Y-6580986D01*
X27907409Y-6580985D01*
X27711526Y-6505100D01*
X27505034Y-6466500D01*
X27294966Y-6466500D01*
X27088474Y-6505100D01*
X26892591Y-6580985D01*
X26892590Y-6580985D01*
X26892589Y-6580986D01*
X26892584Y-6580988D01*
X26713990Y-6691569D01*
X26713988Y-6691570D01*
X26558741Y-6833098D01*
X26432151Y-7000731D01*
X26338515Y-7188778D01*
X26338512Y-7188786D01*
X26281026Y-7390829D01*
X26261644Y-7599995D01*
X26261644Y-7600004D01*
X20912665Y-7600004D01*
X20910262Y-7596407D01*
X20708574Y-7366426D01*
X20708571Y-7366424D01*
X20708570Y-7366422D01*
X20478588Y-7164734D01*
X20478584Y-7164731D01*
X20224251Y-6994792D01*
X19949914Y-6859504D01*
X19949908Y-6859501D01*
X19949903Y-6859499D01*
X19949900Y-6859498D01*
X19660258Y-6761178D01*
X19660252Y-6761176D01*
X19660250Y-6761176D01*
X19559789Y-6741193D01*
X19360245Y-6701500D01*
X19360231Y-6701498D01*
X19055003Y-6681493D01*
X19054997Y-6681493D01*
X18749768Y-6701498D01*
X18749754Y-6701500D01*
X18499980Y-6751184D01*
X18449750Y-6761176D01*
X18449748Y-6761176D01*
X18449741Y-6761178D01*
X18160099Y-6859498D01*
X18160091Y-6859501D01*
X17885741Y-6994797D01*
X17631409Y-7164736D01*
X17401426Y-7366426D01*
X17199736Y-7596409D01*
X17029797Y-7850741D01*
X16894501Y-8125091D01*
X16894498Y-8125099D01*
X16796178Y-8414741D01*
X16796176Y-8414751D01*
X16736500Y-8714754D01*
X16736498Y-8714768D01*
X16716493Y-9019996D01*
X16716493Y-9020003D01*
X15000126Y-9020003D01*
X15019634Y-8964252D01*
X15038141Y-8800000D01*
X15019634Y-8635748D01*
X14965042Y-8479733D01*
X14902811Y-8380693D01*
X14883500Y-8313659D01*
X14883500Y-4034500D01*
X14903502Y-3966379D01*
X14957158Y-3919886D01*
X15009500Y-3908500D01*
X15164073Y-3908500D01*
X15164080Y-3908500D01*
X15212648Y-3902106D01*
X15319239Y-3852402D01*
X15402402Y-3769239D01*
X15452106Y-3662648D01*
X15458500Y-3614080D01*
X15458500Y-1885920D01*
X15452106Y-1837352D01*
X15402402Y-1730761D01*
X15402400Y-1730759D01*
X15402400Y-1730758D01*
X15319241Y-1647599D01*
X15314098Y-1645201D01*
X15212648Y-1597894D01*
X15212645Y-1597893D01*
X15164084Y-1591500D01*
X15164080Y-1591500D01*
X13435920Y-1591500D01*
X13435915Y-1591500D01*
X13387354Y-1597893D01*
X13387351Y-1597894D01*
X13280759Y-1647599D01*
X13280758Y-1647599D01*
X13197599Y-1730758D01*
X13197599Y-1730759D01*
X13147894Y-1837351D01*
X13147893Y-1837354D01*
X13141500Y-1885915D01*
X13141500Y-3614084D01*
X5510530Y-3614084D01*
X5294733Y-3398287D01*
X5260708Y-3335974D01*
X5265772Y-3265159D01*
X5304312Y-3211451D01*
X5405735Y-3128937D01*
X5405739Y-3128934D01*
X5454683Y-3059594D01*
X5510306Y-3015479D01*
X5580952Y-3008437D01*
X5644191Y-3040708D01*
X5646715Y-3043163D01*
X6096974Y-3493422D01*
X6096977Y-3493422D01*
X6151866Y-3415031D01*
X6151867Y-3415029D01*
X6249847Y-3204911D01*
X6249849Y-3204906D01*
X6309853Y-2980966D01*
X6330060Y-2749999D01*
X6309853Y-2519033D01*
X6249849Y-2295093D01*
X6249847Y-2295089D01*
X6151867Y-2084970D01*
X6096975Y-2006577D01*
X6096973Y-2006577D01*
X5650425Y-2453126D01*
X5588113Y-2487152D01*
X5517298Y-2482087D01*
X5460462Y-2439540D01*
X5458390Y-2436690D01*
X5453557Y-2429842D01*
X5350360Y-2319346D01*
X5317476Y-2299349D01*
X5269665Y-2246865D01*
X5257819Y-2176863D01*
X5285699Y-2111570D01*
X5293848Y-2102596D01*
X5743422Y-1653023D01*
X5665031Y-1598133D01*
X5454911Y-1500152D01*
X5454906Y-1500150D01*
X5230966Y-1440146D01*
X4999999Y-1419939D01*
X4769033Y-1440146D01*
X4545093Y-1500150D01*
X4545089Y-1500152D01*
X4334966Y-1598134D01*
X4256577Y-1653022D01*
X4256577Y-1653024D01*
X4705266Y-2101713D01*
X4739292Y-2164025D01*
X4734227Y-2234840D01*
X4695688Y-2288547D01*
X4594265Y-2371060D01*
X4594261Y-2371064D01*
X4545317Y-2440404D01*
X4489692Y-2484521D01*
X4419046Y-2491563D01*
X4355807Y-2459292D01*
X4353284Y-2456837D01*
X3903024Y-2006577D01*
X3903022Y-2006577D01*
X3848134Y-2084966D01*
X3750152Y-2295089D01*
X3750150Y-2295093D01*
X3690146Y-2519033D01*
X3669939Y-2749999D01*
X300500Y-2749999D01*
X300500Y-2002250D01*
X300661Y-1997755D01*
X312132Y-1837354D01*
X317155Y-1767117D01*
X319714Y-1749327D01*
X323346Y-1732633D01*
X367427Y-1529995D01*
X372485Y-1512767D01*
X450934Y-1302434D01*
X458395Y-1286098D01*
X565973Y-1089086D01*
X575690Y-1073967D01*
X710211Y-894267D01*
X721971Y-880696D01*
X880696Y-721971D01*
X894267Y-710211D01*
X1073970Y-575688D01*
X1089086Y-565973D01*
X1286098Y-458395D01*
X1302434Y-450934D01*
X1512767Y-372485D01*
X1529995Y-367427D01*
X1749331Y-319713D01*
X1767117Y-317155D01*
X1856953Y-310730D01*
X1997756Y-300661D01*
X2002252Y-300500D01*
X2047595Y-300500D01*
X6573500Y-300500D01*
X6641621Y-320502D01*
G37*
%TD.AperFunction*%
%TD*%
%TA.AperFunction,Conductor*%
%TO.N,GND*%
G36*
X51002208Y-300657D02*
G01*
X51233020Y-317165D01*
X51250529Y-319683D01*
X51470144Y-367458D01*
X51487103Y-372437D01*
X51697694Y-450983D01*
X51713777Y-458327D01*
X51911036Y-566040D01*
X51925919Y-575605D01*
X52105836Y-710289D01*
X52119207Y-721875D01*
X52278124Y-880792D01*
X52289710Y-894163D01*
X52424394Y-1074080D01*
X52433959Y-1088963D01*
X52541669Y-1286217D01*
X52549019Y-1302311D01*
X52627559Y-1512887D01*
X52632543Y-1529862D01*
X52680316Y-1749470D01*
X52682834Y-1766982D01*
X52699342Y-1997788D01*
X52699500Y-2002212D01*
X52699500Y-36997786D01*
X52699342Y-37002210D01*
X52682834Y-37233017D01*
X52680316Y-37250529D01*
X52632543Y-37470137D01*
X52627559Y-37487112D01*
X52549019Y-37697688D01*
X52541669Y-37713782D01*
X52433959Y-37911036D01*
X52424394Y-37925919D01*
X52289710Y-38105836D01*
X52278124Y-38119207D01*
X52119207Y-38278124D01*
X52105836Y-38289710D01*
X51925919Y-38424394D01*
X51911036Y-38433959D01*
X51713782Y-38541669D01*
X51697688Y-38549019D01*
X51487112Y-38627559D01*
X51470137Y-38632543D01*
X51250529Y-38680316D01*
X51233017Y-38682834D01*
X51019172Y-38698128D01*
X51002208Y-38699342D01*
X50997786Y-38699500D01*
X30982690Y-38699500D01*
X30915651Y-38679815D01*
X30908379Y-38674767D01*
X30697375Y-38516811D01*
X30684005Y-38505225D01*
X30494774Y-38315994D01*
X30483188Y-38302624D01*
X30473521Y-38289710D01*
X30322802Y-38088375D01*
X30313244Y-38073501D01*
X30184987Y-37838616D01*
X30177638Y-37822524D01*
X30137079Y-37713782D01*
X30084108Y-37571762D01*
X30079129Y-37554803D01*
X30022241Y-37293291D01*
X30019724Y-37275785D01*
X30016665Y-37233017D01*
X30000157Y-37002208D01*
X30000000Y-36997786D01*
X30000000Y-32400005D01*
X45519859Y-32400005D01*
X45540385Y-32647729D01*
X45540387Y-32647738D01*
X45601412Y-32888717D01*
X45701266Y-33116364D01*
X45801564Y-33269882D01*
X46416050Y-32655395D01*
X46477373Y-32621910D01*
X46547064Y-32626894D01*
X46602998Y-32668765D01*
X46608039Y-32676025D01*
X46608048Y-32676039D01*
X46643239Y-32730798D01*
X46758602Y-32830759D01*
X46756293Y-32833422D01*
X46791006Y-32873499D01*
X46800935Y-32942660D01*
X46771898Y-33006210D01*
X46765882Y-33012669D01*
X46154942Y-33623609D01*
X46201768Y-33660055D01*
X46201770Y-33660056D01*
X46420385Y-33778364D01*
X46420396Y-33778369D01*
X46655506Y-33859083D01*
X46900707Y-33900000D01*
X47149293Y-33900000D01*
X47394493Y-33859083D01*
X47629603Y-33778369D01*
X47629614Y-33778364D01*
X47848228Y-33660057D01*
X47848231Y-33660055D01*
X47895056Y-33623609D01*
X47284116Y-33012669D01*
X47250631Y-32951346D01*
X47255615Y-32881654D01*
X47292641Y-32832193D01*
X47291398Y-32830759D01*
X47298100Y-32824952D01*
X47406761Y-32730798D01*
X47441954Y-32676037D01*
X47494755Y-32630283D01*
X47563914Y-32620339D01*
X47627470Y-32649363D01*
X47633949Y-32655396D01*
X48248434Y-33269882D01*
X48348731Y-33116369D01*
X48448587Y-32888717D01*
X48509612Y-32647738D01*
X48509614Y-32647729D01*
X48530141Y-32400005D01*
X48530141Y-32399994D01*
X48509614Y-32152270D01*
X48509612Y-32152261D01*
X48448587Y-31911282D01*
X48348731Y-31683630D01*
X48248434Y-31530116D01*
X47633949Y-32144602D01*
X47572626Y-32178087D01*
X47502934Y-32173103D01*
X47447001Y-32131231D01*
X47441953Y-32123961D01*
X47406761Y-32069202D01*
X47291398Y-31969241D01*
X47293698Y-31966585D01*
X47258960Y-31926428D01*
X47249074Y-31857261D01*
X47278152Y-31793729D01*
X47284116Y-31787329D01*
X47895056Y-31176389D01*
X47848229Y-31139943D01*
X47629614Y-31021635D01*
X47629603Y-31021630D01*
X47394493Y-30940916D01*
X47149293Y-30900000D01*
X46900707Y-30900000D01*
X46655506Y-30940916D01*
X46420396Y-31021630D01*
X46420390Y-31021632D01*
X46201761Y-31139949D01*
X46154942Y-31176388D01*
X46154942Y-31176390D01*
X46765883Y-31787330D01*
X46799368Y-31848653D01*
X46794384Y-31918344D01*
X46757358Y-31967805D01*
X46758602Y-31969241D01*
X46643238Y-32069202D01*
X46608046Y-32123962D01*
X46555242Y-32169717D01*
X46486083Y-32179660D01*
X46422528Y-32150634D01*
X46416050Y-32144603D01*
X45801564Y-31530116D01*
X45701267Y-31683632D01*
X45601412Y-31911282D01*
X45540387Y-32152261D01*
X45540385Y-32152270D01*
X45519859Y-32399994D01*
X45519859Y-32400005D01*
X30000000Y-32400005D01*
X30000000Y-27830464D01*
X30000133Y-27826408D01*
X30016844Y-27571428D01*
X30017901Y-27563393D01*
X30067354Y-27314777D01*
X30069455Y-27306938D01*
X30150939Y-27066893D01*
X30154031Y-27059429D01*
X30266155Y-26832063D01*
X30270203Y-26825053D01*
X30411041Y-26614273D01*
X30415962Y-26607860D01*
X30584469Y-26415715D01*
X30587209Y-26412790D01*
X34599995Y-22400005D01*
X47669357Y-22400005D01*
X47689890Y-22647812D01*
X47689892Y-22647824D01*
X47750936Y-22888881D01*
X47850826Y-23116606D01*
X47986833Y-23324782D01*
X47986836Y-23324785D01*
X48155256Y-23507738D01*
X48351491Y-23660474D01*
X48570190Y-23778828D01*
X48805386Y-23859571D01*
X49050665Y-23900500D01*
X49299335Y-23900500D01*
X49544614Y-23859571D01*
X49779810Y-23778828D01*
X49998509Y-23660474D01*
X50194744Y-23507738D01*
X50363164Y-23324785D01*
X50499173Y-23116607D01*
X50599063Y-22888881D01*
X50660108Y-22647821D01*
X50680643Y-22400000D01*
X50660108Y-22152179D01*
X50599063Y-21911119D01*
X50499173Y-21683393D01*
X50499173Y-21683392D01*
X50363166Y-21475217D01*
X50341557Y-21451744D01*
X50194744Y-21292262D01*
X49998509Y-21139526D01*
X49998507Y-21139525D01*
X49998506Y-21139524D01*
X49779811Y-21021172D01*
X49779802Y-21021169D01*
X49544616Y-20940429D01*
X49299335Y-20899500D01*
X49050665Y-20899500D01*
X48805383Y-20940429D01*
X48570197Y-21021169D01*
X48570188Y-21021172D01*
X48351493Y-21139524D01*
X48155257Y-21292261D01*
X47986833Y-21475217D01*
X47850826Y-21683393D01*
X47750936Y-21911118D01*
X47689892Y-22152175D01*
X47689890Y-22152187D01*
X47669357Y-22399994D01*
X47669357Y-22400005D01*
X34599995Y-22400005D01*
X37914214Y-19085786D01*
X37914213Y-19085785D01*
X37914220Y-19085780D01*
X37914219Y-19085780D01*
X37914226Y-19085771D01*
X38500000Y-18500000D01*
X38500000Y-13000000D01*
X36972946Y-12083767D01*
X36969159Y-12081301D01*
X36805377Y-11965849D01*
X36761924Y-11911135D01*
X36754950Y-11841614D01*
X36786669Y-11779359D01*
X36847010Y-11744135D01*
X36876814Y-11740499D01*
X37942872Y-11740499D01*
X38002483Y-11734091D01*
X38137331Y-11683796D01*
X38252546Y-11597546D01*
X38338796Y-11482331D01*
X38389091Y-11347483D01*
X38395500Y-11287873D01*
X38395499Y-9592128D01*
X38389091Y-9532517D01*
X38338796Y-9397669D01*
X38338795Y-9397668D01*
X38338793Y-9397664D01*
X38252547Y-9282455D01*
X38252544Y-9282452D01*
X38137335Y-9196206D01*
X38137328Y-9196202D01*
X38002482Y-9145908D01*
X38002483Y-9145908D01*
X37942883Y-9139501D01*
X37942881Y-9139500D01*
X37942873Y-9139500D01*
X37942864Y-9139500D01*
X36247129Y-9139500D01*
X36247123Y-9139501D01*
X36187515Y-9145909D01*
X36167330Y-9153437D01*
X36097638Y-9158419D01*
X36036316Y-9124932D01*
X36002833Y-9063608D01*
X36000000Y-9037254D01*
X36000000Y-9020005D01*
X41549556Y-9020005D01*
X41569310Y-9334004D01*
X41569311Y-9334011D01*
X41581455Y-9397671D01*
X41618549Y-9592127D01*
X41628270Y-9643083D01*
X41725497Y-9942316D01*
X41725499Y-9942321D01*
X41859461Y-10227003D01*
X41859464Y-10227009D01*
X42028051Y-10492661D01*
X42028054Y-10492665D01*
X42228606Y-10735090D01*
X42228608Y-10735092D01*
X42457968Y-10950476D01*
X42457978Y-10950484D01*
X42712504Y-11135408D01*
X42712509Y-11135410D01*
X42712516Y-11135416D01*
X42988234Y-11286994D01*
X42988239Y-11286996D01*
X42988241Y-11286997D01*
X42988242Y-11286998D01*
X43280771Y-11402818D01*
X43280774Y-11402819D01*
X43585523Y-11481065D01*
X43585527Y-11481066D01*
X43651010Y-11489338D01*
X43897670Y-11520499D01*
X43897679Y-11520499D01*
X43897682Y-11520500D01*
X43897684Y-11520500D01*
X44212316Y-11520500D01*
X44212318Y-11520500D01*
X44212321Y-11520499D01*
X44212329Y-11520499D01*
X44398593Y-11496968D01*
X44524473Y-11481066D01*
X44829225Y-11402819D01*
X44829228Y-11402818D01*
X45121757Y-11286998D01*
X45121758Y-11286997D01*
X45121756Y-11286997D01*
X45121766Y-11286994D01*
X45397484Y-11135416D01*
X45652030Y-10950478D01*
X45881390Y-10735094D01*
X46081947Y-10492663D01*
X46250537Y-10227007D01*
X46384503Y-9942315D01*
X46481731Y-9643079D01*
X46540688Y-9334015D01*
X46549358Y-9196206D01*
X46560444Y-9020005D01*
X46560444Y-9019994D01*
X46540689Y-8705995D01*
X46540688Y-8705988D01*
X46540688Y-8705985D01*
X46481731Y-8396921D01*
X46384503Y-8097685D01*
X46378383Y-8084680D01*
X46305972Y-7930798D01*
X46250537Y-7812993D01*
X46081947Y-7547337D01*
X46066042Y-7528111D01*
X45881393Y-7304909D01*
X45881391Y-7304907D01*
X45652031Y-7089523D01*
X45652021Y-7089515D01*
X45397495Y-6904591D01*
X45397488Y-6904586D01*
X45397484Y-6904584D01*
X45121766Y-6753006D01*
X45121763Y-6753004D01*
X45121758Y-6753002D01*
X45121757Y-6753001D01*
X44829228Y-6637181D01*
X44829225Y-6637180D01*
X44524476Y-6558934D01*
X44524463Y-6558932D01*
X44212329Y-6519500D01*
X44212318Y-6519500D01*
X43897682Y-6519500D01*
X43897670Y-6519500D01*
X43585536Y-6558932D01*
X43585523Y-6558934D01*
X43280774Y-6637180D01*
X43280771Y-6637181D01*
X42988242Y-6753001D01*
X42988241Y-6753002D01*
X42712516Y-6904584D01*
X42712504Y-6904591D01*
X42457978Y-7089515D01*
X42457968Y-7089523D01*
X42228608Y-7304907D01*
X42228606Y-7304909D01*
X42028054Y-7547334D01*
X42028051Y-7547338D01*
X41859464Y-7812990D01*
X41859461Y-7812996D01*
X41725499Y-8097678D01*
X41725497Y-8097683D01*
X41628270Y-8396916D01*
X41569311Y-8705988D01*
X41569310Y-8705995D01*
X41549556Y-9019994D01*
X41549556Y-9020005D01*
X36000000Y-9020005D01*
X36000000Y-8963820D01*
X36019685Y-8896781D01*
X36072489Y-8851026D01*
X36091905Y-8844045D01*
X36117691Y-8837136D01*
X36156486Y-8826742D01*
X36156489Y-8826740D01*
X36156496Y-8826739D01*
X36362734Y-8730568D01*
X36549139Y-8600047D01*
X36710047Y-8439139D01*
X36840568Y-8252734D01*
X36936739Y-8046496D01*
X36995635Y-7826692D01*
X37015468Y-7600000D01*
X36995635Y-7373308D01*
X36936739Y-7153504D01*
X36840568Y-6947266D01*
X36710047Y-6760861D01*
X36710045Y-6760858D01*
X36549141Y-6599954D01*
X36362734Y-6469432D01*
X36362732Y-6469431D01*
X36156497Y-6373261D01*
X36156488Y-6373258D01*
X36000000Y-6331327D01*
X36000000Y-300500D01*
X50952405Y-300500D01*
X50997786Y-300500D01*
X51002208Y-300657D01*
G37*
%TD.AperFunction*%
%TD*%
M02*
