M48
; DRILL file {KiCad 7.0.7-7.0.7~ubuntu22.04.1} date Sat 02 Sep 2023 03:09:26 PM EDT
; FORMAT={-:-/ absolute / inch / decimal}
; #@! TF.CreationDate,2023-09-02T15:09:26-04:00
; #@! TF.GenerationSoftware,Kicad,Pcbnew,7.0.7-7.0.7~ubuntu22.04.1
; #@! TF.FileFunction,Plated,1,4,PTH
FMAT,2
INCH
; #@! TA.AperFunction,Plated,PTH,ViaDrill
T1C0.0157
; #@! TA.AperFunction,Plated,PTH,ComponentDrill
T2C0.0394
; #@! TA.AperFunction,Plated,PTH,ComponentDrill
T3C0.0433
; #@! TA.AperFunction,Plated,PTH,ComponentDrill
T4C0.1260
%
G90
G05
T1
X0.0591Y-0.0591
X0.0591Y-0.3543
X0.0591Y-0.6496
X0.2362Y-0.0394
X0.2441Y-0.4055
X0.4035Y-0.2402
X0.4843Y-1.2598
X0.4882Y-0.5
X0.5118Y-0.0394
X0.5197Y-1.2953
X0.5315Y-0.6417
X0.5492Y-0.3878
X0.563Y-0.3465
X0.6102Y-0.2382
X0.7087Y-0.4921
X0.7677Y-0.5925
X0.7692Y-0.6358
X0.7874Y-0.0394
X0.9646Y-0.2874
X0.9843Y-1.3031
X1.0236Y-0.4921
X1.0551Y-1.2579
X1.0748Y-1.3681
X1.1811Y-0.0394
X1.2047Y-1.2362
X1.2126Y-1.4764
X1.2205Y-1.0709
X1.2992Y-1.1024
X1.4567Y-0.0394
X1.4665Y-0.8071
X1.4764Y-0.3346
X1.4833Y-1.3012
X1.4862Y-1.0039
X1.4951Y-1.2382
X1.4951Y-1.3602
X1.5059Y-1.4764
X1.5236Y-0.6024
X1.5778Y-1.1732
X1.5787Y-1.437
X1.6447Y-1.1732
X1.6457Y-1.437
X1.7116Y-1.1634
X1.7126Y-1.437
X1.752Y-0.0394
X1.7904Y-1.2382
X1.7904Y-1.3031
X1.7904Y-1.3602
X1.7913Y-1.4764
X1.8012Y-1.0138
X1.8012Y-1.1122
X1.8504Y-0.4823
X1.8819Y-0.2598
X1.9449Y-0.189
X2.0079Y-0.2598
X2.0276Y-0.0591
X2.0276Y-0.4134
X2.0276Y-0.7677
X2.0276Y-1.122
X2.0276Y-1.4764
T2
X0.1878Y-1.2283
X0.189Y-1.4252
X0.2878Y-1.2283
X0.289Y-1.4252
X0.3878Y-1.2283
X0.389Y-1.4252
X0.489Y-1.4252
X0.589Y-1.4252
X0.689Y-1.4252
X1.0242Y-0.411
X1.0787Y-0.2992
X1.1333Y-0.411
X1.1878Y-0.2992
X1.2423Y-0.411
X1.2969Y-0.2992
X1.3514Y-0.411
X1.4059Y-0.2992
X1.4604Y-0.411
X1.8514Y-1.2756
X1.936Y-0.8819
T3
X0.1969Y-0.1083
X0.2323Y-0.3051
X0.437Y-0.4272
X0.563Y-0.1083
T4
X0.7502Y-0.3551
X1.7344Y-0.3551
T0
M30
